<?xml version="1.0" encoding="UTF-8" standalone="no"?>
<!DOCTYPE svg PUBLIC "-//W3C//DTD SVG 1.1//EN"
 "http://www.w3.org/Graphics/SVG/1.1/DTD/svg11.dtd">
<!-- Generated by graphviz version 14.0.5 (20251129.0259)
 -->
<!-- Title: classes Pages: 1 -->
<svg width="1419pt" height="191pt"
 viewBox="0.00 0.00 1419.00 191.00" xmlns="http://www.w3.org/2000/svg" xmlns:xlink="http://www.w3.org/1999/xlink">
<g id="graph0" class="graph" transform="scale(1 1) rotate(0) translate(4 187)">
<title>classes</title>
<polygon fill="white" stroke="none" points="-4,4 -4,-187 1414.62,-187 1414.62,4 -4,4"/>
<!-- QMCSoftware.qmcpy.integrand.abstract_integrand.AbstractIntegrand -->
<g id="node1" class="node">
<title>QMCSoftware.qmcpy.integrand.abstract_integrand.AbstractIntegrand</title>
<polygon fill="none" stroke="black" points="670.62,-146.5 670.62,-182.5 784.12,-182.5 784.12,-146.5 670.62,-146.5"/>
<text xml:space="preserve" text-anchor="start" x="678.62" y="-159.45" font-family="Times,serif" font-size="14.00">AbstractIntegrand</text>
</g>
<!-- QMCSoftware.qmcpy.integrand.financial_option.AsianOption -->
<g id="node2" class="node">
<title>QMCSoftware.qmcpy.integrand.financial_option.AsianOption</title>
<polygon fill="none" stroke="black" points="127.88,-0.5 127.88,-36.5 212.88,-36.5 212.88,-0.5 127.88,-0.5"/>
<text xml:space="preserve" text-anchor="start" x="135.88" y="-13.45" font-family="Times,serif" font-size="14.00">AsianOption</text>
</g>
<!-- QMCSoftware.qmcpy.integrand.financial_option.FinancialOption -->
<g id="node9" class="node">
<title>QMCSoftware.qmcpy.integrand.financial_option.FinancialOption</title>
<polygon fill="none" stroke="black" points="333.5,-73.5 333.5,-109.5 437.25,-109.5 437.25,-73.5 333.5,-73.5"/>
<text xml:space="preserve" text-anchor="start" x="341.5" y="-86.45" font-family="Times,serif" font-size="14.00">FinancialOption</text>
</g>
<!-- QMCSoftware.qmcpy.integrand.financial_option.AsianOption&#45;&gt;QMCSoftware.qmcpy.integrand.financial_option.FinancialOption -->
<g id="edge4" class="edge">
<title>QMCSoftware.qmcpy.integrand.financial_option.AsianOption&#45;&gt;QMCSoftware.qmcpy.integrand.financial_option.FinancialOption</title>
<path fill="none" stroke="black" d="M213.21,-34.25C215.97,-35.19 218.71,-36.11 221.38,-37 254.64,-48.13 291.79,-60.28 322.31,-70.18"/>
<polygon fill="none" stroke="black" points="321.21,-73.5 331.8,-73.25 323.36,-66.84 321.21,-73.5"/>
</g>
<!-- QMCSoftware.qmcpy.integrand.financial_option.BarrierOption -->
<g id="node3" class="node">
<title>QMCSoftware.qmcpy.integrand.financial_option.BarrierOption</title>
<polygon fill="none" stroke="black" points="230.5,-0.5 230.5,-36.5 322.25,-36.5 322.25,-0.5 230.5,-0.5"/>
<text xml:space="preserve" text-anchor="start" x="238.5" y="-13.45" font-family="Times,serif" font-size="14.00">BarrierOption</text>
</g>
<!-- QMCSoftware.qmcpy.integrand.financial_option.BarrierOption&#45;&gt;QMCSoftware.qmcpy.integrand.financial_option.FinancialOption -->
<g id="edge5" class="edge">
<title>QMCSoftware.qmcpy.integrand.financial_option.BarrierOption&#45;&gt;QMCSoftware.qmcpy.integrand.financial_option.FinancialOption</title>
<path fill="none" stroke="black" d="M303.04,-36.87C316.9,-45.89 334.03,-57.06 349.08,-66.86"/>
<polygon fill="none" stroke="black" points="347.05,-69.71 357.34,-72.24 350.87,-63.85 347.05,-69.71"/>
</g>
<!-- QMCSoftware.qmcpy.integrand.bayesian_lr_coeffs.BayesianLRCoeffs -->
<g id="node4" class="node">
<title>QMCSoftware.qmcpy.integrand.bayesian_lr_coeffs.BayesianLRCoeffs</title>
<polygon fill="none" stroke="black" points="0,-73.5 0,-109.5 118.75,-109.5 118.75,-73.5 0,-73.5"/>
<text xml:space="preserve" text-anchor="start" x="8" y="-86.45" font-family="Times,serif" font-size="14.00">BayesianLRCoeffs</text>
</g>
<!-- QMCSoftware.qmcpy.integrand.bayesian_lr_coeffs.BayesianLRCoeffs&#45;&gt;QMCSoftware.qmcpy.integrand.abstract_integrand.AbstractIntegrand -->
<g id="edge1" class="edge">
<title>QMCSoftware.qmcpy.integrand.bayesian_lr_coeffs.BayesianLRCoeffs&#45;&gt;QMCSoftware.qmcpy.integrand.abstract_integrand.AbstractIntegrand</title>
<path fill="none" stroke="black" d="M119.09,-108.26C122.22,-108.9 125.33,-109.48 128.38,-110 318.99,-142.47 547.29,-155.96 659,-160.94"/>
<polygon fill="none" stroke="black" points="658.76,-164.43 668.9,-161.37 659.07,-157.44 658.76,-164.43"/>
</g>
<!-- QMCSoftware.qmcpy.integrand.box_integral.BoxIntegral -->
<g id="node5" class="node">
<title>QMCSoftware.qmcpy.integrand.box_integral.BoxIntegral</title>
<polygon fill="none" stroke="black" points="137.12,-73.5 137.12,-109.5 217.62,-109.5 217.62,-73.5 137.12,-73.5"/>
<text xml:space="preserve" text-anchor="start" x="145.12" y="-86.45" font-family="Times,serif" font-size="14.00">BoxIntegral</text>
</g>
<!-- QMCSoftware.qmcpy.integrand.box_integral.BoxIntegral&#45;&gt;QMCSoftware.qmcpy.integrand.abstract_integrand.AbstractIntegrand -->
<g id="edge2" class="edge">
<title>QMCSoftware.qmcpy.integrand.box_integral.BoxIntegral&#45;&gt;QMCSoftware.qmcpy.integrand.abstract_integrand.AbstractIntegrand</title>
<path fill="none" stroke="black" d="M218.07,-107.85C220.86,-108.65 223.65,-109.38 226.38,-110 378.38,-144.74 561.61,-157.04 658.88,-161.31"/>
<polygon fill="none" stroke="black" points="658.65,-164.8 668.79,-161.72 658.95,-157.81 658.65,-164.8"/>
</g>
<!-- QMCSoftware.qmcpy.integrand.custom_fun.CustomFun -->
<g id="node6" class="node">
<title>QMCSoftware.qmcpy.integrand.custom_fun.CustomFun</title>
<polygon fill="none" stroke="black" points="235.5,-73.5 235.5,-109.5 315.25,-109.5 315.25,-73.5 235.5,-73.5"/>
<text xml:space="preserve" text-anchor="start" x="243.5" y="-86.45" font-family="Times,serif" font-size="14.00">CustomFun</text>
</g>
<!-- QMCSoftware.qmcpy.integrand.custom_fun.CustomFun&#45;&gt;QMCSoftware.qmcpy.integrand.abstract_integrand.AbstractIntegrand -->
<g id="edge3" class="edge">
<title>QMCSoftware.qmcpy.integrand.custom_fun.CustomFun&#45;&gt;QMCSoftware.qmcpy.integrand.abstract_integrand.AbstractIntegrand</title>
<path fill="none" stroke="black" d="M315.55,-107.61C318.51,-108.49 321.48,-109.3 324.38,-110 440.18,-138.03 578.49,-152.36 659.27,-158.86"/>
<polygon fill="none" stroke="black" points="658.53,-162.32 668.77,-159.61 659.08,-155.34 658.53,-162.32"/>
</g>
<!-- QMCSoftware.qmcpy.integrand.financial_option.DigitalOption -->
<g id="node7" class="node">
<title>QMCSoftware.qmcpy.integrand.financial_option.DigitalOption</title>
<polygon fill="none" stroke="black" points="339.88,-0.5 339.88,-36.5 430.88,-36.5 430.88,-0.5 339.88,-0.5"/>
<text xml:space="preserve" text-anchor="start" x="347.88" y="-13.45" font-family="Times,serif" font-size="14.00">DigitalOption</text>
</g>
<!-- QMCSoftware.qmcpy.integrand.financial_option.DigitalOption&#45;&gt;QMCSoftware.qmcpy.integrand.financial_option.FinancialOption -->
<g id="edge6" class="edge">
<title>QMCSoftware.qmcpy.integrand.financial_option.DigitalOption&#45;&gt;QMCSoftware.qmcpy.integrand.financial_option.FinancialOption</title>
<path fill="none" stroke="black" d="M385.38,-36.69C385.38,-44.27 385.38,-53.4 385.38,-61.96"/>
<polygon fill="none" stroke="black" points="381.88,-61.96 385.38,-71.96 388.88,-61.96 381.88,-61.96"/>
</g>
<!-- QMCSoftware.qmcpy.integrand.financial_option.EuropeanOption -->
<g id="node8" class="node">
<title>QMCSoftware.qmcpy.integrand.financial_option.EuropeanOption</title>
<polygon fill="none" stroke="black" points="448.75,-0.5 448.75,-36.5 554,-36.5 554,-0.5 448.75,-0.5"/>
<text xml:space="preserve" text-anchor="start" x="456.75" y="-13.45" font-family="Times,serif" font-size="14.00">EuropeanOption</text>
</g>
<!-- QMCSoftware.qmcpy.integrand.financial_option.EuropeanOption&#45;&gt;QMCSoftware.qmcpy.integrand.financial_option.FinancialOption -->
<g id="edge7" class="edge">
<title>QMCSoftware.qmcpy.integrand.financial_option.EuropeanOption&#45;&gt;QMCSoftware.qmcpy.integrand.financial_option.FinancialOption</title>
<path fill="none" stroke="black" d="M473,-36.87C458.11,-45.98 439.67,-57.27 423.55,-67.14"/>
<polygon fill="none" stroke="black" points="421.85,-64.07 415.15,-72.27 425.51,-70.04 421.85,-64.07"/>
</g>
<!-- QMCSoftware.qmcpy.integrand.financial_option.FinancialOption&#45;&gt;QMCSoftware.qmcpy.integrand.abstract_integrand.AbstractIntegrand -->
<g id="edge8" class="edge">
<title>QMCSoftware.qmcpy.integrand.financial_option.FinancialOption&#45;&gt;QMCSoftware.qmcpy.integrand.abstract_integrand.AbstractIntegrand</title>
<path fill="none" stroke="black" d="M437.54,-107.8C440.52,-108.57 443.48,-109.31 446.38,-110 518.5,-127.17 602.07,-142.51 659.21,-152.32"/>
<polygon fill="none" stroke="black" points="658.33,-155.72 668.78,-153.95 659.51,-148.82 658.33,-155.72"/>
</g>
<!-- QMCSoftware.qmcpy.integrand.fourbranch2d.FourBranch2d -->
<g id="node10" class="node">
<title>QMCSoftware.qmcpy.integrand.fourbranch2d.FourBranch2d</title>
<polygon fill="none" stroke="black" points="455.38,-73.5 455.38,-109.5 549.38,-109.5 549.38,-73.5 455.38,-73.5"/>
<text xml:space="preserve" text-anchor="start" x="463.38" y="-86.45" font-family="Times,serif" font-size="14.00">FourBranch2d</text>
</g>
<!-- QMCSoftware.qmcpy.integrand.fourbranch2d.FourBranch2d&#45;&gt;QMCSoftware.qmcpy.integrand.abstract_integrand.AbstractIntegrand -->
<g id="edge10" class="edge">
<title>QMCSoftware.qmcpy.integrand.fourbranch2d.FourBranch2d&#45;&gt;QMCSoftware.qmcpy.integrand.abstract_integrand.AbstractIntegrand</title>
<path fill="none" stroke="black" d="M549.82,-107.47C582.18,-117.68 625.49,-131.35 661.24,-142.63"/>
<polygon fill="none" stroke="black" points="660.03,-145.92 670.62,-145.59 662.14,-139.24 660.03,-145.92"/>
</g>
<!-- QMCSoftware.qmcpy.integrand.genz.Genz -->
<g id="node11" class="node">
<title>QMCSoftware.qmcpy.integrand.genz.Genz</title>
<polygon fill="none" stroke="black" points="567.38,-73.5 567.38,-109.5 621.38,-109.5 621.38,-73.5 567.38,-73.5"/>
<text xml:space="preserve" text-anchor="start" x="579.88" y="-86.45" font-family="Times,serif" font-size="14.00">Genz</text>
</g>
<!-- QMCSoftware.qmcpy.integrand.genz.Genz&#45;&gt;QMCSoftware.qmcpy.integrand.abstract_integrand.AbstractIntegrand -->
<g id="edge11" class="edge">
<title>QMCSoftware.qmcpy.integrand.genz.Genz&#45;&gt;QMCSoftware.qmcpy.integrand.abstract_integrand.AbstractIntegrand</title>
<path fill="none" stroke="black" d="M621.61,-107.04C639.81,-116.76 664.13,-129.74 684.86,-140.81"/>
<polygon fill="none" stroke="black" points="683.21,-143.89 693.68,-145.51 686.51,-137.72 683.21,-143.89"/>
</g>
<!-- QMCSoftware.qmcpy.integrand.hartmann6d.Hartmann6d -->
<g id="node12" class="node">
<title>QMCSoftware.qmcpy.integrand.hartmann6d.Hartmann6d</title>
<polygon fill="none" stroke="black" points="639.25,-73.5 639.25,-109.5 723.5,-109.5 723.5,-73.5 639.25,-73.5"/>
<text xml:space="preserve" text-anchor="start" x="647.25" y="-86.45" font-family="Times,serif" font-size="14.00">Hartmann6d</text>
</g>
<!-- QMCSoftware.qmcpy.integrand.hartmann6d.Hartmann6d&#45;&gt;QMCSoftware.qmcpy.integrand.abstract_integrand.AbstractIntegrand -->
<g id="edge12" class="edge">
<title>QMCSoftware.qmcpy.integrand.hartmann6d.Hartmann6d&#45;&gt;QMCSoftware.qmcpy.integrand.abstract_integrand.AbstractIntegrand</title>
<path fill="none" stroke="black" d="M692.51,-109.69C697.82,-117.88 704.3,-127.88 710.22,-137.02"/>
<polygon fill="none" stroke="black" points="707.14,-138.71 715.52,-145.2 713.02,-134.91 707.14,-138.71"/>
</g>
<!-- QMCSoftware.qmcpy.integrand.ishigami.Ishigami -->
<g id="node13" class="node">
<title>QMCSoftware.qmcpy.integrand.ishigami.Ishigami</title>
<polygon fill="none" stroke="black" points="741.38,-73.5 741.38,-109.5 805.38,-109.5 805.38,-73.5 741.38,-73.5"/>
<text xml:space="preserve" text-anchor="start" x="749.38" y="-86.45" font-family="Times,serif" font-size="14.00">Ishigami</text>
</g>
<!-- QMCSoftware.qmcpy.integrand.ishigami.Ishigami&#45;&gt;QMCSoftware.qmcpy.integrand.abstract_integrand.AbstractIntegrand -->
<g id="edge13" class="edge">
<title>QMCSoftware.qmcpy.integrand.ishigami.Ishigami&#45;&gt;QMCSoftware.qmcpy.integrand.abstract_integrand.AbstractIntegrand</title>
<path fill="none" stroke="black" d="M762.24,-109.69C756.93,-117.88 750.45,-127.88 744.53,-137.02"/>
<polygon fill="none" stroke="black" points="741.73,-134.91 739.23,-145.2 747.61,-138.71 741.73,-134.91"/>
</g>
<!-- QMCSoftware.qmcpy.integrand.keister.Keister -->
<g id="node14" class="node">
<title>QMCSoftware.qmcpy.integrand.keister.Keister</title>
<polygon fill="none" stroke="black" points="823.88,-73.5 823.88,-109.5 878.88,-109.5 878.88,-73.5 823.88,-73.5"/>
<text xml:space="preserve" text-anchor="start" x="831.88" y="-86.45" font-family="Times,serif" font-size="14.00">Keister</text>
</g>
<!-- QMCSoftware.qmcpy.integrand.keister.Keister&#45;&gt;QMCSoftware.qmcpy.integrand.abstract_integrand.AbstractIntegrand -->
<g id="edge14" class="edge">
<title>QMCSoftware.qmcpy.integrand.keister.Keister&#45;&gt;QMCSoftware.qmcpy.integrand.abstract_integrand.AbstractIntegrand</title>
<path fill="none" stroke="black" d="M823.55,-108.43C807.04,-117.89 785.83,-130.03 767.53,-140.51"/>
<polygon fill="none" stroke="black" points="765.97,-137.37 759.03,-145.38 769.45,-143.44 765.97,-137.37"/>
</g>
<!-- QMCSoftware.qmcpy.integrand.linear0.Linear0 -->
<g id="node15" class="node">
<title>QMCSoftware.qmcpy.integrand.linear0.Linear0</title>
<polygon fill="none" stroke="black" points="897.38,-73.5 897.38,-109.5 955.38,-109.5 955.38,-73.5 897.38,-73.5"/>
<text xml:space="preserve" text-anchor="start" x="905.38" y="-86.45" font-family="Times,serif" font-size="14.00">Linear0</text>
</g>
<!-- QMCSoftware.qmcpy.integrand.linear0.Linear0&#45;&gt;QMCSoftware.qmcpy.integrand.abstract_integrand.AbstractIntegrand -->
<g id="edge15" class="edge">
<title>QMCSoftware.qmcpy.integrand.linear0.Linear0&#45;&gt;QMCSoftware.qmcpy.integrand.abstract_integrand.AbstractIntegrand</title>
<path fill="none" stroke="black" d="M897.06,-106.39C894.14,-107.66 891.21,-108.88 888.38,-110 858.25,-121.9 824.31,-133.44 795.38,-142.75"/>
<polygon fill="none" stroke="black" points="794.46,-139.37 786,-145.74 796.59,-146.04 794.46,-139.37"/>
</g>
<!-- QMCSoftware.qmcpy.integrand.financial_option.LookbackOption -->
<g id="node16" class="node">
<title>QMCSoftware.qmcpy.integrand.financial_option.LookbackOption</title>
<polygon fill="none" stroke="black" points="571.62,-0.5 571.62,-36.5 679.12,-36.5 679.12,-0.5 571.62,-0.5"/>
<text xml:space="preserve" text-anchor="start" x="579.62" y="-13.45" font-family="Times,serif" font-size="14.00">LookbackOption</text>
</g>
<!-- QMCSoftware.qmcpy.integrand.financial_option.LookbackOption&#45;&gt;QMCSoftware.qmcpy.integrand.financial_option.FinancialOption -->
<g id="edge9" class="edge">
<title>QMCSoftware.qmcpy.integrand.financial_option.LookbackOption&#45;&gt;QMCSoftware.qmcpy.integrand.financial_option.FinancialOption</title>
<path fill="none" stroke="black" d="M571.22,-35.52C534.85,-46.28 486.8,-60.49 448.67,-71.78"/>
<polygon fill="none" stroke="black" points="447.74,-68.4 439.14,-74.59 449.72,-75.11 447.74,-68.4"/>
</g>
<!-- QMCSoftware.qmcpy.integrand.multimodal2d.Multimodal2d -->
<g id="node17" class="node">
<title>QMCSoftware.qmcpy.integrand.multimodal2d.Multimodal2d</title>
<polygon fill="none" stroke="black" points="973,-73.5 973,-109.5 1067.75,-109.5 1067.75,-73.5 973,-73.5"/>
<text xml:space="preserve" text-anchor="start" x="981" y="-86.45" font-family="Times,serif" font-size="14.00">Multimodal2d</text>
</g>
<!-- QMCSoftware.qmcpy.integrand.multimodal2d.Multimodal2d&#45;&gt;QMCSoftware.qmcpy.integrand.abstract_integrand.AbstractIntegrand -->
<g id="edge16" class="edge">
<title>QMCSoftware.qmcpy.integrand.multimodal2d.Multimodal2d&#45;&gt;QMCSoftware.qmcpy.integrand.abstract_integrand.AbstractIntegrand</title>
<path fill="none" stroke="black" d="M972.79,-107.66C969.95,-108.47 967.13,-109.26 964.38,-110 907.81,-125.2 842.87,-139.65 795.29,-149.69"/>
<polygon fill="none" stroke="black" points="794.75,-146.23 785.68,-151.71 796.18,-153.08 794.75,-146.23"/>
</g>
<!-- QMCSoftware.qmcpy.integrand.sensitivity_indices.SensitivityIndices -->
<g id="node18" class="node">
<title>QMCSoftware.qmcpy.integrand.sensitivity_indices.SensitivityIndices</title>
<polygon fill="none" stroke="black" points="1086,-73.5 1086,-109.5 1198.75,-109.5 1198.75,-73.5 1086,-73.5"/>
<text xml:space="preserve" text-anchor="start" x="1094" y="-86.45" font-family="Times,serif" font-size="14.00">SensitivityIndices</text>
</g>
<!-- QMCSoftware.qmcpy.integrand.sensitivity_indices.SensitivityIndices&#45;&gt;QMCSoftware.qmcpy.integrand.abstract_integrand.AbstractIntegrand -->
<g id="edge17" class="edge">
<title>QMCSoftware.qmcpy.integrand.sensitivity_indices.SensitivityIndices&#45;&gt;QMCSoftware.qmcpy.integrand.abstract_integrand.AbstractIntegrand</title>
<path fill="none" stroke="black" d="M1085.59,-107.97C1082.48,-108.69 1079.39,-109.37 1076.38,-110 979.74,-130.16 866.59,-146.12 795.93,-155.2"/>
<polygon fill="none" stroke="black" points="795.51,-151.72 786.04,-156.46 796.4,-158.67 795.51,-151.72"/>
</g>
<!-- QMCSoftware.qmcpy.integrand.sin1d.Sin1d -->
<g id="node19" class="node">
<title>QMCSoftware.qmcpy.integrand.sin1d.Sin1d</title>
<polygon fill="none" stroke="black" points="1216.38,-73.5 1216.38,-109.5 1270.38,-109.5 1270.38,-73.5 1216.38,-73.5"/>
<text xml:space="preserve" text-anchor="start" x="1227.38" y="-86.45" font-family="Times,serif" font-size="14.00">Sin1d</text>
</g>
<!-- QMCSoftware.qmcpy.integrand.sin1d.Sin1d&#45;&gt;QMCSoftware.qmcpy.integrand.abstract_integrand.AbstractIntegrand -->
<g id="edge18" class="edge">
<title>QMCSoftware.qmcpy.integrand.sin1d.Sin1d&#45;&gt;QMCSoftware.qmcpy.integrand.abstract_integrand.AbstractIntegrand</title>
<path fill="none" stroke="black" d="M1216.24,-106.88C1213.3,-108.08 1210.31,-109.15 1207.38,-110 1064.92,-151.23 890.18,-161.03 795.77,-163.14"/>
<polygon fill="none" stroke="black" points="795.83,-159.64 785.9,-163.34 795.96,-166.64 795.83,-159.64"/>
</g>
<!-- QMCSoftware.qmcpy.integrand.umbridge_wrapper.UMBridgeWrapper -->
<g id="node20" class="node">
<title>QMCSoftware.qmcpy.integrand.umbridge_wrapper.UMBridgeWrapper</title>
<polygon fill="none" stroke="black" points="1288.12,-73.5 1288.12,-109.5 1410.62,-109.5 1410.62,-73.5 1288.12,-73.5"/>
<text xml:space="preserve" text-anchor="start" x="1296.12" y="-86.45" font-family="Times,serif" font-size="14.00">UMBridgeWrapper</text>
</g>
<!-- QMCSoftware.qmcpy.integrand.umbridge_wrapper.UMBridgeWrapper&#45;&gt;QMCSoftware.qmcpy.integrand.abstract_integrand.AbstractIntegrand -->
<g id="edge19" class="edge">
<title>QMCSoftware.qmcpy.integrand.umbridge_wrapper.UMBridgeWrapper&#45;&gt;QMCSoftware.qmcpy.integrand.abstract_integrand.AbstractIntegrand</title>
<path fill="none" stroke="black" d="M1287.64,-108.46C1284.86,-109.01 1282.09,-109.53 1279.38,-110 1106.76,-139.77 900.7,-154.25 795.91,-160.13"/>
<polygon fill="none" stroke="black" points="795.87,-156.63 786.08,-160.68 796.25,-163.62 795.87,-156.63"/>
</g>
</g>
</svg>
