<?xml version="1.0" encoding="utf-8"?>
<!-- Generator: Adobe Illustrator 23.0.0, SVG Export Plug-In . SVG Version: 6.00 Build 0)  -->
<svg version="1.1" id="Layer_1" xmlns="http://www.w3.org/2000/svg" xmlns:xlink="http://www.w3.org/1999/xlink" x="0px" y="0px"
	 viewBox="0 0 650.5 132.9" style="enable-background:new 0 0 650.5 132.9;" xml:space="preserve">
<style type="text/css">
	.st0{fill:#FFFFFF;}
</style>
<title>Asset 8</title>
<g>
	<g id="Layer_1-2">
		<path class="st0" d="M166.5,99l9.7-11.5c8.8,7.6,17.6,11.9,29,11.9c10,0,16.2-4.6,16.2-11.5v-0.3c0-6.6-3.7-10.1-20.7-14
			c-19.5-4.7-30.5-10.5-30.5-27.4V46c0-15.7,13.1-26.6,31.3-26.6c13.4,0,24,4.1,33.3,11.5l-8.6,12.2c-8.2-6.2-16.5-9.4-24.9-9.4
			c-9.4,0-14.9,4.8-14.9,10.9v0.3c0,7.1,4.2,10.2,21.8,14.4c19.4,4.7,29.5,11.7,29.5,26.9v0.3c0,17.2-13.5,27.4-32.8,27.4
			C190.6,113.8,177,108.5,166.5,99z"/>
		<path class="st0" d="M254.8,20.7h16.1v91.7h-16.1V20.7z"/>
		<path class="st0" d="M288.7,66.8v-0.3c0-25.7,19.6-47.4,47.3-47.4c16,0,25.8,4.5,35.2,12.5L361,43.7c-7.1-6-14-9.8-25.7-9.8
			c-16.9,0-29.7,14.8-29.7,32.4v0.3c0,18.9,12.4,32.8,31.2,32.8c8,0.1,15.7-2.3,22.2-6.9V75.2h-23.5v-14h39v38.5
			c-10.6,9.2-24.2,14.3-38.2,14.3C307.6,113.9,288.7,93.5,288.7,66.8z"/>
		<path class="st0" d="M390,66.8v-0.3c0-25.3,19-47.4,46.9-47.4s46.6,21.9,46.6,47.2v0.3c0,25.3-19,47.4-46.9,47.4
			S390,92.1,390,66.8z M472.8,66.8v-0.3c0-20.8-15.2-37.9-36.1-37.9s-35.9,16.8-35.9,37.6v0.3c0,20.8,15.2,37.9,36.1,37.9
			S472.8,87.6,472.8,66.8z"/>
		<path class="st0" d="M500.2,20.7h34.3c20.7,0,34.3,11,34.3,29.1V50c0,19.8-16.5,30-36,30h-22.3v32.3h-10.3V20.7z M533.2,70.6
			c15.2,0,25.2-8.1,25.2-20.2v-0.3c0-13.1-9.8-19.9-24.6-19.9h-23.2v40.3H533.2z"/>
		<path class="st0" d="M609.3,30.2h-30.8v-9.6h72v9.6h-30.7v82.1h-10.5V30.2z"/>
		<path class="st0" d="M0,0v132.9h132.9V0H0z M107.3,44.5h-8.2l-6.1-10.2H55.4l19,31.7L56,97.2h37.6l5.8-9.9h7.9v24.5H25.5L52.8,66
			L25.5,20.5h81.9L107.3,44.5z"/>
	</g>
</g>
</svg>
