<?xml version="1.0" encoding="utf-8"?>
<!-- Generator: Adobe Illustrator 23.0.0, SVG Export Plug-In . SVG Version: 6.00 Build 0)  -->
<svg version="1.1" id="Layer_1" xmlns="http://www.w3.org/2000/svg" xmlns:xlink="http://www.w3.org/1999/xlink" x="0px" y="0px"
	 viewBox="0 0 134.4 173.1" style="enable-background:new 0 0 134.4 173.1;" xml:space="preserve">
<style type="text/css">
	.st0{fill:#005495;}
</style>
<title>Asset 7</title>
<g>
	<g id="Layer_1-2">
		<path class="st0" d="M0,169l2.7-3.2c2.1,2.1,5,3.3,8,3.3c2.8,0,4.5-1.3,4.5-3.2v-0.1c0-1.8-1-2.8-5.8-3.9C4.1,160.6,1,159,1,154.3
			v-0.1c0-4.4,3.6-7.4,8.7-7.4c3.4-0.1,6.6,1.1,9.2,3.2l-2.4,3.4c-2-1.6-4.4-2.5-6.9-2.6c-2.6,0-4.2,1.3-4.2,3v0.1c0,2,1.2,2.8,6,4
			c5.4,1.3,8.2,3.2,8.2,7.5v0.1c0,4.8-3.7,7.6-9.1,7.6C6.7,173,2.9,171.6,0,169z"/>
		<path class="st0" d="M24.5,147.2H29v25.5h-4.5V147.2z"/>
		<path class="st0" d="M33.9,160L33.9,160c-0.1-7.2,5.6-13.1,12.8-13.2c0.1,0,0.2,0,0.3,0c3.6-0.2,7.1,1.1,9.8,3.5l-2.8,3.3
			c-1.9-1.8-4.5-2.8-7.1-2.7c-4.7,0-8.2,4.1-8.2,9v0.1c0,5.2,3.5,9.1,8.7,9.1c2.2,0,4.4-0.6,6.1-1.9v-4.8h-6.5v-3.9h10.8v10.7
			c-2.9,2.6-6.7,4-10.6,4C39.2,173.1,33.9,167.4,33.9,160z"/>
		<path class="st0" d="M62,160L62,160c-0.1-7.1,5.5-13,12.6-13.2c0.1,0,0.2,0,0.4,0c7.1-0.1,12.9,5.5,13,12.5c0,0.2,0,0.4,0,0.6v0.1
			c0,7.2-5.8,13-13,13S62.1,167.2,62,160L62,160L62,160z M85.1,160L85.1,160c0-5.8-4.2-10.5-10-10.5s-10,4.6-10,10.4v0.1
			c0,5.8,4.2,10.5,10,10.5S85,165.8,85.1,160L85.1,160z"/>
		<path class="st0" d="M92.6,147.2h9.5c5.8,0,9.5,3.1,9.5,8.1v0.1c0,5.5-4.6,8.3-10,8.3h-6.2v9h-2.9V147.2z M101.8,161.1
			c4.2,0,7-2.2,7-5.6v-0.1c0-3.6-2.7-5.5-6.8-5.5h-6.5v11.2L101.8,161.1z"/>
		<path class="st0" d="M122.9,149.9h-8.5v-2.6h20v2.6h-8.6v22.8h-2.9L122.9,149.9z"/>
		<path class="st0" d="M1.5,0v132.9h132.9V0H1.5z M108.9,44.5h-8.2l-6.1-10.2H56.9l19,31.7L57.5,97.2h37.7l5.8-9.9h7.9v24.5H27
			L54.3,66L27,20.5h81.9L108.9,44.5z"/>
	</g>
</g>
</svg>
