<?xml version="1.0" encoding="UTF-8" standalone="no"?>
<!DOCTYPE svg PUBLIC "-//W3C//DTD SVG 1.1//EN"
 "http://www.w3.org/Graphics/SVG/1.1/DTD/svg11.dtd">
<!-- Generated by graphviz version 2.43.0 (0)
 -->
<!-- Title: classes Pages: 1 -->
<svg width="818pt" height="682pt"
 viewBox="0.00 0.00 817.50 681.80" xmlns="http://www.w3.org/2000/svg" xmlns:xlink="http://www.w3.org/1999/xlink">
<g id="graph0" class="graph" transform="scale(1 1) rotate(0) translate(4 677.8)">
<title>classes</title>
<polygon fill="white" stroke="transparent" points="-4,4 -4,-677.8 813.5,-677.8 813.5,4 -4,4"/>
<!-- QMCSoftware.qmcpy.discrete_distribution.abstract_discrete_distribution.AbstractDiscreteDistribution -->
<g id="node1" class="node">
<title>QMCSoftware.qmcpy.discrete_distribution.abstract_discrete_distribution.AbstractDiscreteDistribution</title>
<polygon fill="none" stroke="black" points="79,-424.3 79,-673.3 463,-673.3 463,-424.3 79,-424.3"/>
<text text-anchor="start" x="167" y="-658.1" font-family="Times,serif" font-size="14.00">AbstractDiscreteDistribution</text>
<polyline fill="none" stroke="black" points="79,-650.3 463,-650.3 "/>
<text text-anchor="start" x="211.5" y="-635.1" font-family="Times,serif" font-size="14.00">d : int</text>
<text text-anchor="start" x="211.5" y="-620.1" font-family="Times,serif" font-size="14.00">d_limit : int</text>
<text text-anchor="start" x="211.5" y="-605.1" font-family="Times,serif" font-size="14.00">dvec : ndarray</text>
<text text-anchor="start" x="211.5" y="-590.1" font-family="Times,serif" font-size="14.00">entropy</text>
<text text-anchor="start" x="211.5" y="-575.1" font-family="Times,serif" font-size="14.00">mimics : str</text>
<text text-anchor="start" x="211.5" y="-560.1" font-family="Times,serif" font-size="14.00">n_limit : int</text>
<text text-anchor="start" x="211.5" y="-545.1" font-family="Times,serif" font-size="14.00">no_replications</text>
<text text-anchor="start" x="211.5" y="-530.1" font-family="Times,serif" font-size="14.00">parameters : list</text>
<text text-anchor="start" x="211.5" y="-515.1" font-family="Times,serif" font-size="14.00">replications : int</text>
<text text-anchor="start" x="211.5" y="-500.1" font-family="Times,serif" font-size="14.00">rng</text>
<text text-anchor="start" x="211.5" y="-485.1" font-family="Times,serif" font-size="14.00">spawn_key</text>
<polyline fill="none" stroke="black" points="79,-477.3 463,-477.3 "/>
<text text-anchor="start" x="87" y="-462.1" font-family="Times,serif" font-size="14.00">gen_samples(n, n_min, n_max, return_binary, warn)</text>
<text text-anchor="start" x="87" y="-447.1" font-family="Times,serif" font-size="14.00">pdf(x)</text>
<text text-anchor="start" x="87" y="-432.1" font-family="Times,serif" font-size="14.00">spawn(s, dimensions)</text>
</g>
<!-- QMCSoftware.qmcpy.discrete_distribution.abstract_discrete_distribution.AbstractIIDDiscreteDistribution -->
<g id="node2" class="node">
<title>QMCSoftware.qmcpy.discrete_distribution.abstract_discrete_distribution.AbstractIIDDiscreteDistribution</title>
<polygon fill="none" stroke="black" points="17.5,-316.5 17.5,-387.3 262.5,-387.3 262.5,-316.5 17.5,-316.5"/>
<text text-anchor="start" x="25.5" y="-372.1" font-family="Times,serif" font-size="14.00">AbstractIIDDiscreteDistribution</text>
<polyline fill="none" stroke="black" points="17.5,-364.3 262.5,-364.3 "/>
<polyline fill="none" stroke="black" points="17.5,-339.5 262.5,-339.5 "/>
<text text-anchor="start" x="137.5" y="-324.3" font-family="Times,serif" font-size="14.00"> </text>
</g>
<!-- QMCSoftware.qmcpy.discrete_distribution.abstract_discrete_distribution.AbstractIIDDiscreteDistribution&#45;&gt;QMCSoftware.qmcpy.discrete_distribution.abstract_discrete_distribution.AbstractDiscreteDistribution -->
<g id="edge1" class="edge">
<title>QMCSoftware.qmcpy.discrete_distribution.abstract_discrete_distribution.AbstractIIDDiscreteDistribution&#45;&gt;QMCSoftware.qmcpy.discrete_distribution.abstract_discrete_distribution.AbstractDiscreteDistribution</title>
<path fill="none" stroke="black" d="M163.42,-387.74C169.05,-396.13 175.41,-405.58 182.14,-415.6"/>
<polygon fill="none" stroke="black" points="179.4,-417.79 187.88,-424.14 185.21,-413.89 179.4,-417.79"/>
</g>
<!-- QMCSoftware.qmcpy.discrete_distribution.abstract_discrete_distribution.AbstractLDDiscreteDistribution -->
<g id="node3" class="node">
<title>QMCSoftware.qmcpy.discrete_distribution.abstract_discrete_distribution.AbstractLDDiscreteDistribution</title>
<polygon fill="none" stroke="black" points="320,-316.5 320,-387.3 564,-387.3 564,-316.5 320,-316.5"/>
<text text-anchor="start" x="328" y="-372.1" font-family="Times,serif" font-size="14.00">AbstractLDDiscreteDistribution</text>
<polyline fill="none" stroke="black" points="320,-364.3 564,-364.3 "/>
<polyline fill="none" stroke="black" points="320,-339.5 564,-339.5 "/>
<text text-anchor="start" x="439.5" y="-324.3" font-family="Times,serif" font-size="14.00"> </text>
</g>
<!-- QMCSoftware.qmcpy.discrete_distribution.abstract_discrete_distribution.AbstractLDDiscreteDistribution&#45;&gt;QMCSoftware.qmcpy.discrete_distribution.abstract_discrete_distribution.AbstractDiscreteDistribution -->
<g id="edge2" class="edge">
<title>QMCSoftware.qmcpy.discrete_distribution.abstract_discrete_distribution.AbstractLDDiscreteDistribution&#45;&gt;QMCSoftware.qmcpy.discrete_distribution.abstract_discrete_distribution.AbstractDiscreteDistribution</title>
<path fill="none" stroke="black" d="M411.43,-387.74C403.85,-396.38 395.28,-406.15 386.2,-416.5"/>
<polygon fill="none" stroke="black" points="383.46,-414.31 379.5,-424.14 388.72,-418.93 383.46,-414.31"/>
</g>
<!-- QMCSoftware.qmcpy.discrete_distribution.digital_net_b2.digital_net_b2.DigitalNetB2 -->
<g id="node4" class="node">
<title>QMCSoftware.qmcpy.discrete_distribution.digital_net_b2.digital_net_b2.DigitalNetB2</title>
<polygon fill="none" stroke="black" points="140,-0.5 140,-279.5 382,-279.5 382,-0.5 140,-0.5"/>
<text text-anchor="start" x="214" y="-264.3" font-family="Times,serif" font-size="14.00">DigitalNetB2</text>
<polyline fill="none" stroke="black" points="140,-256.5 382,-256.5 "/>
<text text-anchor="start" x="148" y="-241.3" font-family="Times,serif" font-size="14.00">alpha : int</text>
<text text-anchor="start" x="148" y="-226.3" font-family="Times,serif" font-size="14.00">dtalpha</text>
<text text-anchor="start" x="148" y="-211.3" font-family="Times,serif" font-size="14.00">gen_mats : ndarray</text>
<text text-anchor="start" x="148" y="-196.3" font-family="Times,serif" font-size="14.00">gen_mats_source : str</text>
<text text-anchor="start" x="148" y="-181.3" font-family="Times,serif" font-size="14.00">input_generating_matrices : str</text>
<text text-anchor="start" x="148" y="-166.3" font-family="Times,serif" font-size="14.00">input_msb : NoneType</text>
<text text-anchor="start" x="148" y="-151.3" font-family="Times,serif" font-size="14.00">input_t : int</text>
<text text-anchor="start" x="148" y="-136.3" font-family="Times,serif" font-size="14.00">m_max : int</text>
<text text-anchor="start" x="148" y="-121.3" font-family="Times,serif" font-size="14.00">order : str</text>
<text text-anchor="start" x="148" y="-106.3" font-family="Times,serif" font-size="14.00">parameters : list</text>
<text text-anchor="start" x="148" y="-91.3" font-family="Times,serif" font-size="14.00">randomize : str</text>
<text text-anchor="start" x="148" y="-76.3" font-family="Times,serif" font-size="14.00">rngs : ndarray</text>
<text text-anchor="start" x="148" y="-61.3" font-family="Times,serif" font-size="14.00">root_nodes : ndarray</text>
<text text-anchor="start" x="148" y="-46.3" font-family="Times,serif" font-size="14.00">rshift</text>
<text text-anchor="start" x="148" y="-31.3" font-family="Times,serif" font-size="14.00">t : int</text>
<polyline fill="none" stroke="black" points="140,-23.5 382,-23.5 "/>
<text text-anchor="start" x="258.5" y="-8.3" font-family="Times,serif" font-size="14.00"> </text>
</g>
<!-- QMCSoftware.qmcpy.discrete_distribution.digital_net_b2.digital_net_b2.DigitalNetB2&#45;&gt;QMCSoftware.qmcpy.discrete_distribution.abstract_discrete_distribution.AbstractLDDiscreteDistribution -->
<g id="edge3" class="edge">
<title>QMCSoftware.qmcpy.discrete_distribution.digital_net_b2.digital_net_b2.DigitalNetB2&#45;&gt;QMCSoftware.qmcpy.discrete_distribution.abstract_discrete_distribution.AbstractLDDiscreteDistribution</title>
<path fill="none" stroke="black" d="M380.47,-279.54C389.45,-289.96 398,-299.88 405.72,-308.83"/>
<polygon fill="none" stroke="black" points="403.1,-311.15 412.28,-316.44 408.4,-306.58 403.1,-311.15"/>
</g>
<!-- QMCSoftware.qmcpy.discrete_distribution.halton.Halton -->
<g id="node5" class="node">
<title>QMCSoftware.qmcpy.discrete_distribution.halton.Halton</title>
<polygon fill="none" stroke="black" points="400,-8 400,-272 564,-272 564,-8 400,-8"/>
<text text-anchor="start" x="457.5" y="-256.8" font-family="Times,serif" font-size="14.00">Halton</text>
<polyline fill="none" stroke="black" points="400,-249 564,-249 "/>
<text text-anchor="start" x="408" y="-233.8" font-family="Times,serif" font-size="14.00">C : ndarray</text>
<text text-anchor="start" x="408" y="-218.8" font-family="Times,serif" font-size="14.00">all_primes : ndarray</text>
<text text-anchor="start" x="408" y="-203.8" font-family="Times,serif" font-size="14.00">halton_cf_qrng</text>
<text text-anchor="start" x="408" y="-188.8" font-family="Times,serif" font-size="14.00">input_t : int</text>
<text text-anchor="start" x="408" y="-173.8" font-family="Times,serif" font-size="14.00">m_max : int</text>
<text text-anchor="start" x="408" y="-158.8" font-family="Times,serif" font-size="14.00">parameters : list</text>
<text text-anchor="start" x="408" y="-143.8" font-family="Times,serif" font-size="14.00">perms : ndarray</text>
<text text-anchor="start" x="408" y="-128.8" font-family="Times,serif" font-size="14.00">primes</text>
<text text-anchor="start" x="408" y="-113.8" font-family="Times,serif" font-size="14.00">randomize : str</text>
<text text-anchor="start" x="408" y="-98.8" font-family="Times,serif" font-size="14.00">randu_d_32</text>
<text text-anchor="start" x="408" y="-83.8" font-family="Times,serif" font-size="14.00">rngs : ndarray</text>
<text text-anchor="start" x="408" y="-68.8" font-family="Times,serif" font-size="14.00">root_nodes : ndarray</text>
<text text-anchor="start" x="408" y="-53.8" font-family="Times,serif" font-size="14.00">rshift : ndarray</text>
<text text-anchor="start" x="408" y="-38.8" font-family="Times,serif" font-size="14.00">t : int</text>
<polyline fill="none" stroke="black" points="400,-31 564,-31 "/>
<text text-anchor="start" x="479.5" y="-15.8" font-family="Times,serif" font-size="14.00"> </text>
</g>
<!-- QMCSoftware.qmcpy.discrete_distribution.halton.Halton&#45;&gt;QMCSoftware.qmcpy.discrete_distribution.abstract_discrete_distribution.AbstractLDDiscreteDistribution -->
<g id="edge4" class="edge">
<title>QMCSoftware.qmcpy.discrete_distribution.halton.Halton&#45;&gt;QMCSoftware.qmcpy.discrete_distribution.abstract_discrete_distribution.AbstractLDDiscreteDistribution</title>
<path fill="none" stroke="black" d="M457.01,-272.14C454.69,-284.33 452.46,-296 450.47,-306.46"/>
<polygon fill="none" stroke="black" points="446.99,-306.01 448.56,-316.49 453.87,-307.32 446.99,-306.01"/>
</g>
<!-- QMCSoftware.qmcpy.discrete_distribution.iid_std_uniform.IIDStdUniform -->
<g id="node6" class="node">
<title>QMCSoftware.qmcpy.discrete_distribution.iid_std_uniform.IIDStdUniform</title>
<polygon fill="none" stroke="black" points="0,-104.6 0,-175.4 122,-175.4 122,-104.6 0,-104.6"/>
<text text-anchor="start" x="8" y="-160.2" font-family="Times,serif" font-size="14.00">IIDStdUniform</text>
<polyline fill="none" stroke="black" points="0,-152.4 122,-152.4 "/>
<polyline fill="none" stroke="black" points="0,-127.6 122,-127.6 "/>
<text text-anchor="start" x="58.5" y="-112.4" font-family="Times,serif" font-size="14.00"> </text>
</g>
<!-- QMCSoftware.qmcpy.discrete_distribution.iid_std_uniform.IIDStdUniform&#45;&gt;QMCSoftware.qmcpy.discrete_distribution.abstract_discrete_distribution.AbstractIIDDiscreteDistribution -->
<g id="edge5" class="edge">
<title>QMCSoftware.qmcpy.discrete_distribution.iid_std_uniform.IIDStdUniform&#45;&gt;QMCSoftware.qmcpy.discrete_distribution.abstract_discrete_distribution.AbstractIIDDiscreteDistribution</title>
<path fill="none" stroke="black" d="M74.05,-175.66C87.54,-211.51 108.66,-267.62 123.35,-306.65"/>
<polygon fill="none" stroke="black" points="120.14,-308.06 126.94,-316.19 126.69,-305.6 120.14,-308.06"/>
</g>
<!-- QMCSoftware.qmcpy.discrete_distribution.lattice.lattice.Lattice -->
<g id="node7" class="node">
<title>QMCSoftware.qmcpy.discrete_distribution.lattice.lattice.Lattice</title>
<polygon fill="none" stroke="black" points="582.5,-53 582.5,-227 809.5,-227 809.5,-53 582.5,-53"/>
<text text-anchor="start" x="671" y="-211.8" font-family="Times,serif" font-size="14.00">Lattice</text>
<polyline fill="none" stroke="black" points="582.5,-204 809.5,-204 "/>
<text text-anchor="start" x="592" y="-188.8" font-family="Times,serif" font-size="14.00">gen_vec</text>
<text text-anchor="start" x="592" y="-173.8" font-family="Times,serif" font-size="14.00">gen_vec_source : str</text>
<text text-anchor="start" x="592" y="-158.8" font-family="Times,serif" font-size="14.00">input_generating_vector : str</text>
<text text-anchor="start" x="592" y="-143.8" font-family="Times,serif" font-size="14.00">input_m_max : NoneType</text>
<text text-anchor="start" x="592" y="-128.8" font-family="Times,serif" font-size="14.00">order : str</text>
<text text-anchor="start" x="592" y="-113.8" font-family="Times,serif" font-size="14.00">parameters : list</text>
<text text-anchor="start" x="592" y="-98.8" font-family="Times,serif" font-size="14.00">randomize : str</text>
<text text-anchor="start" x="592" y="-83.8" font-family="Times,serif" font-size="14.00">shift</text>
<polyline fill="none" stroke="black" points="582.5,-76 809.5,-76 "/>
<text text-anchor="start" x="590.5" y="-60.8" font-family="Times,serif" font-size="14.00">calculate_y(m_low, m_high, y)</text>
</g>
<!-- QMCSoftware.qmcpy.discrete_distribution.lattice.lattice.Lattice&#45;&gt;QMCSoftware.qmcpy.discrete_distribution.abstract_discrete_distribution.AbstractLDDiscreteDistribution -->
<g id="edge6" class="edge">
<title>QMCSoftware.qmcpy.discrete_distribution.lattice.lattice.Lattice&#45;&gt;QMCSoftware.qmcpy.discrete_distribution.abstract_discrete_distribution.AbstractLDDiscreteDistribution</title>
<path fill="none" stroke="black" d="M628.19,-227.2C611.3,-245.84 592.43,-264.57 573,-280 558.56,-291.47 542.01,-302.05 525.63,-311.34"/>
<polygon fill="none" stroke="black" points="523.61,-308.46 516.57,-316.37 527.01,-314.58 523.61,-308.46"/>
</g>
</g>
</svg>
