<?xml version="1.0" encoding="UTF-8" standalone="no"?>
<!DOCTYPE svg PUBLIC "-//W3C//DTD SVG 1.1//EN"
 "http://www.w3.org/Graphics/SVG/1.1/DTD/svg11.dtd">
<!-- Generated by graphviz version 2.43.0 (0)
 -->
<!-- Title: classes Pages: 1 -->
<svg width="1019pt" height="878pt"
 viewBox="0.00 0.00 1018.50 877.80" xmlns="http://www.w3.org/2000/svg" xmlns:xlink="http://www.w3.org/1999/xlink">
<g id="graph0" class="graph" transform="scale(1 1) rotate(0) translate(4 873.8)">
<title>classes</title>
<polygon fill="white" stroke="transparent" points="-4,4 -4,-873.8 1014.5,-873.8 1014.5,4 -4,4"/>
<!-- QMCSoftware.qmcpy.discrete_distribution.abstract_discrete_distribution.AbstractDiscreteDistribution -->
<g id="node1" class="node">
<title>QMCSoftware.qmcpy.discrete_distribution.abstract_discrete_distribution.AbstractDiscreteDistribution</title>
<polygon fill="none" stroke="black" points="160,-620.3 160,-869.3 544,-869.3 544,-620.3 160,-620.3"/>
<text text-anchor="start" x="248" y="-854.1" font-family="Times,serif" font-size="14.00">AbstractDiscreteDistribution</text>
<polyline fill="none" stroke="black" points="160,-846.3 544,-846.3 "/>
<text text-anchor="start" x="292.5" y="-831.1" font-family="Times,serif" font-size="14.00">d : int</text>
<text text-anchor="start" x="292.5" y="-816.1" font-family="Times,serif" font-size="14.00">d_limit : int</text>
<text text-anchor="start" x="292.5" y="-801.1" font-family="Times,serif" font-size="14.00">dvec : ndarray</text>
<text text-anchor="start" x="292.5" y="-786.1" font-family="Times,serif" font-size="14.00">entropy</text>
<text text-anchor="start" x="292.5" y="-771.1" font-family="Times,serif" font-size="14.00">mimics : str</text>
<text text-anchor="start" x="292.5" y="-756.1" font-family="Times,serif" font-size="14.00">n_limit : int</text>
<text text-anchor="start" x="292.5" y="-741.1" font-family="Times,serif" font-size="14.00">no_replications</text>
<text text-anchor="start" x="292.5" y="-726.1" font-family="Times,serif" font-size="14.00">parameters : list</text>
<text text-anchor="start" x="292.5" y="-711.1" font-family="Times,serif" font-size="14.00">replications : int</text>
<text text-anchor="start" x="292.5" y="-696.1" font-family="Times,serif" font-size="14.00">rng</text>
<text text-anchor="start" x="292.5" y="-681.1" font-family="Times,serif" font-size="14.00">spawn_key</text>
<polyline fill="none" stroke="black" points="160,-673.3 544,-673.3 "/>
<text text-anchor="start" x="168" y="-658.1" font-family="Times,serif" font-size="14.00">gen_samples(n, n_min, n_max, return_binary, warn)</text>
<text text-anchor="start" x="168" y="-643.1" font-family="Times,serif" font-size="14.00">pdf(x)</text>
<text text-anchor="start" x="168" y="-628.1" font-family="Times,serif" font-size="14.00">spawn(s, dimensions)</text>
</g>
<!-- QMCSoftware.qmcpy.discrete_distribution.abstract_discrete_distribution.AbstractIIDDiscreteDistribution -->
<g id="node2" class="node">
<title>QMCSoftware.qmcpy.discrete_distribution.abstract_discrete_distribution.AbstractIIDDiscreteDistribution</title>
<polygon fill="none" stroke="black" points="98.5,-512.5 98.5,-583.3 343.5,-583.3 343.5,-512.5 98.5,-512.5"/>
<text text-anchor="start" x="106.5" y="-568.1" font-family="Times,serif" font-size="14.00">AbstractIIDDiscreteDistribution</text>
<polyline fill="none" stroke="black" points="98.5,-560.3 343.5,-560.3 "/>
<polyline fill="none" stroke="black" points="98.5,-535.5 343.5,-535.5 "/>
<text text-anchor="start" x="218.5" y="-520.3" font-family="Times,serif" font-size="14.00"> </text>
</g>
<!-- QMCSoftware.qmcpy.discrete_distribution.abstract_discrete_distribution.AbstractIIDDiscreteDistribution&#45;&gt;QMCSoftware.qmcpy.discrete_distribution.abstract_discrete_distribution.AbstractDiscreteDistribution -->
<g id="edge1" class="edge">
<title>QMCSoftware.qmcpy.discrete_distribution.abstract_discrete_distribution.AbstractIIDDiscreteDistribution&#45;&gt;QMCSoftware.qmcpy.discrete_distribution.abstract_discrete_distribution.AbstractDiscreteDistribution</title>
<path fill="none" stroke="black" d="M244.42,-583.74C250.05,-592.13 256.41,-601.58 263.14,-611.6"/>
<polygon fill="none" stroke="black" points="260.4,-613.79 268.88,-620.14 266.21,-609.89 260.4,-613.79"/>
</g>
<!-- QMCSoftware.qmcpy.discrete_distribution.abstract_discrete_distribution.AbstractLDDiscreteDistribution -->
<g id="node3" class="node">
<title>QMCSoftware.qmcpy.discrete_distribution.abstract_discrete_distribution.AbstractLDDiscreteDistribution</title>
<polygon fill="none" stroke="black" points="442,-512.5 442,-583.3 686,-583.3 686,-512.5 442,-512.5"/>
<text text-anchor="start" x="450" y="-568.1" font-family="Times,serif" font-size="14.00">AbstractLDDiscreteDistribution</text>
<polyline fill="none" stroke="black" points="442,-560.3 686,-560.3 "/>
<polyline fill="none" stroke="black" points="442,-535.5 686,-535.5 "/>
<text text-anchor="start" x="561.5" y="-520.3" font-family="Times,serif" font-size="14.00"> </text>
</g>
<!-- QMCSoftware.qmcpy.discrete_distribution.abstract_discrete_distribution.AbstractLDDiscreteDistribution&#45;&gt;QMCSoftware.qmcpy.discrete_distribution.abstract_discrete_distribution.AbstractDiscreteDistribution -->
<g id="edge2" class="edge">
<title>QMCSoftware.qmcpy.discrete_distribution.abstract_discrete_distribution.AbstractLDDiscreteDistribution&#45;&gt;QMCSoftware.qmcpy.discrete_distribution.abstract_discrete_distribution.AbstractDiscreteDistribution</title>
<path fill="none" stroke="black" d="M526.1,-583.74C516.52,-592.55 505.66,-602.53 494.16,-613.11"/>
<polygon fill="none" stroke="black" points="491.5,-610.79 486.51,-620.14 496.24,-615.95 491.5,-610.79"/>
</g>
<!-- QMCSoftware.qmcpy.discrete_distribution.digital_net_any_bases.digital_net_any_bases.DigitalNetAnyBases -->
<g id="node4" class="node">
<title>QMCSoftware.qmcpy.discrete_distribution.digital_net_any_bases.digital_net_any_bases.DigitalNetAnyBases</title>
<polygon fill="none" stroke="black" points="140.5,-106.5 140.5,-475.5 505.5,-475.5 505.5,-106.5 140.5,-106.5"/>
<text text-anchor="start" x="251" y="-460.3" font-family="Times,serif" font-size="14.00">DigitalNetAnyBases</text>
<polyline fill="none" stroke="black" points="140.5,-452.5 505.5,-452.5 "/>
<text text-anchor="start" x="148.5" y="-437.3" font-family="Times,serif" font-size="14.00">C : ndarray</text>
<text text-anchor="start" x="148.5" y="-422.3" font-family="Times,serif" font-size="14.00">DEFAULT_GENERATING_MATRICES : NoneType</text>
<text text-anchor="start" x="148.5" y="-407.3" font-family="Times,serif" font-size="14.00">all_primes : ndarray</text>
<text text-anchor="start" x="148.5" y="-392.3" font-family="Times,serif" font-size="14.00">alpha : int</text>
<text text-anchor="start" x="148.5" y="-377.3" font-family="Times,serif" font-size="14.00">bases</text>
<text text-anchor="start" x="148.5" y="-362.3" font-family="Times,serif" font-size="14.00">dtalpha</text>
<text text-anchor="start" x="148.5" y="-347.3" font-family="Times,serif" font-size="14.00">faure_base</text>
<text text-anchor="start" x="148.5" y="-332.3" font-family="Times,serif" font-size="14.00">halton_cf_qrng</text>
<text text-anchor="start" x="148.5" y="-317.3" font-family="Times,serif" font-size="14.00">input_bases_generating_matrices : NoneType</text>
<text text-anchor="start" x="148.5" y="-302.3" font-family="Times,serif" font-size="14.00">input_t : NoneType</text>
<text text-anchor="start" x="148.5" y="-287.3" font-family="Times,serif" font-size="14.00">m_max : int</text>
<text text-anchor="start" x="148.5" y="-272.3" font-family="Times,serif" font-size="14.00">parameters : list</text>
<text text-anchor="start" x="148.5" y="-257.3" font-family="Times,serif" font-size="14.00">perms : ndarray</text>
<text text-anchor="start" x="148.5" y="-242.3" font-family="Times,serif" font-size="14.00">randomize : str</text>
<text text-anchor="start" x="148.5" y="-227.3" font-family="Times,serif" font-size="14.00">randu_d_32</text>
<text text-anchor="start" x="148.5" y="-212.3" font-family="Times,serif" font-size="14.00">rngs : ndarray</text>
<text text-anchor="start" x="148.5" y="-197.3" font-family="Times,serif" font-size="14.00">root_nodes : ndarray</text>
<text text-anchor="start" x="148.5" y="-182.3" font-family="Times,serif" font-size="14.00">rshift : ndarray</text>
<text text-anchor="start" x="148.5" y="-167.3" font-family="Times,serif" font-size="14.00">t : NoneType, int</text>
<text text-anchor="start" x="148.5" y="-152.3" font-family="Times,serif" font-size="14.00">type_bases_generating_matrices : str</text>
<text text-anchor="start" x="148.5" y="-137.3" font-family="Times,serif" font-size="14.00">warn : bool</text>
<polyline fill="none" stroke="black" points="140.5,-129.5 505.5,-129.5 "/>
<text text-anchor="start" x="320.5" y="-114.3" font-family="Times,serif" font-size="14.00"> </text>
</g>
<!-- QMCSoftware.qmcpy.discrete_distribution.digital_net_any_bases.digital_net_any_bases.DigitalNetAnyBases&#45;&gt;QMCSoftware.qmcpy.discrete_distribution.abstract_discrete_distribution.AbstractLDDiscreteDistribution -->
<g id="edge3" class="edge">
<title>QMCSoftware.qmcpy.discrete_distribution.digital_net_any_bases.digital_net_any_bases.DigitalNetAnyBases&#45;&gt;QMCSoftware.qmcpy.discrete_distribution.abstract_discrete_distribution.AbstractLDDiscreteDistribution</title>
<path fill="none" stroke="black" d="M496.55,-475.56C506.46,-486.04 515.78,-495.9 524.14,-504.74"/>
<polygon fill="none" stroke="black" points="521.82,-507.38 531.23,-512.24 526.9,-502.57 521.82,-507.38"/>
</g>
<!-- QMCSoftware.qmcpy.discrete_distribution.digital_net_b2.digital_net_b2.DigitalNetB2 -->
<g id="node5" class="node">
<title>QMCSoftware.qmcpy.discrete_distribution.digital_net_b2.digital_net_b2.DigitalNetB2</title>
<polygon fill="none" stroke="black" points="523,-151.5 523,-430.5 765,-430.5 765,-151.5 523,-151.5"/>
<text text-anchor="start" x="597" y="-415.3" font-family="Times,serif" font-size="14.00">DigitalNetB2</text>
<polyline fill="none" stroke="black" points="523,-407.5 765,-407.5 "/>
<text text-anchor="start" x="531" y="-392.3" font-family="Times,serif" font-size="14.00">alpha : int</text>
<text text-anchor="start" x="531" y="-377.3" font-family="Times,serif" font-size="14.00">dtalpha</text>
<text text-anchor="start" x="531" y="-362.3" font-family="Times,serif" font-size="14.00">gen_mats : ndarray</text>
<text text-anchor="start" x="531" y="-347.3" font-family="Times,serif" font-size="14.00">gen_mats_source : str</text>
<text text-anchor="start" x="531" y="-332.3" font-family="Times,serif" font-size="14.00">input_generating_matrices : str</text>
<text text-anchor="start" x="531" y="-317.3" font-family="Times,serif" font-size="14.00">input_msb : NoneType</text>
<text text-anchor="start" x="531" y="-302.3" font-family="Times,serif" font-size="14.00">input_t : int</text>
<text text-anchor="start" x="531" y="-287.3" font-family="Times,serif" font-size="14.00">m_max : int</text>
<text text-anchor="start" x="531" y="-272.3" font-family="Times,serif" font-size="14.00">order : str</text>
<text text-anchor="start" x="531" y="-257.3" font-family="Times,serif" font-size="14.00">parameters : list</text>
<text text-anchor="start" x="531" y="-242.3" font-family="Times,serif" font-size="14.00">randomize : str</text>
<text text-anchor="start" x="531" y="-227.3" font-family="Times,serif" font-size="14.00">rngs : ndarray</text>
<text text-anchor="start" x="531" y="-212.3" font-family="Times,serif" font-size="14.00">root_nodes : ndarray</text>
<text text-anchor="start" x="531" y="-197.3" font-family="Times,serif" font-size="14.00">rshift</text>
<text text-anchor="start" x="531" y="-182.3" font-family="Times,serif" font-size="14.00">t : int</text>
<polyline fill="none" stroke="black" points="523,-174.5 765,-174.5 "/>
<text text-anchor="start" x="641.5" y="-159.3" font-family="Times,serif" font-size="14.00"> </text>
</g>
<!-- QMCSoftware.qmcpy.discrete_distribution.digital_net_b2.digital_net_b2.DigitalNetB2&#45;&gt;QMCSoftware.qmcpy.discrete_distribution.abstract_discrete_distribution.AbstractLDDiscreteDistribution -->
<g id="edge6" class="edge">
<title>QMCSoftware.qmcpy.discrete_distribution.digital_net_b2.digital_net_b2.DigitalNetB2&#45;&gt;QMCSoftware.qmcpy.discrete_distribution.abstract_discrete_distribution.AbstractLDDiscreteDistribution</title>
<path fill="none" stroke="black" d="M600.49,-430.64C592.3,-456.73 584.31,-482.19 577.9,-502.6"/>
<polygon fill="none" stroke="black" points="574.55,-501.61 574.89,-512.2 581.23,-503.7 574.55,-501.61"/>
</g>
<!-- QMCSoftware.qmcpy.discrete_distribution.digital_net_any_bases.faure.Faure -->
<g id="node6" class="node">
<title>QMCSoftware.qmcpy.discrete_distribution.digital_net_any_bases.faure.Faure</title>
<polygon fill="none" stroke="black" points="1.5,-0.5 1.5,-69.5 314.5,-69.5 314.5,-0.5 1.5,-0.5"/>
<text text-anchor="start" x="137" y="-54.3" font-family="Times,serif" font-size="14.00">Faure</text>
<polyline fill="none" stroke="black" points="1.5,-46.5 314.5,-46.5 "/>
<text text-anchor="start" x="9.5" y="-31.3" font-family="Times,serif" font-size="14.00">DEFAULT_GENERATING_MATRICES : str</text>
<polyline fill="none" stroke="black" points="1.5,-23.5 314.5,-23.5 "/>
<text text-anchor="start" x="155.5" y="-8.3" font-family="Times,serif" font-size="14.00"> </text>
</g>
<!-- QMCSoftware.qmcpy.discrete_distribution.digital_net_any_bases.faure.Faure&#45;&gt;QMCSoftware.qmcpy.discrete_distribution.digital_net_any_bases.digital_net_any_bases.DigitalNetAnyBases -->
<g id="edge4" class="edge">
<title>QMCSoftware.qmcpy.discrete_distribution.digital_net_any_bases.faure.Faure&#45;&gt;QMCSoftware.qmcpy.discrete_distribution.digital_net_any_bases.digital_net_any_bases.DigitalNetAnyBases</title>
<path fill="none" stroke="black" d="M179.91,-69.73C185.34,-78.09 191.55,-87.65 198.27,-98"/>
<polygon fill="none" stroke="black" points="195.39,-99.98 203.77,-106.46 201.26,-96.16 195.39,-99.98"/>
</g>
<!-- QMCSoftware.qmcpy.discrete_distribution.digital_net_any_bases.halton.Halton -->
<g id="node7" class="node">
<title>QMCSoftware.qmcpy.discrete_distribution.digital_net_any_bases.halton.Halton</title>
<polygon fill="none" stroke="black" points="332.5,-0.5 332.5,-69.5 645.5,-69.5 645.5,-0.5 332.5,-0.5"/>
<text text-anchor="start" x="464.5" y="-54.3" font-family="Times,serif" font-size="14.00">Halton</text>
<polyline fill="none" stroke="black" points="332.5,-46.5 645.5,-46.5 "/>
<text text-anchor="start" x="340.5" y="-31.3" font-family="Times,serif" font-size="14.00">DEFAULT_GENERATING_MATRICES : str</text>
<polyline fill="none" stroke="black" points="332.5,-23.5 645.5,-23.5 "/>
<text text-anchor="start" x="486.5" y="-8.3" font-family="Times,serif" font-size="14.00"> </text>
</g>
<!-- QMCSoftware.qmcpy.discrete_distribution.digital_net_any_bases.halton.Halton&#45;&gt;QMCSoftware.qmcpy.discrete_distribution.digital_net_any_bases.digital_net_any_bases.DigitalNetAnyBases -->
<g id="edge5" class="edge">
<title>QMCSoftware.qmcpy.discrete_distribution.digital_net_any_bases.halton.Halton&#45;&gt;QMCSoftware.qmcpy.discrete_distribution.digital_net_any_bases.digital_net_any_bases.DigitalNetAnyBases</title>
<path fill="none" stroke="black" d="M466.96,-69.73C461.49,-78.09 455.25,-87.65 448.48,-98"/>
<polygon fill="none" stroke="black" points="445.49,-96.17 442.95,-106.46 451.35,-100 445.49,-96.17"/>
</g>
<!-- QMCSoftware.qmcpy.discrete_distribution.iid_std_uniform.IIDStdUniform -->
<g id="node8" class="node">
<title>QMCSoftware.qmcpy.discrete_distribution.iid_std_uniform.IIDStdUniform</title>
<polygon fill="none" stroke="black" points="0,-255.6 0,-326.4 122,-326.4 122,-255.6 0,-255.6"/>
<text text-anchor="start" x="8" y="-311.2" font-family="Times,serif" font-size="14.00">IIDStdUniform</text>
<polyline fill="none" stroke="black" points="0,-303.4 122,-303.4 "/>
<polyline fill="none" stroke="black" points="0,-278.6 122,-278.6 "/>
<text text-anchor="start" x="58.5" y="-263.4" font-family="Times,serif" font-size="14.00"> </text>
</g>
<!-- QMCSoftware.qmcpy.discrete_distribution.iid_std_uniform.IIDStdUniform&#45;&gt;QMCSoftware.qmcpy.discrete_distribution.abstract_discrete_distribution.AbstractIIDDiscreteDistribution -->
<g id="edge7" class="edge">
<title>QMCSoftware.qmcpy.discrete_distribution.iid_std_uniform.IIDStdUniform&#45;&gt;QMCSoftware.qmcpy.discrete_distribution.abstract_discrete_distribution.AbstractIIDDiscreteDistribution</title>
<path fill="none" stroke="black" d="M68.25,-326.57C77.72,-365.71 97.21,-430 131,-476 139.05,-486.96 149.23,-497.13 159.82,-506.14"/>
<polygon fill="none" stroke="black" points="157.62,-508.87 167.57,-512.5 162.06,-503.45 157.62,-508.87"/>
</g>
<!-- QMCSoftware.qmcpy.discrete_distribution.lattice.lattice.Lattice -->
<g id="node9" class="node">
<title>QMCSoftware.qmcpy.discrete_distribution.lattice.lattice.Lattice</title>
<polygon fill="none" stroke="black" points="783.5,-204 783.5,-378 1010.5,-378 1010.5,-204 783.5,-204"/>
<text text-anchor="start" x="872" y="-362.8" font-family="Times,serif" font-size="14.00">Lattice</text>
<polyline fill="none" stroke="black" points="783.5,-355 1010.5,-355 "/>
<text text-anchor="start" x="793" y="-339.8" font-family="Times,serif" font-size="14.00">gen_vec</text>
<text text-anchor="start" x="793" y="-324.8" font-family="Times,serif" font-size="14.00">gen_vec_source : str</text>
<text text-anchor="start" x="793" y="-309.8" font-family="Times,serif" font-size="14.00">input_generating_vector : str</text>
<text text-anchor="start" x="793" y="-294.8" font-family="Times,serif" font-size="14.00">input_m_max : NoneType</text>
<text text-anchor="start" x="793" y="-279.8" font-family="Times,serif" font-size="14.00">order : str</text>
<text text-anchor="start" x="793" y="-264.8" font-family="Times,serif" font-size="14.00">parameters : list</text>
<text text-anchor="start" x="793" y="-249.8" font-family="Times,serif" font-size="14.00">randomize : str</text>
<text text-anchor="start" x="793" y="-234.8" font-family="Times,serif" font-size="14.00">shift</text>
<polyline fill="none" stroke="black" points="783.5,-227 1010.5,-227 "/>
<text text-anchor="start" x="791.5" y="-211.8" font-family="Times,serif" font-size="14.00">calculate_y(m_low, m_high, y)</text>
</g>
<!-- QMCSoftware.qmcpy.discrete_distribution.lattice.lattice.Lattice&#45;&gt;QMCSoftware.qmcpy.discrete_distribution.abstract_discrete_distribution.AbstractLDDiscreteDistribution -->
<g id="edge8" class="edge">
<title>QMCSoftware.qmcpy.discrete_distribution.lattice.lattice.Lattice&#45;&gt;QMCSoftware.qmcpy.discrete_distribution.abstract_discrete_distribution.AbstractLDDiscreteDistribution</title>
<path fill="none" stroke="black" d="M855.36,-378.2C834.99,-412.71 807.56,-450.3 774,-476 751.04,-493.58 723.47,-506.95 695.97,-517.06"/>
<polygon fill="none" stroke="black" points="694.51,-513.87 686.26,-520.51 696.85,-520.47 694.51,-513.87"/>
</g>
</g>
</svg>
