<?xml version="1.0" encoding="UTF-8" standalone="no"?>
<!DOCTYPE svg PUBLIC "-//W3C//DTD SVG 1.1//EN"
 "http://www.w3.org/Graphics/SVG/1.1/DTD/svg11.dtd">
<!-- Generated by graphviz version 2.43.0 (0)
 -->
<!-- Title: classes Pages: 1 -->
<svg width="516pt" height="191pt"
 viewBox="0.00 0.00 515.50 191.00" xmlns="http://www.w3.org/2000/svg" xmlns:xlink="http://www.w3.org/1999/xlink">
<g id="graph0" class="graph" transform="scale(1 1) rotate(0) translate(4 187)">
<title>classes</title>
<polygon fill="white" stroke="transparent" points="-4,4 -4,-187 511.5,-187 511.5,4 -4,4"/>
<!-- QMCSoftware.qmcpy.discrete_distribution.abstract_discrete_distribution.AbstractDiscreteDistribution -->
<g id="node1" class="node">
<title>QMCSoftware.qmcpy.discrete_distribution.abstract_discrete_distribution.AbstractDiscreteDistribution</title>
<polygon fill="none" stroke="black" points="141.5,-146.5 141.5,-182.5 365.5,-182.5 365.5,-146.5 141.5,-146.5"/>
<text text-anchor="start" x="149.5" y="-160.8" font-family="Times,serif" font-size="14.00">AbstractDiscreteDistribution</text>
</g>
<!-- QMCSoftware.qmcpy.discrete_distribution.abstract_discrete_distribution.AbstractIIDDiscreteDistribution -->
<g id="node2" class="node">
<title>QMCSoftware.qmcpy.discrete_distribution.abstract_discrete_distribution.AbstractIIDDiscreteDistribution</title>
<polygon fill="none" stroke="black" points="0,-73.5 0,-109.5 245,-109.5 245,-73.5 0,-73.5"/>
<text text-anchor="start" x="8" y="-87.8" font-family="Times,serif" font-size="14.00">AbstractIIDDiscreteDistribution</text>
</g>
<!-- QMCSoftware.qmcpy.discrete_distribution.abstract_discrete_distribution.AbstractIIDDiscreteDistribution&#45;&gt;QMCSoftware.qmcpy.discrete_distribution.abstract_discrete_distribution.AbstractDiscreteDistribution -->
<g id="edge1" class="edge">
<title>QMCSoftware.qmcpy.discrete_distribution.abstract_discrete_distribution.AbstractIIDDiscreteDistribution&#45;&gt;QMCSoftware.qmcpy.discrete_distribution.abstract_discrete_distribution.AbstractDiscreteDistribution</title>
<path fill="none" stroke="black" d="M153.88,-109.51C171.57,-119.1 193.87,-131.18 212.89,-141.49"/>
<polygon fill="none" stroke="black" points="211.46,-144.7 221.92,-146.39 214.8,-138.54 211.46,-144.7"/>
</g>
<!-- QMCSoftware.qmcpy.discrete_distribution.abstract_discrete_distribution.AbstractLDDiscreteDistribution -->
<g id="node3" class="node">
<title>QMCSoftware.qmcpy.discrete_distribution.abstract_discrete_distribution.AbstractLDDiscreteDistribution</title>
<polygon fill="none" stroke="black" points="263.5,-73.5 263.5,-109.5 507.5,-109.5 507.5,-73.5 263.5,-73.5"/>
<text text-anchor="start" x="271.5" y="-87.8" font-family="Times,serif" font-size="14.00">AbstractLDDiscreteDistribution</text>
</g>
<!-- QMCSoftware.qmcpy.discrete_distribution.abstract_discrete_distribution.AbstractLDDiscreteDistribution&#45;&gt;QMCSoftware.qmcpy.discrete_distribution.abstract_discrete_distribution.AbstractDiscreteDistribution -->
<g id="edge2" class="edge">
<title>QMCSoftware.qmcpy.discrete_distribution.abstract_discrete_distribution.AbstractLDDiscreteDistribution&#45;&gt;QMCSoftware.qmcpy.discrete_distribution.abstract_discrete_distribution.AbstractDiscreteDistribution</title>
<path fill="none" stroke="black" d="M353.88,-109.51C335.97,-119.14 313.38,-131.29 294.16,-141.63"/>
<polygon fill="none" stroke="black" points="292.47,-138.57 285.32,-146.39 295.78,-144.73 292.47,-138.57"/>
</g>
<!-- QMCSoftware.qmcpy.discrete_distribution.digital_net_b2.digital_net_b2.DigitalNetB2 -->
<g id="node4" class="node">
<title>QMCSoftware.qmcpy.discrete_distribution.digital_net_b2.digital_net_b2.DigitalNetB2</title>
<polygon fill="none" stroke="black" points="224.5,-0.5 224.5,-36.5 334.5,-36.5 334.5,-0.5 224.5,-0.5"/>
<text text-anchor="start" x="232.5" y="-14.8" font-family="Times,serif" font-size="14.00">DigitalNetB2</text>
</g>
<!-- QMCSoftware.qmcpy.discrete_distribution.digital_net_b2.digital_net_b2.DigitalNetB2&#45;&gt;QMCSoftware.qmcpy.discrete_distribution.abstract_discrete_distribution.AbstractLDDiscreteDistribution -->
<g id="edge3" class="edge">
<title>QMCSoftware.qmcpy.discrete_distribution.digital_net_b2.digital_net_b2.DigitalNetB2&#45;&gt;QMCSoftware.qmcpy.discrete_distribution.abstract_discrete_distribution.AbstractLDDiscreteDistribution</title>
<path fill="none" stroke="black" d="M304.89,-36.51C318.82,-45.83 336.27,-57.53 351.37,-67.64"/>
<polygon fill="none" stroke="black" points="349.69,-70.73 359.95,-73.39 353.59,-64.91 349.69,-70.73"/>
</g>
<!-- QMCSoftware.qmcpy.discrete_distribution.halton.Halton -->
<g id="node5" class="node">
<title>QMCSoftware.qmcpy.discrete_distribution.halton.Halton</title>
<polygon fill="none" stroke="black" points="353,-0.5 353,-36.5 418,-36.5 418,-0.5 353,-0.5"/>
<text text-anchor="start" x="361" y="-14.8" font-family="Times,serif" font-size="14.00">Halton</text>
</g>
<!-- QMCSoftware.qmcpy.discrete_distribution.halton.Halton&#45;&gt;QMCSoftware.qmcpy.discrete_distribution.abstract_discrete_distribution.AbstractLDDiscreteDistribution -->
<g id="edge4" class="edge">
<title>QMCSoftware.qmcpy.discrete_distribution.halton.Halton&#45;&gt;QMCSoftware.qmcpy.discrete_distribution.abstract_discrete_distribution.AbstractLDDiscreteDistribution</title>
<path fill="none" stroke="black" d="M385.5,-36.69C385.5,-44.71 385.5,-54.45 385.5,-63.43"/>
<polygon fill="none" stroke="black" points="382,-63.47 385.5,-73.47 389,-63.47 382,-63.47"/>
</g>
<!-- QMCSoftware.qmcpy.discrete_distribution.iid_std_uniform.IIDStdUniform -->
<g id="node6" class="node">
<title>QMCSoftware.qmcpy.discrete_distribution.iid_std_uniform.IIDStdUniform</title>
<polygon fill="none" stroke="black" points="61.5,-0.5 61.5,-36.5 183.5,-36.5 183.5,-0.5 61.5,-0.5"/>
<text text-anchor="start" x="69.5" y="-14.8" font-family="Times,serif" font-size="14.00">IIDStdUniform</text>
</g>
<!-- QMCSoftware.qmcpy.discrete_distribution.iid_std_uniform.IIDStdUniform&#45;&gt;QMCSoftware.qmcpy.discrete_distribution.abstract_discrete_distribution.AbstractIIDDiscreteDistribution -->
<g id="edge5" class="edge">
<title>QMCSoftware.qmcpy.discrete_distribution.iid_std_uniform.IIDStdUniform&#45;&gt;QMCSoftware.qmcpy.discrete_distribution.abstract_discrete_distribution.AbstractIIDDiscreteDistribution</title>
<path fill="none" stroke="black" d="M122.5,-36.69C122.5,-44.71 122.5,-54.45 122.5,-63.43"/>
<polygon fill="none" stroke="black" points="119,-63.47 122.5,-73.47 126,-63.47 119,-63.47"/>
</g>
<!-- QMCSoftware.qmcpy.discrete_distribution.lattice.lattice.Lattice -->
<g id="node7" class="node">
<title>QMCSoftware.qmcpy.discrete_distribution.lattice.lattice.Lattice</title>
<polygon fill="none" stroke="black" points="436.5,-0.5 436.5,-36.5 502.5,-36.5 502.5,-0.5 436.5,-0.5"/>
<text text-anchor="start" x="444.5" y="-14.8" font-family="Times,serif" font-size="14.00">Lattice</text>
</g>
<!-- QMCSoftware.qmcpy.discrete_distribution.lattice.lattice.Lattice&#45;&gt;QMCSoftware.qmcpy.discrete_distribution.abstract_discrete_distribution.AbstractLDDiscreteDistribution -->
<g id="edge6" class="edge">
<title>QMCSoftware.qmcpy.discrete_distribution.lattice.lattice.Lattice&#45;&gt;QMCSoftware.qmcpy.discrete_distribution.abstract_discrete_distribution.AbstractLDDiscreteDistribution</title>
<path fill="none" stroke="black" d="M449.17,-36.69C438.44,-45.76 425.11,-57.02 413.42,-66.9"/>
<polygon fill="none" stroke="black" points="411.02,-64.34 405.65,-73.47 415.54,-69.69 411.02,-64.34"/>
</g>
</g>
</svg>
