<?xml version="1.0" encoding="UTF-8" standalone="no"?>
<!DOCTYPE svg PUBLIC "-//W3C//DTD SVG 1.1//EN"
 "http://www.w3.org/Graphics/SVG/1.1/DTD/svg11.dtd">
<!-- Generated by graphviz version 2.43.0 (0)
 -->
<!-- Title: classes Pages: 1 -->
<svg width="1384pt" height="863pt"
 viewBox="0.00 0.00 1383.50 862.80" xmlns="http://www.w3.org/2000/svg" xmlns:xlink="http://www.w3.org/1999/xlink">
<g id="graph0" class="graph" transform="scale(1 1) rotate(0) translate(4 858.8)">
<title>classes</title>
<polygon fill="white" stroke="transparent" points="-4,4 -4,-858.8 1379.5,-858.8 1379.5,4 -4,4"/>
<!-- QMCSoftware.qmcpy.discrete_distribution.abstract_discrete_distribution.AbstractDiscreteDistribution -->
<g id="node1" class="node">
<title>QMCSoftware.qmcpy.discrete_distribution.abstract_discrete_distribution.AbstractDiscreteDistribution</title>
<polygon fill="none" stroke="black" points="160,-605.3 160,-854.3 544,-854.3 544,-605.3 160,-605.3"/>
<text text-anchor="start" x="248" y="-839.1" font-family="Times,serif" font-size="14.00">AbstractDiscreteDistribution</text>
<polyline fill="none" stroke="black" points="160,-831.3 544,-831.3 "/>
<text text-anchor="start" x="292.5" y="-816.1" font-family="Times,serif" font-size="14.00">d : int</text>
<text text-anchor="start" x="292.5" y="-801.1" font-family="Times,serif" font-size="14.00">d_limit : int</text>
<text text-anchor="start" x="292.5" y="-786.1" font-family="Times,serif" font-size="14.00">dvec : ndarray</text>
<text text-anchor="start" x="292.5" y="-771.1" font-family="Times,serif" font-size="14.00">entropy</text>
<text text-anchor="start" x="292.5" y="-756.1" font-family="Times,serif" font-size="14.00">mimics : str</text>
<text text-anchor="start" x="292.5" y="-741.1" font-family="Times,serif" font-size="14.00">n_limit : int</text>
<text text-anchor="start" x="292.5" y="-726.1" font-family="Times,serif" font-size="14.00">no_replications</text>
<text text-anchor="start" x="292.5" y="-711.1" font-family="Times,serif" font-size="14.00">parameters : list</text>
<text text-anchor="start" x="292.5" y="-696.1" font-family="Times,serif" font-size="14.00">replications : int</text>
<text text-anchor="start" x="292.5" y="-681.1" font-family="Times,serif" font-size="14.00">rng</text>
<text text-anchor="start" x="292.5" y="-666.1" font-family="Times,serif" font-size="14.00">spawn_key</text>
<polyline fill="none" stroke="black" points="160,-658.3 544,-658.3 "/>
<text text-anchor="start" x="168" y="-643.1" font-family="Times,serif" font-size="14.00">gen_samples(n, n_min, n_max, return_binary, warn)</text>
<text text-anchor="start" x="168" y="-628.1" font-family="Times,serif" font-size="14.00">pdf(x)</text>
<text text-anchor="start" x="168" y="-613.1" font-family="Times,serif" font-size="14.00">spawn(s, dimensions)</text>
</g>
<!-- QMCSoftware.qmcpy.discrete_distribution.abstract_discrete_distribution.AbstractIIDDiscreteDistribution -->
<g id="node2" class="node">
<title>QMCSoftware.qmcpy.discrete_distribution.abstract_discrete_distribution.AbstractIIDDiscreteDistribution</title>
<polygon fill="none" stroke="black" points="98.5,-497.5 98.5,-568.3 343.5,-568.3 343.5,-497.5 98.5,-497.5"/>
<text text-anchor="start" x="106.5" y="-553.1" font-family="Times,serif" font-size="14.00">AbstractIIDDiscreteDistribution</text>
<polyline fill="none" stroke="black" points="98.5,-545.3 343.5,-545.3 "/>
<polyline fill="none" stroke="black" points="98.5,-520.5 343.5,-520.5 "/>
<text text-anchor="start" x="218.5" y="-505.3" font-family="Times,serif" font-size="14.00"> </text>
</g>
<!-- QMCSoftware.qmcpy.discrete_distribution.abstract_discrete_distribution.AbstractIIDDiscreteDistribution&#45;&gt;QMCSoftware.qmcpy.discrete_distribution.abstract_discrete_distribution.AbstractDiscreteDistribution -->
<g id="edge1" class="edge">
<title>QMCSoftware.qmcpy.discrete_distribution.abstract_discrete_distribution.AbstractIIDDiscreteDistribution&#45;&gt;QMCSoftware.qmcpy.discrete_distribution.abstract_discrete_distribution.AbstractDiscreteDistribution</title>
<path fill="none" stroke="black" d="M244.42,-568.74C250.05,-577.13 256.41,-586.58 263.14,-596.6"/>
<polygon fill="none" stroke="black" points="260.4,-598.79 268.88,-605.14 266.21,-594.89 260.4,-598.79"/>
</g>
<!-- QMCSoftware.qmcpy.discrete_distribution.abstract_discrete_distribution.AbstractLDDiscreteDistribution -->
<g id="node3" class="node">
<title>QMCSoftware.qmcpy.discrete_distribution.abstract_discrete_distribution.AbstractLDDiscreteDistribution</title>
<polygon fill="none" stroke="black" points="522,-497.5 522,-568.3 766,-568.3 766,-497.5 522,-497.5"/>
<text text-anchor="start" x="530" y="-553.1" font-family="Times,serif" font-size="14.00">AbstractLDDiscreteDistribution</text>
<polyline fill="none" stroke="black" points="522,-545.3 766,-545.3 "/>
<polyline fill="none" stroke="black" points="522,-520.5 766,-520.5 "/>
<text text-anchor="start" x="641.5" y="-505.3" font-family="Times,serif" font-size="14.00"> </text>
</g>
<!-- QMCSoftware.qmcpy.discrete_distribution.abstract_discrete_distribution.AbstractLDDiscreteDistribution&#45;&gt;QMCSoftware.qmcpy.discrete_distribution.abstract_discrete_distribution.AbstractDiscreteDistribution -->
<g id="edge2" class="edge">
<title>QMCSoftware.qmcpy.discrete_distribution.abstract_discrete_distribution.AbstractLDDiscreteDistribution&#45;&gt;QMCSoftware.qmcpy.discrete_distribution.abstract_discrete_distribution.AbstractDiscreteDistribution</title>
<path fill="none" stroke="black" d="M592.13,-568.52C578.39,-577.69 562.7,-588.17 546.08,-599.26"/>
<polygon fill="none" stroke="black" points="543.68,-596.65 537.3,-605.12 547.56,-602.48 543.68,-596.65"/>
</g>
<!-- QMCSoftware.qmcpy.discrete_distribution.digital_net_any_bases.digital_net_any_bases.DigitalNetAnyBases -->
<g id="node4" class="node">
<title>QMCSoftware.qmcpy.discrete_distribution.digital_net_any_bases.digital_net_any_bases.DigitalNetAnyBases</title>
<polygon fill="none" stroke="black" points="140.5,-106.5 140.5,-460.5 505.5,-460.5 505.5,-106.5 140.5,-106.5"/>
<text text-anchor="start" x="251" y="-445.3" font-family="Times,serif" font-size="14.00">DigitalNetAnyBases</text>
<polyline fill="none" stroke="black" points="140.5,-437.5 505.5,-437.5 "/>
<text text-anchor="start" x="148.5" y="-422.3" font-family="Times,serif" font-size="14.00">C : ndarray</text>
<text text-anchor="start" x="148.5" y="-407.3" font-family="Times,serif" font-size="14.00">DEFAULT_GENERATING_MATRICES : NoneType</text>
<text text-anchor="start" x="148.5" y="-392.3" font-family="Times,serif" font-size="14.00">all_primes : ndarray</text>
<text text-anchor="start" x="148.5" y="-377.3" font-family="Times,serif" font-size="14.00">alpha : int</text>
<text text-anchor="start" x="148.5" y="-362.3" font-family="Times,serif" font-size="14.00">bases</text>
<text text-anchor="start" x="148.5" y="-347.3" font-family="Times,serif" font-size="14.00">dtalpha</text>
<text text-anchor="start" x="148.5" y="-332.3" font-family="Times,serif" font-size="14.00">faure_base</text>
<text text-anchor="start" x="148.5" y="-317.3" font-family="Times,serif" font-size="14.00">input_bases_generating_matrices : NoneType</text>
<text text-anchor="start" x="148.5" y="-302.3" font-family="Times,serif" font-size="14.00">input_t : NoneType</text>
<text text-anchor="start" x="148.5" y="-287.3" font-family="Times,serif" font-size="14.00">m_max : int</text>
<text text-anchor="start" x="148.5" y="-272.3" font-family="Times,serif" font-size="14.00">parameters : list</text>
<text text-anchor="start" x="148.5" y="-257.3" font-family="Times,serif" font-size="14.00">perms : ndarray</text>
<text text-anchor="start" x="148.5" y="-242.3" font-family="Times,serif" font-size="14.00">randomize : str</text>
<text text-anchor="start" x="148.5" y="-227.3" font-family="Times,serif" font-size="14.00">randu_d_32</text>
<text text-anchor="start" x="148.5" y="-212.3" font-family="Times,serif" font-size="14.00">rngs : ndarray</text>
<text text-anchor="start" x="148.5" y="-197.3" font-family="Times,serif" font-size="14.00">root_nodes : ndarray</text>
<text text-anchor="start" x="148.5" y="-182.3" font-family="Times,serif" font-size="14.00">rshift : ndarray</text>
<text text-anchor="start" x="148.5" y="-167.3" font-family="Times,serif" font-size="14.00">t : NoneType, int</text>
<text text-anchor="start" x="148.5" y="-152.3" font-family="Times,serif" font-size="14.00">type_bases_generating_matrices : str</text>
<text text-anchor="start" x="148.5" y="-137.3" font-family="Times,serif" font-size="14.00">warn : bool</text>
<polyline fill="none" stroke="black" points="140.5,-129.5 505.5,-129.5 "/>
<text text-anchor="start" x="320.5" y="-114.3" font-family="Times,serif" font-size="14.00"> </text>
</g>
<!-- QMCSoftware.qmcpy.discrete_distribution.digital_net_any_bases.digital_net_any_bases.DigitalNetAnyBases&#45;&gt;QMCSoftware.qmcpy.discrete_distribution.abstract_discrete_distribution.AbstractLDDiscreteDistribution -->
<g id="edge3" class="edge">
<title>QMCSoftware.qmcpy.discrete_distribution.digital_net_any_bases.digital_net_any_bases.DigitalNetAnyBases&#45;&gt;QMCSoftware.qmcpy.discrete_distribution.abstract_discrete_distribution.AbstractLDDiscreteDistribution</title>
<path fill="none" stroke="black" d="M505.74,-454.97C508.5,-457.01 511.25,-459.03 514,-461 529.65,-472.23 547.28,-482.97 564.38,-492.53"/>
<polygon fill="none" stroke="black" points="562.82,-495.66 573.27,-497.42 566.19,-489.53 562.82,-495.66"/>
</g>
<!-- QMCSoftware.qmcpy.discrete_distribution.digital_net_b2.digital_net_b2.DigitalNetB2 -->
<g id="node5" class="node">
<title>QMCSoftware.qmcpy.discrete_distribution.digital_net_b2.digital_net_b2.DigitalNetB2</title>
<polygon fill="none" stroke="black" points="523,-144 523,-423 765,-423 765,-144 523,-144"/>
<text text-anchor="start" x="597" y="-407.8" font-family="Times,serif" font-size="14.00">DigitalNetB2</text>
<polyline fill="none" stroke="black" points="523,-400 765,-400 "/>
<text text-anchor="start" x="531" y="-384.8" font-family="Times,serif" font-size="14.00">alpha : int</text>
<text text-anchor="start" x="531" y="-369.8" font-family="Times,serif" font-size="14.00">dtalpha</text>
<text text-anchor="start" x="531" y="-354.8" font-family="Times,serif" font-size="14.00">gen_mats : ndarray</text>
<text text-anchor="start" x="531" y="-339.8" font-family="Times,serif" font-size="14.00">gen_mats_source : str</text>
<text text-anchor="start" x="531" y="-324.8" font-family="Times,serif" font-size="14.00">input_generating_matrices : str</text>
<text text-anchor="start" x="531" y="-309.8" font-family="Times,serif" font-size="14.00">input_msb : NoneType</text>
<text text-anchor="start" x="531" y="-294.8" font-family="Times,serif" font-size="14.00">input_t : int</text>
<text text-anchor="start" x="531" y="-279.8" font-family="Times,serif" font-size="14.00">m_max : int</text>
<text text-anchor="start" x="531" y="-264.8" font-family="Times,serif" font-size="14.00">order : str</text>
<text text-anchor="start" x="531" y="-249.8" font-family="Times,serif" font-size="14.00">parameters : list</text>
<text text-anchor="start" x="531" y="-234.8" font-family="Times,serif" font-size="14.00">randomize : str</text>
<text text-anchor="start" x="531" y="-219.8" font-family="Times,serif" font-size="14.00">rngs : ndarray</text>
<text text-anchor="start" x="531" y="-204.8" font-family="Times,serif" font-size="14.00">root_nodes : ndarray</text>
<text text-anchor="start" x="531" y="-189.8" font-family="Times,serif" font-size="14.00">rshift</text>
<text text-anchor="start" x="531" y="-174.8" font-family="Times,serif" font-size="14.00">t : int</text>
<polyline fill="none" stroke="black" points="523,-167 765,-167 "/>
<text text-anchor="start" x="641.5" y="-151.8" font-family="Times,serif" font-size="14.00"> </text>
</g>
<!-- QMCSoftware.qmcpy.discrete_distribution.digital_net_b2.digital_net_b2.DigitalNetB2&#45;&gt;QMCSoftware.qmcpy.discrete_distribution.abstract_discrete_distribution.AbstractLDDiscreteDistribution -->
<g id="edge6" class="edge">
<title>QMCSoftware.qmcpy.discrete_distribution.digital_net_b2.digital_net_b2.DigitalNetB2&#45;&gt;QMCSoftware.qmcpy.discrete_distribution.abstract_discrete_distribution.AbstractLDDiscreteDistribution</title>
<path fill="none" stroke="black" d="M644,-423.03C644,-446.21 644,-468.69 644,-487.14"/>
<polygon fill="none" stroke="black" points="640.5,-487.23 644,-497.23 647.5,-487.23 640.5,-487.23"/>
</g>
<!-- QMCSoftware.qmcpy.discrete_distribution.digital_net_any_bases.faure.Faure -->
<g id="node6" class="node">
<title>QMCSoftware.qmcpy.discrete_distribution.digital_net_any_bases.faure.Faure</title>
<polygon fill="none" stroke="black" points="1.5,-0.5 1.5,-69.5 314.5,-69.5 314.5,-0.5 1.5,-0.5"/>
<text text-anchor="start" x="137" y="-54.3" font-family="Times,serif" font-size="14.00">Faure</text>
<polyline fill="none" stroke="black" points="1.5,-46.5 314.5,-46.5 "/>
<text text-anchor="start" x="9.5" y="-31.3" font-family="Times,serif" font-size="14.00">DEFAULT_GENERATING_MATRICES : str</text>
<polyline fill="none" stroke="black" points="1.5,-23.5 314.5,-23.5 "/>
<text text-anchor="start" x="155.5" y="-8.3" font-family="Times,serif" font-size="14.00"> </text>
</g>
<!-- QMCSoftware.qmcpy.discrete_distribution.digital_net_any_bases.faure.Faure&#45;&gt;QMCSoftware.qmcpy.discrete_distribution.digital_net_any_bases.digital_net_any_bases.DigitalNetAnyBases -->
<g id="edge4" class="edge">
<title>QMCSoftware.qmcpy.discrete_distribution.digital_net_any_bases.faure.Faure&#45;&gt;QMCSoftware.qmcpy.discrete_distribution.digital_net_any_bases.digital_net_any_bases.DigitalNetAnyBases</title>
<path fill="none" stroke="black" d="M180.42,-69.5C186.06,-77.91 192.5,-87.55 199.48,-97.96"/>
<polygon fill="none" stroke="black" points="196.7,-100.11 205.17,-106.47 202.52,-96.22 196.7,-100.11"/>
</g>
<!-- QMCSoftware.qmcpy.discrete_distribution.digital_net_any_bases.halton.Halton -->
<g id="node7" class="node">
<title>QMCSoftware.qmcpy.discrete_distribution.digital_net_any_bases.halton.Halton</title>
<polygon fill="none" stroke="black" points="332.5,-0.5 332.5,-69.5 645.5,-69.5 645.5,-0.5 332.5,-0.5"/>
<text text-anchor="start" x="464.5" y="-54.3" font-family="Times,serif" font-size="14.00">Halton</text>
<polyline fill="none" stroke="black" points="332.5,-46.5 645.5,-46.5 "/>
<text text-anchor="start" x="340.5" y="-31.3" font-family="Times,serif" font-size="14.00">DEFAULT_GENERATING_MATRICES : str</text>
<polyline fill="none" stroke="black" points="332.5,-23.5 645.5,-23.5 "/>
<text text-anchor="start" x="486.5" y="-8.3" font-family="Times,serif" font-size="14.00"> </text>
</g>
<!-- QMCSoftware.qmcpy.discrete_distribution.digital_net_any_bases.halton.Halton&#45;&gt;QMCSoftware.qmcpy.discrete_distribution.digital_net_any_bases.digital_net_any_bases.DigitalNetAnyBases -->
<g id="edge5" class="edge">
<title>QMCSoftware.qmcpy.discrete_distribution.digital_net_any_bases.halton.Halton&#45;&gt;QMCSoftware.qmcpy.discrete_distribution.digital_net_any_bases.digital_net_any_bases.DigitalNetAnyBases</title>
<path fill="none" stroke="black" d="M466.44,-69.5C460.77,-77.91 454.29,-87.55 447.27,-97.96"/>
<polygon fill="none" stroke="black" points="444.22,-96.22 441.54,-106.47 450.03,-100.13 444.22,-96.22"/>
</g>
<!-- QMCSoftware.qmcpy.discrete_distribution.iid_std_uniform.IIDStdUniform -->
<g id="node8" class="node">
<title>QMCSoftware.qmcpy.discrete_distribution.iid_std_uniform.IIDStdUniform</title>
<polygon fill="none" stroke="black" points="0,-248.1 0,-318.9 122,-318.9 122,-248.1 0,-248.1"/>
<text text-anchor="start" x="8" y="-303.7" font-family="Times,serif" font-size="14.00">IIDStdUniform</text>
<polyline fill="none" stroke="black" points="0,-295.9 122,-295.9 "/>
<polyline fill="none" stroke="black" points="0,-271.1 122,-271.1 "/>
<text text-anchor="start" x="58.5" y="-255.9" font-family="Times,serif" font-size="14.00"> </text>
</g>
<!-- QMCSoftware.qmcpy.discrete_distribution.iid_std_uniform.IIDStdUniform&#45;&gt;QMCSoftware.qmcpy.discrete_distribution.abstract_discrete_distribution.AbstractIIDDiscreteDistribution -->
<g id="edge7" class="edge">
<title>QMCSoftware.qmcpy.discrete_distribution.iid_std_uniform.IIDStdUniform&#45;&gt;QMCSoftware.qmcpy.discrete_distribution.abstract_discrete_distribution.AbstractIIDDiscreteDistribution</title>
<path fill="none" stroke="black" d="M68.92,-319.02C78.81,-356.68 98.49,-417.39 131,-461 139.13,-471.91 149.34,-482.05 159.94,-491.05"/>
<polygon fill="none" stroke="black" points="157.75,-493.78 167.7,-497.4 162.18,-488.36 157.75,-493.78"/>
</g>
<!-- QMCSoftware.qmcpy.discrete_distribution.kronecker.Kronecker -->
<g id="node9" class="node">
<title>QMCSoftware.qmcpy.discrete_distribution.kronecker.Kronecker</title>
<polygon fill="none" stroke="black" points="783.5,-189 783.5,-378 1130.5,-378 1130.5,-189 783.5,-189"/>
<text text-anchor="start" x="920" y="-362.8" font-family="Times,serif" font-size="14.00">Kronecker</text>
<polyline fill="none" stroke="black" points="783.5,-355 1130.5,-355 "/>
<text text-anchor="start" x="853" y="-339.8" font-family="Times,serif" font-size="14.00">gen_vec</text>
<text text-anchor="start" x="853" y="-324.8" font-family="Times,serif" font-size="14.00">gen_vec_source : str</text>
<text text-anchor="start" x="853" y="-309.8" font-family="Times,serif" font-size="14.00">input_generating_vector : str</text>
<text text-anchor="start" x="853" y="-294.8" font-family="Times,serif" font-size="14.00">input_shift : NoneType</text>
<text text-anchor="start" x="853" y="-279.8" font-family="Times,serif" font-size="14.00">mimics : str</text>
<text text-anchor="start" x="853" y="-264.8" font-family="Times,serif" font-size="14.00">parameters : list</text>
<text text-anchor="start" x="853" y="-249.8" font-family="Times,serif" font-size="14.00">randomize : str</text>
<text text-anchor="start" x="853" y="-234.8" font-family="Times,serif" font-size="14.00">shift : ndarray</text>
<polyline fill="none" stroke="black" points="783.5,-227 1130.5,-227 "/>
<text text-anchor="start" x="791.5" y="-211.8" font-family="Times,serif" font-size="14.00">periodic_discrepancy(n, k_tilde, gamma)</text>
<text text-anchor="start" x="791.5" y="-196.8" font-family="Times,serif" font-size="14.00">wssd_discrepancy(n, weights, k_tilde, gamma)</text>
</g>
<!-- QMCSoftware.qmcpy.discrete_distribution.kronecker.Kronecker&#45;&gt;QMCSoftware.qmcpy.discrete_distribution.abstract_discrete_distribution.AbstractLDDiscreteDistribution -->
<g id="edge8" class="edge">
<title>QMCSoftware.qmcpy.discrete_distribution.kronecker.Kronecker&#45;&gt;QMCSoftware.qmcpy.discrete_distribution.abstract_discrete_distribution.AbstractLDDiscreteDistribution</title>
<path fill="none" stroke="black" d="M869.62,-378.04C840.65,-406.45 807.27,-436.58 774,-461 758.56,-472.34 741.09,-483.08 724.09,-492.62"/>
<polygon fill="none" stroke="black" points="722.32,-489.59 715.25,-497.49 725.7,-495.72 722.32,-489.59"/>
</g>
<!-- QMCSoftware.qmcpy.discrete_distribution.lattice.lattice.Lattice -->
<g id="node10" class="node">
<title>QMCSoftware.qmcpy.discrete_distribution.lattice.lattice.Lattice</title>
<polygon fill="none" stroke="black" points="1148.5,-196.5 1148.5,-370.5 1375.5,-370.5 1375.5,-196.5 1148.5,-196.5"/>
<text text-anchor="start" x="1237" y="-355.3" font-family="Times,serif" font-size="14.00">Lattice</text>
<polyline fill="none" stroke="black" points="1148.5,-347.5 1375.5,-347.5 "/>
<text text-anchor="start" x="1158" y="-332.3" font-family="Times,serif" font-size="14.00">gen_vec</text>
<text text-anchor="start" x="1158" y="-317.3" font-family="Times,serif" font-size="14.00">gen_vec_source : str</text>
<text text-anchor="start" x="1158" y="-302.3" font-family="Times,serif" font-size="14.00">input_generating_vector : str</text>
<text text-anchor="start" x="1158" y="-287.3" font-family="Times,serif" font-size="14.00">input_m_max : NoneType</text>
<text text-anchor="start" x="1158" y="-272.3" font-family="Times,serif" font-size="14.00">order : str</text>
<text text-anchor="start" x="1158" y="-257.3" font-family="Times,serif" font-size="14.00">parameters : list</text>
<text text-anchor="start" x="1158" y="-242.3" font-family="Times,serif" font-size="14.00">randomize : str</text>
<text text-anchor="start" x="1158" y="-227.3" font-family="Times,serif" font-size="14.00">shift</text>
<polyline fill="none" stroke="black" points="1148.5,-219.5 1375.5,-219.5 "/>
<text text-anchor="start" x="1156.5" y="-204.3" font-family="Times,serif" font-size="14.00">calculate_y(m_low, m_high, y)</text>
</g>
<!-- QMCSoftware.qmcpy.discrete_distribution.lattice.lattice.Lattice&#45;&gt;QMCSoftware.qmcpy.discrete_distribution.abstract_discrete_distribution.AbstractLDDiscreteDistribution -->
<g id="edge9" class="edge">
<title>QMCSoftware.qmcpy.discrete_distribution.lattice.lattice.Lattice&#45;&gt;QMCSoftware.qmcpy.discrete_distribution.abstract_discrete_distribution.AbstractLDDiscreteDistribution</title>
<path fill="none" stroke="black" d="M1221.95,-370.67C1202.02,-404.15 1174.69,-439.54 1140,-461 1080.85,-497.59 902.04,-516.13 776.16,-524.9"/>
<polygon fill="none" stroke="black" points="775.79,-521.42 766.05,-525.59 776.27,-528.4 775.79,-521.42"/>
</g>
</g>
</svg>
