<?xml version="1.0" encoding="UTF-8" standalone="no"?>
<!DOCTYPE svg PUBLIC "-//W3C//DTD SVG 1.1//EN"
 "http://www.w3.org/Graphics/SVG/1.1/DTD/svg11.dtd">
<!-- Generated by graphviz version 2.43.0 (0)
 -->
<!-- Title: classes Pages: 1 -->
<svg width="665pt" height="264pt"
 viewBox="0.00 0.00 664.50 264.00" xmlns="http://www.w3.org/2000/svg" xmlns:xlink="http://www.w3.org/1999/xlink">
<g id="graph0" class="graph" transform="scale(1 1) rotate(0) translate(4 260)">
<title>classes</title>
<polygon fill="white" stroke="transparent" points="-4,4 -4,-260 660.5,-260 660.5,4 -4,4"/>
<!-- QMCSoftware.qmcpy.discrete_distribution.abstract_discrete_distribution.AbstractDiscreteDistribution -->
<g id="node1" class="node">
<title>QMCSoftware.qmcpy.discrete_distribution.abstract_discrete_distribution.AbstractDiscreteDistribution</title>
<polygon fill="none" stroke="black" points="141.5,-219.5 141.5,-255.5 365.5,-255.5 365.5,-219.5 141.5,-219.5"/>
<text text-anchor="start" x="149.5" y="-233.8" font-family="Times,serif" font-size="14.00">AbstractDiscreteDistribution</text>
</g>
<!-- QMCSoftware.qmcpy.discrete_distribution.abstract_discrete_distribution.AbstractIIDDiscreteDistribution -->
<g id="node2" class="node">
<title>QMCSoftware.qmcpy.discrete_distribution.abstract_discrete_distribution.AbstractIIDDiscreteDistribution</title>
<polygon fill="none" stroke="black" points="0,-146.5 0,-182.5 245,-182.5 245,-146.5 0,-146.5"/>
<text text-anchor="start" x="8" y="-160.8" font-family="Times,serif" font-size="14.00">AbstractIIDDiscreteDistribution</text>
</g>
<!-- QMCSoftware.qmcpy.discrete_distribution.abstract_discrete_distribution.AbstractIIDDiscreteDistribution&#45;&gt;QMCSoftware.qmcpy.discrete_distribution.abstract_discrete_distribution.AbstractDiscreteDistribution -->
<g id="edge1" class="edge">
<title>QMCSoftware.qmcpy.discrete_distribution.abstract_discrete_distribution.AbstractIIDDiscreteDistribution&#45;&gt;QMCSoftware.qmcpy.discrete_distribution.abstract_discrete_distribution.AbstractDiscreteDistribution</title>
<path fill="none" stroke="black" d="M153.88,-182.51C171.57,-192.1 193.87,-204.18 212.89,-214.49"/>
<polygon fill="none" stroke="black" points="211.46,-217.7 221.92,-219.39 214.8,-211.54 211.46,-217.7"/>
</g>
<!-- QMCSoftware.qmcpy.discrete_distribution.abstract_discrete_distribution.AbstractLDDiscreteDistribution -->
<g id="node3" class="node">
<title>QMCSoftware.qmcpy.discrete_distribution.abstract_discrete_distribution.AbstractLDDiscreteDistribution</title>
<polygon fill="none" stroke="black" points="287.5,-146.5 287.5,-182.5 531.5,-182.5 531.5,-146.5 287.5,-146.5"/>
<text text-anchor="start" x="295.5" y="-160.8" font-family="Times,serif" font-size="14.00">AbstractLDDiscreteDistribution</text>
</g>
<!-- QMCSoftware.qmcpy.discrete_distribution.abstract_discrete_distribution.AbstractLDDiscreteDistribution&#45;&gt;QMCSoftware.qmcpy.discrete_distribution.abstract_discrete_distribution.AbstractDiscreteDistribution -->
<g id="edge2" class="edge">
<title>QMCSoftware.qmcpy.discrete_distribution.abstract_discrete_distribution.AbstractLDDiscreteDistribution&#45;&gt;QMCSoftware.qmcpy.discrete_distribution.abstract_discrete_distribution.AbstractDiscreteDistribution</title>
<path fill="none" stroke="black" d="M372.13,-182.51C350.59,-192.31 323.3,-204.73 300.32,-215.19"/>
<polygon fill="none" stroke="black" points="298.75,-212.06 291.1,-219.39 301.65,-218.43 298.75,-212.06"/>
</g>
<!-- QMCSoftware.qmcpy.discrete_distribution.digital_net_any_bases.digital_net_any_bases.DigitalNetAnyBases -->
<g id="node4" class="node">
<title>QMCSoftware.qmcpy.discrete_distribution.digital_net_any_bases.digital_net_any_bases.DigitalNetAnyBases</title>
<polygon fill="none" stroke="black" points="176.5,-73.5 176.5,-109.5 336.5,-109.5 336.5,-73.5 176.5,-73.5"/>
<text text-anchor="start" x="184.5" y="-87.8" font-family="Times,serif" font-size="14.00">DigitalNetAnyBases</text>
</g>
<!-- QMCSoftware.qmcpy.discrete_distribution.digital_net_any_bases.digital_net_any_bases.DigitalNetAnyBases&#45;&gt;QMCSoftware.qmcpy.discrete_distribution.abstract_discrete_distribution.AbstractLDDiscreteDistribution -->
<g id="edge3" class="edge">
<title>QMCSoftware.qmcpy.discrete_distribution.digital_net_any_bases.digital_net_any_bases.DigitalNetAnyBases&#45;&gt;QMCSoftware.qmcpy.discrete_distribution.abstract_discrete_distribution.AbstractLDDiscreteDistribution</title>
<path fill="none" stroke="black" d="M293.15,-109.51C314.19,-119.27 340.81,-131.62 363.28,-142.05"/>
<polygon fill="none" stroke="black" points="362.08,-145.35 372.62,-146.39 365.02,-139 362.08,-145.35"/>
</g>
<!-- QMCSoftware.qmcpy.discrete_distribution.digital_net_b2.digital_net_b2.DigitalNetB2 -->
<g id="node5" class="node">
<title>QMCSoftware.qmcpy.discrete_distribution.digital_net_b2.digital_net_b2.DigitalNetB2</title>
<polygon fill="none" stroke="black" points="354.5,-73.5 354.5,-109.5 464.5,-109.5 464.5,-73.5 354.5,-73.5"/>
<text text-anchor="start" x="362.5" y="-87.8" font-family="Times,serif" font-size="14.00">DigitalNetB2</text>
</g>
<!-- QMCSoftware.qmcpy.discrete_distribution.digital_net_b2.digital_net_b2.DigitalNetB2&#45;&gt;QMCSoftware.qmcpy.discrete_distribution.abstract_discrete_distribution.AbstractLDDiscreteDistribution -->
<g id="edge6" class="edge">
<title>QMCSoftware.qmcpy.discrete_distribution.digital_net_b2.digital_net_b2.DigitalNetB2&#45;&gt;QMCSoftware.qmcpy.discrete_distribution.abstract_discrete_distribution.AbstractLDDiscreteDistribution</title>
<path fill="none" stroke="black" d="M409.5,-109.69C409.5,-117.71 409.5,-127.45 409.5,-136.43"/>
<polygon fill="none" stroke="black" points="406,-136.47 409.5,-146.47 413,-136.47 406,-136.47"/>
</g>
<!-- QMCSoftware.qmcpy.discrete_distribution.digital_net_any_bases.faure.Faure -->
<g id="node6" class="node">
<title>QMCSoftware.qmcpy.discrete_distribution.digital_net_any_bases.faure.Faure</title>
<polygon fill="none" stroke="black" points="187.5,-0.5 187.5,-36.5 245.5,-36.5 245.5,-0.5 187.5,-0.5"/>
<text text-anchor="start" x="195.5" y="-14.8" font-family="Times,serif" font-size="14.00">Faure</text>
</g>
<!-- QMCSoftware.qmcpy.discrete_distribution.digital_net_any_bases.faure.Faure&#45;&gt;QMCSoftware.qmcpy.discrete_distribution.digital_net_any_bases.digital_net_any_bases.DigitalNetAnyBases -->
<g id="edge4" class="edge">
<title>QMCSoftware.qmcpy.discrete_distribution.digital_net_any_bases.faure.Faure&#45;&gt;QMCSoftware.qmcpy.discrete_distribution.digital_net_any_bases.digital_net_any_bases.DigitalNetAnyBases</title>
<path fill="none" stroke="black" d="M226.18,-36.69C230.9,-45.06 236.67,-55.3 241.91,-64.6"/>
<polygon fill="none" stroke="black" points="238.95,-66.48 246.91,-73.47 245.05,-63.04 238.95,-66.48"/>
</g>
<!-- QMCSoftware.qmcpy.discrete_distribution.digital_net_any_bases.halton.Halton -->
<g id="node7" class="node">
<title>QMCSoftware.qmcpy.discrete_distribution.digital_net_any_bases.halton.Halton</title>
<polygon fill="none" stroke="black" points="264,-0.5 264,-36.5 329,-36.5 329,-0.5 264,-0.5"/>
<text text-anchor="start" x="272" y="-14.8" font-family="Times,serif" font-size="14.00">Halton</text>
</g>
<!-- QMCSoftware.qmcpy.discrete_distribution.digital_net_any_bases.halton.Halton&#45;&gt;QMCSoftware.qmcpy.discrete_distribution.digital_net_any_bases.digital_net_any_bases.DigitalNetAnyBases -->
<g id="edge5" class="edge">
<title>QMCSoftware.qmcpy.discrete_distribution.digital_net_any_bases.halton.Halton&#45;&gt;QMCSoftware.qmcpy.discrete_distribution.digital_net_any_bases.digital_net_any_bases.DigitalNetAnyBases</title>
<path fill="none" stroke="black" d="M286.82,-36.69C282.1,-45.06 276.33,-55.3 271.09,-64.6"/>
<polygon fill="none" stroke="black" points="267.95,-63.04 266.09,-73.47 274.05,-66.48 267.95,-63.04"/>
</g>
<!-- QMCSoftware.qmcpy.discrete_distribution.iid_std_uniform.IIDStdUniform -->
<g id="node8" class="node">
<title>QMCSoftware.qmcpy.discrete_distribution.iid_std_uniform.IIDStdUniform</title>
<polygon fill="none" stroke="black" points="36.5,-73.5 36.5,-109.5 158.5,-109.5 158.5,-73.5 36.5,-73.5"/>
<text text-anchor="start" x="44.5" y="-87.8" font-family="Times,serif" font-size="14.00">IIDStdUniform</text>
</g>
<!-- QMCSoftware.qmcpy.discrete_distribution.iid_std_uniform.IIDStdUniform&#45;&gt;QMCSoftware.qmcpy.discrete_distribution.abstract_discrete_distribution.AbstractIIDDiscreteDistribution -->
<g id="edge7" class="edge">
<title>QMCSoftware.qmcpy.discrete_distribution.iid_std_uniform.IIDStdUniform&#45;&gt;QMCSoftware.qmcpy.discrete_distribution.abstract_discrete_distribution.AbstractIIDDiscreteDistribution</title>
<path fill="none" stroke="black" d="M103.55,-109.69C106.44,-117.88 109.96,-127.88 113.17,-137.02"/>
<polygon fill="none" stroke="black" points="109.88,-138.2 116.5,-146.47 116.48,-135.88 109.88,-138.2"/>
</g>
<!-- QMCSoftware.qmcpy.discrete_distribution.kronecker.Kronecker -->
<g id="node9" class="node">
<title>QMCSoftware.qmcpy.discrete_distribution.kronecker.Kronecker</title>
<polygon fill="none" stroke="black" points="482.5,-73.5 482.5,-109.5 572.5,-109.5 572.5,-73.5 482.5,-73.5"/>
<text text-anchor="start" x="490.5" y="-87.8" font-family="Times,serif" font-size="14.00">Kronecker</text>
</g>
<!-- QMCSoftware.qmcpy.discrete_distribution.kronecker.Kronecker&#45;&gt;QMCSoftware.qmcpy.discrete_distribution.abstract_discrete_distribution.AbstractLDDiscreteDistribution -->
<g id="edge8" class="edge">
<title>QMCSoftware.qmcpy.discrete_distribution.kronecker.Kronecker&#45;&gt;QMCSoftware.qmcpy.discrete_distribution.abstract_discrete_distribution.AbstractLDDiscreteDistribution</title>
<path fill="none" stroke="black" d="M499.24,-109.51C483.44,-119.01 463.57,-130.96 446.55,-141.21"/>
<polygon fill="none" stroke="black" points="444.71,-138.23 437.94,-146.39 448.32,-144.23 444.71,-138.23"/>
</g>
<!-- QMCSoftware.qmcpy.discrete_distribution.lattice.lattice.Lattice -->
<g id="node10" class="node">
<title>QMCSoftware.qmcpy.discrete_distribution.lattice.lattice.Lattice</title>
<polygon fill="none" stroke="black" points="590.5,-73.5 590.5,-109.5 656.5,-109.5 656.5,-73.5 590.5,-73.5"/>
<text text-anchor="start" x="598.5" y="-87.8" font-family="Times,serif" font-size="14.00">Lattice</text>
</g>
<!-- QMCSoftware.qmcpy.discrete_distribution.lattice.lattice.Lattice&#45;&gt;QMCSoftware.qmcpy.discrete_distribution.abstract_discrete_distribution.AbstractLDDiscreteDistribution -->
<g id="edge9" class="edge">
<title>QMCSoftware.qmcpy.discrete_distribution.lattice.lattice.Lattice&#45;&gt;QMCSoftware.qmcpy.discrete_distribution.abstract_discrete_distribution.AbstractLDDiscreteDistribution</title>
<path fill="none" stroke="black" d="M590.14,-106.73C587.23,-107.87 584.32,-108.98 581.5,-110 548.07,-122.13 510.39,-134.05 478.84,-143.54"/>
<polygon fill="none" stroke="black" points="477.84,-140.19 469.26,-146.41 479.84,-146.89 477.84,-140.19"/>
</g>
</g>
</svg>
