<?xml version="1.0" encoding="UTF-8" standalone="no"?>
<!DOCTYPE svg PUBLIC "-//W3C//DTD SVG 1.1//EN"
 "http://www.w3.org/Graphics/SVG/1.1/DTD/svg11.dtd">
<!-- Generated by graphviz version 2.43.0 (0)
 -->
<!-- Title: classes Pages: 1 -->
<svg width="558pt" height="264pt"
 viewBox="0.00 0.00 557.50 264.00" xmlns="http://www.w3.org/2000/svg" xmlns:xlink="http://www.w3.org/1999/xlink">
<g id="graph0" class="graph" transform="scale(1 1) rotate(0) translate(4 260)">
<title>classes</title>
<polygon fill="white" stroke="transparent" points="-4,4 -4,-260 553.5,-260 553.5,4 -4,4"/>
<!-- QMCSoftware.qmcpy.discrete_distribution.abstract_discrete_distribution.AbstractDiscreteDistribution -->
<g id="node1" class="node">
<title>QMCSoftware.qmcpy.discrete_distribution.abstract_discrete_distribution.AbstractDiscreteDistribution</title>
<polygon fill="none" stroke="black" points="141.5,-219.5 141.5,-255.5 365.5,-255.5 365.5,-219.5 141.5,-219.5"/>
<text text-anchor="start" x="149.5" y="-233.8" font-family="Times,serif" font-size="14.00">AbstractDiscreteDistribution</text>
</g>
<!-- QMCSoftware.qmcpy.discrete_distribution.abstract_discrete_distribution.AbstractIIDDiscreteDistribution -->
<g id="node2" class="node">
<title>QMCSoftware.qmcpy.discrete_distribution.abstract_discrete_distribution.AbstractIIDDiscreteDistribution</title>
<polygon fill="none" stroke="black" points="0,-146.5 0,-182.5 245,-182.5 245,-146.5 0,-146.5"/>
<text text-anchor="start" x="8" y="-160.8" font-family="Times,serif" font-size="14.00">AbstractIIDDiscreteDistribution</text>
</g>
<!-- QMCSoftware.qmcpy.discrete_distribution.abstract_discrete_distribution.AbstractIIDDiscreteDistribution&#45;&gt;QMCSoftware.qmcpy.discrete_distribution.abstract_discrete_distribution.AbstractDiscreteDistribution -->
<g id="edge1" class="edge">
<title>QMCSoftware.qmcpy.discrete_distribution.abstract_discrete_distribution.AbstractIIDDiscreteDistribution&#45;&gt;QMCSoftware.qmcpy.discrete_distribution.abstract_discrete_distribution.AbstractDiscreteDistribution</title>
<path fill="none" stroke="black" d="M153.88,-182.51C171.57,-192.1 193.87,-204.18 212.89,-214.49"/>
<polygon fill="none" stroke="black" points="211.46,-217.7 221.92,-219.39 214.8,-211.54 211.46,-217.7"/>
</g>
<!-- QMCSoftware.qmcpy.discrete_distribution.abstract_discrete_distribution.AbstractLDDiscreteDistribution -->
<g id="node3" class="node">
<title>QMCSoftware.qmcpy.discrete_distribution.abstract_discrete_distribution.AbstractLDDiscreteDistribution</title>
<polygon fill="none" stroke="black" points="275.5,-146.5 275.5,-182.5 519.5,-182.5 519.5,-146.5 275.5,-146.5"/>
<text text-anchor="start" x="283.5" y="-160.8" font-family="Times,serif" font-size="14.00">AbstractLDDiscreteDistribution</text>
</g>
<!-- QMCSoftware.qmcpy.discrete_distribution.abstract_discrete_distribution.AbstractLDDiscreteDistribution&#45;&gt;QMCSoftware.qmcpy.discrete_distribution.abstract_discrete_distribution.AbstractDiscreteDistribution -->
<g id="edge2" class="edge">
<title>QMCSoftware.qmcpy.discrete_distribution.abstract_discrete_distribution.AbstractLDDiscreteDistribution&#45;&gt;QMCSoftware.qmcpy.discrete_distribution.abstract_discrete_distribution.AbstractDiscreteDistribution</title>
<path fill="none" stroke="black" d="M363.01,-182.51C343.29,-192.23 318.37,-204.51 297.29,-214.91"/>
<polygon fill="none" stroke="black" points="295.63,-211.82 288.21,-219.39 298.73,-218.1 295.63,-211.82"/>
</g>
<!-- QMCSoftware.qmcpy.discrete_distribution.digital_net_any_bases.digital_net_any_bases.DigitalNetAnyBases -->
<g id="node4" class="node">
<title>QMCSoftware.qmcpy.discrete_distribution.digital_net_any_bases.digital_net_any_bases.DigitalNetAnyBases</title>
<polygon fill="none" stroke="black" points="177.5,-73.5 177.5,-109.5 337.5,-109.5 337.5,-73.5 177.5,-73.5"/>
<text text-anchor="start" x="185.5" y="-87.8" font-family="Times,serif" font-size="14.00">DigitalNetAnyBases</text>
</g>
<!-- QMCSoftware.qmcpy.discrete_distribution.digital_net_any_bases.digital_net_any_bases.DigitalNetAnyBases&#45;&gt;QMCSoftware.qmcpy.discrete_distribution.abstract_discrete_distribution.AbstractLDDiscreteDistribution -->
<g id="edge3" class="edge">
<title>QMCSoftware.qmcpy.discrete_distribution.digital_net_any_bases.digital_net_any_bases.DigitalNetAnyBases&#45;&gt;QMCSoftware.qmcpy.discrete_distribution.abstract_discrete_distribution.AbstractLDDiscreteDistribution</title>
<path fill="none" stroke="black" d="M291.03,-109.51C310.11,-119.18 334.21,-131.4 354.65,-141.77"/>
<polygon fill="none" stroke="black" points="353.25,-144.98 363.75,-146.39 356.42,-138.74 353.25,-144.98"/>
</g>
<!-- QMCSoftware.qmcpy.discrete_distribution.digital_net_b2.digital_net_b2.DigitalNetB2 -->
<g id="node5" class="node">
<title>QMCSoftware.qmcpy.discrete_distribution.digital_net_b2.digital_net_b2.DigitalNetB2</title>
<polygon fill="none" stroke="black" points="355.5,-73.5 355.5,-109.5 465.5,-109.5 465.5,-73.5 355.5,-73.5"/>
<text text-anchor="start" x="363.5" y="-87.8" font-family="Times,serif" font-size="14.00">DigitalNetB2</text>
</g>
<!-- QMCSoftware.qmcpy.discrete_distribution.digital_net_b2.digital_net_b2.DigitalNetB2&#45;&gt;QMCSoftware.qmcpy.discrete_distribution.abstract_discrete_distribution.AbstractLDDiscreteDistribution -->
<g id="edge6" class="edge">
<title>QMCSoftware.qmcpy.discrete_distribution.digital_net_b2.digital_net_b2.DigitalNetB2&#45;&gt;QMCSoftware.qmcpy.discrete_distribution.abstract_discrete_distribution.AbstractLDDiscreteDistribution</title>
<path fill="none" stroke="black" d="M407.35,-109.69C405.88,-117.71 404.1,-127.45 402.46,-136.43"/>
<polygon fill="none" stroke="black" points="398.98,-136 400.62,-146.47 405.86,-137.27 398.98,-136"/>
</g>
<!-- QMCSoftware.qmcpy.discrete_distribution.digital_net_any_bases.faure.Faure -->
<g id="node6" class="node">
<title>QMCSoftware.qmcpy.discrete_distribution.digital_net_any_bases.faure.Faure</title>
<polygon fill="none" stroke="black" points="188.5,-0.5 188.5,-36.5 246.5,-36.5 246.5,-0.5 188.5,-0.5"/>
<text text-anchor="start" x="196.5" y="-14.8" font-family="Times,serif" font-size="14.00">Faure</text>
</g>
<!-- QMCSoftware.qmcpy.discrete_distribution.digital_net_any_bases.faure.Faure&#45;&gt;QMCSoftware.qmcpy.discrete_distribution.digital_net_any_bases.digital_net_any_bases.DigitalNetAnyBases -->
<g id="edge4" class="edge">
<title>QMCSoftware.qmcpy.discrete_distribution.digital_net_any_bases.faure.Faure&#45;&gt;QMCSoftware.qmcpy.discrete_distribution.digital_net_any_bases.digital_net_any_bases.DigitalNetAnyBases</title>
<path fill="none" stroke="black" d="M227.18,-36.69C231.9,-45.06 237.67,-55.3 242.91,-64.6"/>
<polygon fill="none" stroke="black" points="239.95,-66.48 247.91,-73.47 246.05,-63.04 239.95,-66.48"/>
</g>
<!-- QMCSoftware.qmcpy.discrete_distribution.digital_net_any_bases.halton.Halton -->
<g id="node7" class="node">
<title>QMCSoftware.qmcpy.discrete_distribution.digital_net_any_bases.halton.Halton</title>
<polygon fill="none" stroke="black" points="265,-0.5 265,-36.5 330,-36.5 330,-0.5 265,-0.5"/>
<text text-anchor="start" x="273" y="-14.8" font-family="Times,serif" font-size="14.00">Halton</text>
</g>
<!-- QMCSoftware.qmcpy.discrete_distribution.digital_net_any_bases.halton.Halton&#45;&gt;QMCSoftware.qmcpy.discrete_distribution.digital_net_any_bases.digital_net_any_bases.DigitalNetAnyBases -->
<g id="edge5" class="edge">
<title>QMCSoftware.qmcpy.discrete_distribution.digital_net_any_bases.halton.Halton&#45;&gt;QMCSoftware.qmcpy.discrete_distribution.digital_net_any_bases.digital_net_any_bases.DigitalNetAnyBases</title>
<path fill="none" stroke="black" d="M287.82,-36.69C283.1,-45.06 277.33,-55.3 272.09,-64.6"/>
<polygon fill="none" stroke="black" points="268.95,-63.04 267.09,-73.47 275.05,-66.48 268.95,-63.04"/>
</g>
<!-- QMCSoftware.qmcpy.discrete_distribution.iid_std_uniform.IIDStdUniform -->
<g id="node8" class="node">
<title>QMCSoftware.qmcpy.discrete_distribution.iid_std_uniform.IIDStdUniform</title>
<polygon fill="none" stroke="black" points="37.5,-73.5 37.5,-109.5 159.5,-109.5 159.5,-73.5 37.5,-73.5"/>
<text text-anchor="start" x="45.5" y="-87.8" font-family="Times,serif" font-size="14.00">IIDStdUniform</text>
</g>
<!-- QMCSoftware.qmcpy.discrete_distribution.iid_std_uniform.IIDStdUniform&#45;&gt;QMCSoftware.qmcpy.discrete_distribution.abstract_discrete_distribution.AbstractIIDDiscreteDistribution -->
<g id="edge7" class="edge">
<title>QMCSoftware.qmcpy.discrete_distribution.iid_std_uniform.IIDStdUniform&#45;&gt;QMCSoftware.qmcpy.discrete_distribution.abstract_discrete_distribution.AbstractIIDDiscreteDistribution</title>
<path fill="none" stroke="black" d="M104.31,-109.69C107.05,-117.8 110.39,-127.66 113.45,-136.72"/>
<polygon fill="none" stroke="black" points="110.23,-138.12 116.74,-146.47 116.86,-135.88 110.23,-138.12"/>
</g>
<!-- QMCSoftware.qmcpy.discrete_distribution.lattice.lattice.Lattice -->
<g id="node9" class="node">
<title>QMCSoftware.qmcpy.discrete_distribution.lattice.lattice.Lattice</title>
<polygon fill="none" stroke="black" points="483.5,-73.5 483.5,-109.5 549.5,-109.5 549.5,-73.5 483.5,-73.5"/>
<text text-anchor="start" x="491.5" y="-87.8" font-family="Times,serif" font-size="14.00">Lattice</text>
</g>
<!-- QMCSoftware.qmcpy.discrete_distribution.lattice.lattice.Lattice&#45;&gt;QMCSoftware.qmcpy.discrete_distribution.abstract_discrete_distribution.AbstractLDDiscreteDistribution -->
<g id="edge8" class="edge">
<title>QMCSoftware.qmcpy.discrete_distribution.lattice.lattice.Lattice&#45;&gt;QMCSoftware.qmcpy.discrete_distribution.abstract_discrete_distribution.AbstractLDDiscreteDistribution</title>
<path fill="none" stroke="black" d="M488,-109.51C472.07,-119.01 452.03,-130.96 434.86,-141.21"/>
<polygon fill="none" stroke="black" points="432.98,-138.26 426.18,-146.39 436.56,-144.27 432.98,-138.26"/>
</g>
</g>
</svg>
