<?xml version="1.0" encoding="UTF-8" standalone="no"?>
<!DOCTYPE svg PUBLIC "-//W3C//DTD SVG 1.1//EN"
 "http://www.w3.org/Graphics/SVG/1.1/DTD/svg11.dtd">
<!-- Generated by graphviz version 2.43.0 (0)
 -->
<!-- Title: classes Pages: 1 -->
<svg width="3134pt" height="1222pt"
 viewBox="0.00 0.00 3134.00 1221.80" xmlns="http://www.w3.org/2000/svg" xmlns:xlink="http://www.w3.org/1999/xlink">
<g id="graph0" class="graph" transform="scale(1 1) rotate(0) translate(4 1217.8)">
<title>classes</title>
<polygon fill="white" stroke="transparent" points="-4,4 -4,-1217.8 3130,-1217.8 3130,4 -4,4"/>
<!-- QMCSoftware.qmcpy.integrand.abstract_integrand.AbstractIntegrand -->
<g id="node1" class="node">
<title>QMCSoftware.qmcpy.integrand.abstract_integrand.AbstractIntegrand</title>
<polygon fill="none" stroke="black" points="1395,-919.3 1395,-1213.3 1792,-1213.3 1792,-919.3 1395,-919.3"/>
<text text-anchor="start" x="1527.5" y="-1198.1" font-family="Times,serif" font-size="14.00">AbstractIntegrand</text>
<polyline fill="none" stroke="black" points="1395,-1190.3 1792,-1190.3 "/>
<text text-anchor="start" x="1533" y="-1175.1" font-family="Times,serif" font-size="14.00">EPS</text>
<text text-anchor="start" x="1533" y="-1160.1" font-family="Times,serif" font-size="14.00">d</text>
<text text-anchor="start" x="1533" y="-1145.1" font-family="Times,serif" font-size="14.00">d_comb : tuple</text>
<text text-anchor="start" x="1533" y="-1130.1" font-family="Times,serif" font-size="14.00">d_indv : tuple</text>
<text text-anchor="start" x="1533" y="-1115.1" font-family="Times,serif" font-size="14.00">discrete_distrib</text>
<text text-anchor="start" x="1533" y="-1100.1" font-family="Times,serif" font-size="14.00">max_level</text>
<text text-anchor="start" x="1533" y="-1085.1" font-family="Times,serif" font-size="14.00">multilevel : bool</text>
<text text-anchor="start" x="1533" y="-1070.1" font-family="Times,serif" font-size="14.00">parallel : int</text>
<text text-anchor="start" x="1533" y="-1055.1" font-family="Times,serif" font-size="14.00">parameters : list</text>
<text text-anchor="start" x="1533" y="-1040.1" font-family="Times,serif" font-size="14.00">threadpool : bool</text>
<polyline fill="none" stroke="black" points="1395,-1032.3 1792,-1032.3 "/>
<text text-anchor="start" x="1403" y="-1017.1" font-family="Times,serif" font-size="14.00">bound_fun(bound_low, bound_high)</text>
<text text-anchor="start" x="1403" y="-1002.1" font-family="Times,serif" font-size="14.00">dependency(comb_flags)</text>
<text text-anchor="start" x="1403" y="-987.1" font-family="Times,serif" font-size="14.00">dimension_at_level(level)</text>
<text text-anchor="start" x="1403" y="-972.1" font-family="Times,serif" font-size="14.00">f(x)</text>
<text text-anchor="start" x="1403" y="-957.1" font-family="Times,serif" font-size="14.00">g(t)</text>
<text text-anchor="start" x="1403" y="-942.1" font-family="Times,serif" font-size="14.00">gen_samples(n, n_min, n_max, return_weights, warn)</text>
<text text-anchor="start" x="1403" y="-927.1" font-family="Times,serif" font-size="14.00">spawn(levels)</text>
</g>
<!-- QMCSoftware.qmcpy.integrand.financial_option.AsianOption -->
<g id="node2" class="node">
<title>QMCSoftware.qmcpy.integrand.financial_option.AsianOption</title>
<polygon fill="none" stroke="black" points="492.5,-0.5 492.5,-71.3 596.5,-71.3 596.5,-0.5 492.5,-0.5"/>
<text text-anchor="start" x="500.5" y="-56.1" font-family="Times,serif" font-size="14.00">AsianOption</text>
<polyline fill="none" stroke="black" points="492.5,-48.3 596.5,-48.3 "/>
<polyline fill="none" stroke="black" points="492.5,-23.5 596.5,-23.5 "/>
<text text-anchor="start" x="542" y="-8.3" font-family="Times,serif" font-size="14.00"> </text>
</g>
<!-- QMCSoftware.qmcpy.integrand.financial_option.FinancialOption -->
<g id="node9" class="node">
<title>QMCSoftware.qmcpy.integrand.financial_option.FinancialOption</title>
<polygon fill="none" stroke="black" points="645,-108.3 645,-882.3 966,-882.3 966,-108.3 645,-108.3"/>
<text text-anchor="start" x="748.5" y="-867.1" font-family="Times,serif" font-size="14.00">FinancialOption</text>
<polyline fill="none" stroke="black" points="645,-859.3 966,-859.3 "/>
<text text-anchor="start" x="653" y="-844.1" font-family="Times,serif" font-size="14.00">asian_mean : str</text>
<text text-anchor="start" x="653" y="-829.1" font-family="Times,serif" font-size="14.00">asian_mean_quadrature_rule : str</text>
<text text-anchor="start" x="653" y="-814.1" font-family="Times,serif" font-size="14.00">barrier_in_out : str</text>
<text text-anchor="start" x="653" y="-799.1" font-family="Times,serif" font-size="14.00">barrier_price : float</text>
<text text-anchor="start" x="653" y="-784.1" font-family="Times,serif" font-size="14.00">barrier_up_down : str</text>
<text text-anchor="start" x="653" y="-769.1" font-family="Times,serif" font-size="14.00">call_put : str</text>
<text text-anchor="start" x="653" y="-754.1" font-family="Times,serif" font-size="14.00">cost</text>
<text text-anchor="start" x="653" y="-739.1" font-family="Times,serif" font-size="14.00">d_coarsest : int</text>
<text text-anchor="start" x="653" y="-724.1" font-family="Times,serif" font-size="14.00">decomp_type : str</text>
<text text-anchor="start" x="653" y="-709.1" font-family="Times,serif" font-size="14.00">digital_payout : float</text>
<text text-anchor="start" x="653" y="-694.1" font-family="Times,serif" font-size="14.00">discount_factor</text>
<text text-anchor="start" x="653" y="-679.1" font-family="Times,serif" font-size="14.00">interest_rate : float</text>
<text text-anchor="start" x="653" y="-664.1" font-family="Times,serif" font-size="14.00">level : NoneType, int</text>
<text text-anchor="start" x="653" y="-649.1" font-family="Times,serif" font-size="14.00">multilevel : bool</text>
<text text-anchor="start" x="653" y="-634.1" font-family="Times,serif" font-size="14.00">option : str</text>
<text text-anchor="start" x="653" y="-619.1" font-family="Times,serif" font-size="14.00">parameters : list</text>
<text text-anchor="start" x="653" y="-604.1" font-family="Times,serif" font-size="14.00">payoff</text>
<text text-anchor="start" x="653" y="-589.1" font-family="Times,serif" font-size="14.00">sampler</text>
<text text-anchor="start" x="653" y="-574.1" font-family="Times,serif" font-size="14.00">start_price : float</text>
<text text-anchor="start" x="653" y="-559.1" font-family="Times,serif" font-size="14.00">strike_price : float</text>
<text text-anchor="start" x="653" y="-544.1" font-family="Times,serif" font-size="14.00">t_final : int</text>
<text text-anchor="start" x="653" y="-529.1" font-family="Times,serif" font-size="14.00">true_measure : GeometricBrownianMotion</text>
<text text-anchor="start" x="653" y="-514.1" font-family="Times,serif" font-size="14.00">volatility : float</text>
<polyline fill="none" stroke="black" points="645,-506.3 966,-506.3 "/>
<text text-anchor="start" x="663" y="-491.1" font-family="Times,serif" font-size="14.00">dimension_at_level(level)</text>
<text text-anchor="start" x="663" y="-476.1" font-family="Times,serif" font-size="14.00">g(t)</text>
<text text-anchor="start" x="663" y="-461.1" font-family="Times,serif" font-size="14.00">get_exact_value()</text>
<text text-anchor="start" x="663" y="-446.1" font-family="Times,serif" font-size="14.00">get_exact_value_inf_dim()</text>
<text text-anchor="start" x="663" y="-431.1" font-family="Times,serif" font-size="14.00">payoff_asian_arithmetic_right_call(gbm)</text>
<text text-anchor="start" x="663" y="-416.1" font-family="Times,serif" font-size="14.00">payoff_asian_arithmetic_right_put(gbm)</text>
<text text-anchor="start" x="663" y="-401.1" font-family="Times,serif" font-size="14.00">payoff_asian_arithmetic_trap_call(gbm)</text>
<text text-anchor="start" x="663" y="-386.1" font-family="Times,serif" font-size="14.00">payoff_asian_arithmetic_trap_put(gbm)</text>
<text text-anchor="start" x="663" y="-371.1" font-family="Times,serif" font-size="14.00">payoff_asian_geometric_right_call(gbm)</text>
<text text-anchor="start" x="663" y="-356.1" font-family="Times,serif" font-size="14.00">payoff_asian_geometric_right_put(gbm)</text>
<text text-anchor="start" x="663" y="-341.1" font-family="Times,serif" font-size="14.00">payoff_asian_geometric_trap_call(gbm)</text>
<text text-anchor="start" x="663" y="-326.1" font-family="Times,serif" font-size="14.00">payoff_asian_geometric_trap_put(gbm)</text>
<text text-anchor="start" x="663" y="-311.1" font-family="Times,serif" font-size="14.00">payoff_barrier_in_down_call(gbm)</text>
<text text-anchor="start" x="663" y="-296.1" font-family="Times,serif" font-size="14.00">payoff_barrier_in_down_put(gbm)</text>
<text text-anchor="start" x="663" y="-281.1" font-family="Times,serif" font-size="14.00">payoff_barrier_in_up_call(gbm)</text>
<text text-anchor="start" x="663" y="-266.1" font-family="Times,serif" font-size="14.00">payoff_barrier_in_up_put(gbm)</text>
<text text-anchor="start" x="663" y="-251.1" font-family="Times,serif" font-size="14.00">payoff_barrier_out_down_call(gbm)</text>
<text text-anchor="start" x="663" y="-236.1" font-family="Times,serif" font-size="14.00">payoff_barrier_out_down_put(gbm)</text>
<text text-anchor="start" x="663" y="-221.1" font-family="Times,serif" font-size="14.00">payoff_barrier_out_up_call(gbm)</text>
<text text-anchor="start" x="663" y="-206.1" font-family="Times,serif" font-size="14.00">payoff_barrier_out_up_put(gbm)</text>
<text text-anchor="start" x="663" y="-191.1" font-family="Times,serif" font-size="14.00">payoff_digital_call(gbm)</text>
<text text-anchor="start" x="663" y="-176.1" font-family="Times,serif" font-size="14.00">payoff_digital_put(gbm)</text>
<text text-anchor="start" x="663" y="-161.1" font-family="Times,serif" font-size="14.00">payoff_european_call(gbm)</text>
<text text-anchor="start" x="663" y="-146.1" font-family="Times,serif" font-size="14.00">payoff_european_put(gbm)</text>
<text text-anchor="start" x="663" y="-131.1" font-family="Times,serif" font-size="14.00">payoff_lookback_call(gbm)</text>
<text text-anchor="start" x="663" y="-116.1" font-family="Times,serif" font-size="14.00">payoff_lookback_put(gbm)</text>
</g>
<!-- QMCSoftware.qmcpy.integrand.financial_option.AsianOption&#45;&gt;QMCSoftware.qmcpy.integrand.financial_option.FinancialOption -->
<g id="edge4" class="edge">
<title>QMCSoftware.qmcpy.integrand.financial_option.AsianOption&#45;&gt;QMCSoftware.qmcpy.integrand.financial_option.FinancialOption</title>
<path fill="none" stroke="black" d="M596.64,-70.46C610.53,-81.17 624.67,-93.89 635.5,-107.8 636.58,-109.19 637.66,-110.59 638.74,-112"/>
<polygon fill="none" stroke="black" points="636.03,-114.23 644.82,-120.14 641.64,-110.04 636.03,-114.23"/>
</g>
<!-- QMCSoftware.qmcpy.integrand.financial_option.BarrierOption -->
<g id="node3" class="node">
<title>QMCSoftware.qmcpy.integrand.financial_option.BarrierOption</title>
<polygon fill="none" stroke="black" points="614.5,-0.5 614.5,-71.3 730.5,-71.3 730.5,-0.5 614.5,-0.5"/>
<text text-anchor="start" x="622.5" y="-56.1" font-family="Times,serif" font-size="14.00">BarrierOption</text>
<polyline fill="none" stroke="black" points="614.5,-48.3 730.5,-48.3 "/>
<polyline fill="none" stroke="black" points="614.5,-23.5 730.5,-23.5 "/>
<text text-anchor="start" x="670" y="-8.3" font-family="Times,serif" font-size="14.00"> </text>
</g>
<!-- QMCSoftware.qmcpy.integrand.financial_option.BarrierOption&#45;&gt;QMCSoftware.qmcpy.integrand.financial_option.FinancialOption -->
<g id="edge5" class="edge">
<title>QMCSoftware.qmcpy.integrand.financial_option.BarrierOption&#45;&gt;QMCSoftware.qmcpy.integrand.financial_option.FinancialOption</title>
<path fill="none" stroke="black" d="M682.61,-71.65C684.88,-79.48 687.48,-88.42 690.35,-98.28"/>
<polygon fill="none" stroke="black" points="687.02,-99.38 693.18,-108 693.74,-97.42 687.02,-99.38"/>
</g>
<!-- QMCSoftware.qmcpy.integrand.bayesian_lr_coeffs.BayesianLRCoeffs -->
<g id="node4" class="node">
<title>QMCSoftware.qmcpy.integrand.bayesian_lr_coeffs.BayesianLRCoeffs</title>
<polygon fill="none" stroke="black" points="0,-400.8 0,-589.8 267,-589.8 267,-400.8 0,-400.8"/>
<text text-anchor="start" x="69" y="-574.6" font-family="Times,serif" font-size="14.00">BayesianLRCoeffs</text>
<polyline fill="none" stroke="black" points="0,-566.8 267,-566.8 "/>
<text text-anchor="start" x="34" y="-551.6" font-family="Times,serif" font-size="14.00">feature_array : list, ndarray</text>
<text text-anchor="start" x="34" y="-536.6" font-family="Times,serif" font-size="14.00">num_coeffs</text>
<text text-anchor="start" x="34" y="-521.6" font-family="Times,serif" font-size="14.00">prior_covariance : int</text>
<text text-anchor="start" x="34" y="-506.6" font-family="Times,serif" font-size="14.00">prior_mean : int</text>
<text text-anchor="start" x="34" y="-491.6" font-family="Times,serif" font-size="14.00">response_vector : ndarray</text>
<text text-anchor="start" x="34" y="-476.6" font-family="Times,serif" font-size="14.00">sampler</text>
<text text-anchor="start" x="34" y="-461.6" font-family="Times,serif" font-size="14.00">true_measure : Gaussian</text>
<polyline fill="none" stroke="black" points="0,-453.8 267,-453.8 "/>
<text text-anchor="start" x="8" y="-438.6" font-family="Times,serif" font-size="14.00">bound_fun(bound_low, bound_high)</text>
<text text-anchor="start" x="8" y="-423.6" font-family="Times,serif" font-size="14.00">dependency(comb_flags)</text>
<text text-anchor="start" x="8" y="-408.6" font-family="Times,serif" font-size="14.00">g(x)</text>
</g>
<!-- QMCSoftware.qmcpy.integrand.bayesian_lr_coeffs.BayesianLRCoeffs&#45;&gt;QMCSoftware.qmcpy.integrand.abstract_integrand.AbstractIntegrand -->
<g id="edge1" class="edge">
<title>QMCSoftware.qmcpy.integrand.bayesian_lr_coeffs.BayesianLRCoeffs&#45;&gt;QMCSoftware.qmcpy.integrand.abstract_integrand.AbstractIntegrand</title>
<path fill="none" stroke="black" d="M141.34,-590.02C154.15,-679.7 187.83,-811.53 276.5,-882.8 442.99,-1016.63 1057.14,-1052.34 1384.62,-1061.85"/>
<polygon fill="none" stroke="black" points="1384.61,-1065.36 1394.71,-1062.14 1384.81,-1058.36 1384.61,-1065.36"/>
</g>
<!-- QMCSoftware.qmcpy.integrand.box_integral.BoxIntegral -->
<g id="node5" class="node">
<title>QMCSoftware.qmcpy.integrand.box_integral.BoxIntegral</title>
<polygon fill="none" stroke="black" points="285.5,-430.8 285.5,-559.8 473.5,-559.8 473.5,-430.8 285.5,-430.8"/>
<text text-anchor="start" x="337" y="-544.6" font-family="Times,serif" font-size="14.00">BoxIntegral</text>
<polyline fill="none" stroke="black" points="285.5,-536.8 473.5,-536.8 "/>
<text text-anchor="start" x="293.5" y="-521.6" font-family="Times,serif" font-size="14.00">parameters : list</text>
<text text-anchor="start" x="293.5" y="-506.6" font-family="Times,serif" font-size="14.00">s : ndarray</text>
<text text-anchor="start" x="293.5" y="-491.6" font-family="Times,serif" font-size="14.00">s_over_2 : ndarray</text>
<text text-anchor="start" x="293.5" y="-476.6" font-family="Times,serif" font-size="14.00">sampler</text>
<text text-anchor="start" x="293.5" y="-461.6" font-family="Times,serif" font-size="14.00">true_measure : Uniform</text>
<polyline fill="none" stroke="black" points="285.5,-453.8 473.5,-453.8 "/>
<text text-anchor="start" x="366.5" y="-438.6" font-family="Times,serif" font-size="14.00">g(t)</text>
</g>
<!-- QMCSoftware.qmcpy.integrand.box_integral.BoxIntegral&#45;&gt;QMCSoftware.qmcpy.integrand.abstract_integrand.AbstractIntegrand -->
<g id="edge2" class="edge">
<title>QMCSoftware.qmcpy.integrand.box_integral.BoxIntegral&#45;&gt;QMCSoftware.qmcpy.integrand.abstract_integrand.AbstractIntegrand</title>
<path fill="none" stroke="black" d="M376.86,-560.05C377.03,-646.64 391.32,-800.11 482.5,-882.8 611.69,-999.96 1100.6,-1042.46 1384.96,-1057.46"/>
<polygon fill="none" stroke="black" points="1384.82,-1060.95 1394.99,-1057.98 1385.19,-1053.96 1384.82,-1060.95"/>
</g>
<!-- QMCSoftware.qmcpy.integrand.custom_fun.CustomFun -->
<g id="node6" class="node">
<title>QMCSoftware.qmcpy.integrand.custom_fun.CustomFun</title>
<polygon fill="none" stroke="black" points="492,-445.8 492,-544.8 627,-544.8 627,-445.8 492,-445.8"/>
<text text-anchor="start" x="518" y="-529.6" font-family="Times,serif" font-size="14.00">CustomFun</text>
<polyline fill="none" stroke="black" points="492,-521.8 627,-521.8 "/>
<text text-anchor="start" x="500" y="-506.6" font-family="Times,serif" font-size="14.00">parameters : list</text>
<text text-anchor="start" x="500" y="-491.6" font-family="Times,serif" font-size="14.00">sampler</text>
<text text-anchor="start" x="500" y="-476.6" font-family="Times,serif" font-size="14.00">true_measure</text>
<polyline fill="none" stroke="black" points="492,-468.8 627,-468.8 "/>
<text text-anchor="start" x="546.5" y="-453.6" font-family="Times,serif" font-size="14.00">g(t)</text>
</g>
<!-- QMCSoftware.qmcpy.integrand.custom_fun.CustomFun&#45;&gt;QMCSoftware.qmcpy.integrand.abstract_integrand.AbstractIntegrand -->
<g id="edge3" class="edge">
<title>QMCSoftware.qmcpy.integrand.custom_fun.CustomFun&#45;&gt;QMCSoftware.qmcpy.integrand.abstract_integrand.AbstractIntegrand</title>
<path fill="none" stroke="black" d="M553.38,-545.09C546.07,-627.09 544.56,-792.4 635.5,-882.8 738.68,-985.38 1135.11,-1032.48 1384.53,-1052.36"/>
<polygon fill="none" stroke="black" points="1384.58,-1055.87 1394.82,-1053.17 1385.13,-1048.89 1384.58,-1055.87"/>
</g>
<!-- QMCSoftware.qmcpy.integrand.financial_option.DigitalOption -->
<g id="node7" class="node">
<title>QMCSoftware.qmcpy.integrand.financial_option.DigitalOption</title>
<polygon fill="none" stroke="black" points="749,-0.5 749,-71.3 862,-71.3 862,-0.5 749,-0.5"/>
<text text-anchor="start" x="757" y="-56.1" font-family="Times,serif" font-size="14.00">DigitalOption</text>
<polyline fill="none" stroke="black" points="749,-48.3 862,-48.3 "/>
<polyline fill="none" stroke="black" points="749,-23.5 862,-23.5 "/>
<text text-anchor="start" x="803" y="-8.3" font-family="Times,serif" font-size="14.00"> </text>
</g>
<!-- QMCSoftware.qmcpy.integrand.financial_option.DigitalOption&#45;&gt;QMCSoftware.qmcpy.integrand.financial_option.FinancialOption -->
<g id="edge6" class="edge">
<title>QMCSoftware.qmcpy.integrand.financial_option.DigitalOption&#45;&gt;QMCSoftware.qmcpy.integrand.financial_option.FinancialOption</title>
<path fill="none" stroke="black" d="M805.5,-71.65C805.5,-79.39 805.5,-88.23 805.5,-97.97"/>
<polygon fill="none" stroke="black" points="802,-98 805.5,-108 809,-98 802,-98"/>
</g>
<!-- QMCSoftware.qmcpy.integrand.financial_option.EuropeanOption -->
<g id="node8" class="node">
<title>QMCSoftware.qmcpy.integrand.financial_option.EuropeanOption</title>
<polygon fill="none" stroke="black" points="880.5,-0.5 880.5,-71.3 1014.5,-71.3 1014.5,-0.5 880.5,-0.5"/>
<text text-anchor="start" x="888.5" y="-56.1" font-family="Times,serif" font-size="14.00">EuropeanOption</text>
<polyline fill="none" stroke="black" points="880.5,-48.3 1014.5,-48.3 "/>
<polyline fill="none" stroke="black" points="880.5,-23.5 1014.5,-23.5 "/>
<text text-anchor="start" x="945" y="-8.3" font-family="Times,serif" font-size="14.00"> </text>
</g>
<!-- QMCSoftware.qmcpy.integrand.financial_option.EuropeanOption&#45;&gt;QMCSoftware.qmcpy.integrand.financial_option.FinancialOption -->
<g id="edge7" class="edge">
<title>QMCSoftware.qmcpy.integrand.financial_option.EuropeanOption&#45;&gt;QMCSoftware.qmcpy.integrand.financial_option.FinancialOption</title>
<path fill="none" stroke="black" d="M936.71,-71.65C934.28,-79.48 931.51,-88.42 928.45,-98.28"/>
<polygon fill="none" stroke="black" points="925.05,-97.42 925.43,-108 931.73,-99.49 925.05,-97.42"/>
</g>
<!-- QMCSoftware.qmcpy.integrand.financial_option.FinancialOption&#45;&gt;QMCSoftware.qmcpy.integrand.abstract_integrand.AbstractIntegrand -->
<g id="edge8" class="edge">
<title>QMCSoftware.qmcpy.integrand.financial_option.FinancialOption&#45;&gt;QMCSoftware.qmcpy.integrand.abstract_integrand.AbstractIntegrand</title>
<path fill="none" stroke="black" d="M966.18,-874.24C969.23,-877.16 972.34,-880.02 975.5,-882.8 1088.54,-982.31 1253.59,-1027.63 1384.69,-1048.23"/>
<polygon fill="none" stroke="black" points="1384.45,-1051.74 1394.86,-1049.79 1385.51,-1044.82 1384.45,-1051.74"/>
</g>
<!-- QMCSoftware.qmcpy.integrand.fourbranch2d.FourBranch2d -->
<g id="node10" class="node">
<title>QMCSoftware.qmcpy.integrand.fourbranch2d.FourBranch2d</title>
<polygon fill="none" stroke="black" points="984.5,-453.3 984.5,-537.3 1172.5,-537.3 1172.5,-453.3 984.5,-453.3"/>
<text text-anchor="start" x="1027" y="-522.1" font-family="Times,serif" font-size="14.00">FourBranch2d</text>
<polyline fill="none" stroke="black" points="984.5,-514.3 1172.5,-514.3 "/>
<text text-anchor="start" x="992.5" y="-499.1" font-family="Times,serif" font-size="14.00">sampler</text>
<text text-anchor="start" x="992.5" y="-484.1" font-family="Times,serif" font-size="14.00">true_measure : Uniform</text>
<polyline fill="none" stroke="black" points="984.5,-476.3 1172.5,-476.3 "/>
<text text-anchor="start" x="1065.5" y="-461.1" font-family="Times,serif" font-size="14.00">g(t)</text>
</g>
<!-- QMCSoftware.qmcpy.integrand.fourbranch2d.FourBranch2d&#45;&gt;QMCSoftware.qmcpy.integrand.abstract_integrand.AbstractIntegrand -->
<g id="edge10" class="edge">
<title>QMCSoftware.qmcpy.integrand.fourbranch2d.FourBranch2d&#45;&gt;QMCSoftware.qmcpy.integrand.abstract_integrand.AbstractIntegrand</title>
<path fill="none" stroke="black" d="M1078.35,-537.38C1080.22,-614.28 1094.77,-781.31 1181.5,-882.8 1234.2,-944.47 1311.8,-986.12 1385.48,-1013.85"/>
<polygon fill="none" stroke="black" points="1384.32,-1017.16 1394.91,-1017.34 1386.74,-1010.59 1384.32,-1017.16"/>
</g>
<!-- QMCSoftware.qmcpy.integrand.genz.Genz -->
<g id="node11" class="node">
<title>QMCSoftware.qmcpy.integrand.genz.Genz</title>
<polygon fill="none" stroke="black" points="1190.5,-400.8 1190.5,-589.8 1378.5,-589.8 1378.5,-400.8 1190.5,-400.8"/>
<text text-anchor="start" x="1266" y="-574.6" font-family="Times,serif" font-size="14.00">Genz</text>
<polyline fill="none" stroke="black" points="1190.5,-566.8 1378.5,-566.8 "/>
<text text-anchor="start" x="1198.5" y="-551.6" font-family="Times,serif" font-size="14.00">c</text>
<text text-anchor="start" x="1198.5" y="-536.6" font-family="Times,serif" font-size="14.00">d</text>
<text text-anchor="start" x="1198.5" y="-521.6" font-family="Times,serif" font-size="14.00">g</text>
<text text-anchor="start" x="1198.5" y="-506.6" font-family="Times,serif" font-size="14.00">kind_coeff : int</text>
<text text-anchor="start" x="1198.5" y="-491.6" font-family="Times,serif" font-size="14.00">kind_func : str</text>
<text text-anchor="start" x="1198.5" y="-476.6" font-family="Times,serif" font-size="14.00">parameters : list</text>
<text text-anchor="start" x="1198.5" y="-461.6" font-family="Times,serif" font-size="14.00">sampler</text>
<text text-anchor="start" x="1198.5" y="-446.6" font-family="Times,serif" font-size="14.00">true_measure : Uniform</text>
<polyline fill="none" stroke="black" points="1190.5,-438.8 1378.5,-438.8 "/>
<text text-anchor="start" x="1224.5" y="-423.6" font-family="Times,serif" font-size="14.00">g_corner_peak(t)</text>
<text text-anchor="start" x="1224.5" y="-408.6" font-family="Times,serif" font-size="14.00">g_oscillatory(t)</text>
</g>
<!-- QMCSoftware.qmcpy.integrand.genz.Genz&#45;&gt;QMCSoftware.qmcpy.integrand.abstract_integrand.AbstractIntegrand -->
<g id="edge11" class="edge">
<title>QMCSoftware.qmcpy.integrand.genz.Genz&#45;&gt;QMCSoftware.qmcpy.integrand.abstract_integrand.AbstractIntegrand</title>
<path fill="none" stroke="black" d="M1294.05,-590.15C1305.88,-672.39 1331.77,-792.54 1387.5,-882.8 1393.47,-892.47 1400.11,-901.92 1407.24,-911.1"/>
<polygon fill="none" stroke="black" points="1404.65,-913.47 1413.63,-919.1 1410.12,-909.1 1404.65,-913.47"/>
</g>
<!-- QMCSoftware.qmcpy.integrand.hartmann6d.Hartmann6d -->
<g id="node12" class="node">
<title>QMCSoftware.qmcpy.integrand.hartmann6d.Hartmann6d</title>
<polygon fill="none" stroke="black" points="1396.5,-445.8 1396.5,-544.8 1584.5,-544.8 1584.5,-445.8 1396.5,-445.8"/>
<text text-anchor="start" x="1445" y="-529.6" font-family="Times,serif" font-size="14.00">Hartmann6d</text>
<polyline fill="none" stroke="black" points="1396.5,-521.8 1584.5,-521.8 "/>
<text text-anchor="start" x="1404.5" y="-506.6" font-family="Times,serif" font-size="14.00">ah</text>
<text text-anchor="start" x="1404.5" y="-491.6" font-family="Times,serif" font-size="14.00">sampler</text>
<text text-anchor="start" x="1404.5" y="-476.6" font-family="Times,serif" font-size="14.00">true_measure : Uniform</text>
<polyline fill="none" stroke="black" points="1396.5,-468.8 1584.5,-468.8 "/>
<text text-anchor="start" x="1477.5" y="-453.6" font-family="Times,serif" font-size="14.00">g(t)</text>
</g>
<!-- QMCSoftware.qmcpy.integrand.hartmann6d.Hartmann6d&#45;&gt;QMCSoftware.qmcpy.integrand.abstract_integrand.AbstractIntegrand -->
<g id="edge12" class="edge">
<title>QMCSoftware.qmcpy.integrand.hartmann6d.Hartmann6d&#45;&gt;QMCSoftware.qmcpy.integrand.abstract_integrand.AbstractIntegrand</title>
<path fill="none" stroke="black" d="M1499.28,-544.81C1513.73,-624.62 1543.11,-786.94 1565.25,-909.21"/>
<polygon fill="none" stroke="black" points="1561.8,-909.84 1567.03,-919.06 1568.69,-908.59 1561.8,-909.84"/>
</g>
<!-- QMCSoftware.qmcpy.integrand.ishigami.Ishigami -->
<g id="node13" class="node">
<title>QMCSoftware.qmcpy.integrand.ishigami.Ishigami</title>
<polygon fill="none" stroke="black" points="1602.5,-438.3 1602.5,-552.3 1790.5,-552.3 1790.5,-438.3 1602.5,-438.3"/>
<text text-anchor="start" x="1665.5" y="-537.1" font-family="Times,serif" font-size="14.00">Ishigami</text>
<polyline fill="none" stroke="black" points="1602.5,-529.3 1790.5,-529.3 "/>
<text text-anchor="start" x="1610.5" y="-514.1" font-family="Times,serif" font-size="14.00">a : int</text>
<text text-anchor="start" x="1610.5" y="-499.1" font-family="Times,serif" font-size="14.00">b : float</text>
<text text-anchor="start" x="1610.5" y="-484.1" font-family="Times,serif" font-size="14.00">sampler</text>
<text text-anchor="start" x="1610.5" y="-469.1" font-family="Times,serif" font-size="14.00">true_measure : Uniform</text>
<polyline fill="none" stroke="black" points="1602.5,-461.3 1790.5,-461.3 "/>
<text text-anchor="start" x="1683.5" y="-446.1" font-family="Times,serif" font-size="14.00">g(t)</text>
</g>
<!-- QMCSoftware.qmcpy.integrand.ishigami.Ishigami&#45;&gt;QMCSoftware.qmcpy.integrand.abstract_integrand.AbstractIntegrand -->
<g id="edge13" class="edge">
<title>QMCSoftware.qmcpy.integrand.ishigami.Ishigami&#45;&gt;QMCSoftware.qmcpy.integrand.abstract_integrand.AbstractIntegrand</title>
<path fill="none" stroke="black" d="M1686.34,-552.42C1671.47,-634.57 1643.21,-790.67 1621.76,-909.17"/>
<polygon fill="none" stroke="black" points="1618.31,-908.61 1619.97,-919.07 1625.2,-909.86 1618.31,-908.61"/>
</g>
<!-- QMCSoftware.qmcpy.integrand.keister.Keister -->
<g id="node14" class="node">
<title>QMCSoftware.qmcpy.integrand.keister.Keister</title>
<polygon fill="none" stroke="black" points="1808.5,-438.3 1808.5,-552.3 2002.5,-552.3 2002.5,-438.3 1808.5,-438.3"/>
<text text-anchor="start" x="1879.5" y="-537.1" font-family="Times,serif" font-size="14.00">Keister</text>
<polyline fill="none" stroke="black" points="1808.5,-529.3 2002.5,-529.3 "/>
<text text-anchor="start" x="1816.5" y="-514.1" font-family="Times,serif" font-size="14.00">sampler</text>
<text text-anchor="start" x="1816.5" y="-499.1" font-family="Times,serif" font-size="14.00">true_measure : Gaussian</text>
<polyline fill="none" stroke="black" points="1808.5,-491.3 2002.5,-491.3 "/>
<text text-anchor="start" x="1839" y="-476.1" font-family="Times,serif" font-size="14.00">exact_integ()</text>
<text text-anchor="start" x="1839" y="-461.1" font-family="Times,serif" font-size="14.00">g(t)</text>
<text text-anchor="start" x="1839" y="-446.1" font-family="Times,serif" font-size="14.00">get_exact_value(d)</text>
</g>
<!-- QMCSoftware.qmcpy.integrand.keister.Keister&#45;&gt;QMCSoftware.qmcpy.integrand.abstract_integrand.AbstractIntegrand -->
<g id="edge14" class="edge">
<title>QMCSoftware.qmcpy.integrand.keister.Keister&#45;&gt;QMCSoftware.qmcpy.integrand.abstract_integrand.AbstractIntegrand</title>
<path fill="none" stroke="black" d="M1900.24,-552.46C1890.7,-631.46 1865.04,-777.51 1799.5,-882.8 1793.5,-892.45 1786.83,-901.88 1779.67,-911.05"/>
<polygon fill="none" stroke="black" points="1776.79,-909.05 1773.27,-919.04 1782.25,-913.43 1776.79,-909.05"/>
</g>
<!-- QMCSoftware.qmcpy.integrand.linear0.Linear0 -->
<g id="node15" class="node">
<title>QMCSoftware.qmcpy.integrand.linear0.Linear0</title>
<polygon fill="none" stroke="black" points="2020.5,-453.3 2020.5,-537.3 2208.5,-537.3 2208.5,-453.3 2020.5,-453.3"/>
<text text-anchor="start" x="2087" y="-522.1" font-family="Times,serif" font-size="14.00">Linear0</text>
<polyline fill="none" stroke="black" points="2020.5,-514.3 2208.5,-514.3 "/>
<text text-anchor="start" x="2028.5" y="-499.1" font-family="Times,serif" font-size="14.00">sampler</text>
<text text-anchor="start" x="2028.5" y="-484.1" font-family="Times,serif" font-size="14.00">true_measure : Uniform</text>
<polyline fill="none" stroke="black" points="2020.5,-476.3 2208.5,-476.3 "/>
<text text-anchor="start" x="2101.5" y="-461.1" font-family="Times,serif" font-size="14.00">g(t)</text>
</g>
<!-- QMCSoftware.qmcpy.integrand.linear0.Linear0&#45;&gt;QMCSoftware.qmcpy.integrand.abstract_integrand.AbstractIntegrand -->
<g id="edge15" class="edge">
<title>QMCSoftware.qmcpy.integrand.linear0.Linear0&#45;&gt;QMCSoftware.qmcpy.integrand.abstract_integrand.AbstractIntegrand</title>
<path fill="none" stroke="black" d="M2114.7,-537.43C2112.92,-614.39 2098.5,-781.54 2011.5,-882.8 1957.37,-945.8 1877.43,-987.81 1801.91,-1015.46"/>
<polygon fill="none" stroke="black" points="1800.48,-1012.25 1792.25,-1018.92 1802.84,-1018.84 1800.48,-1012.25"/>
</g>
<!-- QMCSoftware.qmcpy.integrand.financial_option.LookbackOption -->
<g id="node16" class="node">
<title>QMCSoftware.qmcpy.integrand.financial_option.LookbackOption</title>
<polygon fill="none" stroke="black" points="1033,-0.5 1033,-71.3 1164,-71.3 1164,-0.5 1033,-0.5"/>
<text text-anchor="start" x="1041" y="-56.1" font-family="Times,serif" font-size="14.00">LookbackOption</text>
<polyline fill="none" stroke="black" points="1033,-48.3 1164,-48.3 "/>
<polyline fill="none" stroke="black" points="1033,-23.5 1164,-23.5 "/>
<text text-anchor="start" x="1096" y="-8.3" font-family="Times,serif" font-size="14.00"> </text>
</g>
<!-- QMCSoftware.qmcpy.integrand.financial_option.LookbackOption&#45;&gt;QMCSoftware.qmcpy.integrand.financial_option.FinancialOption -->
<g id="edge9" class="edge">
<title>QMCSoftware.qmcpy.integrand.financial_option.LookbackOption&#45;&gt;QMCSoftware.qmcpy.integrand.financial_option.FinancialOption</title>
<path fill="none" stroke="black" d="M1032.95,-69.93C1008.53,-83.2 984.55,-97.71 975.5,-107.8 974.61,-108.8 973.71,-109.8 972.83,-110.81"/>
<polygon fill="none" stroke="black" points="969.96,-108.77 966.11,-118.64 975.28,-113.33 969.96,-108.77"/>
</g>
<!-- QMCSoftware.qmcpy.integrand.multimodal2d.Multimodal2d -->
<g id="node17" class="node">
<title>QMCSoftware.qmcpy.integrand.multimodal2d.Multimodal2d</title>
<polygon fill="none" stroke="black" points="2226.5,-453.3 2226.5,-537.3 2414.5,-537.3 2414.5,-453.3 2226.5,-453.3"/>
<text text-anchor="start" x="2270.5" y="-522.1" font-family="Times,serif" font-size="14.00">Multimodal2d</text>
<polyline fill="none" stroke="black" points="2226.5,-514.3 2414.5,-514.3 "/>
<text text-anchor="start" x="2234.5" y="-499.1" font-family="Times,serif" font-size="14.00">sampler</text>
<text text-anchor="start" x="2234.5" y="-484.1" font-family="Times,serif" font-size="14.00">true_measure : Uniform</text>
<polyline fill="none" stroke="black" points="2226.5,-476.3 2414.5,-476.3 "/>
<text text-anchor="start" x="2307.5" y="-461.1" font-family="Times,serif" font-size="14.00">g(t)</text>
</g>
<!-- QMCSoftware.qmcpy.integrand.multimodal2d.Multimodal2d&#45;&gt;QMCSoftware.qmcpy.integrand.abstract_integrand.AbstractIntegrand -->
<g id="edge16" class="edge">
<title>QMCSoftware.qmcpy.integrand.multimodal2d.Multimodal2d&#45;&gt;QMCSoftware.qmcpy.integrand.abstract_integrand.AbstractIntegrand</title>
<path fill="none" stroke="black" d="M2321.87,-537.58C2322.12,-615.92 2311.12,-786.9 2217.5,-882.8 2109.43,-993.51 1938.19,-1037.98 1802.42,-1055.41"/>
<polygon fill="none" stroke="black" points="1801.79,-1051.97 1792.29,-1056.67 1802.65,-1058.91 1801.79,-1051.97"/>
</g>
<!-- QMCSoftware.qmcpy.integrand.sensitivity_indices.SensitivityIndices -->
<g id="node18" class="node">
<title>QMCSoftware.qmcpy.integrand.sensitivity_indices.SensitivityIndices</title>
<polygon fill="none" stroke="black" points="2433,-378.3 2433,-612.3 2700,-612.3 2700,-378.3 2433,-378.3"/>
<text text-anchor="start" x="2502.5" y="-597.1" font-family="Times,serif" font-size="14.00">SensitivityIndices</text>
<polyline fill="none" stroke="black" points="2433,-589.3 2700,-589.3 "/>
<text text-anchor="start" x="2455" y="-574.1" font-family="Times,serif" font-size="14.00">d</text>
<text text-anchor="start" x="2455" y="-559.1" font-family="Times,serif" font-size="14.00">discrete_distrib</text>
<text text-anchor="start" x="2455" y="-544.1" font-family="Times,serif" font-size="14.00">dtilde</text>
<text text-anchor="start" x="2455" y="-529.1" font-family="Times,serif" font-size="14.00">i_slice</text>
<text text-anchor="start" x="2455" y="-514.1" font-family="Times,serif" font-size="14.00">indices : list, ndarray, str, tuple</text>
<text text-anchor="start" x="2455" y="-499.1" font-family="Times,serif" font-size="14.00">integrand</text>
<text text-anchor="start" x="2455" y="-484.1" font-family="Times,serif" font-size="14.00">not_indices : ndarray</text>
<text text-anchor="start" x="2455" y="-469.1" font-family="Times,serif" font-size="14.00">parameters : list</text>
<text text-anchor="start" x="2455" y="-454.1" font-family="Times,serif" font-size="14.00">sampler</text>
<text text-anchor="start" x="2455" y="-439.1" font-family="Times,serif" font-size="14.00">true_measure</text>
<polyline fill="none" stroke="black" points="2433,-431.3 2700,-431.3 "/>
<text text-anchor="start" x="2441" y="-416.1" font-family="Times,serif" font-size="14.00">bound_fun(bound_low, bound_high)</text>
<text text-anchor="start" x="2441" y="-401.1" font-family="Times,serif" font-size="14.00">dependency(comb_flags)</text>
<text text-anchor="start" x="2441" y="-386.1" font-family="Times,serif" font-size="14.00">f(x)</text>
</g>
<!-- QMCSoftware.qmcpy.integrand.sensitivity_indices.SensitivityIndices&#45;&gt;QMCSoftware.qmcpy.integrand.abstract_integrand.AbstractIntegrand -->
<g id="edge17" class="edge">
<title>QMCSoftware.qmcpy.integrand.sensitivity_indices.SensitivityIndices&#45;&gt;QMCSoftware.qmcpy.integrand.abstract_integrand.AbstractIntegrand</title>
<path fill="none" stroke="black" d="M2553.37,-612.4C2537.35,-699.33 2501.87,-814.56 2423.5,-882.8 2332.25,-962.26 2017.21,-1014.82 1802.6,-1042.32"/>
<polygon fill="none" stroke="black" points="1801.94,-1038.88 1792.46,-1043.62 1802.82,-1045.82 1801.94,-1038.88"/>
</g>
<!-- QMCSoftware.qmcpy.integrand.sin1d.Sin1d -->
<g id="node19" class="node">
<title>QMCSoftware.qmcpy.integrand.sin1d.Sin1d</title>
<polygon fill="none" stroke="black" points="2718.5,-445.8 2718.5,-544.8 2906.5,-544.8 2906.5,-445.8 2718.5,-445.8"/>
<text text-anchor="start" x="2791.5" y="-529.6" font-family="Times,serif" font-size="14.00">Sin1d</text>
<polyline fill="none" stroke="black" points="2718.5,-521.8 2906.5,-521.8 "/>
<text text-anchor="start" x="2726.5" y="-506.6" font-family="Times,serif" font-size="14.00">k : int</text>
<text text-anchor="start" x="2726.5" y="-491.6" font-family="Times,serif" font-size="14.00">sampler</text>
<text text-anchor="start" x="2726.5" y="-476.6" font-family="Times,serif" font-size="14.00">true_measure : Uniform</text>
<polyline fill="none" stroke="black" points="2718.5,-468.8 2906.5,-468.8 "/>
<text text-anchor="start" x="2799.5" y="-453.6" font-family="Times,serif" font-size="14.00">g(t)</text>
</g>
<!-- QMCSoftware.qmcpy.integrand.sin1d.Sin1d&#45;&gt;QMCSoftware.qmcpy.integrand.abstract_integrand.AbstractIntegrand -->
<g id="edge18" class="edge">
<title>QMCSoftware.qmcpy.integrand.sin1d.Sin1d&#45;&gt;QMCSoftware.qmcpy.integrand.abstract_integrand.AbstractIntegrand</title>
<path fill="none" stroke="black" d="M2815.04,-545.07C2816.44,-627.79 2806.24,-795.13 2709.5,-882.8 2579.57,-1000.55 2087.58,-1042.83 1802.08,-1057.63"/>
<polygon fill="none" stroke="black" points="1801.82,-1054.14 1792.01,-1058.15 1802.18,-1061.13 1801.82,-1054.14"/>
</g>
<!-- QMCSoftware.qmcpy.integrand.umbridge_wrapper.UMBridgeWrapper -->
<g id="node20" class="node">
<title>QMCSoftware.qmcpy.integrand.umbridge_wrapper.UMBridgeWrapper</title>
<polygon fill="none" stroke="black" points="2925,-378.3 2925,-612.3 3126,-612.3 3126,-378.3 2925,-378.3"/>
<text text-anchor="start" x="2957.5" y="-597.1" font-family="Times,serif" font-size="14.00">UMBridgeWrapper</text>
<polyline fill="none" stroke="black" points="2925,-589.3 3126,-589.3 "/>
<text text-anchor="start" x="2933" y="-574.1" font-family="Times,serif" font-size="14.00">config : dict</text>
<text text-anchor="start" x="2933" y="-559.1" font-family="Times,serif" font-size="14.00">d_in_umbridge : ndarray</text>
<text text-anchor="start" x="2933" y="-544.1" font-family="Times,serif" font-size="14.00">d_out_umbridge : ndarray</text>
<text text-anchor="start" x="2933" y="-529.1" font-family="Times,serif" font-size="14.00">model</text>
<text text-anchor="start" x="2933" y="-514.1" font-family="Times,serif" font-size="14.00">n_d_in_umbridge : int</text>
<text text-anchor="start" x="2933" y="-499.1" font-family="Times,serif" font-size="14.00">n_d_out_umbridge : int</text>
<text text-anchor="start" x="2933" y="-484.1" font-family="Times,serif" font-size="14.00">parallel : bool</text>
<text text-anchor="start" x="2933" y="-469.1" font-family="Times,serif" font-size="14.00">parameters : list</text>
<text text-anchor="start" x="2933" y="-454.1" font-family="Times,serif" font-size="14.00">sampler</text>
<text text-anchor="start" x="2933" y="-439.1" font-family="Times,serif" font-size="14.00">total_out_elements : int</text>
<text text-anchor="start" x="2933" y="-424.1" font-family="Times,serif" font-size="14.00">true_measure</text>
<polyline fill="none" stroke="black" points="2925,-416.3 3126,-416.3 "/>
<text text-anchor="start" x="2935" y="-401.1" font-family="Times,serif" font-size="14.00">g(t)</text>
<text text-anchor="start" x="2935" y="-386.1" font-family="Times,serif" font-size="14.00">to_umbridge_out_sizes(x)</text>
</g>
<!-- QMCSoftware.qmcpy.integrand.umbridge_wrapper.UMBridgeWrapper&#45;&gt;QMCSoftware.qmcpy.integrand.abstract_integrand.AbstractIntegrand -->
<g id="edge19" class="edge">
<title>QMCSoftware.qmcpy.integrand.umbridge_wrapper.UMBridgeWrapper&#45;&gt;QMCSoftware.qmcpy.integrand.abstract_integrand.AbstractIntegrand</title>
<path fill="none" stroke="black" d="M3024.58,-612.5C3017.27,-700.07 2992.26,-816.11 2915.5,-882.8 2753.33,-1023.71 2132.34,-1056.24 1802.4,-1063.46"/>
<polygon fill="none" stroke="black" points="1802.16,-1059.97 1792.24,-1063.68 1802.31,-1066.97 1802.16,-1059.97"/>
</g>
</g>
</svg>
