<?xml version="1.0" encoding="UTF-8" standalone="no"?>
<!DOCTYPE svg PUBLIC "-//W3C//DTD SVG 1.1//EN"
 "http://www.w3.org/Graphics/SVG/1.1/DTD/svg11.dtd">
<!-- Generated by graphviz version 2.43.0 (0)
 -->
<!-- Title: classes Pages: 1 -->
<svg width="3114pt" height="1237pt"
 viewBox="0.00 0.00 3114.00 1236.80" xmlns="http://www.w3.org/2000/svg" xmlns:xlink="http://www.w3.org/1999/xlink">
<g id="graph0" class="graph" transform="scale(1 1) rotate(0) translate(4 1232.8)">
<title>classes</title>
<polygon fill="white" stroke="transparent" points="-4,4 -4,-1232.8 3110,-1232.8 3110,4 -4,4"/>
<!-- QMCSoftware.qmcpy.integrand.abstract_integrand.AbstractIntegrand -->
<g id="node1" class="node">
<title>QMCSoftware.qmcpy.integrand.abstract_integrand.AbstractIntegrand</title>
<polygon fill="none" stroke="black" points="1375,-934.3 1375,-1228.3 1772,-1228.3 1772,-934.3 1375,-934.3"/>
<text text-anchor="start" x="1507.5" y="-1213.1" font-family="Times,serif" font-size="14.00">AbstractIntegrand</text>
<polyline fill="none" stroke="black" points="1375,-1205.3 1772,-1205.3 "/>
<text text-anchor="start" x="1513" y="-1190.1" font-family="Times,serif" font-size="14.00">EPS</text>
<text text-anchor="start" x="1513" y="-1175.1" font-family="Times,serif" font-size="14.00">d</text>
<text text-anchor="start" x="1513" y="-1160.1" font-family="Times,serif" font-size="14.00">d_comb : tuple</text>
<text text-anchor="start" x="1513" y="-1145.1" font-family="Times,serif" font-size="14.00">d_indv : tuple</text>
<text text-anchor="start" x="1513" y="-1130.1" font-family="Times,serif" font-size="14.00">discrete_distrib</text>
<text text-anchor="start" x="1513" y="-1115.1" font-family="Times,serif" font-size="14.00">max_level</text>
<text text-anchor="start" x="1513" y="-1100.1" font-family="Times,serif" font-size="14.00">multilevel : bool</text>
<text text-anchor="start" x="1513" y="-1085.1" font-family="Times,serif" font-size="14.00">parallel : int</text>
<text text-anchor="start" x="1513" y="-1070.1" font-family="Times,serif" font-size="14.00">parameters : list</text>
<text text-anchor="start" x="1513" y="-1055.1" font-family="Times,serif" font-size="14.00">threadpool : bool</text>
<polyline fill="none" stroke="black" points="1375,-1047.3 1772,-1047.3 "/>
<text text-anchor="start" x="1383" y="-1032.1" font-family="Times,serif" font-size="14.00">bound_fun(bound_low, bound_high)</text>
<text text-anchor="start" x="1383" y="-1017.1" font-family="Times,serif" font-size="14.00">dependency(comb_flags)</text>
<text text-anchor="start" x="1383" y="-1002.1" font-family="Times,serif" font-size="14.00">dimension_at_level(level)</text>
<text text-anchor="start" x="1383" y="-987.1" font-family="Times,serif" font-size="14.00">f(x)</text>
<text text-anchor="start" x="1383" y="-972.1" font-family="Times,serif" font-size="14.00">g(t)</text>
<text text-anchor="start" x="1383" y="-957.1" font-family="Times,serif" font-size="14.00">gen_samples(n, n_min, n_max, return_weights, warn)</text>
<text text-anchor="start" x="1383" y="-942.1" font-family="Times,serif" font-size="14.00">spawn(levels)</text>
</g>
<!-- QMCSoftware.qmcpy.integrand.financial_option.AsianOption -->
<g id="node2" class="node">
<title>QMCSoftware.qmcpy.integrand.financial_option.AsianOption</title>
<polygon fill="none" stroke="black" points="482.5,-0.5 482.5,-71.3 586.5,-71.3 586.5,-0.5 482.5,-0.5"/>
<text text-anchor="start" x="490.5" y="-56.1" font-family="Times,serif" font-size="14.00">AsianOption</text>
<polyline fill="none" stroke="black" points="482.5,-48.3 586.5,-48.3 "/>
<polyline fill="none" stroke="black" points="482.5,-23.5 586.5,-23.5 "/>
<text text-anchor="start" x="532" y="-8.3" font-family="Times,serif" font-size="14.00"> </text>
</g>
<!-- QMCSoftware.qmcpy.integrand.financial_option.FinancialOption -->
<g id="node9" class="node">
<title>QMCSoftware.qmcpy.integrand.financial_option.FinancialOption</title>
<polygon fill="none" stroke="black" points="645,-108.3 645,-897.3 946,-897.3 946,-108.3 645,-108.3"/>
<text text-anchor="start" x="738.5" y="-882.1" font-family="Times,serif" font-size="14.00">FinancialOption</text>
<polyline fill="none" stroke="black" points="645,-874.3 946,-874.3 "/>
<text text-anchor="start" x="675.5" y="-859.1" font-family="Times,serif" font-size="14.00">asian_mean : str</text>
<text text-anchor="start" x="675.5" y="-844.1" font-family="Times,serif" font-size="14.00">asian_mean_quadrature_rule : str</text>
<text text-anchor="start" x="675.5" y="-829.1" font-family="Times,serif" font-size="14.00">barrier_in_out : str</text>
<text text-anchor="start" x="675.5" y="-814.1" font-family="Times,serif" font-size="14.00">barrier_price : float</text>
<text text-anchor="start" x="675.5" y="-799.1" font-family="Times,serif" font-size="14.00">barrier_up_down : str</text>
<text text-anchor="start" x="675.5" y="-784.1" font-family="Times,serif" font-size="14.00">call_put : str</text>
<text text-anchor="start" x="675.5" y="-769.1" font-family="Times,serif" font-size="14.00">cost</text>
<text text-anchor="start" x="675.5" y="-754.1" font-family="Times,serif" font-size="14.00">d_coarsest : int</text>
<text text-anchor="start" x="675.5" y="-739.1" font-family="Times,serif" font-size="14.00">decomp_type : str</text>
<text text-anchor="start" x="675.5" y="-724.1" font-family="Times,serif" font-size="14.00">digital_payout : float</text>
<text text-anchor="start" x="675.5" y="-709.1" font-family="Times,serif" font-size="14.00">discount_factor</text>
<text text-anchor="start" x="675.5" y="-694.1" font-family="Times,serif" font-size="14.00">interest_rate : float</text>
<text text-anchor="start" x="675.5" y="-679.1" font-family="Times,serif" font-size="14.00">level : NoneType, int</text>
<text text-anchor="start" x="675.5" y="-664.1" font-family="Times,serif" font-size="14.00">multilevel : bool</text>
<text text-anchor="start" x="675.5" y="-649.1" font-family="Times,serif" font-size="14.00">option : str</text>
<text text-anchor="start" x="675.5" y="-634.1" font-family="Times,serif" font-size="14.00">parameters : list</text>
<text text-anchor="start" x="675.5" y="-619.1" font-family="Times,serif" font-size="14.00">payoff</text>
<text text-anchor="start" x="675.5" y="-604.1" font-family="Times,serif" font-size="14.00">sampler</text>
<text text-anchor="start" x="675.5" y="-589.1" font-family="Times,serif" font-size="14.00">start_price : float</text>
<text text-anchor="start" x="675.5" y="-574.1" font-family="Times,serif" font-size="14.00">strike_price : float</text>
<text text-anchor="start" x="675.5" y="-559.1" font-family="Times,serif" font-size="14.00">t_final : int</text>
<text text-anchor="start" x="675.5" y="-544.1" font-family="Times,serif" font-size="14.00">true_measure : BrownianMotion</text>
<text text-anchor="start" x="675.5" y="-529.1" font-family="Times,serif" font-size="14.00">volatility : float</text>
<polyline fill="none" stroke="black" points="645,-521.3 946,-521.3 "/>
<text text-anchor="start" x="653" y="-506.1" font-family="Times,serif" font-size="14.00">dimension_at_level(level)</text>
<text text-anchor="start" x="653" y="-491.1" font-family="Times,serif" font-size="14.00">g(t)</text>
<text text-anchor="start" x="653" y="-476.1" font-family="Times,serif" font-size="14.00">gbm(t)</text>
<text text-anchor="start" x="653" y="-461.1" font-family="Times,serif" font-size="14.00">get_exact_value()</text>
<text text-anchor="start" x="653" y="-446.1" font-family="Times,serif" font-size="14.00">get_exact_value_inf_dim()</text>
<text text-anchor="start" x="653" y="-431.1" font-family="Times,serif" font-size="14.00">payoff_asian_arithmetic_right_call(gbm)</text>
<text text-anchor="start" x="653" y="-416.1" font-family="Times,serif" font-size="14.00">payoff_asian_arithmetic_right_put(gbm)</text>
<text text-anchor="start" x="653" y="-401.1" font-family="Times,serif" font-size="14.00">payoff_asian_arithmetic_trap_call(gbm)</text>
<text text-anchor="start" x="653" y="-386.1" font-family="Times,serif" font-size="14.00">payoff_asian_arithmetic_trap_put(gbm)</text>
<text text-anchor="start" x="653" y="-371.1" font-family="Times,serif" font-size="14.00">payoff_asian_geometric_right_call(gbm)</text>
<text text-anchor="start" x="653" y="-356.1" font-family="Times,serif" font-size="14.00">payoff_asian_geometric_right_put(gbm)</text>
<text text-anchor="start" x="653" y="-341.1" font-family="Times,serif" font-size="14.00">payoff_asian_geometric_trap_call(gbm)</text>
<text text-anchor="start" x="653" y="-326.1" font-family="Times,serif" font-size="14.00">payoff_asian_geometric_trap_put(gbm)</text>
<text text-anchor="start" x="653" y="-311.1" font-family="Times,serif" font-size="14.00">payoff_barrier_in_down_call(gbm)</text>
<text text-anchor="start" x="653" y="-296.1" font-family="Times,serif" font-size="14.00">payoff_barrier_in_down_put(gbm)</text>
<text text-anchor="start" x="653" y="-281.1" font-family="Times,serif" font-size="14.00">payoff_barrier_in_up_call(gbm)</text>
<text text-anchor="start" x="653" y="-266.1" font-family="Times,serif" font-size="14.00">payoff_barrier_in_up_put(gbm)</text>
<text text-anchor="start" x="653" y="-251.1" font-family="Times,serif" font-size="14.00">payoff_barrier_out_down_call(gbm)</text>
<text text-anchor="start" x="653" y="-236.1" font-family="Times,serif" font-size="14.00">payoff_barrier_out_down_put(gbm)</text>
<text text-anchor="start" x="653" y="-221.1" font-family="Times,serif" font-size="14.00">payoff_barrier_out_up_call(gbm)</text>
<text text-anchor="start" x="653" y="-206.1" font-family="Times,serif" font-size="14.00">payoff_barrier_out_up_put(gbm)</text>
<text text-anchor="start" x="653" y="-191.1" font-family="Times,serif" font-size="14.00">payoff_digital_call(gbm)</text>
<text text-anchor="start" x="653" y="-176.1" font-family="Times,serif" font-size="14.00">payoff_digital_put(gbm)</text>
<text text-anchor="start" x="653" y="-161.1" font-family="Times,serif" font-size="14.00">payoff_european_call(gbm)</text>
<text text-anchor="start" x="653" y="-146.1" font-family="Times,serif" font-size="14.00">payoff_european_put(gbm)</text>
<text text-anchor="start" x="653" y="-131.1" font-family="Times,serif" font-size="14.00">payoff_lookback_call(gbm)</text>
<text text-anchor="start" x="653" y="-116.1" font-family="Times,serif" font-size="14.00">payoff_lookback_put(gbm)</text>
</g>
<!-- QMCSoftware.qmcpy.integrand.financial_option.AsianOption&#45;&gt;QMCSoftware.qmcpy.integrand.financial_option.FinancialOption -->
<g id="edge4" class="edge">
<title>QMCSoftware.qmcpy.integrand.financial_option.AsianOption&#45;&gt;QMCSoftware.qmcpy.integrand.financial_option.FinancialOption</title>
<path fill="none" stroke="black" d="M586.51,-69.51C607.22,-83.27 627.93,-98.29 635.5,-107.8 636.61,-109.19 637.71,-110.59 638.8,-112"/>
<polygon fill="none" stroke="black" points="636.15,-114.3 644.99,-120.14 641.73,-110.06 636.15,-114.3"/>
</g>
<!-- QMCSoftware.qmcpy.integrand.financial_option.BarrierOption -->
<g id="node3" class="node">
<title>QMCSoftware.qmcpy.integrand.financial_option.BarrierOption</title>
<polygon fill="none" stroke="black" points="604.5,-0.5 604.5,-71.3 720.5,-71.3 720.5,-0.5 604.5,-0.5"/>
<text text-anchor="start" x="612.5" y="-56.1" font-family="Times,serif" font-size="14.00">BarrierOption</text>
<polyline fill="none" stroke="black" points="604.5,-48.3 720.5,-48.3 "/>
<polyline fill="none" stroke="black" points="604.5,-23.5 720.5,-23.5 "/>
<text text-anchor="start" x="660" y="-8.3" font-family="Times,serif" font-size="14.00"> </text>
</g>
<!-- QMCSoftware.qmcpy.integrand.financial_option.BarrierOption&#45;&gt;QMCSoftware.qmcpy.integrand.financial_option.FinancialOption -->
<g id="edge5" class="edge">
<title>QMCSoftware.qmcpy.integrand.financial_option.BarrierOption&#45;&gt;QMCSoftware.qmcpy.integrand.financial_option.FinancialOption</title>
<path fill="none" stroke="black" d="M672.39,-71.46C674.65,-79.36 677.23,-88.4 680.09,-98.39"/>
<polygon fill="none" stroke="black" points="676.8,-99.6 682.91,-108.25 683.53,-97.67 676.8,-99.6"/>
</g>
<!-- QMCSoftware.qmcpy.integrand.bayesian_lr_coeffs.BayesianLRCoeffs -->
<g id="node4" class="node">
<title>QMCSoftware.qmcpy.integrand.bayesian_lr_coeffs.BayesianLRCoeffs</title>
<polygon fill="none" stroke="black" points="0,-408.3 0,-597.3 267,-597.3 267,-408.3 0,-408.3"/>
<text text-anchor="start" x="69" y="-582.1" font-family="Times,serif" font-size="14.00">BayesianLRCoeffs</text>
<polyline fill="none" stroke="black" points="0,-574.3 267,-574.3 "/>
<text text-anchor="start" x="34" y="-559.1" font-family="Times,serif" font-size="14.00">feature_array : list, ndarray</text>
<text text-anchor="start" x="34" y="-544.1" font-family="Times,serif" font-size="14.00">num_coeffs</text>
<text text-anchor="start" x="34" y="-529.1" font-family="Times,serif" font-size="14.00">prior_covariance : int</text>
<text text-anchor="start" x="34" y="-514.1" font-family="Times,serif" font-size="14.00">prior_mean : int</text>
<text text-anchor="start" x="34" y="-499.1" font-family="Times,serif" font-size="14.00">response_vector : ndarray</text>
<text text-anchor="start" x="34" y="-484.1" font-family="Times,serif" font-size="14.00">sampler</text>
<text text-anchor="start" x="34" y="-469.1" font-family="Times,serif" font-size="14.00">true_measure : Gaussian</text>
<polyline fill="none" stroke="black" points="0,-461.3 267,-461.3 "/>
<text text-anchor="start" x="8" y="-446.1" font-family="Times,serif" font-size="14.00">bound_fun(bound_low, bound_high)</text>
<text text-anchor="start" x="8" y="-431.1" font-family="Times,serif" font-size="14.00">dependency(comb_flags)</text>
<text text-anchor="start" x="8" y="-416.1" font-family="Times,serif" font-size="14.00">g(x)</text>
</g>
<!-- QMCSoftware.qmcpy.integrand.bayesian_lr_coeffs.BayesianLRCoeffs&#45;&gt;QMCSoftware.qmcpy.integrand.abstract_integrand.AbstractIntegrand -->
<g id="edge1" class="edge">
<title>QMCSoftware.qmcpy.integrand.bayesian_lr_coeffs.BayesianLRCoeffs&#45;&gt;QMCSoftware.qmcpy.integrand.abstract_integrand.AbstractIntegrand</title>
<path fill="none" stroke="black" d="M140.59,-597.53C152.81,-688.9 186.06,-824.48 276.5,-897.8 439.39,-1029.85 1040.78,-1066.36 1364.28,-1076.45"/>
<polygon fill="none" stroke="black" points="1364.62,-1079.96 1374.72,-1076.77 1364.83,-1072.96 1364.62,-1079.96"/>
</g>
<!-- QMCSoftware.qmcpy.integrand.box_integral.BoxIntegral -->
<g id="node5" class="node">
<title>QMCSoftware.qmcpy.integrand.box_integral.BoxIntegral</title>
<polygon fill="none" stroke="black" points="285.5,-438.3 285.5,-567.3 473.5,-567.3 473.5,-438.3 285.5,-438.3"/>
<text text-anchor="start" x="337" y="-552.1" font-family="Times,serif" font-size="14.00">BoxIntegral</text>
<polyline fill="none" stroke="black" points="285.5,-544.3 473.5,-544.3 "/>
<text text-anchor="start" x="293.5" y="-529.1" font-family="Times,serif" font-size="14.00">parameters : list</text>
<text text-anchor="start" x="293.5" y="-514.1" font-family="Times,serif" font-size="14.00">s : ndarray</text>
<text text-anchor="start" x="293.5" y="-499.1" font-family="Times,serif" font-size="14.00">s_over_2 : ndarray</text>
<text text-anchor="start" x="293.5" y="-484.1" font-family="Times,serif" font-size="14.00">sampler</text>
<text text-anchor="start" x="293.5" y="-469.1" font-family="Times,serif" font-size="14.00">true_measure : Uniform</text>
<polyline fill="none" stroke="black" points="285.5,-461.3 473.5,-461.3 "/>
<text text-anchor="start" x="366.5" y="-446.1" font-family="Times,serif" font-size="14.00">g(t)</text>
</g>
<!-- QMCSoftware.qmcpy.integrand.box_integral.BoxIntegral&#45;&gt;QMCSoftware.qmcpy.integrand.abstract_integrand.AbstractIntegrand -->
<g id="edge2" class="edge">
<title>QMCSoftware.qmcpy.integrand.box_integral.BoxIntegral&#45;&gt;QMCSoftware.qmcpy.integrand.abstract_integrand.AbstractIntegrand</title>
<path fill="none" stroke="black" d="M376.49,-567.6C376.09,-655.58 389.6,-812.9 482.5,-897.8 608.4,-1012.85 1084.78,-1056.11 1364.7,-1071.81"/>
<polygon fill="none" stroke="black" points="1364.81,-1075.32 1374.99,-1072.38 1365.2,-1068.33 1364.81,-1075.32"/>
</g>
<!-- QMCSoftware.qmcpy.integrand.custom_fun.CustomFun -->
<g id="node6" class="node">
<title>QMCSoftware.qmcpy.integrand.custom_fun.CustomFun</title>
<polygon fill="none" stroke="black" points="492,-453.3 492,-552.3 627,-552.3 627,-453.3 492,-453.3"/>
<text text-anchor="start" x="518" y="-537.1" font-family="Times,serif" font-size="14.00">CustomFun</text>
<polyline fill="none" stroke="black" points="492,-529.3 627,-529.3 "/>
<text text-anchor="start" x="500" y="-514.1" font-family="Times,serif" font-size="14.00">parameters : list</text>
<text text-anchor="start" x="500" y="-499.1" font-family="Times,serif" font-size="14.00">sampler</text>
<text text-anchor="start" x="500" y="-484.1" font-family="Times,serif" font-size="14.00">true_measure</text>
<polyline fill="none" stroke="black" points="492,-476.3 627,-476.3 "/>
<text text-anchor="start" x="546.5" y="-461.1" font-family="Times,serif" font-size="14.00">g(t)</text>
</g>
<!-- QMCSoftware.qmcpy.integrand.custom_fun.CustomFun&#45;&gt;QMCSoftware.qmcpy.integrand.abstract_integrand.AbstractIntegrand -->
<g id="edge3" class="edge">
<title>QMCSoftware.qmcpy.integrand.custom_fun.CustomFun&#45;&gt;QMCSoftware.qmcpy.integrand.abstract_integrand.AbstractIntegrand</title>
<path fill="none" stroke="black" d="M553.18,-552.48C545.36,-635.63 542.84,-804.99 635.5,-897.8 735.69,-998.15 1120.31,-1045.86 1364.84,-1066.48"/>
<polygon fill="none" stroke="black" points="1364.67,-1069.98 1374.93,-1067.32 1365.26,-1063 1364.67,-1069.98"/>
</g>
<!-- QMCSoftware.qmcpy.integrand.financial_option.DigitalOption -->
<g id="node7" class="node">
<title>QMCSoftware.qmcpy.integrand.financial_option.DigitalOption</title>
<polygon fill="none" stroke="black" points="739,-0.5 739,-71.3 852,-71.3 852,-0.5 739,-0.5"/>
<text text-anchor="start" x="747" y="-56.1" font-family="Times,serif" font-size="14.00">DigitalOption</text>
<polyline fill="none" stroke="black" points="739,-48.3 852,-48.3 "/>
<polyline fill="none" stroke="black" points="739,-23.5 852,-23.5 "/>
<text text-anchor="start" x="793" y="-8.3" font-family="Times,serif" font-size="14.00"> </text>
</g>
<!-- QMCSoftware.qmcpy.integrand.financial_option.DigitalOption&#45;&gt;QMCSoftware.qmcpy.integrand.financial_option.FinancialOption -->
<g id="edge6" class="edge">
<title>QMCSoftware.qmcpy.integrand.financial_option.DigitalOption&#45;&gt;QMCSoftware.qmcpy.integrand.financial_option.FinancialOption</title>
<path fill="none" stroke="black" d="M795.5,-71.46C795.5,-79.28 795.5,-88.22 795.5,-98.08"/>
<polygon fill="none" stroke="black" points="792,-98.25 795.5,-108.25 799,-98.25 792,-98.25"/>
</g>
<!-- QMCSoftware.qmcpy.integrand.financial_option.EuropeanOption -->
<g id="node8" class="node">
<title>QMCSoftware.qmcpy.integrand.financial_option.EuropeanOption</title>
<polygon fill="none" stroke="black" points="870.5,-0.5 870.5,-71.3 1004.5,-71.3 1004.5,-0.5 870.5,-0.5"/>
<text text-anchor="start" x="878.5" y="-56.1" font-family="Times,serif" font-size="14.00">EuropeanOption</text>
<polyline fill="none" stroke="black" points="870.5,-48.3 1004.5,-48.3 "/>
<polyline fill="none" stroke="black" points="870.5,-23.5 1004.5,-23.5 "/>
<text text-anchor="start" x="935" y="-8.3" font-family="Times,serif" font-size="14.00"> </text>
</g>
<!-- QMCSoftware.qmcpy.integrand.financial_option.EuropeanOption&#45;&gt;QMCSoftware.qmcpy.integrand.financial_option.FinancialOption -->
<g id="edge7" class="edge">
<title>QMCSoftware.qmcpy.integrand.financial_option.EuropeanOption&#45;&gt;QMCSoftware.qmcpy.integrand.financial_option.FinancialOption</title>
<path fill="none" stroke="black" d="M926.94,-71.46C924.53,-79.36 921.77,-88.4 918.72,-98.39"/>
<polygon fill="none" stroke="black" points="915.28,-97.67 915.71,-108.25 921.97,-99.71 915.28,-97.67"/>
</g>
<!-- QMCSoftware.qmcpy.integrand.financial_option.FinancialOption&#45;&gt;QMCSoftware.qmcpy.integrand.abstract_integrand.AbstractIntegrand -->
<g id="edge8" class="edge">
<title>QMCSoftware.qmcpy.integrand.financial_option.FinancialOption&#45;&gt;QMCSoftware.qmcpy.integrand.abstract_integrand.AbstractIntegrand</title>
<path fill="none" stroke="black" d="M946.24,-889.04C949.27,-892.03 952.35,-894.95 955.5,-897.8 1067.31,-999.1 1232.83,-1044.31 1364.43,-1064.43"/>
<polygon fill="none" stroke="black" points="1364.24,-1067.94 1374.65,-1065.95 1365.27,-1061.01 1364.24,-1067.94"/>
</g>
<!-- QMCSoftware.qmcpy.integrand.fourbranch2d.FourBranch2d -->
<g id="node10" class="node">
<title>QMCSoftware.qmcpy.integrand.fourbranch2d.FourBranch2d</title>
<polygon fill="none" stroke="black" points="964.5,-460.8 964.5,-544.8 1152.5,-544.8 1152.5,-460.8 964.5,-460.8"/>
<text text-anchor="start" x="1007" y="-529.6" font-family="Times,serif" font-size="14.00">FourBranch2d</text>
<polyline fill="none" stroke="black" points="964.5,-521.8 1152.5,-521.8 "/>
<text text-anchor="start" x="972.5" y="-506.6" font-family="Times,serif" font-size="14.00">sampler</text>
<text text-anchor="start" x="972.5" y="-491.6" font-family="Times,serif" font-size="14.00">true_measure : Uniform</text>
<polyline fill="none" stroke="black" points="964.5,-483.8 1152.5,-483.8 "/>
<text text-anchor="start" x="1045.5" y="-468.6" font-family="Times,serif" font-size="14.00">g(t)</text>
</g>
<!-- QMCSoftware.qmcpy.integrand.fourbranch2d.FourBranch2d&#45;&gt;QMCSoftware.qmcpy.integrand.abstract_integrand.AbstractIntegrand -->
<g id="edge10" class="edge">
<title>QMCSoftware.qmcpy.integrand.fourbranch2d.FourBranch2d&#45;&gt;QMCSoftware.qmcpy.integrand.abstract_integrand.AbstractIntegrand</title>
<path fill="none" stroke="black" d="M1058.09,-545.06C1059.48,-623.14 1073.21,-793.99 1161.5,-897.8 1214.05,-959.59 1291.62,-1001.27 1365.33,-1028.99"/>
<polygon fill="none" stroke="black" points="1364.17,-1032.29 1374.76,-1032.47 1366.59,-1025.72 1364.17,-1032.29"/>
</g>
<!-- QMCSoftware.qmcpy.integrand.genz.Genz -->
<g id="node11" class="node">
<title>QMCSoftware.qmcpy.integrand.genz.Genz</title>
<polygon fill="none" stroke="black" points="1170.5,-408.3 1170.5,-597.3 1358.5,-597.3 1358.5,-408.3 1170.5,-408.3"/>
<text text-anchor="start" x="1246" y="-582.1" font-family="Times,serif" font-size="14.00">Genz</text>
<polyline fill="none" stroke="black" points="1170.5,-574.3 1358.5,-574.3 "/>
<text text-anchor="start" x="1178.5" y="-559.1" font-family="Times,serif" font-size="14.00">c</text>
<text text-anchor="start" x="1178.5" y="-544.1" font-family="Times,serif" font-size="14.00">d</text>
<text text-anchor="start" x="1178.5" y="-529.1" font-family="Times,serif" font-size="14.00">g</text>
<text text-anchor="start" x="1178.5" y="-514.1" font-family="Times,serif" font-size="14.00">kind_coeff : int</text>
<text text-anchor="start" x="1178.5" y="-499.1" font-family="Times,serif" font-size="14.00">kind_func : str</text>
<text text-anchor="start" x="1178.5" y="-484.1" font-family="Times,serif" font-size="14.00">parameters : list</text>
<text text-anchor="start" x="1178.5" y="-469.1" font-family="Times,serif" font-size="14.00">sampler</text>
<text text-anchor="start" x="1178.5" y="-454.1" font-family="Times,serif" font-size="14.00">true_measure : Uniform</text>
<polyline fill="none" stroke="black" points="1170.5,-446.3 1358.5,-446.3 "/>
<text text-anchor="start" x="1204.5" y="-431.1" font-family="Times,serif" font-size="14.00">g_corner_peak(t)</text>
<text text-anchor="start" x="1204.5" y="-416.1" font-family="Times,serif" font-size="14.00">g_oscillatory(t)</text>
</g>
<!-- QMCSoftware.qmcpy.integrand.genz.Genz&#45;&gt;QMCSoftware.qmcpy.integrand.abstract_integrand.AbstractIntegrand -->
<g id="edge11" class="edge">
<title>QMCSoftware.qmcpy.integrand.genz.Genz&#45;&gt;QMCSoftware.qmcpy.integrand.abstract_integrand.AbstractIntegrand</title>
<path fill="none" stroke="black" d="M1273.39,-597.41C1284.82,-681.29 1310.52,-805.02 1367.5,-897.8 1373.45,-907.48 1380.07,-916.94 1387.18,-926.14"/>
<polygon fill="none" stroke="black" points="1384.59,-928.5 1393.56,-934.15 1390.07,-924.14 1384.59,-928.5"/>
</g>
<!-- QMCSoftware.qmcpy.integrand.hartmann6d.Hartmann6d -->
<g id="node12" class="node">
<title>QMCSoftware.qmcpy.integrand.hartmann6d.Hartmann6d</title>
<polygon fill="none" stroke="black" points="1376.5,-453.3 1376.5,-552.3 1564.5,-552.3 1564.5,-453.3 1376.5,-453.3"/>
<text text-anchor="start" x="1425" y="-537.1" font-family="Times,serif" font-size="14.00">Hartmann6d</text>
<polyline fill="none" stroke="black" points="1376.5,-529.3 1564.5,-529.3 "/>
<text text-anchor="start" x="1384.5" y="-514.1" font-family="Times,serif" font-size="14.00">ah</text>
<text text-anchor="start" x="1384.5" y="-499.1" font-family="Times,serif" font-size="14.00">sampler</text>
<text text-anchor="start" x="1384.5" y="-484.1" font-family="Times,serif" font-size="14.00">true_measure : Uniform</text>
<polyline fill="none" stroke="black" points="1376.5,-476.3 1564.5,-476.3 "/>
<text text-anchor="start" x="1457.5" y="-461.1" font-family="Times,serif" font-size="14.00">g(t)</text>
</g>
<!-- QMCSoftware.qmcpy.integrand.hartmann6d.Hartmann6d&#45;&gt;QMCSoftware.qmcpy.integrand.abstract_integrand.AbstractIntegrand -->
<g id="edge12" class="edge">
<title>QMCSoftware.qmcpy.integrand.hartmann6d.Hartmann6d&#45;&gt;QMCSoftware.qmcpy.integrand.abstract_integrand.AbstractIntegrand</title>
<path fill="none" stroke="black" d="M1479.19,-552.46C1493.69,-633.6 1523.4,-799.9 1545.62,-924.27"/>
<polygon fill="none" stroke="black" points="1542.21,-925.05 1547.41,-934.28 1549.1,-923.82 1542.21,-925.05"/>
</g>
<!-- QMCSoftware.qmcpy.integrand.ishigami.Ishigami -->
<g id="node13" class="node">
<title>QMCSoftware.qmcpy.integrand.ishigami.Ishigami</title>
<polygon fill="none" stroke="black" points="1582.5,-445.8 1582.5,-559.8 1770.5,-559.8 1770.5,-445.8 1582.5,-445.8"/>
<text text-anchor="start" x="1645.5" y="-544.6" font-family="Times,serif" font-size="14.00">Ishigami</text>
<polyline fill="none" stroke="black" points="1582.5,-536.8 1770.5,-536.8 "/>
<text text-anchor="start" x="1590.5" y="-521.6" font-family="Times,serif" font-size="14.00">a : int</text>
<text text-anchor="start" x="1590.5" y="-506.6" font-family="Times,serif" font-size="14.00">b : float</text>
<text text-anchor="start" x="1590.5" y="-491.6" font-family="Times,serif" font-size="14.00">sampler</text>
<text text-anchor="start" x="1590.5" y="-476.6" font-family="Times,serif" font-size="14.00">true_measure : Uniform</text>
<polyline fill="none" stroke="black" points="1582.5,-468.8 1770.5,-468.8 "/>
<text text-anchor="start" x="1663.5" y="-453.6" font-family="Times,serif" font-size="14.00">g(t)</text>
</g>
<!-- QMCSoftware.qmcpy.integrand.ishigami.Ishigami&#45;&gt;QMCSoftware.qmcpy.integrand.abstract_integrand.AbstractIntegrand -->
<g id="edge13" class="edge">
<title>QMCSoftware.qmcpy.integrand.ishigami.Ishigami&#45;&gt;QMCSoftware.qmcpy.integrand.abstract_integrand.AbstractIntegrand</title>
<path fill="none" stroke="black" d="M1666.48,-559.86C1651.57,-643.32 1622.98,-803.34 1601.42,-924.02"/>
<polygon fill="none" stroke="black" points="1597.93,-923.64 1599.62,-934.1 1604.83,-924.87 1597.93,-923.64"/>
</g>
<!-- QMCSoftware.qmcpy.integrand.keister.Keister -->
<g id="node14" class="node">
<title>QMCSoftware.qmcpy.integrand.keister.Keister</title>
<polygon fill="none" stroke="black" points="1788.5,-445.8 1788.5,-559.8 1982.5,-559.8 1982.5,-445.8 1788.5,-445.8"/>
<text text-anchor="start" x="1859.5" y="-544.6" font-family="Times,serif" font-size="14.00">Keister</text>
<polyline fill="none" stroke="black" points="1788.5,-536.8 1982.5,-536.8 "/>
<text text-anchor="start" x="1796.5" y="-521.6" font-family="Times,serif" font-size="14.00">sampler</text>
<text text-anchor="start" x="1796.5" y="-506.6" font-family="Times,serif" font-size="14.00">true_measure : Gaussian</text>
<polyline fill="none" stroke="black" points="1788.5,-498.8 1982.5,-498.8 "/>
<text text-anchor="start" x="1819" y="-483.6" font-family="Times,serif" font-size="14.00">exact_integ()</text>
<text text-anchor="start" x="1819" y="-468.6" font-family="Times,serif" font-size="14.00">g(t)</text>
<text text-anchor="start" x="1819" y="-453.6" font-family="Times,serif" font-size="14.00">get_exact_value(d)</text>
</g>
<!-- QMCSoftware.qmcpy.integrand.keister.Keister&#45;&gt;QMCSoftware.qmcpy.integrand.abstract_integrand.AbstractIntegrand -->
<g id="edge14" class="edge">
<title>QMCSoftware.qmcpy.integrand.keister.Keister&#45;&gt;QMCSoftware.qmcpy.integrand.abstract_integrand.AbstractIntegrand</title>
<path fill="none" stroke="black" d="M1880.61,-560.03C1871.47,-640.32 1846.24,-789.99 1779.5,-897.8 1773.52,-907.46 1766.87,-916.9 1759.73,-926.08"/>
<polygon fill="none" stroke="black" points="1756.85,-924.09 1753.34,-934.08 1762.31,-928.46 1756.85,-924.09"/>
</g>
<!-- QMCSoftware.qmcpy.integrand.linear0.Linear0 -->
<g id="node15" class="node">
<title>QMCSoftware.qmcpy.integrand.linear0.Linear0</title>
<polygon fill="none" stroke="black" points="2000.5,-460.8 2000.5,-544.8 2188.5,-544.8 2188.5,-460.8 2000.5,-460.8"/>
<text text-anchor="start" x="2067" y="-529.6" font-family="Times,serif" font-size="14.00">Linear0</text>
<polyline fill="none" stroke="black" points="2000.5,-521.8 2188.5,-521.8 "/>
<text text-anchor="start" x="2008.5" y="-506.6" font-family="Times,serif" font-size="14.00">sampler</text>
<text text-anchor="start" x="2008.5" y="-491.6" font-family="Times,serif" font-size="14.00">true_measure : Uniform</text>
<polyline fill="none" stroke="black" points="2000.5,-483.8 2188.5,-483.8 "/>
<text text-anchor="start" x="2081.5" y="-468.6" font-family="Times,serif" font-size="14.00">g(t)</text>
</g>
<!-- QMCSoftware.qmcpy.integrand.linear0.Linear0&#45;&gt;QMCSoftware.qmcpy.integrand.abstract_integrand.AbstractIntegrand -->
<g id="edge15" class="edge">
<title>QMCSoftware.qmcpy.integrand.linear0.Linear0&#45;&gt;QMCSoftware.qmcpy.integrand.abstract_integrand.AbstractIntegrand</title>
<path fill="none" stroke="black" d="M2094.96,-545.1C2093.65,-623.26 2080.06,-794.22 1991.5,-897.8 1937.46,-961 1857.43,-1003.06 1781.81,-1030.68"/>
<polygon fill="none" stroke="black" points="1780.37,-1027.48 1772.13,-1034.15 1782.73,-1034.07 1780.37,-1027.48"/>
</g>
<!-- QMCSoftware.qmcpy.integrand.financial_option.LookbackOption -->
<g id="node16" class="node">
<title>QMCSoftware.qmcpy.integrand.financial_option.LookbackOption</title>
<polygon fill="none" stroke="black" points="1023,-0.5 1023,-71.3 1154,-71.3 1154,-0.5 1023,-0.5"/>
<text text-anchor="start" x="1031" y="-56.1" font-family="Times,serif" font-size="14.00">LookbackOption</text>
<polyline fill="none" stroke="black" points="1023,-48.3 1154,-48.3 "/>
<polyline fill="none" stroke="black" points="1023,-23.5 1154,-23.5 "/>
<text text-anchor="start" x="1086" y="-8.3" font-family="Times,serif" font-size="14.00"> </text>
</g>
<!-- QMCSoftware.qmcpy.integrand.financial_option.LookbackOption&#45;&gt;QMCSoftware.qmcpy.integrand.financial_option.FinancialOption -->
<g id="edge9" class="edge">
<title>QMCSoftware.qmcpy.integrand.financial_option.LookbackOption&#45;&gt;QMCSoftware.qmcpy.integrand.financial_option.FinancialOption</title>
<path fill="none" stroke="black" d="M1022.84,-69.4C992.05,-85.09 960.91,-101.8 955.5,-107.8 954.6,-108.8 953.7,-109.81 952.8,-110.83"/>
<polygon fill="none" stroke="black" points="949.9,-108.84 946.04,-118.71 955.21,-113.4 949.9,-108.84"/>
</g>
<!-- QMCSoftware.qmcpy.integrand.multimodal2d.Multimodal2d -->
<g id="node17" class="node">
<title>QMCSoftware.qmcpy.integrand.multimodal2d.Multimodal2d</title>
<polygon fill="none" stroke="black" points="2206.5,-460.8 2206.5,-544.8 2394.5,-544.8 2394.5,-460.8 2206.5,-460.8"/>
<text text-anchor="start" x="2250.5" y="-529.6" font-family="Times,serif" font-size="14.00">Multimodal2d</text>
<polyline fill="none" stroke="black" points="2206.5,-521.8 2394.5,-521.8 "/>
<text text-anchor="start" x="2214.5" y="-506.6" font-family="Times,serif" font-size="14.00">sampler</text>
<text text-anchor="start" x="2214.5" y="-491.6" font-family="Times,serif" font-size="14.00">true_measure : Uniform</text>
<polyline fill="none" stroke="black" points="2206.5,-483.8 2394.5,-483.8 "/>
<text text-anchor="start" x="2287.5" y="-468.6" font-family="Times,serif" font-size="14.00">g(t)</text>
</g>
<!-- QMCSoftware.qmcpy.integrand.multimodal2d.Multimodal2d&#45;&gt;QMCSoftware.qmcpy.integrand.abstract_integrand.AbstractIntegrand -->
<g id="edge16" class="edge">
<title>QMCSoftware.qmcpy.integrand.multimodal2d.Multimodal2d&#45;&gt;QMCSoftware.qmcpy.integrand.abstract_integrand.AbstractIntegrand</title>
<path fill="none" stroke="black" d="M2302.12,-544.93C2302.92,-624.34 2292.96,-799.55 2197.5,-897.8 2089.59,-1008.86 1918.13,-1053.3 1782.23,-1070.63"/>
<polygon fill="none" stroke="black" points="1781.59,-1067.18 1772.09,-1071.88 1782.45,-1074.13 1781.59,-1067.18"/>
</g>
<!-- QMCSoftware.qmcpy.integrand.sensitivity_indices.SensitivityIndices -->
<g id="node18" class="node">
<title>QMCSoftware.qmcpy.integrand.sensitivity_indices.SensitivityIndices</title>
<polygon fill="none" stroke="black" points="2413,-385.8 2413,-619.8 2680,-619.8 2680,-385.8 2413,-385.8"/>
<text text-anchor="start" x="2482.5" y="-604.6" font-family="Times,serif" font-size="14.00">SensitivityIndices</text>
<polyline fill="none" stroke="black" points="2413,-596.8 2680,-596.8 "/>
<text text-anchor="start" x="2435" y="-581.6" font-family="Times,serif" font-size="14.00">d</text>
<text text-anchor="start" x="2435" y="-566.6" font-family="Times,serif" font-size="14.00">discrete_distrib</text>
<text text-anchor="start" x="2435" y="-551.6" font-family="Times,serif" font-size="14.00">dtilde</text>
<text text-anchor="start" x="2435" y="-536.6" font-family="Times,serif" font-size="14.00">i_slice</text>
<text text-anchor="start" x="2435" y="-521.6" font-family="Times,serif" font-size="14.00">indices : list, ndarray, str, tuple</text>
<text text-anchor="start" x="2435" y="-506.6" font-family="Times,serif" font-size="14.00">integrand</text>
<text text-anchor="start" x="2435" y="-491.6" font-family="Times,serif" font-size="14.00">not_indices : ndarray</text>
<text text-anchor="start" x="2435" y="-476.6" font-family="Times,serif" font-size="14.00">parameters : list</text>
<text text-anchor="start" x="2435" y="-461.6" font-family="Times,serif" font-size="14.00">sampler</text>
<text text-anchor="start" x="2435" y="-446.6" font-family="Times,serif" font-size="14.00">true_measure</text>
<polyline fill="none" stroke="black" points="2413,-438.8 2680,-438.8 "/>
<text text-anchor="start" x="2421" y="-423.6" font-family="Times,serif" font-size="14.00">bound_fun(bound_low, bound_high)</text>
<text text-anchor="start" x="2421" y="-408.6" font-family="Times,serif" font-size="14.00">dependency(comb_flags)</text>
<text text-anchor="start" x="2421" y="-393.6" font-family="Times,serif" font-size="14.00">f(x)</text>
</g>
<!-- QMCSoftware.qmcpy.integrand.sensitivity_indices.SensitivityIndices&#45;&gt;QMCSoftware.qmcpy.integrand.abstract_integrand.AbstractIntegrand -->
<g id="edge17" class="edge">
<title>QMCSoftware.qmcpy.integrand.sensitivity_indices.SensitivityIndices&#45;&gt;QMCSoftware.qmcpy.integrand.abstract_integrand.AbstractIntegrand</title>
<path fill="none" stroke="black" d="M2534.4,-619.83C2518.92,-708.67 2483.68,-827.54 2403.5,-897.8 2312.43,-977.6 1996.91,-1030.1 1782.22,-1057.5"/>
<polygon fill="none" stroke="black" points="1781.55,-1054.05 1772.07,-1058.78 1782.43,-1061 1781.55,-1054.05"/>
</g>
<!-- QMCSoftware.qmcpy.integrand.sin1d.Sin1d -->
<g id="node19" class="node">
<title>QMCSoftware.qmcpy.integrand.sin1d.Sin1d</title>
<polygon fill="none" stroke="black" points="2698.5,-453.3 2698.5,-552.3 2886.5,-552.3 2886.5,-453.3 2698.5,-453.3"/>
<text text-anchor="start" x="2771.5" y="-537.1" font-family="Times,serif" font-size="14.00">Sin1d</text>
<polyline fill="none" stroke="black" points="2698.5,-529.3 2886.5,-529.3 "/>
<text text-anchor="start" x="2706.5" y="-514.1" font-family="Times,serif" font-size="14.00">k : int</text>
<text text-anchor="start" x="2706.5" y="-499.1" font-family="Times,serif" font-size="14.00">sampler</text>
<text text-anchor="start" x="2706.5" y="-484.1" font-family="Times,serif" font-size="14.00">true_measure : Uniform</text>
<polyline fill="none" stroke="black" points="2698.5,-476.3 2886.5,-476.3 "/>
<text text-anchor="start" x="2779.5" y="-461.1" font-family="Times,serif" font-size="14.00">g(t)</text>
</g>
<!-- QMCSoftware.qmcpy.integrand.sin1d.Sin1d&#45;&gt;QMCSoftware.qmcpy.integrand.abstract_integrand.AbstractIntegrand -->
<g id="edge18" class="edge">
<title>QMCSoftware.qmcpy.integrand.sin1d.Sin1d&#45;&gt;QMCSoftware.qmcpy.integrand.abstract_integrand.AbstractIntegrand</title>
<path fill="none" stroke="black" d="M2795.34,-552.48C2797.34,-636.41 2788.17,-807.96 2689.5,-897.8 2559.85,-1015.85 2067.75,-1058.01 1782.16,-1072.72"/>
<polygon fill="none" stroke="black" points="1781.89,-1069.23 1772.09,-1073.23 1782.25,-1076.22 1781.89,-1069.23"/>
</g>
<!-- QMCSoftware.qmcpy.integrand.umbridge_wrapper.UMBridgeWrapper -->
<g id="node20" class="node">
<title>QMCSoftware.qmcpy.integrand.umbridge_wrapper.UMBridgeWrapper</title>
<polygon fill="none" stroke="black" points="2905,-385.8 2905,-619.8 3106,-619.8 3106,-385.8 2905,-385.8"/>
<text text-anchor="start" x="2937.5" y="-604.6" font-family="Times,serif" font-size="14.00">UMBridgeWrapper</text>
<polyline fill="none" stroke="black" points="2905,-596.8 3106,-596.8 "/>
<text text-anchor="start" x="2913" y="-581.6" font-family="Times,serif" font-size="14.00">config : dict</text>
<text text-anchor="start" x="2913" y="-566.6" font-family="Times,serif" font-size="14.00">d_in_umbridge : ndarray</text>
<text text-anchor="start" x="2913" y="-551.6" font-family="Times,serif" font-size="14.00">d_out_umbridge : ndarray</text>
<text text-anchor="start" x="2913" y="-536.6" font-family="Times,serif" font-size="14.00">model</text>
<text text-anchor="start" x="2913" y="-521.6" font-family="Times,serif" font-size="14.00">n_d_in_umbridge : int</text>
<text text-anchor="start" x="2913" y="-506.6" font-family="Times,serif" font-size="14.00">n_d_out_umbridge : int</text>
<text text-anchor="start" x="2913" y="-491.6" font-family="Times,serif" font-size="14.00">parallel : bool</text>
<text text-anchor="start" x="2913" y="-476.6" font-family="Times,serif" font-size="14.00">parameters : list</text>
<text text-anchor="start" x="2913" y="-461.6" font-family="Times,serif" font-size="14.00">sampler</text>
<text text-anchor="start" x="2913" y="-446.6" font-family="Times,serif" font-size="14.00">total_out_elements : int</text>
<text text-anchor="start" x="2913" y="-431.6" font-family="Times,serif" font-size="14.00">true_measure</text>
<polyline fill="none" stroke="black" points="2905,-423.8 3106,-423.8 "/>
<text text-anchor="start" x="2915" y="-408.6" font-family="Times,serif" font-size="14.00">g(t)</text>
<text text-anchor="start" x="2915" y="-393.6" font-family="Times,serif" font-size="14.00">to_umbridge_out_sizes(x)</text>
</g>
<!-- QMCSoftware.qmcpy.integrand.umbridge_wrapper.UMBridgeWrapper&#45;&gt;QMCSoftware.qmcpy.integrand.abstract_integrand.AbstractIntegrand -->
<g id="edge19" class="edge">
<title>QMCSoftware.qmcpy.integrand.umbridge_wrapper.UMBridgeWrapper&#45;&gt;QMCSoftware.qmcpy.integrand.abstract_integrand.AbstractIntegrand</title>
<path fill="none" stroke="black" d="M3005.42,-619.91C2998.73,-709.41 2974.13,-829.13 2895.5,-897.8 2733.68,-1039.12 2112.53,-1071.46 1782.48,-1078.56"/>
<polygon fill="none" stroke="black" points="1782.24,-1075.06 1772.32,-1078.77 1782.39,-1082.06 1782.24,-1075.06"/>
</g>
</g>
</svg>
