<?xml version="1.0" encoding="UTF-8" standalone="no"?>
<!DOCTYPE svg PUBLIC "-//W3C//DTD SVG 1.1//EN"
 "http://www.w3.org/Graphics/SVG/1.1/DTD/svg11.dtd">
<!-- Generated by graphviz version 2.43.0 (0)
 -->
<!-- Title: classes Pages: 1 -->
<svg width="1688pt" height="191pt"
 viewBox="0.00 0.00 1687.50 191.00" xmlns="http://www.w3.org/2000/svg" xmlns:xlink="http://www.w3.org/1999/xlink">
<g id="graph0" class="graph" transform="scale(1 1) rotate(0) translate(4 187)">
<title>classes</title>
<polygon fill="white" stroke="transparent" points="-4,4 -4,-187 1683.5,-187 1683.5,4 -4,4"/>
<!-- QMCSoftware.qmcpy.integrand.abstract_integrand.AbstractIntegrand -->
<g id="node1" class="node">
<title>QMCSoftware.qmcpy.integrand.abstract_integrand.AbstractIntegrand</title>
<polygon fill="none" stroke="black" points="792.5,-146.5 792.5,-182.5 940.5,-182.5 940.5,-146.5 792.5,-146.5"/>
<text text-anchor="start" x="800.5" y="-160.8" font-family="Times,serif" font-size="14.00">AbstractIntegrand</text>
</g>
<!-- QMCSoftware.qmcpy.integrand.financial_option.AsianOption -->
<g id="node2" class="node">
<title>QMCSoftware.qmcpy.integrand.financial_option.AsianOption</title>
<polygon fill="none" stroke="black" points="151.5,-0.5 151.5,-36.5 255.5,-36.5 255.5,-0.5 151.5,-0.5"/>
<text text-anchor="start" x="159.5" y="-14.8" font-family="Times,serif" font-size="14.00">AsianOption</text>
</g>
<!-- QMCSoftware.qmcpy.integrand.financial_option.FinancialOption -->
<g id="node9" class="node">
<title>QMCSoftware.qmcpy.integrand.financial_option.FinancialOption</title>
<polygon fill="none" stroke="black" points="399.5,-73.5 399.5,-109.5 529.5,-109.5 529.5,-73.5 399.5,-73.5"/>
<text text-anchor="start" x="407.5" y="-87.8" font-family="Times,serif" font-size="14.00">FinancialOption</text>
</g>
<!-- QMCSoftware.qmcpy.integrand.financial_option.AsianOption&#45;&gt;QMCSoftware.qmcpy.integrand.financial_option.FinancialOption -->
<g id="edge4" class="edge">
<title>QMCSoftware.qmcpy.integrand.financial_option.AsianOption&#45;&gt;QMCSoftware.qmcpy.integrand.financial_option.FinancialOption</title>
<path fill="none" stroke="black" d="M255.73,-34.55C258.69,-35.38 261.63,-36.21 264.5,-37 305.83,-48.46 352.09,-60.86 389.7,-70.83"/>
<polygon fill="none" stroke="black" points="389,-74.27 399.57,-73.45 390.8,-67.5 389,-74.27"/>
</g>
<!-- QMCSoftware.qmcpy.integrand.financial_option.BarrierOption -->
<g id="node3" class="node">
<title>QMCSoftware.qmcpy.integrand.financial_option.BarrierOption</title>
<polygon fill="none" stroke="black" points="273.5,-0.5 273.5,-36.5 389.5,-36.5 389.5,-0.5 273.5,-0.5"/>
<text text-anchor="start" x="281.5" y="-14.8" font-family="Times,serif" font-size="14.00">BarrierOption</text>
</g>
<!-- QMCSoftware.qmcpy.integrand.financial_option.BarrierOption&#45;&gt;QMCSoftware.qmcpy.integrand.financial_option.FinancialOption -->
<g id="edge5" class="edge">
<title>QMCSoftware.qmcpy.integrand.financial_option.BarrierOption&#45;&gt;QMCSoftware.qmcpy.integrand.financial_option.FinancialOption</title>
<path fill="none" stroke="black" d="M363.36,-36.51C381.4,-46.14 404.17,-58.29 423.53,-68.63"/>
<polygon fill="none" stroke="black" points="421.97,-71.76 432.44,-73.39 425.27,-65.59 421.97,-71.76"/>
</g>
<!-- QMCSoftware.qmcpy.integrand.bayesian_lr_coeffs.BayesianLRCoeffs -->
<g id="node4" class="node">
<title>QMCSoftware.qmcpy.integrand.bayesian_lr_coeffs.BayesianLRCoeffs</title>
<polygon fill="none" stroke="black" points="0,-73.5 0,-109.5 145,-109.5 145,-73.5 0,-73.5"/>
<text text-anchor="start" x="8" y="-87.8" font-family="Times,serif" font-size="14.00">BayesianLRCoeffs</text>
</g>
<!-- QMCSoftware.qmcpy.integrand.bayesian_lr_coeffs.BayesianLRCoeffs&#45;&gt;QMCSoftware.qmcpy.integrand.abstract_integrand.AbstractIntegrand -->
<g id="edge1" class="edge">
<title>QMCSoftware.qmcpy.integrand.bayesian_lr_coeffs.BayesianLRCoeffs&#45;&gt;QMCSoftware.qmcpy.integrand.abstract_integrand.AbstractIntegrand</title>
<path fill="none" stroke="black" d="M145.27,-108.72C148.04,-109.18 150.79,-109.61 153.5,-110 379.34,-142.71 648.51,-156.03 782.31,-160.94"/>
<polygon fill="none" stroke="black" points="782.37,-164.45 792.49,-161.31 782.62,-157.45 782.37,-164.45"/>
</g>
<!-- QMCSoftware.qmcpy.integrand.box_integral.BoxIntegral -->
<g id="node5" class="node">
<title>QMCSoftware.qmcpy.integrand.box_integral.BoxIntegral</title>
<polygon fill="none" stroke="black" points="163,-73.5 163,-109.5 264,-109.5 264,-73.5 163,-73.5"/>
<text text-anchor="start" x="171" y="-87.8" font-family="Times,serif" font-size="14.00">BoxIntegral</text>
</g>
<!-- QMCSoftware.qmcpy.integrand.box_integral.BoxIntegral&#45;&gt;QMCSoftware.qmcpy.integrand.abstract_integrand.AbstractIntegrand -->
<g id="edge2" class="edge">
<title>QMCSoftware.qmcpy.integrand.box_integral.BoxIntegral&#45;&gt;QMCSoftware.qmcpy.integrand.abstract_integrand.AbstractIntegrand</title>
<path fill="none" stroke="black" d="M264.19,-108.23C266.99,-108.88 269.77,-109.48 272.5,-110 451.92,-144.34 666.16,-156.76 782.01,-161.16"/>
<polygon fill="none" stroke="black" points="782.1,-164.66 792.23,-161.54 782.36,-157.67 782.1,-164.66"/>
</g>
<!-- QMCSoftware.qmcpy.integrand.custom_fun.CustomFun -->
<g id="node6" class="node">
<title>QMCSoftware.qmcpy.integrand.custom_fun.CustomFun</title>
<polygon fill="none" stroke="black" points="282,-73.5 282,-109.5 381,-109.5 381,-73.5 282,-73.5"/>
<text text-anchor="start" x="290" y="-87.8" font-family="Times,serif" font-size="14.00">CustomFun</text>
</g>
<!-- QMCSoftware.qmcpy.integrand.custom_fun.CustomFun&#45;&gt;QMCSoftware.qmcpy.integrand.abstract_integrand.AbstractIntegrand -->
<g id="edge3" class="edge">
<title>QMCSoftware.qmcpy.integrand.custom_fun.CustomFun&#45;&gt;QMCSoftware.qmcpy.integrand.abstract_integrand.AbstractIntegrand</title>
<path fill="none" stroke="black" d="M381.24,-107.92C384.36,-108.68 387.46,-109.38 390.5,-110 526.14,-137.52 686.61,-151.87 782.29,-158.54"/>
<polygon fill="none" stroke="black" points="782.27,-162.05 792.48,-159.24 782.75,-155.06 782.27,-162.05"/>
</g>
<!-- QMCSoftware.qmcpy.integrand.financial_option.DigitalOption -->
<g id="node7" class="node">
<title>QMCSoftware.qmcpy.integrand.financial_option.DigitalOption</title>
<polygon fill="none" stroke="black" points="408,-0.5 408,-36.5 521,-36.5 521,-0.5 408,-0.5"/>
<text text-anchor="start" x="416" y="-14.8" font-family="Times,serif" font-size="14.00">DigitalOption</text>
</g>
<!-- QMCSoftware.qmcpy.integrand.financial_option.DigitalOption&#45;&gt;QMCSoftware.qmcpy.integrand.financial_option.FinancialOption -->
<g id="edge6" class="edge">
<title>QMCSoftware.qmcpy.integrand.financial_option.DigitalOption&#45;&gt;QMCSoftware.qmcpy.integrand.financial_option.FinancialOption</title>
<path fill="none" stroke="black" d="M464.5,-36.69C464.5,-44.71 464.5,-54.45 464.5,-63.43"/>
<polygon fill="none" stroke="black" points="461,-63.47 464.5,-73.47 468,-63.47 461,-63.47"/>
</g>
<!-- QMCSoftware.qmcpy.integrand.financial_option.EuropeanOption -->
<g id="node8" class="node">
<title>QMCSoftware.qmcpy.integrand.financial_option.EuropeanOption</title>
<polygon fill="none" stroke="black" points="539.5,-0.5 539.5,-36.5 673.5,-36.5 673.5,-0.5 539.5,-0.5"/>
<text text-anchor="start" x="547.5" y="-14.8" font-family="Times,serif" font-size="14.00">EuropeanOption</text>
</g>
<!-- QMCSoftware.qmcpy.integrand.financial_option.EuropeanOption&#45;&gt;QMCSoftware.qmcpy.integrand.financial_option.FinancialOption -->
<g id="edge7" class="edge">
<title>QMCSoftware.qmcpy.integrand.financial_option.EuropeanOption&#45;&gt;QMCSoftware.qmcpy.integrand.financial_option.FinancialOption</title>
<path fill="none" stroke="black" d="M572.49,-36.51C553.05,-46.23 528.47,-58.51 507.68,-68.91"/>
<polygon fill="none" stroke="black" points="506.11,-65.78 498.73,-73.39 509.24,-72.04 506.11,-65.78"/>
</g>
<!-- QMCSoftware.qmcpy.integrand.financial_option.FinancialOption&#45;&gt;QMCSoftware.qmcpy.integrand.abstract_integrand.AbstractIntegrand -->
<g id="edge8" class="edge">
<title>QMCSoftware.qmcpy.integrand.financial_option.FinancialOption&#45;&gt;QMCSoftware.qmcpy.integrand.abstract_integrand.AbstractIntegrand</title>
<path fill="none" stroke="black" d="M529.82,-108.21C532.75,-108.83 535.65,-109.43 538.5,-110 620.98,-126.46 715.87,-141.52 782.3,-151.44"/>
<polygon fill="none" stroke="black" points="781.9,-154.92 792.3,-152.92 782.93,-147.99 781.9,-154.92"/>
</g>
<!-- QMCSoftware.qmcpy.integrand.fourbranch2d.FourBranch2d -->
<g id="node10" class="node">
<title>QMCSoftware.qmcpy.integrand.fourbranch2d.FourBranch2d</title>
<polygon fill="none" stroke="black" points="548,-73.5 548,-109.5 667,-109.5 667,-73.5 548,-73.5"/>
<text text-anchor="start" x="556" y="-87.8" font-family="Times,serif" font-size="14.00">FourBranch2d</text>
</g>
<!-- QMCSoftware.qmcpy.integrand.fourbranch2d.FourBranch2d&#45;&gt;QMCSoftware.qmcpy.integrand.abstract_integrand.AbstractIntegrand -->
<g id="edge10" class="edge">
<title>QMCSoftware.qmcpy.integrand.fourbranch2d.FourBranch2d&#45;&gt;QMCSoftware.qmcpy.integrand.abstract_integrand.AbstractIntegrand</title>
<path fill="none" stroke="black" d="M667.25,-108.88C705.2,-119.28 754.55,-132.81 794.64,-143.8"/>
<polygon fill="none" stroke="black" points="793.78,-147.19 804.35,-146.46 795.63,-140.44 793.78,-147.19"/>
</g>
<!-- QMCSoftware.qmcpy.integrand.genz.Genz -->
<g id="node11" class="node">
<title>QMCSoftware.qmcpy.integrand.genz.Genz</title>
<polygon fill="none" stroke="black" points="685.5,-73.5 685.5,-109.5 739.5,-109.5 739.5,-73.5 685.5,-73.5"/>
<text text-anchor="start" x="694" y="-87.8" font-family="Times,serif" font-size="14.00">Genz</text>
</g>
<!-- QMCSoftware.qmcpy.integrand.genz.Genz&#45;&gt;QMCSoftware.qmcpy.integrand.abstract_integrand.AbstractIntegrand -->
<g id="edge11" class="edge">
<title>QMCSoftware.qmcpy.integrand.genz.Genz&#45;&gt;QMCSoftware.qmcpy.integrand.abstract_integrand.AbstractIntegrand</title>
<path fill="none" stroke="black" d="M739.59,-105.76C742.59,-107.21 745.61,-108.64 748.5,-110 771.56,-120.83 797.3,-132.55 818.85,-142.25"/>
<polygon fill="none" stroke="black" points="817.56,-145.5 828.12,-146.41 820.43,-139.12 817.56,-145.5"/>
</g>
<!-- QMCSoftware.qmcpy.integrand.hartmann6d.Hartmann6d -->
<g id="node12" class="node">
<title>QMCSoftware.qmcpy.integrand.hartmann6d.Hartmann6d</title>
<polygon fill="none" stroke="black" points="758,-73.5 758,-109.5 865,-109.5 865,-73.5 758,-73.5"/>
<text text-anchor="start" x="766" y="-87.8" font-family="Times,serif" font-size="14.00">Hartmann6d</text>
</g>
<!-- QMCSoftware.qmcpy.integrand.hartmann6d.Hartmann6d&#45;&gt;QMCSoftware.qmcpy.integrand.abstract_integrand.AbstractIntegrand -->
<g id="edge12" class="edge">
<title>QMCSoftware.qmcpy.integrand.hartmann6d.Hartmann6d&#45;&gt;QMCSoftware.qmcpy.integrand.abstract_integrand.AbstractIntegrand</title>
<path fill="none" stroke="black" d="M824.81,-109.69C831.5,-118.32 839.73,-128.94 847.11,-138.47"/>
<polygon fill="none" stroke="black" points="844.42,-140.71 853.31,-146.47 849.95,-136.42 844.42,-140.71"/>
</g>
<!-- QMCSoftware.qmcpy.integrand.ishigami.Ishigami -->
<g id="node13" class="node">
<title>QMCSoftware.qmcpy.integrand.ishigami.Ishigami</title>
<polygon fill="none" stroke="black" points="883.5,-73.5 883.5,-109.5 961.5,-109.5 961.5,-73.5 883.5,-73.5"/>
<text text-anchor="start" x="891.5" y="-87.8" font-family="Times,serif" font-size="14.00">Ishigami</text>
</g>
<!-- QMCSoftware.qmcpy.integrand.ishigami.Ishigami&#45;&gt;QMCSoftware.qmcpy.integrand.abstract_integrand.AbstractIntegrand -->
<g id="edge13" class="edge">
<title>QMCSoftware.qmcpy.integrand.ishigami.Ishigami&#45;&gt;QMCSoftware.qmcpy.integrand.abstract_integrand.AbstractIntegrand</title>
<path fill="none" stroke="black" d="M908.94,-109.69C902.13,-118.32 893.75,-128.94 886.25,-138.47"/>
<polygon fill="none" stroke="black" points="883.38,-136.45 879.93,-146.47 888.87,-140.79 883.38,-136.45"/>
</g>
<!-- QMCSoftware.qmcpy.integrand.keister.Keister -->
<g id="node14" class="node">
<title>QMCSoftware.qmcpy.integrand.keister.Keister</title>
<polygon fill="none" stroke="black" points="979.5,-73.5 979.5,-109.5 1047.5,-109.5 1047.5,-73.5 979.5,-73.5"/>
<text text-anchor="start" x="987.5" y="-87.8" font-family="Times,serif" font-size="14.00">Keister</text>
</g>
<!-- QMCSoftware.qmcpy.integrand.keister.Keister&#45;&gt;QMCSoftware.qmcpy.integrand.abstract_integrand.AbstractIntegrand -->
<g id="edge14" class="edge">
<title>QMCSoftware.qmcpy.integrand.keister.Keister&#45;&gt;QMCSoftware.qmcpy.integrand.abstract_integrand.AbstractIntegrand</title>
<path fill="none" stroke="black" d="M979.41,-108.97C959.07,-118.79 933.02,-131.37 911.07,-141.97"/>
<polygon fill="none" stroke="black" points="909.43,-138.88 901.94,-146.38 912.47,-145.18 909.43,-138.88"/>
</g>
<!-- QMCSoftware.qmcpy.integrand.linear0.Linear0 -->
<g id="node15" class="node">
<title>QMCSoftware.qmcpy.integrand.linear0.Linear0</title>
<polygon fill="none" stroke="black" points="1066,-73.5 1066,-109.5 1137,-109.5 1137,-73.5 1066,-73.5"/>
<text text-anchor="start" x="1074" y="-87.8" font-family="Times,serif" font-size="14.00">Linear0</text>
</g>
<!-- QMCSoftware.qmcpy.integrand.linear0.Linear0&#45;&gt;QMCSoftware.qmcpy.integrand.abstract_integrand.AbstractIntegrand -->
<g id="edge15" class="edge">
<title>QMCSoftware.qmcpy.integrand.linear0.Linear0&#45;&gt;QMCSoftware.qmcpy.integrand.abstract_integrand.AbstractIntegrand</title>
<path fill="none" stroke="black" d="M1065.75,-106.76C1062.64,-107.89 1059.52,-108.99 1056.5,-110 1019.37,-122.42 977.53,-134.41 942.59,-143.88"/>
<polygon fill="none" stroke="black" points="941.67,-140.5 932.93,-146.48 943.49,-147.26 941.67,-140.5"/>
</g>
<!-- QMCSoftware.qmcpy.integrand.financial_option.LookbackOption -->
<g id="node16" class="node">
<title>QMCSoftware.qmcpy.integrand.financial_option.LookbackOption</title>
<polygon fill="none" stroke="black" points="692,-0.5 692,-36.5 823,-36.5 823,-0.5 692,-0.5"/>
<text text-anchor="start" x="700" y="-14.8" font-family="Times,serif" font-size="14.00">LookbackOption</text>
</g>
<!-- QMCSoftware.qmcpy.integrand.financial_option.LookbackOption&#45;&gt;QMCSoftware.qmcpy.integrand.financial_option.FinancialOption -->
<g id="edge9" class="edge">
<title>QMCSoftware.qmcpy.integrand.financial_option.LookbackOption&#45;&gt;QMCSoftware.qmcpy.integrand.financial_option.FinancialOption</title>
<path fill="none" stroke="black" d="M691.75,-35.43C646.54,-46.39 586.41,-60.96 539.36,-72.36"/>
<polygon fill="none" stroke="black" points="538.42,-68.99 529.53,-74.74 540.07,-75.79 538.42,-68.99"/>
</g>
<!-- QMCSoftware.qmcpy.integrand.multimodal2d.Multimodal2d -->
<g id="node17" class="node">
<title>QMCSoftware.qmcpy.integrand.multimodal2d.Multimodal2d</title>
<polygon fill="none" stroke="black" points="1155.5,-73.5 1155.5,-109.5 1271.5,-109.5 1271.5,-73.5 1155.5,-73.5"/>
<text text-anchor="start" x="1163.5" y="-87.8" font-family="Times,serif" font-size="14.00">Multimodal2d</text>
</g>
<!-- QMCSoftware.qmcpy.integrand.multimodal2d.Multimodal2d&#45;&gt;QMCSoftware.qmcpy.integrand.abstract_integrand.AbstractIntegrand -->
<g id="edge16" class="edge">
<title>QMCSoftware.qmcpy.integrand.multimodal2d.Multimodal2d&#45;&gt;QMCSoftware.qmcpy.integrand.abstract_integrand.AbstractIntegrand</title>
<path fill="none" stroke="black" d="M1155.32,-107.73C1152,-108.52 1148.71,-109.28 1145.5,-110 1080.49,-124.58 1006.4,-138.67 950.91,-148.73"/>
<polygon fill="none" stroke="black" points="949.99,-145.34 940.78,-150.56 951.24,-152.23 949.99,-145.34"/>
</g>
<!-- QMCSoftware.qmcpy.integrand.sensitivity_indices.SensitivityIndices -->
<g id="node18" class="node">
<title>QMCSoftware.qmcpy.integrand.sensitivity_indices.SensitivityIndices</title>
<polygon fill="none" stroke="black" points="1289.5,-73.5 1289.5,-109.5 1433.5,-109.5 1433.5,-73.5 1289.5,-73.5"/>
<text text-anchor="start" x="1297.5" y="-87.8" font-family="Times,serif" font-size="14.00">SensitivityIndices</text>
</g>
<!-- QMCSoftware.qmcpy.integrand.sensitivity_indices.SensitivityIndices&#45;&gt;QMCSoftware.qmcpy.integrand.abstract_integrand.AbstractIntegrand -->
<g id="edge17" class="edge">
<title>QMCSoftware.qmcpy.integrand.sensitivity_indices.SensitivityIndices&#45;&gt;QMCSoftware.qmcpy.integrand.abstract_integrand.AbstractIntegrand</title>
<path fill="none" stroke="black" d="M1289.14,-108.45C1286.22,-108.99 1283.34,-109.51 1280.5,-110 1166.92,-129.57 1034.68,-145.47 950.8,-154.71"/>
<polygon fill="none" stroke="black" points="950.38,-151.24 940.82,-155.81 951.14,-158.2 950.38,-151.24"/>
</g>
<!-- QMCSoftware.qmcpy.integrand.sin1d.Sin1d -->
<g id="node19" class="node">
<title>QMCSoftware.qmcpy.integrand.sin1d.Sin1d</title>
<polygon fill="none" stroke="black" points="1451.5,-73.5 1451.5,-109.5 1509.5,-109.5 1509.5,-73.5 1451.5,-73.5"/>
<text text-anchor="start" x="1459.5" y="-87.8" font-family="Times,serif" font-size="14.00">Sin1d</text>
</g>
<!-- QMCSoftware.qmcpy.integrand.sin1d.Sin1d&#45;&gt;QMCSoftware.qmcpy.integrand.abstract_integrand.AbstractIntegrand -->
<g id="edge18" class="edge">
<title>QMCSoftware.qmcpy.integrand.sin1d.Sin1d&#45;&gt;QMCSoftware.qmcpy.integrand.abstract_integrand.AbstractIntegrand</title>
<path fill="none" stroke="black" d="M1451.41,-107.08C1448.45,-108.21 1445.45,-109.21 1442.5,-110 1352.01,-134.28 1087.45,-151.58 950.63,-159.19"/>
<polygon fill="none" stroke="black" points="950.4,-155.69 940.6,-159.74 950.78,-162.68 950.4,-155.69"/>
</g>
<!-- QMCSoftware.qmcpy.integrand.umbridge_wrapper.UMBridgeWrapper -->
<g id="node20" class="node">
<title>QMCSoftware.qmcpy.integrand.umbridge_wrapper.UMBridgeWrapper</title>
<polygon fill="none" stroke="black" points="1527.5,-73.5 1527.5,-109.5 1679.5,-109.5 1679.5,-73.5 1527.5,-73.5"/>
<text text-anchor="start" x="1535.5" y="-87.8" font-family="Times,serif" font-size="14.00">UMBridgeWrapper</text>
</g>
<!-- QMCSoftware.qmcpy.integrand.umbridge_wrapper.UMBridgeWrapper&#45;&gt;QMCSoftware.qmcpy.integrand.abstract_integrand.AbstractIntegrand -->
<g id="edge19" class="edge">
<title>QMCSoftware.qmcpy.integrand.umbridge_wrapper.UMBridgeWrapper&#45;&gt;QMCSoftware.qmcpy.integrand.abstract_integrand.AbstractIntegrand</title>
<path fill="none" stroke="black" d="M1527.12,-108.68C1524.21,-109.15 1521.33,-109.59 1518.5,-110 1315.93,-139.05 1075.52,-153.71 950.88,-159.85"/>
<polygon fill="none" stroke="black" points="950.47,-156.36 940.65,-160.34 950.81,-163.35 950.47,-156.36"/>
</g>
</g>
</svg>
