<?xml version="1.0" encoding="UTF-8" standalone="no"?>
<!DOCTYPE svg PUBLIC "-//W3C//DTD SVG 1.1//EN"
 "http://www.w3.org/Graphics/SVG/1.1/DTD/svg11.dtd">
<!-- Generated by graphviz version 2.43.0 (0)
 -->
<!-- Title: classes Pages: 1 -->
<svg width="1774pt" height="264pt"
 viewBox="0.00 0.00 1774.00 264.00" xmlns="http://www.w3.org/2000/svg" xmlns:xlink="http://www.w3.org/1999/xlink">
<g id="graph0" class="graph" transform="scale(1 1) rotate(0) translate(4 260)">
<title>classes</title>
<polygon fill="white" stroke="transparent" points="-4,4 -4,-260 1770,-260 1770,4 -4,4"/>
<!-- QMCSoftware.qmcpy.kernel.abstract_kernel.AbstractKernel -->
<g id="node1" class="node">
<title>QMCSoftware.qmcpy.kernel.abstract_kernel.AbstractKernel</title>
<polygon fill="none" stroke="black" points="1181,-219.5 1181,-255.5 1305,-255.5 1305,-219.5 1181,-219.5"/>
<text text-anchor="start" x="1189" y="-233.8" font-family="Times,serif" font-size="14.00">AbstractKernel</text>
</g>
<!-- QMCSoftware.qmcpy.kernel.common_kernels.AbstractKernelGaussianSE -->
<g id="node2" class="node">
<title>QMCSoftware.qmcpy.kernel.common_kernels.AbstractKernelGaussianSE</title>
<polygon fill="none" stroke="black" points="146.5,-73.5 146.5,-109.5 355.5,-109.5 355.5,-73.5 146.5,-73.5"/>
<text text-anchor="start" x="154.5" y="-87.8" font-family="Times,serif" font-size="14.00">AbstractKernelGaussianSE</text>
</g>
<!-- QMCSoftware.qmcpy.kernel.abstract_kernel.AbstractKernelScaleLengthscales -->
<g id="node3" class="node">
<title>QMCSoftware.qmcpy.kernel.abstract_kernel.AbstractKernelScaleLengthscales</title>
<polygon fill="none" stroke="black" points="1009,-146.5 1009,-182.5 1265,-182.5 1265,-146.5 1009,-146.5"/>
<text text-anchor="start" x="1017" y="-160.8" font-family="Times,serif" font-size="14.00">AbstractKernelScaleLengthscales</text>
</g>
<!-- QMCSoftware.qmcpy.kernel.common_kernels.AbstractKernelGaussianSE&#45;&gt;QMCSoftware.qmcpy.kernel.abstract_kernel.AbstractKernelScaleLengthscales -->
<g id="edge2" class="edge">
<title>QMCSoftware.qmcpy.kernel.common_kernels.AbstractKernelGaussianSE&#45;&gt;QMCSoftware.qmcpy.kernel.abstract_kernel.AbstractKernelScaleLengthscales</title>
<path fill="none" stroke="black" d="M355.68,-100.89C515.59,-113.7 820.85,-138.16 998.78,-152.42"/>
<polygon fill="none" stroke="black" points="998.75,-155.93 1009,-153.24 999.31,-148.95 998.75,-155.93"/>
</g>
<!-- QMCSoftware.qmcpy.kernel.abstract_kernel.AbstractKernelScaleLengthscales&#45;&gt;QMCSoftware.qmcpy.kernel.abstract_kernel.AbstractKernel -->
<g id="edge1" class="edge">
<title>QMCSoftware.qmcpy.kernel.abstract_kernel.AbstractKernelScaleLengthscales&#45;&gt;QMCSoftware.qmcpy.kernel.abstract_kernel.AbstractKernel</title>
<path fill="none" stroke="black" d="M1162.39,-182.51C1176.32,-191.83 1193.77,-203.53 1208.87,-213.64"/>
<polygon fill="none" stroke="black" points="1207.19,-216.73 1217.45,-219.39 1211.09,-210.91 1207.19,-216.73"/>
</g>
<!-- QMCSoftware.qmcpy.kernel.si_dsi_kernels.AbstractSIDSIKernel -->
<g id="node4" class="node">
<title>QMCSoftware.qmcpy.kernel.si_dsi_kernels.AbstractSIDSIKernel</title>
<polygon fill="none" stroke="black" points="734.5,-73.5 734.5,-109.5 899.5,-109.5 899.5,-73.5 734.5,-73.5"/>
<text text-anchor="start" x="742.5" y="-87.8" font-family="Times,serif" font-size="14.00">AbstractSIDSIKernel</text>
</g>
<!-- QMCSoftware.qmcpy.kernel.si_dsi_kernels.AbstractSIDSIKernel&#45;&gt;QMCSoftware.qmcpy.kernel.abstract_kernel.AbstractKernelScaleLengthscales -->
<g id="edge11" class="edge">
<title>QMCSoftware.qmcpy.kernel.si_dsi_kernels.AbstractSIDSIKernel&#45;&gt;QMCSoftware.qmcpy.kernel.abstract_kernel.AbstractKernelScaleLengthscales</title>
<path fill="none" stroke="black" d="M893.65,-109.51C940.79,-119.97 1001.32,-133.39 1050.21,-144.24"/>
<polygon fill="none" stroke="black" points="1049.63,-147.7 1060.15,-146.45 1051.14,-140.86 1049.63,-147.7"/>
</g>
<!-- QMCSoftware.qmcpy.kernel.si_dsi_kernels.KernelDigShiftInvar -->
<g id="node5" class="node">
<title>QMCSoftware.qmcpy.kernel.si_dsi_kernels.KernelDigShiftInvar</title>
<polygon fill="none" stroke="black" points="374,-0.5 374,-36.5 534,-36.5 534,-0.5 374,-0.5"/>
<text text-anchor="start" x="382" y="-14.8" font-family="Times,serif" font-size="14.00">KernelDigShiftInvar</text>
</g>
<!-- QMCSoftware.qmcpy.kernel.si_dsi_kernels.KernelDigShiftInvar&#45;&gt;QMCSoftware.qmcpy.kernel.si_dsi_kernels.AbstractSIDSIKernel -->
<g id="edge12" class="edge">
<title>QMCSoftware.qmcpy.kernel.si_dsi_kernels.KernelDigShiftInvar&#45;&gt;QMCSoftware.qmcpy.kernel.si_dsi_kernels.AbstractSIDSIKernel</title>
<path fill="none" stroke="black" d="M534.05,-35.25C537.07,-35.84 540.06,-36.42 543,-37 603.32,-48.82 671.13,-62.06 724.19,-72.41"/>
<polygon fill="none" stroke="black" points="723.78,-75.9 734.26,-74.37 725.12,-69.02 723.78,-75.9"/>
</g>
<!-- QMCSoftware.qmcpy.kernel.si_dsi_kernels.KernelDigShiftInvarAdaptiveAlpha -->
<g id="node6" class="node">
<title>QMCSoftware.qmcpy.kernel.si_dsi_kernels.KernelDigShiftInvarAdaptiveAlpha</title>
<polygon fill="none" stroke="black" points="552.5,-0.5 552.5,-36.5 815.5,-36.5 815.5,-0.5 552.5,-0.5"/>
<text text-anchor="start" x="560.5" y="-14.8" font-family="Times,serif" font-size="14.00">KernelDigShiftInvarAdaptiveAlpha</text>
</g>
<!-- QMCSoftware.qmcpy.kernel.si_dsi_kernels.KernelDigShiftInvarAdaptiveAlpha&#45;&gt;QMCSoftware.qmcpy.kernel.si_dsi_kernels.AbstractSIDSIKernel -->
<g id="edge13" class="edge">
<title>QMCSoftware.qmcpy.kernel.si_dsi_kernels.KernelDigShiftInvarAdaptiveAlpha&#45;&gt;QMCSoftware.qmcpy.kernel.si_dsi_kernels.AbstractSIDSIKernel</title>
<path fill="none" stroke="black" d="M715.86,-36.51C733.9,-46.14 756.67,-58.29 776.03,-68.63"/>
<polygon fill="none" stroke="black" points="774.47,-71.76 784.94,-73.39 777.77,-65.59 774.47,-71.76"/>
</g>
<!-- QMCSoftware.qmcpy.kernel.si_dsi_kernels.KernelDigShiftInvarCombined -->
<g id="node7" class="node">
<title>QMCSoftware.qmcpy.kernel.si_dsi_kernels.KernelDigShiftInvarCombined</title>
<polygon fill="none" stroke="black" points="834,-0.5 834,-36.5 1066,-36.5 1066,-0.5 834,-0.5"/>
<text text-anchor="start" x="842" y="-14.8" font-family="Times,serif" font-size="14.00">KernelDigShiftInvarCombined</text>
</g>
<!-- QMCSoftware.qmcpy.kernel.si_dsi_kernels.KernelDigShiftInvarCombined&#45;&gt;QMCSoftware.qmcpy.kernel.si_dsi_kernels.AbstractSIDSIKernel -->
<g id="edge14" class="edge">
<title>QMCSoftware.qmcpy.kernel.si_dsi_kernels.KernelDigShiftInvarCombined&#45;&gt;QMCSoftware.qmcpy.kernel.si_dsi_kernels.AbstractSIDSIKernel</title>
<path fill="none" stroke="black" d="M918.14,-36.51C900.1,-46.14 877.33,-58.29 857.97,-68.63"/>
<polygon fill="none" stroke="black" points="856.23,-65.59 849.06,-73.39 859.53,-71.76 856.23,-65.59"/>
</g>
<!-- QMCSoftware.qmcpy.kernel.common_kernels.KernelGaussian -->
<g id="node8" class="node">
<title>QMCSoftware.qmcpy.kernel.common_kernels.KernelGaussian</title>
<polygon fill="none" stroke="black" points="0,-0.5 0,-36.5 128,-36.5 128,-0.5 0,-0.5"/>
<text text-anchor="start" x="8" y="-14.8" font-family="Times,serif" font-size="14.00">KernelGaussian</text>
</g>
<!-- QMCSoftware.qmcpy.kernel.common_kernels.KernelGaussian&#45;&gt;QMCSoftware.qmcpy.kernel.common_kernels.AbstractKernelGaussianSE -->
<g id="edge3" class="edge">
<title>QMCSoftware.qmcpy.kernel.common_kernels.KernelGaussian&#45;&gt;QMCSoftware.qmcpy.kernel.common_kernels.AbstractKernelGaussianSE</title>
<path fill="none" stroke="black" d="M108.79,-36.51C135.08,-46.49 168.5,-59.18 196.33,-69.74"/>
<polygon fill="none" stroke="black" points="195.34,-73.11 205.93,-73.39 197.82,-66.56 195.34,-73.11"/>
</g>
<!-- QMCSoftware.qmcpy.kernel.common_kernels.KernelMatern12 -->
<g id="node9" class="node">
<title>QMCSoftware.qmcpy.kernel.common_kernels.KernelMatern12</title>
<polygon fill="none" stroke="black" points="918,-73.5 918,-109.5 1052,-109.5 1052,-73.5 918,-73.5"/>
<text text-anchor="start" x="926" y="-87.8" font-family="Times,serif" font-size="14.00">KernelMatern12</text>
</g>
<!-- QMCSoftware.qmcpy.kernel.common_kernels.KernelMatern12&#45;&gt;QMCSoftware.qmcpy.kernel.abstract_kernel.AbstractKernelScaleLengthscales -->
<g id="edge4" class="edge">
<title>QMCSoftware.qmcpy.kernel.common_kernels.KernelMatern12&#45;&gt;QMCSoftware.qmcpy.kernel.abstract_kernel.AbstractKernelScaleLengthscales</title>
<path fill="none" stroke="black" d="M1021.41,-109.51C1042.31,-119.27 1068.76,-131.62 1091.08,-142.05"/>
<polygon fill="none" stroke="black" points="1089.82,-145.33 1100.36,-146.39 1092.78,-138.98 1089.82,-145.33"/>
</g>
<!-- QMCSoftware.qmcpy.kernel.common_kernels.KernelMatern32 -->
<g id="node10" class="node">
<title>QMCSoftware.qmcpy.kernel.common_kernels.KernelMatern32</title>
<polygon fill="none" stroke="black" points="1070,-73.5 1070,-109.5 1204,-109.5 1204,-73.5 1070,-73.5"/>
<text text-anchor="start" x="1078" y="-87.8" font-family="Times,serif" font-size="14.00">KernelMatern32</text>
</g>
<!-- QMCSoftware.qmcpy.kernel.common_kernels.KernelMatern32&#45;&gt;QMCSoftware.qmcpy.kernel.abstract_kernel.AbstractKernelScaleLengthscales -->
<g id="edge5" class="edge">
<title>QMCSoftware.qmcpy.kernel.common_kernels.KernelMatern32&#45;&gt;QMCSoftware.qmcpy.kernel.abstract_kernel.AbstractKernelScaleLengthscales</title>
<path fill="none" stroke="black" d="M1137,-109.69C1137,-117.71 1137,-127.45 1137,-136.43"/>
<polygon fill="none" stroke="black" points="1133.5,-136.47 1137,-146.47 1140.5,-136.47 1133.5,-136.47"/>
</g>
<!-- QMCSoftware.qmcpy.kernel.common_kernels.KernelMatern52 -->
<g id="node11" class="node">
<title>QMCSoftware.qmcpy.kernel.common_kernels.KernelMatern52</title>
<polygon fill="none" stroke="black" points="1222,-73.5 1222,-109.5 1356,-109.5 1356,-73.5 1222,-73.5"/>
<text text-anchor="start" x="1230" y="-87.8" font-family="Times,serif" font-size="14.00">KernelMatern52</text>
</g>
<!-- QMCSoftware.qmcpy.kernel.common_kernels.KernelMatern52&#45;&gt;QMCSoftware.qmcpy.kernel.abstract_kernel.AbstractKernelScaleLengthscales -->
<g id="edge6" class="edge">
<title>QMCSoftware.qmcpy.kernel.common_kernels.KernelMatern52&#45;&gt;QMCSoftware.qmcpy.kernel.abstract_kernel.AbstractKernelScaleLengthscales</title>
<path fill="none" stroke="black" d="M1252.59,-109.51C1231.69,-119.27 1205.24,-131.62 1182.92,-142.05"/>
<polygon fill="none" stroke="black" points="1181.22,-138.98 1173.64,-146.39 1184.18,-145.33 1181.22,-138.98"/>
</g>
<!-- QMCSoftware.qmcpy.kernel.multitask_kernel.KernelMultiTask -->
<g id="node12" class="node">
<title>QMCSoftware.qmcpy.kernel.multitask_kernel.KernelMultiTask</title>
<polygon fill="none" stroke="black" points="1446,-146.5 1446,-182.5 1580,-182.5 1580,-146.5 1446,-146.5"/>
<text text-anchor="start" x="1454" y="-160.8" font-family="Times,serif" font-size="14.00">KernelMultiTask</text>
</g>
<!-- QMCSoftware.qmcpy.kernel.multitask_kernel.KernelMultiTask&#45;&gt;QMCSoftware.qmcpy.kernel.abstract_kernel.AbstractKernel -->
<g id="edge9" class="edge">
<title>QMCSoftware.qmcpy.kernel.multitask_kernel.KernelMultiTask&#45;&gt;QMCSoftware.qmcpy.kernel.abstract_kernel.AbstractKernel</title>
<path fill="none" stroke="black" d="M1448.33,-182.51C1408.18,-193.06 1356.51,-206.65 1315.05,-217.55"/>
<polygon fill="none" stroke="black" points="1314.07,-214.19 1305.29,-220.12 1315.85,-220.96 1314.07,-214.19"/>
</g>
<!-- QMCSoftware.qmcpy.kernel.multitask_kernel.KernelMultiTaskDerivs -->
<g id="node13" class="node">
<title>QMCSoftware.qmcpy.kernel.multitask_kernel.KernelMultiTaskDerivs</title>
<polygon fill="none" stroke="black" points="1586,-73.5 1586,-109.5 1766,-109.5 1766,-73.5 1586,-73.5"/>
<text text-anchor="start" x="1594" y="-87.8" font-family="Times,serif" font-size="14.00">KernelMultiTaskDerivs</text>
</g>
<!-- QMCSoftware.qmcpy.kernel.multitask_kernel.KernelMultiTaskDerivs&#45;&gt;QMCSoftware.qmcpy.kernel.multitask_kernel.KernelMultiTask -->
<g id="edge10" class="edge">
<title>QMCSoftware.qmcpy.kernel.multitask_kernel.KernelMultiTaskDerivs&#45;&gt;QMCSoftware.qmcpy.kernel.multitask_kernel.KernelMultiTask</title>
<path fill="none" stroke="black" d="M1636.96,-109.51C1614.34,-119.36 1585.67,-131.84 1561.61,-142.33"/>
<polygon fill="none" stroke="black" points="1560.06,-139.18 1552.29,-146.39 1562.85,-145.6 1560.06,-139.18"/>
</g>
<!-- QMCSoftware.qmcpy.kernel.common_kernels.KernelRationalQuadratic -->
<g id="node14" class="node">
<title>QMCSoftware.qmcpy.kernel.common_kernels.KernelRationalQuadratic</title>
<polygon fill="none" stroke="black" points="1374.5,-73.5 1374.5,-109.5 1567.5,-109.5 1567.5,-73.5 1374.5,-73.5"/>
<text text-anchor="start" x="1382.5" y="-87.8" font-family="Times,serif" font-size="14.00">KernelRationalQuadratic</text>
</g>
<!-- QMCSoftware.qmcpy.kernel.common_kernels.KernelRationalQuadratic&#45;&gt;QMCSoftware.qmcpy.kernel.abstract_kernel.AbstractKernelScaleLengthscales -->
<g id="edge7" class="edge">
<title>QMCSoftware.qmcpy.kernel.common_kernels.KernelRationalQuadratic&#45;&gt;QMCSoftware.qmcpy.kernel.abstract_kernel.AbstractKernelScaleLengthscales</title>
<path fill="none" stroke="black" d="M1391,-109.51C1341.7,-119.99 1278.36,-133.45 1227.26,-144.31"/>
<polygon fill="none" stroke="black" points="1226.27,-140.95 1217.22,-146.45 1227.73,-147.79 1226.27,-140.95"/>
</g>
<!-- QMCSoftware.qmcpy.kernel.si_dsi_kernels.KernelShiftInvar -->
<g id="node15" class="node">
<title>QMCSoftware.qmcpy.kernel.si_dsi_kernels.KernelShiftInvar</title>
<polygon fill="none" stroke="black" points="1084.5,-0.5 1084.5,-36.5 1219.5,-36.5 1219.5,-0.5 1084.5,-0.5"/>
<text text-anchor="start" x="1092.5" y="-14.8" font-family="Times,serif" font-size="14.00">KernelShiftInvar</text>
</g>
<!-- QMCSoftware.qmcpy.kernel.si_dsi_kernels.KernelShiftInvar&#45;&gt;QMCSoftware.qmcpy.kernel.si_dsi_kernels.AbstractSIDSIKernel -->
<g id="edge15" class="edge">
<title>QMCSoftware.qmcpy.kernel.si_dsi_kernels.KernelShiftInvar&#45;&gt;QMCSoftware.qmcpy.kernel.si_dsi_kernels.AbstractSIDSIKernel</title>
<path fill="none" stroke="black" d="M1084.41,-34.94C1081.23,-35.64 1078.08,-36.33 1075,-37 1020.22,-48.9 958.75,-61.67 909.57,-71.75"/>
<polygon fill="none" stroke="black" points="908.68,-68.36 899.58,-73.79 910.08,-75.22 908.68,-68.36"/>
</g>
<!-- QMCSoftware.qmcpy.kernel.si_dsi_kernels.KernelShiftInvarCombined -->
<g id="node16" class="node">
<title>QMCSoftware.qmcpy.kernel.si_dsi_kernels.KernelShiftInvarCombined</title>
<polygon fill="none" stroke="black" points="1237.5,-0.5 1237.5,-36.5 1444.5,-36.5 1444.5,-0.5 1237.5,-0.5"/>
<text text-anchor="start" x="1245.5" y="-14.8" font-family="Times,serif" font-size="14.00">KernelShiftInvarCombined</text>
</g>
<!-- QMCSoftware.qmcpy.kernel.si_dsi_kernels.KernelShiftInvarCombined&#45;&gt;QMCSoftware.qmcpy.kernel.si_dsi_kernels.AbstractSIDSIKernel -->
<g id="edge16" class="edge">
<title>QMCSoftware.qmcpy.kernel.si_dsi_kernels.KernelShiftInvarCombined&#45;&gt;QMCSoftware.qmcpy.kernel.si_dsi_kernels.AbstractSIDSIKernel</title>
<path fill="none" stroke="black" d="M1237.27,-35.73C1234.14,-36.17 1231.05,-36.59 1228,-37 1089.76,-55.5 1051.76,-51.83 909.66,-72.97"/>
<polygon fill="none" stroke="black" points="909.07,-69.52 899.7,-74.46 910.11,-76.44 909.07,-69.52"/>
</g>
<!-- QMCSoftware.qmcpy.kernel.common_kernels.KernelSquaredExponential -->
<g id="node17" class="node">
<title>QMCSoftware.qmcpy.kernel.common_kernels.KernelSquaredExponential</title>
<polygon fill="none" stroke="black" points="146.5,-0.5 146.5,-36.5 355.5,-36.5 355.5,-0.5 146.5,-0.5"/>
<text text-anchor="start" x="154.5" y="-14.8" font-family="Times,serif" font-size="14.00">KernelSquaredExponential</text>
</g>
<!-- QMCSoftware.qmcpy.kernel.common_kernels.KernelSquaredExponential&#45;&gt;QMCSoftware.qmcpy.kernel.common_kernels.AbstractKernelGaussianSE -->
<g id="edge8" class="edge">
<title>QMCSoftware.qmcpy.kernel.common_kernels.KernelSquaredExponential&#45;&gt;QMCSoftware.qmcpy.kernel.common_kernels.AbstractKernelGaussianSE</title>
<path fill="none" stroke="black" d="M251,-36.69C251,-44.71 251,-54.45 251,-63.43"/>
<polygon fill="none" stroke="black" points="247.5,-63.47 251,-73.47 254.5,-63.47 247.5,-63.47"/>
</g>
</g>
</svg>
