<?xml version="1.0" encoding="UTF-8" standalone="no"?>
<!DOCTYPE svg PUBLIC "-//W3C//DTD SVG 1.1//EN"
 "http://www.w3.org/Graphics/SVG/1.1/DTD/svg11.dtd">
<!-- Generated by graphviz version 2.43.0 (0)
 -->
<!-- Title: classes Pages: 1 -->
<svg width="3385pt" height="996pt"
 viewBox="0.00 0.00 3384.50 996.00" xmlns="http://www.w3.org/2000/svg" xmlns:xlink="http://www.w3.org/1999/xlink">
<g id="graph0" class="graph" transform="scale(1 1) rotate(0) translate(4 992)">
<title>classes</title>
<polygon fill="white" stroke="transparent" points="-4,4 -4,-992 3380.5,-992 3380.5,4 -4,4"/>
<!-- QMCSoftware.qmcpy.kernel.abstract_kernel.AbstractKernel -->
<g id="node1" class="node">
<title>QMCSoftware.qmcpy.kernel.abstract_kernel.AbstractKernel</title>
<polygon fill="none" stroke="black" points="2164,-678.5 2164,-987.5 2967,-987.5 2967,-678.5 2164,-678.5"/>
<text text-anchor="start" x="2511.5" y="-972.3" font-family="Times,serif" font-size="14.00">AbstractKernel</text>
<polyline fill="none" stroke="black" points="2164,-964.5 2967,-964.5 "/>
<text text-anchor="start" x="2474.5" y="-949.3" font-family="Times,serif" font-size="14.00">batch_param_names : list</text>
<text text-anchor="start" x="2474.5" y="-934.3" font-family="Times,serif" font-size="14.00">batch_params</text>
<text text-anchor="start" x="2474.5" y="-919.3" font-family="Times,serif" font-size="14.00">compiled_parsed___call__</text>
<text text-anchor="start" x="2474.5" y="-904.3" font-family="Times,serif" font-size="14.00">d</text>
<text text-anchor="start" x="2474.5" y="-889.3" font-family="Times,serif" font-size="14.00">device : NoneType</text>
<text text-anchor="start" x="2474.5" y="-874.3" font-family="Times,serif" font-size="14.00">nbdim</text>
<text text-anchor="start" x="2474.5" y="-859.3" font-family="Times,serif" font-size="14.00">npt</text>
<text text-anchor="start" x="2474.5" y="-844.3" font-family="Times,serif" font-size="14.00">nptarray</text>
<text text-anchor="start" x="2474.5" y="-829.3" font-family="Times,serif" font-size="14.00">nptarraytype : ndarray</text>
<text text-anchor="start" x="2474.5" y="-814.3" font-family="Times,serif" font-size="14.00">nptkwargs : dict</text>
<text text-anchor="start" x="2474.5" y="-799.3" font-family="Times,serif" font-size="14.00">torchify</text>
<polyline fill="none" stroke="black" points="2164,-791.5 2967,-791.5 "/>
<text text-anchor="start" x="2172" y="-776.3" font-family="Times,serif" font-size="14.00">double_integral_01d()</text>
<text text-anchor="start" x="2172" y="-761.3" font-family="Times,serif" font-size="14.00">get_batch_params(ndim)</text>
<text text-anchor="start" x="2172" y="-746.3" font-family="Times,serif" font-size="14.00">parse_assign_param(pname, param, shape_param, requires_grad_param, tfs_param, endsize_ops, constraints)</text>
<text text-anchor="start" x="2172" y="-731.3" font-family="Times,serif" font-size="14.00">parsed___call__()</text>
<text text-anchor="start" x="2172" y="-716.3" font-family="Times,serif" font-size="14.00">parsed_single_integral_01d(x, batch_params)</text>
<text text-anchor="start" x="2172" y="-701.3" font-family="Times,serif" font-size="14.00">rel_pairwise_dist_func(x0, x1, lengthscales)</text>
<text text-anchor="start" x="2172" y="-686.3" font-family="Times,serif" font-size="14.00">single_integral_01d(x)</text>
</g>
<!-- QMCSoftware.qmcpy.kernel.common_kernels.AbstractKernelGaussianSE -->
<g id="node2" class="node">
<title>QMCSoftware.qmcpy.kernel.common_kernels.AbstractKernelGaussianSE</title>
<polygon fill="none" stroke="black" points="279,-181.5 279,-265.5 618,-265.5 618,-181.5 279,-181.5"/>
<text text-anchor="start" x="352" y="-250.3" font-family="Times,serif" font-size="14.00">AbstractKernelGaussianSE</text>
<polyline fill="none" stroke="black" points="279,-242.5 618,-242.5 "/>
<text text-anchor="start" x="352.5" y="-227.3" font-family="Times,serif" font-size="14.00">AUTOGRADKERNEL : bool</text>
<polyline fill="none" stroke="black" points="279,-219.5 618,-219.5 "/>
<text text-anchor="start" x="287" y="-204.3" font-family="Times,serif" font-size="14.00">double_integral_01d()</text>
<text text-anchor="start" x="287" y="-189.3" font-family="Times,serif" font-size="14.00">parsed_single_integral_01d(x, batch_params)</text>
</g>
<!-- QMCSoftware.qmcpy.kernel.abstract_kernel.AbstractKernelScaleLengthscales -->
<g id="node3" class="node">
<title>QMCSoftware.qmcpy.kernel.abstract_kernel.AbstractKernelScaleLengthscales</title>
<polygon fill="none" stroke="black" points="2296.5,-422.5 2296.5,-566.5 2552.5,-566.5 2552.5,-422.5 2296.5,-422.5"/>
<text text-anchor="start" x="2304.5" y="-551.3" font-family="Times,serif" font-size="14.00">AbstractKernelScaleLengthscales</text>
<polyline fill="none" stroke="black" points="2296.5,-543.5 2552.5,-543.5 "/>
<text text-anchor="start" x="2341.5" y="-528.3" font-family="Times,serif" font-size="14.00">lengthscales</text>
<text text-anchor="start" x="2341.5" y="-513.3" font-family="Times,serif" font-size="14.00">raw_lengthscales</text>
<text text-anchor="start" x="2341.5" y="-498.3" font-family="Times,serif" font-size="14.00">raw_scale</text>
<text text-anchor="start" x="2341.5" y="-483.3" font-family="Times,serif" font-size="14.00">scale</text>
<text text-anchor="start" x="2341.5" y="-468.3" font-family="Times,serif" font-size="14.00">tfs_lengthscales : tuple</text>
<text text-anchor="start" x="2341.5" y="-453.3" font-family="Times,serif" font-size="14.00">tfs_scale : tuple</text>
<polyline fill="none" stroke="black" points="2296.5,-445.5 2552.5,-445.5 "/>
<text text-anchor="start" x="2422" y="-430.3" font-family="Times,serif" font-size="14.00"> </text>
</g>
<!-- QMCSoftware.qmcpy.kernel.common_kernels.AbstractKernelGaussianSE&#45;&gt;QMCSoftware.qmcpy.kernel.abstract_kernel.AbstractKernelScaleLengthscales -->
<g id="edge2" class="edge">
<title>QMCSoftware.qmcpy.kernel.common_kernels.AbstractKernelGaussianSE&#45;&gt;QMCSoftware.qmcpy.kernel.abstract_kernel.AbstractKernelScaleLengthscales</title>
<path fill="none" stroke="black" d="M618.25,-247.61C1002.76,-299.95 1934.07,-426.74 2286.38,-474.7"/>
<polygon fill="none" stroke="black" points="2285.99,-478.18 2296.37,-476.06 2286.94,-471.24 2285.99,-478.18"/>
</g>
<!-- QMCSoftware.qmcpy.kernel.abstract_kernel.AbstractKernelScaleLengthscales&#45;&gt;QMCSoftware.qmcpy.kernel.abstract_kernel.AbstractKernel -->
<g id="edge1" class="edge">
<title>QMCSoftware.qmcpy.kernel.abstract_kernel.AbstractKernelScaleLengthscales&#45;&gt;QMCSoftware.qmcpy.kernel.abstract_kernel.AbstractKernel</title>
<path fill="none" stroke="black" d="M2454.4,-566.86C2466.94,-596.79 2482.08,-632.93 2497.1,-668.76"/>
<polygon fill="none" stroke="black" points="2494.03,-670.48 2501.12,-678.35 2500.48,-667.78 2494.03,-670.48"/>
</g>
<!-- QMCSoftware.qmcpy.kernel.si_dsi_kernels.AbstractSIDSIKernel -->
<g id="node4" class="node">
<title>QMCSoftware.qmcpy.kernel.si_dsi_kernels.AbstractSIDSIKernel</title>
<polygon fill="none" stroke="black" points="1327.5,-136.5 1327.5,-310.5 1957.5,-310.5 1957.5,-136.5 1327.5,-136.5"/>
<text text-anchor="start" x="1568" y="-295.3" font-family="Times,serif" font-size="14.00">AbstractSIDSIKernel</text>
<polyline fill="none" stroke="black" points="1327.5,-287.5 1957.5,-287.5 "/>
<text text-anchor="start" x="1546.5" y="-272.3" font-family="Times,serif" font-size="14.00">AUTOGRADKERNEL : bool</text>
<text text-anchor="start" x="1546.5" y="-257.3" font-family="Times,serif" font-size="14.00">alpha</text>
<text text-anchor="start" x="1546.5" y="-242.3" font-family="Times,serif" font-size="14.00">raw_alpha</text>
<text text-anchor="start" x="1546.5" y="-227.3" font-family="Times,serif" font-size="14.00">tfs_alpha</text>
<polyline fill="none" stroke="black" points="1327.5,-219.5 1957.5,-219.5 "/>
<text text-anchor="start" x="1335.5" y="-204.3" font-family="Times,serif" font-size="14.00">combine_per_dim_components(kparts, beta0, beta1, c, batch_params, stable)</text>
<text text-anchor="start" x="1335.5" y="-189.3" font-family="Times,serif" font-size="14.00">combine_per_dim_components_raw_m1(kparts, beta0, beta1, c, batch_params, stable)</text>
<text text-anchor="start" x="1335.5" y="-174.3" font-family="Times,serif" font-size="14.00">double_integral_01d()</text>
<text text-anchor="start" x="1335.5" y="-159.3" font-family="Times,serif" font-size="14.00">parsed___call__(x0, x1, beta0, beta1, c, batch_params, stable)</text>
<text text-anchor="start" x="1335.5" y="-144.3" font-family="Times,serif" font-size="14.00">parsed_single_integral_01d(x, batch_params)</text>
</g>
<!-- QMCSoftware.qmcpy.kernel.si_dsi_kernels.AbstractSIDSIKernel&#45;&gt;QMCSoftware.qmcpy.kernel.abstract_kernel.AbstractKernelScaleLengthscales -->
<g id="edge11" class="edge">
<title>QMCSoftware.qmcpy.kernel.si_dsi_kernels.AbstractSIDSIKernel&#45;&gt;QMCSoftware.qmcpy.kernel.abstract_kernel.AbstractKernelScaleLengthscales</title>
<path fill="none" stroke="black" d="M1892.62,-310.54C2023.18,-355.45 2177.94,-408.69 2286.76,-446.12"/>
<polygon fill="none" stroke="black" points="2285.89,-449.52 2296.49,-449.47 2288.17,-442.9 2285.89,-449.52"/>
</g>
<!-- QMCSoftware.qmcpy.kernel.si_dsi_kernels.KernelDigShiftInvar -->
<g id="node5" class="node">
<title>QMCSoftware.qmcpy.kernel.si_dsi_kernels.KernelDigShiftInvar</title>
<polygon fill="none" stroke="black" points="610.5,-8 610.5,-92 960.5,-92 960.5,-8 610.5,-8"/>
<text text-anchor="start" x="713.5" y="-76.8" font-family="Times,serif" font-size="14.00">KernelDigShiftInvar</text>
<polyline fill="none" stroke="black" points="610.5,-69 960.5,-69 "/>
<text text-anchor="start" x="782" y="-53.8" font-family="Times,serif" font-size="14.00">t</text>
<polyline fill="none" stroke="black" points="610.5,-46 960.5,-46 "/>
<text text-anchor="start" x="618.5" y="-30.8" font-family="Times,serif" font-size="14.00">get_per_dim_components(x0, x1, beta0, beta1)</text>
<text text-anchor="start" x="618.5" y="-15.8" font-family="Times,serif" font-size="14.00">set_t(t)</text>
</g>
<!-- QMCSoftware.qmcpy.kernel.si_dsi_kernels.KernelDigShiftInvar&#45;&gt;QMCSoftware.qmcpy.kernel.si_dsi_kernels.AbstractSIDSIKernel -->
<g id="edge12" class="edge">
<title>QMCSoftware.qmcpy.kernel.si_dsi_kernels.KernelDigShiftInvar&#45;&gt;QMCSoftware.qmcpy.kernel.si_dsi_kernels.AbstractSIDSIKernel</title>
<path fill="none" stroke="black" d="M935.63,-92.04C947.06,-94.84 958.45,-97.53 969.5,-100 1082.28,-125.24 1206.56,-148.99 1317.31,-168.74"/>
<polygon fill="none" stroke="black" points="1316.84,-172.21 1327.3,-170.52 1318.07,-165.32 1316.84,-172.21"/>
</g>
<!-- QMCSoftware.qmcpy.kernel.si_dsi_kernels.KernelDigShiftInvarAdaptiveAlpha -->
<g id="node6" class="node">
<title>QMCSoftware.qmcpy.kernel.si_dsi_kernels.KernelDigShiftInvarAdaptiveAlpha</title>
<polygon fill="none" stroke="black" points="979,-0.5 979,-99.5 1642,-99.5 1642,-0.5 979,-0.5"/>
<text text-anchor="start" x="1187" y="-84.3" font-family="Times,serif" font-size="14.00">KernelDigShiftInvarAdaptiveAlpha</text>
<polyline fill="none" stroke="black" points="979,-76.5 1642,-76.5 "/>
<text text-anchor="start" x="1307" y="-61.3" font-family="Times,serif" font-size="14.00">t</text>
<polyline fill="none" stroke="black" points="979,-53.5 1642,-53.5 "/>
<text text-anchor="start" x="987" y="-38.3" font-family="Times,serif" font-size="14.00">combine_per_dim_components_raw_m1(flog2deltas, beta0, beta1, c, batch_params, stable)</text>
<text text-anchor="start" x="987" y="-23.3" font-family="Times,serif" font-size="14.00">get_per_dim_components(x0, x1, beta0, beta1)</text>
<text text-anchor="start" x="987" y="-8.3" font-family="Times,serif" font-size="14.00">set_t(t)</text>
</g>
<!-- QMCSoftware.qmcpy.kernel.si_dsi_kernels.KernelDigShiftInvarAdaptiveAlpha&#45;&gt;QMCSoftware.qmcpy.kernel.si_dsi_kernels.AbstractSIDSIKernel -->
<g id="edge13" class="edge">
<title>QMCSoftware.qmcpy.kernel.si_dsi_kernels.KernelDigShiftInvarAdaptiveAlpha&#45;&gt;QMCSoftware.qmcpy.kernel.si_dsi_kernels.AbstractSIDSIKernel</title>
<path fill="none" stroke="black" d="M1404.75,-99.69C1424.21,-109.74 1445.29,-120.63 1466.6,-131.64"/>
<polygon fill="none" stroke="black" points="1465.25,-134.88 1475.74,-136.36 1468.46,-128.66 1465.25,-134.88"/>
</g>
<!-- QMCSoftware.qmcpy.kernel.si_dsi_kernels.KernelDigShiftInvarCombined -->
<g id="node7" class="node">
<title>QMCSoftware.qmcpy.kernel.si_dsi_kernels.KernelDigShiftInvarCombined</title>
<polygon fill="none" stroke="black" points="1660.5,-0.5 1660.5,-99.5 2290.5,-99.5 2290.5,-0.5 1660.5,-0.5"/>
<text text-anchor="start" x="1867.5" y="-84.3" font-family="Times,serif" font-size="14.00">KernelDigShiftInvarCombined</text>
<polyline fill="none" stroke="black" points="1660.5,-76.5 2290.5,-76.5 "/>
<text text-anchor="start" x="1972" y="-61.3" font-family="Times,serif" font-size="14.00">t</text>
<polyline fill="none" stroke="black" points="1660.5,-53.5 2290.5,-53.5 "/>
<text text-anchor="start" x="1668.5" y="-38.3" font-family="Times,serif" font-size="14.00">combine_per_dim_components_raw_m1(kparts, beta0, beta1, c, batch_params, stable)</text>
<text text-anchor="start" x="1668.5" y="-23.3" font-family="Times,serif" font-size="14.00">get_per_dim_components(x0, x1, beta0, beta1)</text>
<text text-anchor="start" x="1668.5" y="-8.3" font-family="Times,serif" font-size="14.00">set_t(t)</text>
</g>
<!-- QMCSoftware.qmcpy.kernel.si_dsi_kernels.KernelDigShiftInvarCombined&#45;&gt;QMCSoftware.qmcpy.kernel.si_dsi_kernels.AbstractSIDSIKernel -->
<g id="edge14" class="edge">
<title>QMCSoftware.qmcpy.kernel.si_dsi_kernels.KernelDigShiftInvarCombined&#45;&gt;QMCSoftware.qmcpy.kernel.si_dsi_kernels.AbstractSIDSIKernel</title>
<path fill="none" stroke="black" d="M1880.97,-99.69C1861.45,-109.74 1840.3,-120.63 1818.93,-131.64"/>
<polygon fill="none" stroke="black" points="1817.05,-128.67 1809.76,-136.36 1820.25,-134.89 1817.05,-128.67"/>
</g>
<!-- QMCSoftware.qmcpy.kernel.common_kernels.KernelGaussian -->
<g id="node8" class="node">
<title>QMCSoftware.qmcpy.kernel.common_kernels.KernelGaussian</title>
<polygon fill="none" stroke="black" points="0,-14.6 0,-85.4 287,-85.4 287,-14.6 0,-14.6"/>
<text text-anchor="start" x="87.5" y="-70.2" font-family="Times,serif" font-size="14.00">KernelGaussian</text>
<polyline fill="none" stroke="black" points="0,-62.4 287,-62.4 "/>
<polyline fill="none" stroke="black" points="0,-37.6 287,-37.6 "/>
<text text-anchor="start" x="8" y="-22.4" font-family="Times,serif" font-size="14.00">parsed___call__(x0, x1, batch_params)</text>
</g>
<!-- QMCSoftware.qmcpy.kernel.common_kernels.KernelGaussian&#45;&gt;QMCSoftware.qmcpy.kernel.common_kernels.AbstractKernelGaussianSE -->
<g id="edge3" class="edge">
<title>QMCSoftware.qmcpy.kernel.common_kernels.KernelGaussian&#45;&gt;QMCSoftware.qmcpy.kernel.common_kernels.AbstractKernelGaussianSE</title>
<path fill="none" stroke="black" d="M204.85,-85.5C251.3,-111.61 315.55,-147.74 366.41,-176.34"/>
<polygon fill="none" stroke="black" points="364.99,-179.56 375.42,-181.41 368.42,-173.46 364.99,-179.56"/>
</g>
<!-- QMCSoftware.qmcpy.kernel.common_kernels.KernelMatern12 -->
<g id="node9" class="node">
<title>QMCSoftware.qmcpy.kernel.common_kernels.KernelMatern12</title>
<polygon fill="none" stroke="black" points="1976,-189 1976,-258 2263,-258 2263,-189 1976,-189"/>
<text text-anchor="start" x="2060.5" y="-242.8" font-family="Times,serif" font-size="14.00">KernelMatern12</text>
<polyline fill="none" stroke="black" points="1976,-235 2263,-235 "/>
<text text-anchor="start" x="2023.5" y="-219.8" font-family="Times,serif" font-size="14.00">AUTOGRADKERNEL : bool</text>
<polyline fill="none" stroke="black" points="1976,-212 2263,-212 "/>
<text text-anchor="start" x="1984" y="-196.8" font-family="Times,serif" font-size="14.00">parsed___call__(x0, x1, batch_params)</text>
</g>
<!-- QMCSoftware.qmcpy.kernel.common_kernels.KernelMatern12&#45;&gt;QMCSoftware.qmcpy.kernel.abstract_kernel.AbstractKernelScaleLengthscales -->
<g id="edge4" class="edge">
<title>QMCSoftware.qmcpy.kernel.common_kernels.KernelMatern12&#45;&gt;QMCSoftware.qmcpy.kernel.abstract_kernel.AbstractKernelScaleLengthscales</title>
<path fill="none" stroke="black" d="M2157.51,-258.03C2202,-297.26 2277.12,-363.51 2336.36,-415.77"/>
<polygon fill="none" stroke="black" points="2334.06,-418.4 2343.87,-422.39 2338.69,-413.15 2334.06,-418.4"/>
</g>
<!-- QMCSoftware.qmcpy.kernel.common_kernels.KernelMatern32 -->
<g id="node10" class="node">
<title>QMCSoftware.qmcpy.kernel.common_kernels.KernelMatern32</title>
<polygon fill="none" stroke="black" points="2281,-189 2281,-258 2568,-258 2568,-189 2281,-189"/>
<text text-anchor="start" x="2365.5" y="-242.8" font-family="Times,serif" font-size="14.00">KernelMatern32</text>
<polyline fill="none" stroke="black" points="2281,-235 2568,-235 "/>
<text text-anchor="start" x="2328.5" y="-219.8" font-family="Times,serif" font-size="14.00">AUTOGRADKERNEL : bool</text>
<polyline fill="none" stroke="black" points="2281,-212 2568,-212 "/>
<text text-anchor="start" x="2289" y="-196.8" font-family="Times,serif" font-size="14.00">parsed___call__(x0, x1, batch_params)</text>
</g>
<!-- QMCSoftware.qmcpy.kernel.common_kernels.KernelMatern32&#45;&gt;QMCSoftware.qmcpy.kernel.abstract_kernel.AbstractKernelScaleLengthscales -->
<g id="edge5" class="edge">
<title>QMCSoftware.qmcpy.kernel.common_kernels.KernelMatern32&#45;&gt;QMCSoftware.qmcpy.kernel.abstract_kernel.AbstractKernelScaleLengthscales</title>
<path fill="none" stroke="black" d="M2424.5,-258.03C2424.5,-296.38 2424.5,-360.56 2424.5,-412.23"/>
<polygon fill="none" stroke="black" points="2421,-412.39 2424.5,-422.39 2428,-412.39 2421,-412.39"/>
</g>
<!-- QMCSoftware.qmcpy.kernel.common_kernels.KernelMatern52 -->
<g id="node11" class="node">
<title>QMCSoftware.qmcpy.kernel.common_kernels.KernelMatern52</title>
<polygon fill="none" stroke="black" points="2586,-189 2586,-258 2873,-258 2873,-189 2586,-189"/>
<text text-anchor="start" x="2670.5" y="-242.8" font-family="Times,serif" font-size="14.00">KernelMatern52</text>
<polyline fill="none" stroke="black" points="2586,-235 2873,-235 "/>
<text text-anchor="start" x="2633.5" y="-219.8" font-family="Times,serif" font-size="14.00">AUTOGRADKERNEL : bool</text>
<polyline fill="none" stroke="black" points="2586,-212 2873,-212 "/>
<text text-anchor="start" x="2594" y="-196.8" font-family="Times,serif" font-size="14.00">parsed___call__(x0, x1, batch_params)</text>
</g>
<!-- QMCSoftware.qmcpy.kernel.common_kernels.KernelMatern52&#45;&gt;QMCSoftware.qmcpy.kernel.abstract_kernel.AbstractKernelScaleLengthscales -->
<g id="edge6" class="edge">
<title>QMCSoftware.qmcpy.kernel.common_kernels.KernelMatern52&#45;&gt;QMCSoftware.qmcpy.kernel.abstract_kernel.AbstractKernelScaleLengthscales</title>
<path fill="none" stroke="black" d="M2691.49,-258.03C2647,-297.26 2571.88,-363.51 2512.64,-415.77"/>
<polygon fill="none" stroke="black" points="2510.31,-413.15 2505.13,-422.39 2514.94,-418.4 2510.31,-413.15"/>
</g>
<!-- QMCSoftware.qmcpy.kernel.multitask_kernel.KernelMultiTask -->
<g id="node12" class="node">
<title>QMCSoftware.qmcpy.kernel.multitask_kernel.KernelMultiTask</title>
<polygon fill="none" stroke="black" points="2861,-347.5 2861,-641.5 3132,-641.5 3132,-347.5 2861,-347.5"/>
<text text-anchor="start" x="2937.5" y="-626.3" font-family="Times,serif" font-size="14.00">KernelMultiTask</text>
<polyline fill="none" stroke="black" points="2861,-618.5 3132,-618.5 "/>
<text text-anchor="start" x="2907.5" y="-603.3" font-family="Times,serif" font-size="14.00">AUTOGRADKERNEL</text>
<text text-anchor="start" x="2907.5" y="-588.3" font-family="Times,serif" font-size="14.00">base_kernel</text>
<text text-anchor="start" x="2907.5" y="-573.3" font-family="Times,serif" font-size="14.00">diag</text>
<text text-anchor="start" x="2907.5" y="-558.3" font-family="Times,serif" font-size="14.00">eye_num_tasks : ndarray</text>
<text text-anchor="start" x="2907.5" y="-543.3" font-family="Times,serif" font-size="14.00">factor</text>
<text text-anchor="start" x="2907.5" y="-528.3" font-family="Times,serif" font-size="14.00">lti0</text>
<text text-anchor="start" x="2907.5" y="-513.3" font-family="Times,serif" font-size="14.00">lti1</text>
<text text-anchor="start" x="2907.5" y="-498.3" font-family="Times,serif" font-size="14.00">method : str</text>
<text text-anchor="start" x="2907.5" y="-483.3" font-family="Times,serif" font-size="14.00">nbdim_base</text>
<text text-anchor="start" x="2907.5" y="-468.3" font-family="Times,serif" font-size="14.00">num_tasks</text>
<text text-anchor="start" x="2907.5" y="-453.3" font-family="Times,serif" font-size="14.00">raw_diag</text>
<text text-anchor="start" x="2907.5" y="-438.3" font-family="Times,serif" font-size="14.00">raw_factor</text>
<text text-anchor="start" x="2907.5" y="-423.3" font-family="Times,serif" font-size="14.00">taskmat</text>
<text text-anchor="start" x="2907.5" y="-408.3" font-family="Times,serif" font-size="14.00">tfs_diag : tuple</text>
<text text-anchor="start" x="2907.5" y="-393.3" font-family="Times,serif" font-size="14.00">tfs_factor : tuple</text>
<polyline fill="none" stroke="black" points="2861,-385.5 3132,-385.5 "/>
<text text-anchor="start" x="2869" y="-370.3" font-family="Times,serif" font-size="14.00">double_integral_01d(task0, task1)</text>
<text text-anchor="start" x="2869" y="-355.3" font-family="Times,serif" font-size="14.00">single_integral_01d(task0, task1, x)</text>
</g>
<!-- QMCSoftware.qmcpy.kernel.multitask_kernel.KernelMultiTask&#45;&gt;QMCSoftware.qmcpy.kernel.abstract_kernel.AbstractKernel -->
<g id="edge9" class="edge">
<title>QMCSoftware.qmcpy.kernel.multitask_kernel.KernelMultiTask&#45;&gt;QMCSoftware.qmcpy.kernel.abstract_kernel.AbstractKernel</title>
<path fill="none" stroke="black" d="M2860.72,-601.51C2832.07,-623.88 2801.23,-647.96 2770.66,-671.82"/>
<polygon fill="none" stroke="black" points="2768.2,-669.3 2762.48,-678.21 2772.51,-674.82 2768.2,-669.3"/>
</g>
<!-- QMCSoftware.qmcpy.kernel.multitask_kernel.KernelMultiTaskDerivs -->
<g id="node13" class="node">
<title>QMCSoftware.qmcpy.kernel.multitask_kernel.KernelMultiTaskDerivs</title>
<polygon fill="none" stroke="black" points="3196.5,-188.1 3196.5,-258.9 3376.5,-258.9 3376.5,-188.1 3196.5,-188.1"/>
<text text-anchor="start" x="3204.5" y="-243.7" font-family="Times,serif" font-size="14.00">KernelMultiTaskDerivs</text>
<polyline fill="none" stroke="black" points="3196.5,-235.9 3376.5,-235.9 "/>
<polyline fill="none" stroke="black" points="3196.5,-211.1 3376.5,-211.1 "/>
<text text-anchor="start" x="3284" y="-195.9" font-family="Times,serif" font-size="14.00"> </text>
</g>
<!-- QMCSoftware.qmcpy.kernel.multitask_kernel.KernelMultiTaskDerivs&#45;&gt;QMCSoftware.qmcpy.kernel.multitask_kernel.KernelMultiTask -->
<g id="edge10" class="edge">
<title>QMCSoftware.qmcpy.kernel.multitask_kernel.KernelMultiTaskDerivs&#45;&gt;QMCSoftware.qmcpy.kernel.multitask_kernel.KernelMultiTask</title>
<path fill="none" stroke="black" d="M3249.18,-259.12C3220.95,-285.3 3180.26,-323.05 3139.74,-360.63"/>
<polygon fill="none" stroke="black" points="3137.13,-358.28 3132.18,-367.65 3141.89,-363.41 3137.13,-358.28"/>
</g>
<!-- QMCSoftware.qmcpy.kernel.common_kernels.KernelRationalQuadratic -->
<g id="node14" class="node">
<title>QMCSoftware.qmcpy.kernel.common_kernels.KernelRationalQuadratic</title>
<polygon fill="none" stroke="black" points="2891,-166.5 2891,-280.5 3178,-280.5 3178,-166.5 2891,-166.5"/>
<text text-anchor="start" x="2946" y="-265.3" font-family="Times,serif" font-size="14.00">KernelRationalQuadratic</text>
<polyline fill="none" stroke="black" points="2891,-257.5 3178,-257.5 "/>
<text text-anchor="start" x="2938.5" y="-242.3" font-family="Times,serif" font-size="14.00">AUTOGRADKERNEL : bool</text>
<text text-anchor="start" x="2938.5" y="-227.3" font-family="Times,serif" font-size="14.00">alpha</text>
<text text-anchor="start" x="2938.5" y="-212.3" font-family="Times,serif" font-size="14.00">raw_alpha</text>
<text text-anchor="start" x="2938.5" y="-197.3" font-family="Times,serif" font-size="14.00">tfs_alpha : tuple</text>
<polyline fill="none" stroke="black" points="2891,-189.5 3178,-189.5 "/>
<text text-anchor="start" x="2899" y="-174.3" font-family="Times,serif" font-size="14.00">parsed___call__(x0, x1, batch_params)</text>
</g>
<!-- QMCSoftware.qmcpy.kernel.common_kernels.KernelRationalQuadratic&#45;&gt;QMCSoftware.qmcpy.kernel.abstract_kernel.AbstractKernelScaleLengthscales -->
<g id="edge7" class="edge">
<title>QMCSoftware.qmcpy.kernel.common_kernels.KernelRationalQuadratic&#45;&gt;QMCSoftware.qmcpy.kernel.abstract_kernel.AbstractKernelScaleLengthscales</title>
<path fill="none" stroke="black" d="M2940.71,-280.55C2921.7,-291.15 2901.65,-301.79 2882.5,-311 2777.45,-361.52 2654.56,-409.93 2562.54,-444.19"/>
<polygon fill="none" stroke="black" points="2561.05,-441.01 2552.89,-447.77 2563.48,-447.57 2561.05,-441.01"/>
</g>
<!-- QMCSoftware.qmcpy.kernel.si_dsi_kernels.KernelShiftInvar -->
<g id="node15" class="node">
<title>QMCSoftware.qmcpy.kernel.si_dsi_kernels.KernelShiftInvar</title>
<polygon fill="none" stroke="black" points="2308.5,-15.5 2308.5,-84.5 2658.5,-84.5 2658.5,-15.5 2308.5,-15.5"/>
<text text-anchor="start" x="2424" y="-69.3" font-family="Times,serif" font-size="14.00">KernelShiftInvar</text>
<polyline fill="none" stroke="black" points="2308.5,-61.5 2658.5,-61.5 "/>
<text text-anchor="start" x="2454.5" y="-46.3" font-family="Times,serif" font-size="14.00">lgamma</text>
<polyline fill="none" stroke="black" points="2308.5,-38.5 2658.5,-38.5 "/>
<text text-anchor="start" x="2316.5" y="-23.3" font-family="Times,serif" font-size="14.00">get_per_dim_components(x0, x1, beta0, beta1)</text>
</g>
<!-- QMCSoftware.qmcpy.kernel.si_dsi_kernels.KernelShiftInvar&#45;&gt;QMCSoftware.qmcpy.kernel.si_dsi_kernels.AbstractSIDSIKernel -->
<g id="edge15" class="edge">
<title>QMCSoftware.qmcpy.kernel.si_dsi_kernels.KernelShiftInvar&#45;&gt;QMCSoftware.qmcpy.kernel.si_dsi_kernels.AbstractSIDSIKernel</title>
<path fill="none" stroke="black" d="M2368.29,-84.56C2345.63,-90.34 2321.92,-95.83 2299.5,-100 2156.44,-126.62 2114.71,-109.53 1968.15,-135.76"/>
<polygon fill="none" stroke="black" points="1967.09,-132.39 1957.88,-137.64 1968.35,-139.28 1967.09,-132.39"/>
</g>
<!-- QMCSoftware.qmcpy.kernel.si_dsi_kernels.KernelShiftInvarCombined -->
<g id="node16" class="node">
<title>QMCSoftware.qmcpy.kernel.si_dsi_kernels.KernelShiftInvarCombined</title>
<polygon fill="none" stroke="black" points="2676.5,-0.5 2676.5,-99.5 3306.5,-99.5 3306.5,-0.5 2676.5,-0.5"/>
<text text-anchor="start" x="2896" y="-84.3" font-family="Times,serif" font-size="14.00">KernelShiftInvarCombined</text>
<polyline fill="none" stroke="black" points="2676.5,-76.5 3306.5,-76.5 "/>
<text text-anchor="start" x="2962.5" y="-61.3" font-family="Times,serif" font-size="14.00">coeffs</text>
<text text-anchor="start" x="2962.5" y="-46.3" font-family="Times,serif" font-size="14.00">lgamma</text>
<polyline fill="none" stroke="black" points="2676.5,-38.5 3306.5,-38.5 "/>
<text text-anchor="start" x="2684.5" y="-23.3" font-family="Times,serif" font-size="14.00">combine_per_dim_components_raw_m1(kparts, beta0, beta1, c, batch_params, stable)</text>
<text text-anchor="start" x="2684.5" y="-8.3" font-family="Times,serif" font-size="14.00">get_per_dim_components(x0, x1, beta0, beta1)</text>
</g>
<!-- QMCSoftware.qmcpy.kernel.si_dsi_kernels.KernelShiftInvarCombined&#45;&gt;QMCSoftware.qmcpy.kernel.si_dsi_kernels.AbstractSIDSIKernel -->
<g id="edge16" class="edge">
<title>QMCSoftware.qmcpy.kernel.si_dsi_kernels.KernelShiftInvarCombined&#45;&gt;QMCSoftware.qmcpy.kernel.si_dsi_kernels.AbstractSIDSIKernel</title>
<path fill="none" stroke="black" d="M2676.46,-99.07C2673.46,-99.39 2670.47,-99.7 2667.5,-100 2360.45,-131.03 2276.47,-88.43 1967.97,-135.83"/>
<polygon fill="none" stroke="black" points="1967.18,-132.41 1957.84,-137.4 1968.26,-139.32 1967.18,-132.41"/>
</g>
<!-- QMCSoftware.qmcpy.kernel.common_kernels.KernelSquaredExponential -->
<g id="node17" class="node">
<title>QMCSoftware.qmcpy.kernel.common_kernels.KernelSquaredExponential</title>
<polygon fill="none" stroke="black" points="305,-14.6 305,-85.4 592,-85.4 592,-14.6 305,-14.6"/>
<text text-anchor="start" x="352" y="-70.2" font-family="Times,serif" font-size="14.00">KernelSquaredExponential</text>
<polyline fill="none" stroke="black" points="305,-62.4 592,-62.4 "/>
<polyline fill="none" stroke="black" points="305,-37.6 592,-37.6 "/>
<text text-anchor="start" x="313" y="-22.4" font-family="Times,serif" font-size="14.00">parsed___call__(x0, x1, batch_params)</text>
</g>
<!-- QMCSoftware.qmcpy.kernel.common_kernels.KernelSquaredExponential&#45;&gt;QMCSoftware.qmcpy.kernel.common_kernels.AbstractKernelGaussianSE -->
<g id="edge8" class="edge">
<title>QMCSoftware.qmcpy.kernel.common_kernels.KernelSquaredExponential&#45;&gt;QMCSoftware.qmcpy.kernel.common_kernels.AbstractKernelGaussianSE</title>
<path fill="none" stroke="black" d="M448.5,-85.71C448.5,-110.18 448.5,-143.38 448.5,-170.94"/>
<polygon fill="none" stroke="black" points="445,-171.2 448.5,-181.2 452,-171.2 445,-171.2"/>
</g>
</g>
</svg>
