<?xml version="1.0" encoding="UTF-8" standalone="no"?>
<!DOCTYPE svg PUBLIC "-//W3C//DTD SVG 1.1//EN"
 "http://www.w3.org/Graphics/SVG/1.1/DTD/svg11.dtd">
<!-- Generated by graphviz version 2.43.0 (0)
 -->
<!-- Title: classes Pages: 1 -->
<svg width="2563pt" height="921pt"
 viewBox="0.00 0.00 2562.50 921.00" xmlns="http://www.w3.org/2000/svg" xmlns:xlink="http://www.w3.org/1999/xlink">
<g id="graph0" class="graph" transform="scale(1 1) rotate(0) translate(4 917)">
<title>classes</title>
<polygon fill="white" stroke="transparent" points="-4,4 -4,-917 2558.5,-917 2558.5,4 -4,4"/>
<!-- QMCSoftware.qmcpy.kernel.abstract_kernel.AbstractKernel -->
<g id="node1" class="node">
<title>QMCSoftware.qmcpy.kernel.abstract_kernel.AbstractKernel</title>
<polygon fill="none" stroke="black" points="1342,-603.5 1342,-912.5 2145,-912.5 2145,-603.5 1342,-603.5"/>
<text text-anchor="start" x="1689.5" y="-897.3" font-family="Times,serif" font-size="14.00">AbstractKernel</text>
<polyline fill="none" stroke="black" points="1342,-889.5 2145,-889.5 "/>
<text text-anchor="start" x="1652.5" y="-874.3" font-family="Times,serif" font-size="14.00">batch_param_names : list</text>
<text text-anchor="start" x="1652.5" y="-859.3" font-family="Times,serif" font-size="14.00">batch_params</text>
<text text-anchor="start" x="1652.5" y="-844.3" font-family="Times,serif" font-size="14.00">compiled_parsed___call__</text>
<text text-anchor="start" x="1652.5" y="-829.3" font-family="Times,serif" font-size="14.00">d</text>
<text text-anchor="start" x="1652.5" y="-814.3" font-family="Times,serif" font-size="14.00">device : NoneType</text>
<text text-anchor="start" x="1652.5" y="-799.3" font-family="Times,serif" font-size="14.00">nbdim</text>
<text text-anchor="start" x="1652.5" y="-784.3" font-family="Times,serif" font-size="14.00">npt</text>
<text text-anchor="start" x="1652.5" y="-769.3" font-family="Times,serif" font-size="14.00">nptarray</text>
<text text-anchor="start" x="1652.5" y="-754.3" font-family="Times,serif" font-size="14.00">nptarraytype : ndarray</text>
<text text-anchor="start" x="1652.5" y="-739.3" font-family="Times,serif" font-size="14.00">nptkwargs : dict</text>
<text text-anchor="start" x="1652.5" y="-724.3" font-family="Times,serif" font-size="14.00">torchify</text>
<polyline fill="none" stroke="black" points="1342,-716.5 2145,-716.5 "/>
<text text-anchor="start" x="1350" y="-701.3" font-family="Times,serif" font-size="14.00">double_integral_01d()</text>
<text text-anchor="start" x="1350" y="-686.3" font-family="Times,serif" font-size="14.00">get_batch_params(ndim)</text>
<text text-anchor="start" x="1350" y="-671.3" font-family="Times,serif" font-size="14.00">parse_assign_param(pname, param, shape_param, requires_grad_param, tfs_param, endsize_ops, constraints)</text>
<text text-anchor="start" x="1350" y="-656.3" font-family="Times,serif" font-size="14.00">parsed___call__()</text>
<text text-anchor="start" x="1350" y="-641.3" font-family="Times,serif" font-size="14.00">parsed_single_integral_01d(x)</text>
<text text-anchor="start" x="1350" y="-626.3" font-family="Times,serif" font-size="14.00">rel_pairwise_dist_func(x0, x1, lengthscales)</text>
<text text-anchor="start" x="1350" y="-611.3" font-family="Times,serif" font-size="14.00">single_integral_01d(x)</text>
</g>
<!-- QMCSoftware.qmcpy.kernel.common_kernels.AbstractKernelGaussianSE -->
<g id="node2" class="node">
<title>QMCSoftware.qmcpy.kernel.common_kernels.AbstractKernelGaussianSE</title>
<polygon fill="none" stroke="black" points="250,-159 250,-243 589,-243 589,-159 250,-159"/>
<text text-anchor="start" x="323" y="-227.8" font-family="Times,serif" font-size="14.00">AbstractKernelGaussianSE</text>
<polyline fill="none" stroke="black" points="250,-220 589,-220 "/>
<text text-anchor="start" x="323.5" y="-204.8" font-family="Times,serif" font-size="14.00">AUTOGRADKERNEL : bool</text>
<polyline fill="none" stroke="black" points="250,-197 589,-197 "/>
<text text-anchor="start" x="258" y="-181.8" font-family="Times,serif" font-size="14.00">double_integral_01d()</text>
<text text-anchor="start" x="258" y="-166.8" font-family="Times,serif" font-size="14.00">parsed_single_integral_01d(x, batch_params)</text>
</g>
<!-- QMCSoftware.qmcpy.kernel.abstract_kernel.AbstractKernelScaleLengthscales -->
<g id="node3" class="node">
<title>QMCSoftware.qmcpy.kernel.abstract_kernel.AbstractKernelScaleLengthscales</title>
<polygon fill="none" stroke="black" points="1474.5,-370 1474.5,-514 1730.5,-514 1730.5,-370 1474.5,-370"/>
<text text-anchor="start" x="1482.5" y="-498.8" font-family="Times,serif" font-size="14.00">AbstractKernelScaleLengthscales</text>
<polyline fill="none" stroke="black" points="1474.5,-491 1730.5,-491 "/>
<text text-anchor="start" x="1540.5" y="-475.8" font-family="Times,serif" font-size="14.00">lengthscales</text>
<text text-anchor="start" x="1540.5" y="-460.8" font-family="Times,serif" font-size="14.00">raw_lengthscales</text>
<text text-anchor="start" x="1540.5" y="-445.8" font-family="Times,serif" font-size="14.00">raw_scale</text>
<text text-anchor="start" x="1540.5" y="-430.8" font-family="Times,serif" font-size="14.00">scale</text>
<text text-anchor="start" x="1540.5" y="-415.8" font-family="Times,serif" font-size="14.00">tf_lengthscales</text>
<text text-anchor="start" x="1540.5" y="-400.8" font-family="Times,serif" font-size="14.00">tf_scale</text>
<polyline fill="none" stroke="black" points="1474.5,-393 1730.5,-393 "/>
<text text-anchor="start" x="1600" y="-377.8" font-family="Times,serif" font-size="14.00"> </text>
</g>
<!-- QMCSoftware.qmcpy.kernel.common_kernels.AbstractKernelGaussianSE&#45;&gt;QMCSoftware.qmcpy.kernel.abstract_kernel.AbstractKernelScaleLengthscales -->
<g id="edge2" class="edge">
<title>QMCSoftware.qmcpy.kernel.common_kernels.AbstractKernelGaussianSE&#45;&gt;QMCSoftware.qmcpy.kernel.abstract_kernel.AbstractKernelScaleLengthscales</title>
<path fill="none" stroke="black" d="M500.71,-243.14C530.79,-256.95 565.59,-271.29 598.5,-281 900.1,-369.96 1268.15,-412.59 1464.11,-430.29"/>
<polygon fill="none" stroke="black" points="1463.9,-433.79 1474.17,-431.19 1464.52,-426.81 1463.9,-433.79"/>
</g>
<!-- QMCSoftware.qmcpy.kernel.abstract_kernel.AbstractKernelScaleLengthscales&#45;&gt;QMCSoftware.qmcpy.kernel.abstract_kernel.AbstractKernel -->
<g id="edge1" class="edge">
<title>QMCSoftware.qmcpy.kernel.abstract_kernel.AbstractKernelScaleLengthscales&#45;&gt;QMCSoftware.qmcpy.kernel.abstract_kernel.AbstractKernel</title>
<path fill="none" stroke="black" d="M1634.5,-514.25C1645.27,-538.25 1657.78,-566.11 1670.4,-594.22"/>
<polygon fill="none" stroke="black" points="1667.21,-595.66 1674.5,-603.35 1673.6,-592.79 1667.21,-595.66"/>
</g>
<!-- QMCSoftware.qmcpy.kernel.si_dsi_kernels.AbstractSIDSIKernel -->
<g id="node4" class="node">
<title>QMCSoftware.qmcpy.kernel.si_dsi_kernels.AbstractSIDSIKernel</title>
<polygon fill="none" stroke="black" points="607.5,-121.5 607.5,-280.5 1135.5,-280.5 1135.5,-121.5 607.5,-121.5"/>
<text text-anchor="start" x="797" y="-265.3" font-family="Times,serif" font-size="14.00">AbstractSIDSIKernel</text>
<polyline fill="none" stroke="black" points="607.5,-257.5 1135.5,-257.5 "/>
<text text-anchor="start" x="775.5" y="-242.3" font-family="Times,serif" font-size="14.00">AUTOGRADKERNEL : bool</text>
<text text-anchor="start" x="775.5" y="-227.3" font-family="Times,serif" font-size="14.00">alpha</text>
<text text-anchor="start" x="775.5" y="-212.3" font-family="Times,serif" font-size="14.00">raw_alpha</text>
<text text-anchor="start" x="775.5" y="-197.3" font-family="Times,serif" font-size="14.00">tf_alpha</text>
<polyline fill="none" stroke="black" points="607.5,-189.5 1135.5,-189.5 "/>
<text text-anchor="start" x="615.5" y="-174.3" font-family="Times,serif" font-size="14.00">combine_per_dim_components(kperdim, beta0, beta1, c, batch_params)</text>
<text text-anchor="start" x="615.5" y="-159.3" font-family="Times,serif" font-size="14.00">double_integral_01d()</text>
<text text-anchor="start" x="615.5" y="-144.3" font-family="Times,serif" font-size="14.00">parsed___call__(x0, x1, beta0, beta1, c, batch_params)</text>
<text text-anchor="start" x="615.5" y="-129.3" font-family="Times,serif" font-size="14.00">parsed_single_integral_01d(x, batch_params)</text>
</g>
<!-- QMCSoftware.qmcpy.kernel.si_dsi_kernels.AbstractSIDSIKernel&#45;&gt;QMCSoftware.qmcpy.kernel.abstract_kernel.AbstractKernelScaleLengthscales -->
<g id="edge11" class="edge">
<title>QMCSoftware.qmcpy.kernel.si_dsi_kernels.AbstractSIDSIKernel&#45;&gt;QMCSoftware.qmcpy.kernel.abstract_kernel.AbstractKernelScaleLengthscales</title>
<path fill="none" stroke="black" d="M1111.62,-280.51C1228.62,-318.76 1365.14,-363.4 1464.46,-395.87"/>
<polygon fill="none" stroke="black" points="1463.67,-399.29 1474.26,-399.07 1465.84,-392.64 1463.67,-399.29"/>
</g>
<!-- QMCSoftware.qmcpy.kernel.si_dsi_kernels.KernelDigShiftInvar -->
<g id="node5" class="node">
<title>QMCSoftware.qmcpy.kernel.si_dsi_kernels.KernelDigShiftInvar</title>
<polygon fill="none" stroke="black" points="667.5,-0.5 667.5,-84.5 1017.5,-84.5 1017.5,-0.5 667.5,-0.5"/>
<text text-anchor="start" x="770.5" y="-69.3" font-family="Times,serif" font-size="14.00">KernelDigShiftInvar</text>
<polyline fill="none" stroke="black" points="667.5,-61.5 1017.5,-61.5 "/>
<text text-anchor="start" x="839" y="-46.3" font-family="Times,serif" font-size="14.00">t</text>
<polyline fill="none" stroke="black" points="667.5,-38.5 1017.5,-38.5 "/>
<text text-anchor="start" x="675.5" y="-23.3" font-family="Times,serif" font-size="14.00">get_per_dim_components(x0, x1, beta0, beta1)</text>
<text text-anchor="start" x="675.5" y="-8.3" font-family="Times,serif" font-size="14.00">set_t(t)</text>
</g>
<!-- QMCSoftware.qmcpy.kernel.si_dsi_kernels.KernelDigShiftInvar&#45;&gt;QMCSoftware.qmcpy.kernel.si_dsi_kernels.AbstractSIDSIKernel -->
<g id="edge12" class="edge">
<title>QMCSoftware.qmcpy.kernel.si_dsi_kernels.KernelDigShiftInvar&#45;&gt;QMCSoftware.qmcpy.kernel.si_dsi_kernels.AbstractSIDSIKernel</title>
<path fill="none" stroke="black" d="M850.12,-84.62C851.66,-92.93 853.34,-101.97 855.05,-111.21"/>
<polygon fill="none" stroke="black" points="851.65,-112.1 856.92,-121.3 858.54,-110.82 851.65,-112.1"/>
</g>
<!-- QMCSoftware.qmcpy.kernel.common_kernels.KernelGaussian -->
<g id="node6" class="node">
<title>QMCSoftware.qmcpy.kernel.common_kernels.KernelGaussian</title>
<polygon fill="none" stroke="black" points="0,-7.1 0,-77.9 287,-77.9 287,-7.1 0,-7.1"/>
<text text-anchor="start" x="87.5" y="-62.7" font-family="Times,serif" font-size="14.00">KernelGaussian</text>
<polyline fill="none" stroke="black" points="0,-54.9 287,-54.9 "/>
<polyline fill="none" stroke="black" points="0,-30.1 287,-30.1 "/>
<text text-anchor="start" x="8" y="-14.9" font-family="Times,serif" font-size="14.00">parsed___call__(x0, x1, batch_params)</text>
</g>
<!-- QMCSoftware.qmcpy.kernel.common_kernels.KernelGaussian&#45;&gt;QMCSoftware.qmcpy.kernel.common_kernels.AbstractKernelGaussianSE -->
<g id="edge3" class="edge">
<title>QMCSoftware.qmcpy.kernel.common_kernels.KernelGaussian&#45;&gt;QMCSoftware.qmcpy.kernel.common_kernels.AbstractKernelGaussianSE</title>
<path fill="none" stroke="black" d="M204.41,-78.04C243.77,-100.35 295.44,-129.66 338.28,-153.94"/>
<polygon fill="none" stroke="black" points="336.57,-157 347,-158.89 340.02,-150.91 336.57,-157"/>
</g>
<!-- QMCSoftware.qmcpy.kernel.common_kernels.KernelMatern12 -->
<g id="node7" class="node">
<title>QMCSoftware.qmcpy.kernel.common_kernels.KernelMatern12</title>
<polygon fill="none" stroke="black" points="1154,-166.5 1154,-235.5 1441,-235.5 1441,-166.5 1154,-166.5"/>
<text text-anchor="start" x="1238.5" y="-220.3" font-family="Times,serif" font-size="14.00">KernelMatern12</text>
<polyline fill="none" stroke="black" points="1154,-212.5 1441,-212.5 "/>
<text text-anchor="start" x="1201.5" y="-197.3" font-family="Times,serif" font-size="14.00">AUTOGRADKERNEL : bool</text>
<polyline fill="none" stroke="black" points="1154,-189.5 1441,-189.5 "/>
<text text-anchor="start" x="1162" y="-174.3" font-family="Times,serif" font-size="14.00">parsed___call__(x0, x1, batch_params)</text>
</g>
<!-- QMCSoftware.qmcpy.kernel.common_kernels.KernelMatern12&#45;&gt;QMCSoftware.qmcpy.kernel.abstract_kernel.AbstractKernelScaleLengthscales -->
<g id="edge4" class="edge">
<title>QMCSoftware.qmcpy.kernel.common_kernels.KernelMatern12&#45;&gt;QMCSoftware.qmcpy.kernel.abstract_kernel.AbstractKernelScaleLengthscales</title>
<path fill="none" stroke="black" d="M1340.55,-235.74C1382.73,-268.79 1448.52,-320.34 1503.61,-363.51"/>
<polygon fill="none" stroke="black" points="1501.63,-366.4 1511.66,-369.82 1505.95,-360.89 1501.63,-366.4"/>
</g>
<!-- QMCSoftware.qmcpy.kernel.common_kernels.KernelMatern32 -->
<g id="node8" class="node">
<title>QMCSoftware.qmcpy.kernel.common_kernels.KernelMatern32</title>
<polygon fill="none" stroke="black" points="1459,-166.5 1459,-235.5 1746,-235.5 1746,-166.5 1459,-166.5"/>
<text text-anchor="start" x="1543.5" y="-220.3" font-family="Times,serif" font-size="14.00">KernelMatern32</text>
<polyline fill="none" stroke="black" points="1459,-212.5 1746,-212.5 "/>
<text text-anchor="start" x="1506.5" y="-197.3" font-family="Times,serif" font-size="14.00">AUTOGRADKERNEL : bool</text>
<polyline fill="none" stroke="black" points="1459,-189.5 1746,-189.5 "/>
<text text-anchor="start" x="1467" y="-174.3" font-family="Times,serif" font-size="14.00">parsed___call__(x0, x1, batch_params)</text>
</g>
<!-- QMCSoftware.qmcpy.kernel.common_kernels.KernelMatern32&#45;&gt;QMCSoftware.qmcpy.kernel.abstract_kernel.AbstractKernelScaleLengthscales -->
<g id="edge5" class="edge">
<title>QMCSoftware.qmcpy.kernel.common_kernels.KernelMatern32&#45;&gt;QMCSoftware.qmcpy.kernel.abstract_kernel.AbstractKernelScaleLengthscales</title>
<path fill="none" stroke="black" d="M1602.5,-235.74C1602.5,-267.78 1602.5,-317.21 1602.5,-359.54"/>
<polygon fill="none" stroke="black" points="1599,-359.57 1602.5,-369.57 1606,-359.57 1599,-359.57"/>
</g>
<!-- QMCSoftware.qmcpy.kernel.common_kernels.KernelMatern52 -->
<g id="node9" class="node">
<title>QMCSoftware.qmcpy.kernel.common_kernels.KernelMatern52</title>
<polygon fill="none" stroke="black" points="1764,-166.5 1764,-235.5 2051,-235.5 2051,-166.5 1764,-166.5"/>
<text text-anchor="start" x="1848.5" y="-220.3" font-family="Times,serif" font-size="14.00">KernelMatern52</text>
<polyline fill="none" stroke="black" points="1764,-212.5 2051,-212.5 "/>
<text text-anchor="start" x="1811.5" y="-197.3" font-family="Times,serif" font-size="14.00">AUTOGRADKERNEL : bool</text>
<polyline fill="none" stroke="black" points="1764,-189.5 2051,-189.5 "/>
<text text-anchor="start" x="1772" y="-174.3" font-family="Times,serif" font-size="14.00">parsed___call__(x0, x1, batch_params)</text>
</g>
<!-- QMCSoftware.qmcpy.kernel.common_kernels.KernelMatern52&#45;&gt;QMCSoftware.qmcpy.kernel.abstract_kernel.AbstractKernelScaleLengthscales -->
<g id="edge6" class="edge">
<title>QMCSoftware.qmcpy.kernel.common_kernels.KernelMatern52&#45;&gt;QMCSoftware.qmcpy.kernel.abstract_kernel.AbstractKernelScaleLengthscales</title>
<path fill="none" stroke="black" d="M1864.45,-235.74C1822.27,-268.79 1756.48,-320.34 1701.39,-363.51"/>
<polygon fill="none" stroke="black" points="1699.05,-360.89 1693.34,-369.82 1703.37,-366.4 1699.05,-360.89"/>
</g>
<!-- QMCSoftware.qmcpy.kernel.multitask_kernel.KernelMultiTask -->
<g id="node10" class="node">
<title>QMCSoftware.qmcpy.kernel.multitask_kernel.KernelMultiTask</title>
<polygon fill="none" stroke="black" points="2039,-317.5 2039,-566.5 2310,-566.5 2310,-317.5 2039,-317.5"/>
<text text-anchor="start" x="2115.5" y="-551.3" font-family="Times,serif" font-size="14.00">KernelMultiTask</text>
<polyline fill="none" stroke="black" points="2039,-543.5 2310,-543.5 "/>
<text text-anchor="start" x="2085.5" y="-528.3" font-family="Times,serif" font-size="14.00">AUTOGRADKERNEL</text>
<text text-anchor="start" x="2085.5" y="-513.3" font-family="Times,serif" font-size="14.00">base_kernel</text>
<text text-anchor="start" x="2085.5" y="-498.3" font-family="Times,serif" font-size="14.00">diag</text>
<text text-anchor="start" x="2085.5" y="-483.3" font-family="Times,serif" font-size="14.00">eye_num_tasks : ndarray</text>
<text text-anchor="start" x="2085.5" y="-468.3" font-family="Times,serif" font-size="14.00">factor</text>
<text text-anchor="start" x="2085.5" y="-453.3" font-family="Times,serif" font-size="14.00">nbdim_base</text>
<text text-anchor="start" x="2085.5" y="-438.3" font-family="Times,serif" font-size="14.00">num_tasks</text>
<text text-anchor="start" x="2085.5" y="-423.3" font-family="Times,serif" font-size="14.00">raw_diag</text>
<text text-anchor="start" x="2085.5" y="-408.3" font-family="Times,serif" font-size="14.00">raw_factor</text>
<text text-anchor="start" x="2085.5" y="-393.3" font-family="Times,serif" font-size="14.00">taskmat</text>
<text text-anchor="start" x="2085.5" y="-378.3" font-family="Times,serif" font-size="14.00">tf_diag</text>
<text text-anchor="start" x="2085.5" y="-363.3" font-family="Times,serif" font-size="14.00">tf_factor</text>
<polyline fill="none" stroke="black" points="2039,-355.5 2310,-355.5 "/>
<text text-anchor="start" x="2047" y="-340.3" font-family="Times,serif" font-size="14.00">double_integral_01d(task0, task1)</text>
<text text-anchor="start" x="2047" y="-325.3" font-family="Times,serif" font-size="14.00">single_integral_01d(task0, task1, x)</text>
</g>
<!-- QMCSoftware.qmcpy.kernel.multitask_kernel.KernelMultiTask&#45;&gt;QMCSoftware.qmcpy.kernel.abstract_kernel.AbstractKernel -->
<g id="edge9" class="edge">
<title>QMCSoftware.qmcpy.kernel.multitask_kernel.KernelMultiTask&#45;&gt;QMCSoftware.qmcpy.kernel.abstract_kernel.AbstractKernel</title>
<path fill="none" stroke="black" d="M2038.72,-541.92C2014.45,-559.6 1988.61,-578.43 1962.7,-597.3"/>
<polygon fill="none" stroke="black" points="1960.31,-594.72 1954.29,-603.43 1964.43,-600.37 1960.31,-594.72"/>
</g>
<!-- QMCSoftware.qmcpy.kernel.multitask_kernel.KernelMultiTaskDerivs -->
<g id="node11" class="node">
<title>QMCSoftware.qmcpy.kernel.multitask_kernel.KernelMultiTaskDerivs</title>
<polygon fill="none" stroke="black" points="2374.5,-165.6 2374.5,-236.4 2554.5,-236.4 2554.5,-165.6 2374.5,-165.6"/>
<text text-anchor="start" x="2382.5" y="-221.2" font-family="Times,serif" font-size="14.00">KernelMultiTaskDerivs</text>
<polyline fill="none" stroke="black" points="2374.5,-213.4 2554.5,-213.4 "/>
<polyline fill="none" stroke="black" points="2374.5,-188.6 2554.5,-188.6 "/>
<text text-anchor="start" x="2462" y="-173.4" font-family="Times,serif" font-size="14.00"> </text>
</g>
<!-- QMCSoftware.qmcpy.kernel.multitask_kernel.KernelMultiTaskDerivs&#45;&gt;QMCSoftware.qmcpy.kernel.multitask_kernel.KernelMultiTask -->
<g id="edge10" class="edge">
<title>QMCSoftware.qmcpy.kernel.multitask_kernel.KernelMultiTaskDerivs&#45;&gt;QMCSoftware.qmcpy.kernel.multitask_kernel.KernelMultiTask</title>
<path fill="none" stroke="black" d="M2422.64,-236.5C2394.82,-259.43 2356.49,-291.02 2318.27,-322.51"/>
<polygon fill="none" stroke="black" points="2315.62,-320.17 2310.13,-329.23 2320.07,-325.57 2315.62,-320.17"/>
</g>
<!-- QMCSoftware.qmcpy.kernel.common_kernels.KernelRationalQuadratic -->
<g id="node12" class="node">
<title>QMCSoftware.qmcpy.kernel.common_kernels.KernelRationalQuadratic</title>
<polygon fill="none" stroke="black" points="2069,-144 2069,-258 2356,-258 2356,-144 2069,-144"/>
<text text-anchor="start" x="2124" y="-242.8" font-family="Times,serif" font-size="14.00">KernelRationalQuadratic</text>
<polyline fill="none" stroke="black" points="2069,-235 2356,-235 "/>
<text text-anchor="start" x="2116.5" y="-219.8" font-family="Times,serif" font-size="14.00">AUTOGRADKERNEL : bool</text>
<text text-anchor="start" x="2116.5" y="-204.8" font-family="Times,serif" font-size="14.00">alpha</text>
<text text-anchor="start" x="2116.5" y="-189.8" font-family="Times,serif" font-size="14.00">raw_alpha</text>
<text text-anchor="start" x="2116.5" y="-174.8" font-family="Times,serif" font-size="14.00">tf_alpha</text>
<polyline fill="none" stroke="black" points="2069,-167 2356,-167 "/>
<text text-anchor="start" x="2077" y="-151.8" font-family="Times,serif" font-size="14.00">parsed___call__(x0, x1, batch_params)</text>
</g>
<!-- QMCSoftware.qmcpy.kernel.common_kernels.KernelRationalQuadratic&#45;&gt;QMCSoftware.qmcpy.kernel.abstract_kernel.AbstractKernelScaleLengthscales -->
<g id="edge7" class="edge">
<title>QMCSoftware.qmcpy.kernel.common_kernels.KernelRationalQuadratic&#45;&gt;QMCSoftware.qmcpy.kernel.abstract_kernel.AbstractKernelScaleLengthscales</title>
<path fill="none" stroke="black" d="M2109.2,-258.19C2093.08,-266.23 2076.47,-274.1 2060.5,-281 1955.2,-326.48 1832.33,-368.85 1740.37,-398.55"/>
<polygon fill="none" stroke="black" points="1739.18,-395.26 1730.73,-401.65 1741.32,-401.92 1739.18,-395.26"/>
</g>
<!-- QMCSoftware.qmcpy.kernel.si_dsi_kernels.KernelShiftInvar -->
<g id="node13" class="node">
<title>QMCSoftware.qmcpy.kernel.si_dsi_kernels.KernelShiftInvar</title>
<polygon fill="none" stroke="black" points="1035.5,-8 1035.5,-77 1385.5,-77 1385.5,-8 1035.5,-8"/>
<text text-anchor="start" x="1151" y="-61.8" font-family="Times,serif" font-size="14.00">KernelShiftInvar</text>
<polyline fill="none" stroke="black" points="1035.5,-54 1385.5,-54 "/>
<text text-anchor="start" x="1181.5" y="-38.8" font-family="Times,serif" font-size="14.00">lgamma</text>
<polyline fill="none" stroke="black" points="1035.5,-31 1385.5,-31 "/>
<text text-anchor="start" x="1043.5" y="-15.8" font-family="Times,serif" font-size="14.00">get_per_dim_components(x0, x1, beta0, beta1)</text>
</g>
<!-- QMCSoftware.qmcpy.kernel.si_dsi_kernels.KernelShiftInvar&#45;&gt;QMCSoftware.qmcpy.kernel.si_dsi_kernels.AbstractSIDSIKernel -->
<g id="edge13" class="edge">
<title>QMCSoftware.qmcpy.kernel.si_dsi_kernels.KernelShiftInvar&#45;&gt;QMCSoftware.qmcpy.kernel.si_dsi_kernels.AbstractSIDSIKernel</title>
<path fill="none" stroke="black" d="M1137.78,-77.07C1111.92,-89.01 1081.55,-103.03 1050.75,-117.25"/>
<polygon fill="none" stroke="black" points="1049.24,-114.09 1041.62,-121.46 1052.17,-120.45 1049.24,-114.09"/>
</g>
<!-- QMCSoftware.qmcpy.kernel.common_kernels.KernelSquaredExponential -->
<g id="node14" class="node">
<title>QMCSoftware.qmcpy.kernel.common_kernels.KernelSquaredExponential</title>
<polygon fill="none" stroke="black" points="305,-7.1 305,-77.9 592,-77.9 592,-7.1 305,-7.1"/>
<text text-anchor="start" x="352" y="-62.7" font-family="Times,serif" font-size="14.00">KernelSquaredExponential</text>
<polyline fill="none" stroke="black" points="305,-54.9 592,-54.9 "/>
<polyline fill="none" stroke="black" points="305,-30.1 592,-30.1 "/>
<text text-anchor="start" x="313" y="-14.9" font-family="Times,serif" font-size="14.00">parsed___call__(x0, x1, batch_params)</text>
</g>
<!-- QMCSoftware.qmcpy.kernel.common_kernels.KernelSquaredExponential&#45;&gt;QMCSoftware.qmcpy.kernel.common_kernels.AbstractKernelGaussianSE -->
<g id="edge8" class="edge">
<title>QMCSoftware.qmcpy.kernel.common_kernels.KernelSquaredExponential&#45;&gt;QMCSoftware.qmcpy.kernel.common_kernels.AbstractKernelGaussianSE</title>
<path fill="none" stroke="black" d="M442.06,-78.23C438.21,-99.02 433.25,-125.82 428.96,-148.98"/>
<polygon fill="none" stroke="black" points="425.48,-148.52 427.1,-158.99 432.36,-149.79 425.48,-148.52"/>
</g>
</g>
</svg>
