<?xml version="1.0" encoding="UTF-8" standalone="no"?>
<!DOCTYPE svg PUBLIC "-//W3C//DTD SVG 1.1//EN"
 "http://www.w3.org/Graphics/SVG/1.1/DTD/svg11.dtd">
<!-- Generated by graphviz version 2.43.0 (0)
 -->
<!-- Title: classes Pages: 1 -->
<svg width="1412pt" height="264pt"
 viewBox="0.00 0.00 1412.00 264.00" xmlns="http://www.w3.org/2000/svg" xmlns:xlink="http://www.w3.org/1999/xlink">
<g id="graph0" class="graph" transform="scale(1 1) rotate(0) translate(4 260)">
<title>classes</title>
<polygon fill="white" stroke="transparent" points="-4,4 -4,-260 1408,-260 1408,4 -4,4"/>
<!-- QMCSoftware.qmcpy.kernel.abstract_kernel.AbstractKernel -->
<g id="node1" class="node">
<title>QMCSoftware.qmcpy.kernel.abstract_kernel.AbstractKernel</title>
<polygon fill="none" stroke="black" points="819,-219.5 819,-255.5 943,-255.5 943,-219.5 819,-219.5"/>
<text text-anchor="start" x="827" y="-233.8" font-family="Times,serif" font-size="14.00">AbstractKernel</text>
</g>
<!-- QMCSoftware.qmcpy.kernel.common_kernels.AbstractKernelGaussianSE -->
<g id="node2" class="node">
<title>QMCSoftware.qmcpy.kernel.common_kernels.AbstractKernelGaussianSE</title>
<polygon fill="none" stroke="black" points="145.5,-73.5 145.5,-109.5 354.5,-109.5 354.5,-73.5 145.5,-73.5"/>
<text text-anchor="start" x="153.5" y="-87.8" font-family="Times,serif" font-size="14.00">AbstractKernelGaussianSE</text>
</g>
<!-- QMCSoftware.qmcpy.kernel.abstract_kernel.AbstractKernelScaleLengthscales -->
<g id="node3" class="node">
<title>QMCSoftware.qmcpy.kernel.abstract_kernel.AbstractKernelScaleLengthscales</title>
<polygon fill="none" stroke="black" points="647,-146.5 647,-182.5 903,-182.5 903,-146.5 647,-146.5"/>
<text text-anchor="start" x="655" y="-160.8" font-family="Times,serif" font-size="14.00">AbstractKernelScaleLengthscales</text>
</g>
<!-- QMCSoftware.qmcpy.kernel.common_kernels.AbstractKernelGaussianSE&#45;&gt;QMCSoftware.qmcpy.kernel.abstract_kernel.AbstractKernelScaleLengthscales -->
<g id="edge2" class="edge">
<title>QMCSoftware.qmcpy.kernel.common_kernels.AbstractKernelGaussianSE&#45;&gt;QMCSoftware.qmcpy.kernel.abstract_kernel.AbstractKernelScaleLengthscales</title>
<path fill="none" stroke="black" d="M354.65,-108.8C357.46,-109.21 360.25,-109.61 363,-110 454.08,-122.96 556.67,-136.29 636.7,-146.4"/>
<polygon fill="none" stroke="black" points="636.48,-149.9 646.84,-147.68 637.35,-142.95 636.48,-149.9"/>
</g>
<!-- QMCSoftware.qmcpy.kernel.abstract_kernel.AbstractKernelScaleLengthscales&#45;&gt;QMCSoftware.qmcpy.kernel.abstract_kernel.AbstractKernel -->
<g id="edge1" class="edge">
<title>QMCSoftware.qmcpy.kernel.abstract_kernel.AbstractKernelScaleLengthscales&#45;&gt;QMCSoftware.qmcpy.kernel.abstract_kernel.AbstractKernel</title>
<path fill="none" stroke="black" d="M800.39,-182.51C814.32,-191.83 831.77,-203.53 846.87,-213.64"/>
<polygon fill="none" stroke="black" points="845.19,-216.73 855.45,-219.39 849.09,-210.91 845.19,-216.73"/>
</g>
<!-- QMCSoftware.qmcpy.kernel.si_dsi_kernels.AbstractSIDSIKernel -->
<g id="node4" class="node">
<title>QMCSoftware.qmcpy.kernel.si_dsi_kernels.AbstractSIDSIKernel</title>
<polygon fill="none" stroke="black" points="372.5,-73.5 372.5,-109.5 537.5,-109.5 537.5,-73.5 372.5,-73.5"/>
<text text-anchor="start" x="380.5" y="-87.8" font-family="Times,serif" font-size="14.00">AbstractSIDSIKernel</text>
</g>
<!-- QMCSoftware.qmcpy.kernel.si_dsi_kernels.AbstractSIDSIKernel&#45;&gt;QMCSoftware.qmcpy.kernel.abstract_kernel.AbstractKernelScaleLengthscales -->
<g id="edge11" class="edge">
<title>QMCSoftware.qmcpy.kernel.si_dsi_kernels.AbstractSIDSIKernel&#45;&gt;QMCSoftware.qmcpy.kernel.abstract_kernel.AbstractKernelScaleLengthscales</title>
<path fill="none" stroke="black" d="M531.65,-109.51C578.79,-119.97 639.32,-133.39 688.21,-144.24"/>
<polygon fill="none" stroke="black" points="687.63,-147.7 698.15,-146.45 689.14,-140.86 687.63,-147.7"/>
</g>
<!-- QMCSoftware.qmcpy.kernel.si_dsi_kernels.KernelDigShiftInvar -->
<g id="node5" class="node">
<title>QMCSoftware.qmcpy.kernel.si_dsi_kernels.KernelDigShiftInvar</title>
<polygon fill="none" stroke="black" points="375,-0.5 375,-36.5 535,-36.5 535,-0.5 375,-0.5"/>
<text text-anchor="start" x="383" y="-14.8" font-family="Times,serif" font-size="14.00">KernelDigShiftInvar</text>
</g>
<!-- QMCSoftware.qmcpy.kernel.si_dsi_kernels.KernelDigShiftInvar&#45;&gt;QMCSoftware.qmcpy.kernel.si_dsi_kernels.AbstractSIDSIKernel -->
<g id="edge12" class="edge">
<title>QMCSoftware.qmcpy.kernel.si_dsi_kernels.KernelDigShiftInvar&#45;&gt;QMCSoftware.qmcpy.kernel.si_dsi_kernels.AbstractSIDSIKernel</title>
<path fill="none" stroke="black" d="M455,-36.69C455,-44.71 455,-54.45 455,-63.43"/>
<polygon fill="none" stroke="black" points="451.5,-63.47 455,-73.47 458.5,-63.47 451.5,-63.47"/>
</g>
<!-- QMCSoftware.qmcpy.kernel.common_kernels.KernelGaussian -->
<g id="node6" class="node">
<title>QMCSoftware.qmcpy.kernel.common_kernels.KernelGaussian</title>
<polygon fill="none" stroke="black" points="0,-0.5 0,-36.5 128,-36.5 128,-0.5 0,-0.5"/>
<text text-anchor="start" x="8" y="-14.8" font-family="Times,serif" font-size="14.00">KernelGaussian</text>
</g>
<!-- QMCSoftware.qmcpy.kernel.common_kernels.KernelGaussian&#45;&gt;QMCSoftware.qmcpy.kernel.common_kernels.AbstractKernelGaussianSE -->
<g id="edge3" class="edge">
<title>QMCSoftware.qmcpy.kernel.common_kernels.KernelGaussian&#45;&gt;QMCSoftware.qmcpy.kernel.common_kernels.AbstractKernelGaussianSE</title>
<path fill="none" stroke="black" d="M108.55,-36.51C134.7,-46.49 167.94,-59.18 195.63,-69.74"/>
<polygon fill="none" stroke="black" points="194.58,-73.09 205.17,-73.39 197.07,-66.55 194.58,-73.09"/>
</g>
<!-- QMCSoftware.qmcpy.kernel.common_kernels.KernelMatern12 -->
<g id="node7" class="node">
<title>QMCSoftware.qmcpy.kernel.common_kernels.KernelMatern12</title>
<polygon fill="none" stroke="black" points="556,-73.5 556,-109.5 690,-109.5 690,-73.5 556,-73.5"/>
<text text-anchor="start" x="564" y="-87.8" font-family="Times,serif" font-size="14.00">KernelMatern12</text>
</g>
<!-- QMCSoftware.qmcpy.kernel.common_kernels.KernelMatern12&#45;&gt;QMCSoftware.qmcpy.kernel.abstract_kernel.AbstractKernelScaleLengthscales -->
<g id="edge4" class="edge">
<title>QMCSoftware.qmcpy.kernel.common_kernels.KernelMatern12&#45;&gt;QMCSoftware.qmcpy.kernel.abstract_kernel.AbstractKernelScaleLengthscales</title>
<path fill="none" stroke="black" d="M659.41,-109.51C680.31,-119.27 706.76,-131.62 729.08,-142.05"/>
<polygon fill="none" stroke="black" points="727.82,-145.33 738.36,-146.39 730.78,-138.98 727.82,-145.33"/>
</g>
<!-- QMCSoftware.qmcpy.kernel.common_kernels.KernelMatern32 -->
<g id="node8" class="node">
<title>QMCSoftware.qmcpy.kernel.common_kernels.KernelMatern32</title>
<polygon fill="none" stroke="black" points="708,-73.5 708,-109.5 842,-109.5 842,-73.5 708,-73.5"/>
<text text-anchor="start" x="716" y="-87.8" font-family="Times,serif" font-size="14.00">KernelMatern32</text>
</g>
<!-- QMCSoftware.qmcpy.kernel.common_kernels.KernelMatern32&#45;&gt;QMCSoftware.qmcpy.kernel.abstract_kernel.AbstractKernelScaleLengthscales -->
<g id="edge5" class="edge">
<title>QMCSoftware.qmcpy.kernel.common_kernels.KernelMatern32&#45;&gt;QMCSoftware.qmcpy.kernel.abstract_kernel.AbstractKernelScaleLengthscales</title>
<path fill="none" stroke="black" d="M775,-109.69C775,-117.71 775,-127.45 775,-136.43"/>
<polygon fill="none" stroke="black" points="771.5,-136.47 775,-146.47 778.5,-136.47 771.5,-136.47"/>
</g>
<!-- QMCSoftware.qmcpy.kernel.common_kernels.KernelMatern52 -->
<g id="node9" class="node">
<title>QMCSoftware.qmcpy.kernel.common_kernels.KernelMatern52</title>
<polygon fill="none" stroke="black" points="860,-73.5 860,-109.5 994,-109.5 994,-73.5 860,-73.5"/>
<text text-anchor="start" x="868" y="-87.8" font-family="Times,serif" font-size="14.00">KernelMatern52</text>
</g>
<!-- QMCSoftware.qmcpy.kernel.common_kernels.KernelMatern52&#45;&gt;QMCSoftware.qmcpy.kernel.abstract_kernel.AbstractKernelScaleLengthscales -->
<g id="edge6" class="edge">
<title>QMCSoftware.qmcpy.kernel.common_kernels.KernelMatern52&#45;&gt;QMCSoftware.qmcpy.kernel.abstract_kernel.AbstractKernelScaleLengthscales</title>
<path fill="none" stroke="black" d="M890.59,-109.51C869.69,-119.27 843.24,-131.62 820.92,-142.05"/>
<polygon fill="none" stroke="black" points="819.22,-138.98 811.64,-146.39 822.18,-145.33 819.22,-138.98"/>
</g>
<!-- QMCSoftware.qmcpy.kernel.multitask_kernel.KernelMultiTask -->
<g id="node10" class="node">
<title>QMCSoftware.qmcpy.kernel.multitask_kernel.KernelMultiTask</title>
<polygon fill="none" stroke="black" points="1084,-146.5 1084,-182.5 1218,-182.5 1218,-146.5 1084,-146.5"/>
<text text-anchor="start" x="1092" y="-160.8" font-family="Times,serif" font-size="14.00">KernelMultiTask</text>
</g>
<!-- QMCSoftware.qmcpy.kernel.multitask_kernel.KernelMultiTask&#45;&gt;QMCSoftware.qmcpy.kernel.abstract_kernel.AbstractKernel -->
<g id="edge9" class="edge">
<title>QMCSoftware.qmcpy.kernel.multitask_kernel.KernelMultiTask&#45;&gt;QMCSoftware.qmcpy.kernel.abstract_kernel.AbstractKernel</title>
<path fill="none" stroke="black" d="M1086.33,-182.51C1046.18,-193.06 994.51,-206.65 953.05,-217.55"/>
<polygon fill="none" stroke="black" points="952.07,-214.19 943.29,-220.12 953.85,-220.96 952.07,-214.19"/>
</g>
<!-- QMCSoftware.qmcpy.kernel.multitask_kernel.KernelMultiTaskDerivs -->
<g id="node11" class="node">
<title>QMCSoftware.qmcpy.kernel.multitask_kernel.KernelMultiTaskDerivs</title>
<polygon fill="none" stroke="black" points="1224,-73.5 1224,-109.5 1404,-109.5 1404,-73.5 1224,-73.5"/>
<text text-anchor="start" x="1232" y="-87.8" font-family="Times,serif" font-size="14.00">KernelMultiTaskDerivs</text>
</g>
<!-- QMCSoftware.qmcpy.kernel.multitask_kernel.KernelMultiTaskDerivs&#45;&gt;QMCSoftware.qmcpy.kernel.multitask_kernel.KernelMultiTask -->
<g id="edge10" class="edge">
<title>QMCSoftware.qmcpy.kernel.multitask_kernel.KernelMultiTaskDerivs&#45;&gt;QMCSoftware.qmcpy.kernel.multitask_kernel.KernelMultiTask</title>
<path fill="none" stroke="black" d="M1274.96,-109.51C1252.34,-119.36 1223.67,-131.84 1199.61,-142.33"/>
<polygon fill="none" stroke="black" points="1198.06,-139.18 1190.29,-146.39 1200.85,-145.6 1198.06,-139.18"/>
</g>
<!-- QMCSoftware.qmcpy.kernel.common_kernels.KernelRationalQuadratic -->
<g id="node12" class="node">
<title>QMCSoftware.qmcpy.kernel.common_kernels.KernelRationalQuadratic</title>
<polygon fill="none" stroke="black" points="1012.5,-73.5 1012.5,-109.5 1205.5,-109.5 1205.5,-73.5 1012.5,-73.5"/>
<text text-anchor="start" x="1020.5" y="-87.8" font-family="Times,serif" font-size="14.00">KernelRationalQuadratic</text>
</g>
<!-- QMCSoftware.qmcpy.kernel.common_kernels.KernelRationalQuadratic&#45;&gt;QMCSoftware.qmcpy.kernel.abstract_kernel.AbstractKernelScaleLengthscales -->
<g id="edge7" class="edge">
<title>QMCSoftware.qmcpy.kernel.common_kernels.KernelRationalQuadratic&#45;&gt;QMCSoftware.qmcpy.kernel.abstract_kernel.AbstractKernelScaleLengthscales</title>
<path fill="none" stroke="black" d="M1029,-109.51C979.7,-119.99 916.36,-133.45 865.26,-144.31"/>
<polygon fill="none" stroke="black" points="864.27,-140.95 855.22,-146.45 865.73,-147.79 864.27,-140.95"/>
</g>
<!-- QMCSoftware.qmcpy.kernel.si_dsi_kernels.KernelShiftInvar -->
<g id="node13" class="node">
<title>QMCSoftware.qmcpy.kernel.si_dsi_kernels.KernelShiftInvar</title>
<polygon fill="none" stroke="black" points="553.5,-0.5 553.5,-36.5 688.5,-36.5 688.5,-0.5 553.5,-0.5"/>
<text text-anchor="start" x="561.5" y="-14.8" font-family="Times,serif" font-size="14.00">KernelShiftInvar</text>
</g>
<!-- QMCSoftware.qmcpy.kernel.si_dsi_kernels.KernelShiftInvar&#45;&gt;QMCSoftware.qmcpy.kernel.si_dsi_kernels.AbstractSIDSIKernel -->
<g id="edge13" class="edge">
<title>QMCSoftware.qmcpy.kernel.si_dsi_kernels.KernelShiftInvar&#45;&gt;QMCSoftware.qmcpy.kernel.si_dsi_kernels.AbstractSIDSIKernel</title>
<path fill="none" stroke="black" d="M581.24,-36.51C558.21,-46.36 529.01,-58.84 504.5,-69.33"/>
<polygon fill="none" stroke="black" points="502.83,-66.24 495.01,-73.39 505.58,-72.67 502.83,-66.24"/>
</g>
<!-- QMCSoftware.qmcpy.kernel.common_kernels.KernelSquaredExponential -->
<g id="node14" class="node">
<title>QMCSoftware.qmcpy.kernel.common_kernels.KernelSquaredExponential</title>
<polygon fill="none" stroke="black" points="146.5,-0.5 146.5,-36.5 355.5,-36.5 355.5,-0.5 146.5,-0.5"/>
<text text-anchor="start" x="154.5" y="-14.8" font-family="Times,serif" font-size="14.00">KernelSquaredExponential</text>
</g>
<!-- QMCSoftware.qmcpy.kernel.common_kernels.KernelSquaredExponential&#45;&gt;QMCSoftware.qmcpy.kernel.common_kernels.AbstractKernelGaussianSE -->
<g id="edge8" class="edge">
<title>QMCSoftware.qmcpy.kernel.common_kernels.KernelSquaredExponential&#45;&gt;QMCSoftware.qmcpy.kernel.common_kernels.AbstractKernelGaussianSE</title>
<path fill="none" stroke="black" d="M250.76,-36.69C250.64,-44.71 250.51,-54.45 250.38,-63.43"/>
<polygon fill="none" stroke="black" points="246.88,-63.42 250.24,-73.47 253.88,-63.52 246.88,-63.42"/>
</g>
</g>
</svg>
