<?xml version="1.0" encoding="UTF-8" standalone="no"?>
<!DOCTYPE svg PUBLIC "-//W3C//DTD SVG 1.1//EN"
 "http://www.w3.org/Graphics/SVG/1.1/DTD/svg11.dtd">
<!-- Generated by graphviz version 2.43.0 (0)
 -->
<!-- Title: classes Pages: 1 -->
<svg width="2043pt" height="207pt"
 viewBox="0.00 0.00 2043.00 207.00" xmlns="http://www.w3.org/2000/svg" xmlns:xlink="http://www.w3.org/1999/xlink">
<g id="graph0" class="graph" transform="scale(1 1) rotate(0) translate(4 203)">
<title>classes</title>
<polygon fill="white" stroke="transparent" points="-4,4 -4,-203 2039,-203 2039,4 -4,4"/>
<!-- QMCSoftware.qmcpy.stopping_criterion.abstract_cub_bayes_ld_g.AbstractCubBayesLDG -->
<g id="node1" class="node">
<title>QMCSoftware.qmcpy.stopping_criterion.abstract_cub_bayes_ld_g.AbstractCubBayesLDG</title>
<polygon fill="none" stroke="black" points="1548.5,-88.5 1548.5,-124.5 1728.5,-124.5 1728.5,-88.5 1548.5,-88.5"/>
<text text-anchor="start" x="1556.5" y="-102.8" font-family="Times,serif" font-size="14.00">AbstractCubBayesLDG</text>
</g>
<!-- QMCSoftware.qmcpy.stopping_criterion.abstract_stopping_criterion.AbstractStoppingCriterion -->
<g id="node5" class="node">
<title>QMCSoftware.qmcpy.stopping_criterion.abstract_stopping_criterion.AbstractStoppingCriterion</title>
<polygon fill="none" stroke="black" points="784.5,-162.5 784.5,-198.5 990.5,-198.5 990.5,-162.5 784.5,-162.5"/>
<text text-anchor="start" x="792.5" y="-176.8" font-family="Times,serif" font-size="14.00">AbstractStoppingCriterion</text>
</g>
<!-- QMCSoftware.qmcpy.stopping_criterion.abstract_cub_bayes_ld_g.AbstractCubBayesLDG&#45;&gt;QMCSoftware.qmcpy.stopping_criterion.abstract_stopping_criterion.AbstractStoppingCriterion -->
<g id="edge1" class="edge">
<title>QMCSoftware.qmcpy.stopping_criterion.abstract_cub_bayes_ld_g.AbstractCubBayesLDG&#45;&gt;QMCSoftware.qmcpy.stopping_criterion.abstract_stopping_criterion.AbstractStoppingCriterion</title>
<path fill="none" stroke="black" d="M1548.29,-118.9C1530.47,-121.03 1511.91,-123.16 1494.5,-125 1322.56,-143.16 1122.81,-160.34 1000.8,-170.4"/>
<polygon fill="none" stroke="black" points="1000.38,-166.92 990.7,-171.23 1000.95,-173.9 1000.38,-166.92"/>
</g>
<!-- QMCSoftware.qmcpy.stopping_criterion.abstract_cub_mlmc.AbstractCubMLMC -->
<g id="node2" class="node">
<title>QMCSoftware.qmcpy.stopping_criterion.abstract_cub_mlmc.AbstractCubMLMC</title>
<polygon fill="none" stroke="black" points="97.5,-88.5 97.5,-124.5 251.5,-124.5 251.5,-88.5 97.5,-88.5"/>
<text text-anchor="start" x="105.5" y="-102.8" font-family="Times,serif" font-size="14.00">AbstractCubMLMC</text>
</g>
<!-- QMCSoftware.qmcpy.stopping_criterion.abstract_cub_mlmc.AbstractCubMLMC&#45;&gt;QMCSoftware.qmcpy.stopping_criterion.abstract_stopping_criterion.AbstractStoppingCriterion -->
<g id="edge2" class="edge">
<title>QMCSoftware.qmcpy.stopping_criterion.abstract_cub_mlmc.AbstractCubMLMC&#45;&gt;QMCSoftware.qmcpy.stopping_criterion.abstract_stopping_criterion.AbstractStoppingCriterion</title>
<path fill="none" stroke="black" d="M251.8,-116.67C275.73,-119.44 302.2,-122.42 326.5,-125 481.53,-141.45 660.87,-158.54 774.22,-169.09"/>
<polygon fill="none" stroke="black" points="774.02,-172.59 784.3,-170.03 774.67,-165.62 774.02,-172.59"/>
</g>
<!-- QMCSoftware.qmcpy.stopping_criterion.abstract_cub_mlqmc.AbstractCubMLQMC -->
<g id="node3" class="node">
<title>QMCSoftware.qmcpy.stopping_criterion.abstract_cub_mlqmc.AbstractCubMLQMC</title>
<polygon fill="none" stroke="black" points="336,-88.5 336,-124.5 501,-124.5 501,-88.5 336,-88.5"/>
<text text-anchor="start" x="344" y="-102.8" font-family="Times,serif" font-size="14.00">AbstractCubMLQMC</text>
</g>
<!-- QMCSoftware.qmcpy.stopping_criterion.abstract_cub_mlqmc.AbstractCubMLQMC&#45;&gt;QMCSoftware.qmcpy.stopping_criterion.abstract_stopping_criterion.AbstractStoppingCriterion -->
<g id="edge3" class="edge">
<title>QMCSoftware.qmcpy.stopping_criterion.abstract_cub_mlqmc.AbstractCubMLQMC&#45;&gt;QMCSoftware.qmcpy.stopping_criterion.abstract_stopping_criterion.AbstractStoppingCriterion</title>
<path fill="none" stroke="black" d="M501.3,-123.59C504.06,-124.08 506.8,-124.55 509.5,-125 598.2,-139.92 699.04,-154.33 774.25,-164.58"/>
<polygon fill="none" stroke="black" points="773.84,-168.06 784.22,-165.94 774.78,-161.12 773.84,-168.06"/>
</g>
<!-- QMCSoftware.qmcpy.stopping_criterion.abstract_cub_qmc_ld_g.AbstractCubQMCLDG -->
<g id="node4" class="node">
<title>QMCSoftware.qmcpy.stopping_criterion.abstract_cub_qmc_ld_g.AbstractCubQMCLDG</title>
<polygon fill="none" stroke="black" points="519,-88.5 519,-124.5 692,-124.5 692,-88.5 519,-88.5"/>
<text text-anchor="start" x="527" y="-102.8" font-family="Times,serif" font-size="14.00">AbstractCubQMCLDG</text>
</g>
<!-- QMCSoftware.qmcpy.stopping_criterion.abstract_cub_qmc_ld_g.AbstractCubQMCLDG&#45;&gt;QMCSoftware.qmcpy.stopping_criterion.abstract_stopping_criterion.AbstractStoppingCriterion -->
<g id="edge4" class="edge">
<title>QMCSoftware.qmcpy.stopping_criterion.abstract_cub_qmc_ld_g.AbstractCubQMCLDG&#45;&gt;QMCSoftware.qmcpy.stopping_criterion.abstract_stopping_criterion.AbstractStoppingCriterion</title>
<path fill="none" stroke="black" d="M672.33,-124.56C713.88,-135.17 767.45,-148.85 810.74,-159.9"/>
<polygon fill="none" stroke="black" points="810.11,-163.35 820.66,-162.43 811.84,-156.57 810.11,-163.35"/>
</g>
<!-- QMCSoftware.qmcpy.stopping_criterion.cub_mc_clt.CubMCCLT -->
<g id="node6" class="node">
<title>QMCSoftware.qmcpy.stopping_criterion.cub_mc_clt.CubMCCLT</title>
<polygon fill="none" stroke="black" points="710.5,-88.5 710.5,-124.5 808.5,-124.5 808.5,-88.5 710.5,-88.5"/>
<text text-anchor="start" x="718.5" y="-102.8" font-family="Times,serif" font-size="14.00">CubMCCLT</text>
</g>
<!-- QMCSoftware.qmcpy.stopping_criterion.cub_mc_clt.CubMCCLT&#45;&gt;QMCSoftware.qmcpy.stopping_criterion.abstract_stopping_criterion.AbstractStoppingCriterion -->
<g id="edge5" class="edge">
<title>QMCSoftware.qmcpy.stopping_criterion.cub_mc_clt.CubMCCLT&#45;&gt;QMCSoftware.qmcpy.stopping_criterion.abstract_stopping_criterion.AbstractStoppingCriterion</title>
<path fill="none" stroke="black" d="M789.83,-124.56C807.24,-134.35 829.3,-146.76 848.04,-157.3"/>
<polygon fill="none" stroke="black" points="846.51,-160.46 856.94,-162.31 849.94,-154.36 846.51,-160.46"/>
</g>
<!-- QMCSoftware.qmcpy.stopping_criterion.cub_mc_clt_vec.CubMCCLTVec -->
<g id="node7" class="node">
<title>QMCSoftware.qmcpy.stopping_criterion.cub_mc_clt_vec.CubMCCLTVec</title>
<polygon fill="none" stroke="black" points="826.5,-88.5 826.5,-124.5 948.5,-124.5 948.5,-88.5 826.5,-88.5"/>
<text text-anchor="start" x="834.5" y="-102.8" font-family="Times,serif" font-size="14.00">CubMCCLTVec</text>
</g>
<!-- QMCSoftware.qmcpy.stopping_criterion.cub_mc_clt_vec.CubMCCLTVec&#45;&gt;QMCSoftware.qmcpy.stopping_criterion.abstract_stopping_criterion.AbstractStoppingCriterion -->
<g id="edge6" class="edge">
<title>QMCSoftware.qmcpy.stopping_criterion.cub_mc_clt_vec.CubMCCLTVec&#45;&gt;QMCSoftware.qmcpy.stopping_criterion.abstract_stopping_criterion.AbstractStoppingCriterion</title>
<path fill="none" stroke="black" d="M887.5,-124.56C887.5,-132.69 887.5,-142.62 887.5,-151.8"/>
<polygon fill="none" stroke="black" points="884,-152.06 887.5,-162.06 891,-152.06 884,-152.06"/>
</g>
<!-- QMCSoftware.qmcpy.stopping_criterion.cub_mc_g.CubMCG -->
<g id="node8" class="node">
<title>QMCSoftware.qmcpy.stopping_criterion.cub_mc_g.CubMCG</title>
<polygon fill="none" stroke="black" points="967,-88.5 967,-124.5 1048,-124.5 1048,-88.5 967,-88.5"/>
<text text-anchor="start" x="975" y="-102.8" font-family="Times,serif" font-size="14.00">CubMCG</text>
</g>
<!-- QMCSoftware.qmcpy.stopping_criterion.cub_mc_g.CubMCG&#45;&gt;QMCSoftware.qmcpy.stopping_criterion.abstract_stopping_criterion.AbstractStoppingCriterion -->
<g id="edge7" class="edge">
<title>QMCSoftware.qmcpy.stopping_criterion.cub_mc_g.CubMCG&#45;&gt;QMCSoftware.qmcpy.stopping_criterion.abstract_stopping_criterion.AbstractStoppingCriterion</title>
<path fill="none" stroke="black" d="M979.06,-124.56C962.89,-134.27 942.44,-146.53 924.97,-157.02"/>
<polygon fill="none" stroke="black" points="922.92,-154.16 916.15,-162.31 926.53,-160.17 922.92,-154.16"/>
</g>
<!-- QMCSoftware.qmcpy.stopping_criterion.cub_mlmc.CubMLMC -->
<g id="node9" class="node">
<title>QMCSoftware.qmcpy.stopping_criterion.cub_mlmc.CubMLMC</title>
<polygon fill="none" stroke="black" points="0,-0.5 0,-36.5 93,-36.5 93,-0.5 0,-0.5"/>
<text text-anchor="start" x="8" y="-14.8" font-family="Times,serif" font-size="14.00">CubMLMC</text>
</g>
<!-- QMCSoftware.qmcpy.stopping_criterion.cub_mlmc.CubMLMC&#45;&gt;QMCSoftware.qmcpy.stopping_criterion.abstract_cub_mlmc.AbstractCubMLMC -->
<g id="edge8" class="edge">
<title>QMCSoftware.qmcpy.stopping_criterion.cub_mlmc.CubMLMC&#45;&gt;QMCSoftware.qmcpy.stopping_criterion.abstract_cub_mlmc.AbstractCubMLMC</title>
<path fill="none" stroke="black" d="M72.1,-36.7C91.72,-49.88 118.98,-68.2 140.44,-82.62"/>
<polygon fill="none" stroke="black" points="138.7,-85.66 148.95,-88.33 142.6,-79.85 138.7,-85.66"/>
</g>
<!-- QMCSoftware.qmcpy.stopping_criterion.cub_mlmc_cont.CubMLMCCont -->
<g id="node10" class="node">
<title>QMCSoftware.qmcpy.stopping_criterion.cub_mlmc_cont.CubMLMCCont</title>
<polygon fill="none" stroke="black" points="111,-0.5 111,-36.5 238,-36.5 238,-0.5 111,-0.5"/>
<text text-anchor="start" x="119" y="-14.8" font-family="Times,serif" font-size="14.00">CubMLMCCont</text>
</g>
<!-- QMCSoftware.qmcpy.stopping_criterion.cub_mlmc_cont.CubMLMCCont&#45;&gt;QMCSoftware.qmcpy.stopping_criterion.abstract_cub_mlmc.AbstractCubMLMC -->
<g id="edge9" class="edge">
<title>QMCSoftware.qmcpy.stopping_criterion.cub_mlmc_cont.CubMLMCCont&#45;&gt;QMCSoftware.qmcpy.stopping_criterion.abstract_cub_mlmc.AbstractCubMLMC</title>
<path fill="none" stroke="black" d="M174.5,-36.9C174.5,-48.75 174.5,-64.68 174.5,-78.21"/>
<polygon fill="none" stroke="black" points="171,-78.42 174.5,-88.42 178,-78.42 171,-78.42"/>
</g>
<!-- QMCSoftware.qmcpy.stopping_criterion.cub_mlqmc.CubMLQMC -->
<g id="node11" class="node">
<title>QMCSoftware.qmcpy.stopping_criterion.cub_mlqmc.CubMLQMC</title>
<polygon fill="none" stroke="black" points="256.5,-0.5 256.5,-36.5 360.5,-36.5 360.5,-0.5 256.5,-0.5"/>
<text text-anchor="start" x="264.5" y="-14.8" font-family="Times,serif" font-size="14.00">CubMLQMC</text>
</g>
<!-- QMCSoftware.qmcpy.stopping_criterion.cub_mlqmc.CubMLQMC&#45;&gt;QMCSoftware.qmcpy.stopping_criterion.abstract_cub_mlqmc.AbstractCubMLQMC -->
<g id="edge10" class="edge">
<title>QMCSoftware.qmcpy.stopping_criterion.cub_mlqmc.CubMLQMC&#45;&gt;QMCSoftware.qmcpy.stopping_criterion.abstract_cub_mlqmc.AbstractCubMLQMC</title>
<path fill="none" stroke="black" d="M330.5,-36.7C347.13,-49.7 370.16,-67.71 388.49,-82.04"/>
<polygon fill="none" stroke="black" points="386.51,-84.93 396.54,-88.33 390.82,-79.42 386.51,-84.93"/>
</g>
<!-- QMCSoftware.qmcpy.stopping_criterion.cub_mlqmc_cont.CubMLQMCCont -->
<g id="node12" class="node">
<title>QMCSoftware.qmcpy.stopping_criterion.cub_mlqmc_cont.CubMLQMCCont</title>
<polygon fill="none" stroke="black" points="378.5,-0.5 378.5,-36.5 516.5,-36.5 516.5,-0.5 378.5,-0.5"/>
<text text-anchor="start" x="386.5" y="-14.8" font-family="Times,serif" font-size="14.00">CubMLQMCCont</text>
</g>
<!-- QMCSoftware.qmcpy.stopping_criterion.cub_mlqmc_cont.CubMLQMCCont&#45;&gt;QMCSoftware.qmcpy.stopping_criterion.abstract_cub_mlqmc.AbstractCubMLQMC -->
<g id="edge11" class="edge">
<title>QMCSoftware.qmcpy.stopping_criterion.cub_mlqmc_cont.CubMLQMCCont&#45;&gt;QMCSoftware.qmcpy.stopping_criterion.abstract_cub_mlqmc.AbstractCubMLQMC</title>
<path fill="none" stroke="black" d="M441.63,-36.9C437.6,-48.87 432.16,-65 427.57,-78.61"/>
<polygon fill="none" stroke="black" points="424.14,-77.82 424.26,-88.42 430.77,-80.06 424.14,-77.82"/>
</g>
<!-- QMCSoftware.qmcpy.stopping_criterion.cub_qmc_bayes_lattice_g.CubQMCBayesLatticeG -->
<g id="node13" class="node">
<title>QMCSoftware.qmcpy.stopping_criterion.cub_qmc_bayes_lattice_g.CubQMCBayesLatticeG</title>
<polygon fill="none" stroke="black" points="1546,-0.5 1546,-36.5 1731,-36.5 1731,-0.5 1546,-0.5"/>
<text text-anchor="start" x="1554" y="-14.8" font-family="Times,serif" font-size="14.00">CubQMCBayesLatticeG</text>
</g>
<!-- QMCSoftware.qmcpy.stopping_criterion.cub_qmc_bayes_lattice_g.CubQMCBayesLatticeG&#45;&gt;QMCSoftware.qmcpy.stopping_criterion.abstract_cub_bayes_ld_g.AbstractCubBayesLDG -->
<g id="edge12" class="edge">
<title>QMCSoftware.qmcpy.stopping_criterion.cub_qmc_bayes_lattice_g.CubQMCBayesLatticeG&#45;&gt;QMCSoftware.qmcpy.stopping_criterion.abstract_cub_bayes_ld_g.AbstractCubBayesLDG</title>
<path fill="none" stroke="black" d="M1638.5,-36.9C1638.5,-48.75 1638.5,-64.68 1638.5,-78.21"/>
<polygon fill="none" stroke="black" points="1635,-78.42 1638.5,-88.42 1642,-78.42 1635,-78.42"/>
</g>
<!-- QMCSoftware.qmcpy.stopping_criterion.cub_qmc_bayes_net_g.CubQMCBayesNetG -->
<g id="node14" class="node">
<title>QMCSoftware.qmcpy.stopping_criterion.cub_qmc_bayes_net_g.CubQMCBayesNetG</title>
<polygon fill="none" stroke="black" points="1749,-0.5 1749,-36.5 1910,-36.5 1910,-0.5 1749,-0.5"/>
<text text-anchor="start" x="1757" y="-14.8" font-family="Times,serif" font-size="14.00">CubQMCBayesNetG</text>
</g>
<!-- QMCSoftware.qmcpy.stopping_criterion.cub_qmc_bayes_net_g.CubQMCBayesNetG&#45;&gt;QMCSoftware.qmcpy.stopping_criterion.abstract_cub_bayes_ld_g.AbstractCubBayesLDG -->
<g id="edge13" class="edge">
<title>QMCSoftware.qmcpy.stopping_criterion.cub_qmc_bayes_net_g.CubQMCBayesNetG&#45;&gt;QMCSoftware.qmcpy.stopping_criterion.abstract_cub_bayes_ld_g.AbstractCubBayesLDG</title>
<path fill="none" stroke="black" d="M1791.31,-36.7C1760.89,-50.39 1718.16,-69.63 1685.62,-84.28"/>
<polygon fill="none" stroke="black" points="1683.98,-81.18 1676.3,-88.48 1686.86,-87.57 1683.98,-81.18"/>
</g>
<!-- QMCSoftware.qmcpy.stopping_criterion.cub_qmc_lattice_g.CubQMCLatticeG -->
<g id="node15" class="node">
<title>QMCSoftware.qmcpy.stopping_criterion.cub_qmc_lattice_g.CubQMCLatticeG</title>
<polygon fill="none" stroke="black" points="534.5,-0.5 534.5,-36.5 676.5,-36.5 676.5,-0.5 534.5,-0.5"/>
<text text-anchor="start" x="542.5" y="-14.8" font-family="Times,serif" font-size="14.00">CubQMCLatticeG</text>
</g>
<!-- QMCSoftware.qmcpy.stopping_criterion.cub_qmc_lattice_g.CubQMCLatticeG&#45;&gt;QMCSoftware.qmcpy.stopping_criterion.abstract_cub_qmc_ld_g.AbstractCubQMCLDG -->
<g id="edge14" class="edge">
<title>QMCSoftware.qmcpy.stopping_criterion.cub_qmc_lattice_g.CubQMCLatticeG&#45;&gt;QMCSoftware.qmcpy.stopping_criterion.abstract_cub_qmc_ld_g.AbstractCubQMCLDG</title>
<path fill="none" stroke="black" d="M605.5,-36.9C605.5,-48.75 605.5,-64.68 605.5,-78.21"/>
<polygon fill="none" stroke="black" points="602,-78.42 605.5,-88.42 609,-78.42 602,-78.42"/>
</g>
<!-- QMCSoftware.qmcpy.stopping_criterion.cub_qmc_net_g.CubQMCNetG -->
<g id="node16" class="node">
<title>QMCSoftware.qmcpy.stopping_criterion.cub_qmc_net_g.CubQMCNetG</title>
<polygon fill="none" stroke="black" points="695,-0.5 695,-36.5 814,-36.5 814,-0.5 695,-0.5"/>
<text text-anchor="start" x="703" y="-14.8" font-family="Times,serif" font-size="14.00">CubQMCNetG</text>
</g>
<!-- QMCSoftware.qmcpy.stopping_criterion.cub_qmc_net_g.CubQMCNetG&#45;&gt;QMCSoftware.qmcpy.stopping_criterion.abstract_cub_qmc_ld_g.AbstractCubQMCLDG -->
<g id="edge15" class="edge">
<title>QMCSoftware.qmcpy.stopping_criterion.cub_qmc_net_g.CubQMCNetG&#45;&gt;QMCSoftware.qmcpy.stopping_criterion.abstract_cub_qmc_ld_g.AbstractCubQMCLDG</title>
<path fill="none" stroke="black" d="M724.71,-36.7C701.49,-50.1 669.07,-68.81 643.9,-83.33"/>
<polygon fill="none" stroke="black" points="641.9,-80.45 634.99,-88.48 645.4,-86.51 641.9,-80.45"/>
</g>
<!-- QMCSoftware.qmcpy.stopping_criterion.cub_qmc_rep_student_t.CubQMCRepStudentT -->
<g id="node17" class="node">
<title>QMCSoftware.qmcpy.stopping_criterion.cub_qmc_rep_student_t.CubQMCRepStudentT</title>
<polygon fill="none" stroke="black" points="1066,-88.5 1066,-124.5 1241,-124.5 1241,-88.5 1066,-88.5"/>
<text text-anchor="start" x="1074" y="-102.8" font-family="Times,serif" font-size="14.00">CubQMCRepStudentT</text>
</g>
<!-- QMCSoftware.qmcpy.stopping_criterion.cub_qmc_rep_student_t.CubQMCRepStudentT&#45;&gt;QMCSoftware.qmcpy.stopping_criterion.abstract_stopping_criterion.AbstractStoppingCriterion -->
<g id="edge16" class="edge">
<title>QMCSoftware.qmcpy.stopping_criterion.cub_qmc_rep_student_t.CubQMCRepStudentT&#45;&gt;QMCSoftware.qmcpy.stopping_criterion.abstract_stopping_criterion.AbstractStoppingCriterion</title>
<path fill="none" stroke="black" d="M1090.46,-124.56C1051.43,-135.13 1001.16,-148.73 960.42,-159.76"/>
<polygon fill="none" stroke="black" points="959.28,-156.44 950.55,-162.43 961.11,-163.2 959.28,-156.44"/>
</g>
<!-- QMCSoftware.qmcpy.stopping_criterion.pf_gp_ci.PFGPCI -->
<g id="node18" class="node">
<title>QMCSoftware.qmcpy.stopping_criterion.pf_gp_ci.PFGPCI</title>
<polygon fill="none" stroke="black" points="1259,-88.5 1259,-124.5 1332,-124.5 1332,-88.5 1259,-88.5"/>
<text text-anchor="start" x="1267" y="-102.8" font-family="Times,serif" font-size="14.00">PFGPCI</text>
</g>
<!-- QMCSoftware.qmcpy.stopping_criterion.pf_gp_ci.PFGPCI&#45;&gt;QMCSoftware.qmcpy.stopping_criterion.abstract_stopping_criterion.AbstractStoppingCriterion -->
<g id="edge17" class="edge">
<title>QMCSoftware.qmcpy.stopping_criterion.pf_gp_ci.PFGPCI&#45;&gt;QMCSoftware.qmcpy.stopping_criterion.abstract_stopping_criterion.AbstractStoppingCriterion</title>
<path fill="none" stroke="black" d="M1258.82,-122.25C1255.69,-123.26 1252.56,-124.2 1249.5,-125 1167.59,-146.48 1072.89,-160.36 1000.9,-168.74"/>
<polygon fill="none" stroke="black" points="1000.43,-165.27 990.89,-169.89 1001.22,-172.23 1000.43,-165.27"/>
</g>
<!-- QMCSoftware.qmcpy.stopping_criterion.pf_gp_ci.PFGPCIData -->
<g id="node19" class="node">
<title>QMCSoftware.qmcpy.stopping_criterion.pf_gp_ci.PFGPCIData</title>
<polygon fill="none" stroke="black" points="1928,-0.5 1928,-36.5 2035,-36.5 2035,-0.5 1928,-0.5"/>
<text text-anchor="start" x="1936" y="-14.8" font-family="Times,serif" font-size="14.00">PFGPCIData</text>
</g>
<!-- QMCSoftware.qmcpy.stopping_criterion.pf_gp_ci.PFSampleErrorDensityAR -->
<g id="node20" class="node">
<title>QMCSoftware.qmcpy.stopping_criterion.pf_gp_ci.PFSampleErrorDensityAR</title>
<polygon fill="none" stroke="black" points="1166,-0.5 1166,-36.5 1369,-36.5 1369,-0.5 1166,-0.5"/>
<text text-anchor="start" x="1174" y="-14.8" font-family="Times,serif" font-size="14.00">PFSampleErrorDensityAR</text>
</g>
<!-- QMCSoftware.qmcpy.stopping_criterion.pf_gp_ci.PFSampleErrorDensityAR&#45;&gt;QMCSoftware.qmcpy.stopping_criterion.pf_gp_ci.PFGPCI -->
<g id="edge20" class="edge">
<title>QMCSoftware.qmcpy.stopping_criterion.pf_gp_ci.PFSampleErrorDensityAR&#45;&gt;QMCSoftware.qmcpy.stopping_criterion.pf_gp_ci.PFGPCI</title>
<path fill="none" stroke="black" d="M1273.17,-36.9C1276.91,-48.4 1281.9,-63.74 1286.22,-77"/>
<polygon fill="none" stroke="black" points="1286.22,-77.01 1291.88,-81.47 1289.94,-88.42 1284.28,-83.95 1286.22,-77.01"/>
<text text-anchor="middle" x="1336" y="-58.8" font-family="Times,serif" font-size="14.00" fill="green">batch_sampler</text>
</g>
<!-- QMCSoftware.qmcpy.stopping_criterion.pf_gp_ci.Suggester -->
<g id="node21" class="node">
<title>QMCSoftware.qmcpy.stopping_criterion.pf_gp_ci.Suggester</title>
<polygon fill="none" stroke="black" points="1395.5,-88.5 1395.5,-124.5 1485.5,-124.5 1485.5,-88.5 1395.5,-88.5"/>
<text text-anchor="start" x="1403.5" y="-102.8" font-family="Times,serif" font-size="14.00">Suggester</text>
</g>
<!-- QMCSoftware.qmcpy.stopping_criterion.pf_gp_ci.PFSampleErrorDensityAR&#45;&gt;QMCSoftware.qmcpy.stopping_criterion.pf_gp_ci.Suggester -->
<g id="edge18" class="edge">
<title>QMCSoftware.qmcpy.stopping_criterion.pf_gp_ci.PFSampleErrorDensityAR&#45;&gt;QMCSoftware.qmcpy.stopping_criterion.pf_gp_ci.Suggester</title>
<path fill="none" stroke="black" d="M1351.13,-36.52C1365.5,-41.3 1379.85,-47.36 1392.5,-55 1403.39,-61.58 1413.43,-71.28 1421.49,-80.42"/>
<polygon fill="none" stroke="black" points="1418.92,-82.81 1428.03,-88.22 1424.28,-78.31 1418.92,-82.81"/>
</g>
<!-- QMCSoftware.qmcpy.stopping_criterion.pf_gp_ci.SuggesterSimple -->
<g id="node22" class="node">
<title>QMCSoftware.qmcpy.stopping_criterion.pf_gp_ci.SuggesterSimple</title>
<polygon fill="none" stroke="black" points="1387.5,-0.5 1387.5,-36.5 1527.5,-36.5 1527.5,-0.5 1387.5,-0.5"/>
<text text-anchor="start" x="1395.5" y="-14.8" font-family="Times,serif" font-size="14.00">SuggesterSimple</text>
</g>
<!-- QMCSoftware.qmcpy.stopping_criterion.pf_gp_ci.SuggesterSimple&#45;&gt;QMCSoftware.qmcpy.stopping_criterion.pf_gp_ci.Suggester -->
<g id="edge19" class="edge">
<title>QMCSoftware.qmcpy.stopping_criterion.pf_gp_ci.SuggesterSimple&#45;&gt;QMCSoftware.qmcpy.stopping_criterion.pf_gp_ci.Suggester</title>
<path fill="none" stroke="black" d="M1454.06,-36.9C1451.72,-48.75 1448.57,-64.68 1445.89,-78.21"/>
<polygon fill="none" stroke="black" points="1442.38,-77.93 1443.88,-88.42 1449.25,-79.28 1442.38,-77.93"/>
</g>
</g>
</svg>
