<?xml version="1.0" encoding="UTF-8" standalone="no"?>
<!DOCTYPE svg PUBLIC "-//W3C//DTD SVG 1.1//EN"
 "http://www.w3.org/Graphics/SVG/1.1/DTD/svg11.dtd">
<!-- Generated by graphviz version 2.43.0 (0)
 -->
<!-- Title: classes Pages: 1 -->
<svg width="1213pt" height="909pt"
 viewBox="0.00 0.00 1213.00 909.00" xmlns="http://www.w3.org/2000/svg" xmlns:xlink="http://www.w3.org/1999/xlink">
<g id="graph0" class="graph" transform="scale(1 1) rotate(0) translate(4 905)">
<title>classes</title>
<polygon fill="white" stroke="transparent" points="-4,4 -4,-905 1209,-905 1209,4 -4,4"/>
<!-- QMCSoftware.qmcpy.true_measure.abstract_true_measure.AbstractTrueMeasure -->
<g id="node1" class="node">
<title>QMCSoftware.qmcpy.true_measure.abstract_true_measure.AbstractTrueMeasure</title>
<polygon fill="none" stroke="black" points="462,-756.5 462,-900.5 859,-900.5 859,-756.5 462,-756.5"/>
<text text-anchor="start" x="582" y="-885.3" font-family="Times,serif" font-size="14.00">AbstractTrueMeasure</text>
<polyline fill="none" stroke="black" points="462,-877.5 859,-877.5 "/>
<text text-anchor="start" x="553.5" y="-862.3" font-family="Times,serif" font-size="14.00">d</text>
<text text-anchor="start" x="553.5" y="-847.3" font-family="Times,serif" font-size="14.00">discrete_distrib</text>
<text text-anchor="start" x="553.5" y="-832.3" font-family="Times,serif" font-size="14.00">parameters : list</text>
<text text-anchor="start" x="553.5" y="-817.3" font-family="Times,serif" font-size="14.00">sub_compatibility_error : bool</text>
<text text-anchor="start" x="553.5" y="-802.3" font-family="Times,serif" font-size="14.00">transform</text>
<polyline fill="none" stroke="black" points="462,-794.5 859,-794.5 "/>
<text text-anchor="start" x="470" y="-779.3" font-family="Times,serif" font-size="14.00">gen_samples(n, n_min, n_max, return_weights, warn)</text>
<text text-anchor="start" x="470" y="-764.3" font-family="Times,serif" font-size="14.00">spawn(s, dimensions)</text>
</g>
<!-- QMCSoftware.qmcpy.true_measure.abstract_true_measure.AbstractTrueMeasure&#45;&gt;QMCSoftware.qmcpy.true_measure.abstract_true_measure.AbstractTrueMeasure -->
<g id="edge11" class="edge">
<title>QMCSoftware.qmcpy.true_measure.abstract_true_measure.AbstractTrueMeasure&#45;&gt;QMCSoftware.qmcpy.true_measure.abstract_true_measure.AbstractTrueMeasure</title>
<path fill="none" stroke="black" d="M859.16,-817.11C870.34,-819.87 877,-823.67 877,-828.5 877,-831.29 874.77,-833.74 870.73,-835.84"/>
<polygon fill="none" stroke="black" points="870.49,-835.93 866.14,-841.68 859.16,-839.89 863.51,-834.13 870.49,-835.93"/>
<text text-anchor="middle" x="913" y="-824.8" font-family="Times,serif" font-size="14.00" fill="green">transform</text>
</g>
<!-- QMCSoftware.qmcpy.true_measure.bernoulli_cont.BernoulliCont -->
<g id="node2" class="node">
<title>QMCSoftware.qmcpy.true_measure.bernoulli_cont.BernoulliCont</title>
<polygon fill="none" stroke="black" points="108,-544.5 108,-673.5 247,-673.5 247,-544.5 108,-544.5"/>
<text text-anchor="start" x="127.5" y="-658.3" font-family="Times,serif" font-size="14.00">BernoulliCont</text>
<polyline fill="none" stroke="black" points="108,-650.5 247,-650.5 "/>
<text text-anchor="start" x="116" y="-635.3" font-family="Times,serif" font-size="14.00">domain : ndarray</text>
<text text-anchor="start" x="116" y="-620.3" font-family="Times,serif" font-size="14.00">l : ndarray</text>
<text text-anchor="start" x="116" y="-605.3" font-family="Times,serif" font-size="14.00">lam : float</text>
<text text-anchor="start" x="116" y="-590.3" font-family="Times,serif" font-size="14.00">parameters : list</text>
<text text-anchor="start" x="116" y="-575.3" font-family="Times,serif" font-size="14.00">range : ndarray</text>
<polyline fill="none" stroke="black" points="108,-567.5 247,-567.5 "/>
<text text-anchor="start" x="175" y="-552.3" font-family="Times,serif" font-size="14.00"> </text>
</g>
<!-- QMCSoftware.qmcpy.true_measure.bernoulli_cont.BernoulliCont&#45;&gt;QMCSoftware.qmcpy.true_measure.abstract_true_measure.AbstractTrueMeasure -->
<g id="edge1" class="edge">
<title>QMCSoftware.qmcpy.true_measure.bernoulli_cont.BernoulliCont&#45;&gt;QMCSoftware.qmcpy.true_measure.abstract_true_measure.AbstractTrueMeasure</title>
<path fill="none" stroke="black" d="M212.04,-673.58C223.86,-690.44 238.47,-707.21 255.5,-719 313.25,-759 385.01,-784.26 452.02,-800.21"/>
<polygon fill="none" stroke="black" points="451.33,-803.64 461.87,-802.49 452.92,-796.82 451.33,-803.64"/>
</g>
<!-- QMCSoftware.qmcpy.true_measure.brownian_motion.BrownianMotion -->
<g id="node3" class="node">
<title>QMCSoftware.qmcpy.true_measure.brownian_motion.BrownianMotion</title>
<polygon fill="none" stroke="black" points="106,-257.5 106,-461.5 291,-461.5 291,-257.5 106,-257.5"/>
<text text-anchor="start" x="139" y="-446.3" font-family="Times,serif" font-size="14.00">BrownianMotion</text>
<polyline fill="none" stroke="black" points="106,-438.5 291,-438.5 "/>
<text text-anchor="start" x="114" y="-423.3" font-family="Times,serif" font-size="14.00">diffused_sigma_bm</text>
<text text-anchor="start" x="114" y="-408.3" font-family="Times,serif" font-size="14.00">diffusion : int</text>
<text text-anchor="start" x="114" y="-393.3" font-family="Times,serif" font-size="14.00">domain : ndarray</text>
<text text-anchor="start" x="114" y="-378.3" font-family="Times,serif" font-size="14.00">drift : int</text>
<text text-anchor="start" x="114" y="-363.3" font-family="Times,serif" font-size="14.00">drift_time_vec_plus_init</text>
<text text-anchor="start" x="114" y="-348.3" font-family="Times,serif" font-size="14.00">initial_value : int</text>
<text text-anchor="start" x="114" y="-333.3" font-family="Times,serif" font-size="14.00">parameters : list</text>
<text text-anchor="start" x="114" y="-318.3" font-family="Times,serif" font-size="14.00">range : ndarray</text>
<text text-anchor="start" x="114" y="-303.3" font-family="Times,serif" font-size="14.00">t : int</text>
<text text-anchor="start" x="114" y="-288.3" font-family="Times,serif" font-size="14.00">time_vec : ndarray</text>
<polyline fill="none" stroke="black" points="106,-280.5 291,-280.5 "/>
<text text-anchor="start" x="196" y="-265.3" font-family="Times,serif" font-size="14.00"> </text>
</g>
<!-- QMCSoftware.qmcpy.true_measure.gaussian.Gaussian -->
<g id="node4" class="node">
<title>QMCSoftware.qmcpy.true_measure.gaussian.Gaussian</title>
<polygon fill="none" stroke="black" points="265,-499.5 265,-718.5 416,-718.5 416,-499.5 265,-499.5"/>
<text text-anchor="start" x="307.5" y="-703.3" font-family="Times,serif" font-size="14.00">Gaussian</text>
<polyline fill="none" stroke="black" points="265,-695.5 416,-695.5 "/>
<text text-anchor="start" x="273" y="-680.3" font-family="Times,serif" font-size="14.00">a</text>
<text text-anchor="start" x="273" y="-665.3" font-family="Times,serif" font-size="14.00">covariance</text>
<text text-anchor="start" x="273" y="-650.3" font-family="Times,serif" font-size="14.00">decomp_type</text>
<text text-anchor="start" x="273" y="-635.3" font-family="Times,serif" font-size="14.00">domain : ndarray</text>
<text text-anchor="start" x="273" y="-620.3" font-family="Times,serif" font-size="14.00">lazy_decomp : bool</text>
<text text-anchor="start" x="273" y="-605.3" font-family="Times,serif" font-size="14.00">mean</text>
<text text-anchor="start" x="273" y="-590.3" font-family="Times,serif" font-size="14.00">mu : ndarray</text>
<text text-anchor="start" x="273" y="-575.3" font-family="Times,serif" font-size="14.00">mvn_scipy</text>
<text text-anchor="start" x="273" y="-560.3" font-family="Times,serif" font-size="14.00">parameters : list</text>
<text text-anchor="start" x="273" y="-545.3" font-family="Times,serif" font-size="14.00">range : ndarray</text>
<text text-anchor="start" x="273" y="-530.3" font-family="Times,serif" font-size="14.00">sigma : ndarray</text>
<polyline fill="none" stroke="black" points="265,-522.5 416,-522.5 "/>
<text text-anchor="start" x="338" y="-507.3" font-family="Times,serif" font-size="14.00"> </text>
</g>
<!-- QMCSoftware.qmcpy.true_measure.brownian_motion.BrownianMotion&#45;&gt;QMCSoftware.qmcpy.true_measure.gaussian.Gaussian -->
<g id="edge2" class="edge">
<title>QMCSoftware.qmcpy.true_measure.brownian_motion.BrownianMotion&#45;&gt;QMCSoftware.qmcpy.true_measure.gaussian.Gaussian</title>
<path fill="none" stroke="black" d="M256.46,-461.52C261.92,-471.04 267.49,-480.75 273.03,-490.4"/>
<polygon fill="none" stroke="black" points="270.09,-492.31 278.1,-499.24 276.16,-488.83 270.09,-492.31"/>
</g>
<!-- QMCSoftware.qmcpy.true_measure.gaussian.Gaussian&#45;&gt;QMCSoftware.qmcpy.true_measure.abstract_true_measure.AbstractTrueMeasure -->
<g id="edge3" class="edge">
<title>QMCSoftware.qmcpy.true_measure.gaussian.Gaussian&#45;&gt;QMCSoftware.qmcpy.true_measure.abstract_true_measure.AbstractTrueMeasure</title>
<path fill="none" stroke="black" d="M416.22,-711.99C418.93,-714.42 421.7,-716.77 424.5,-719 439.22,-730.72 455.41,-741.51 472.2,-751.35"/>
<polygon fill="none" stroke="black" points="470.61,-754.47 481.03,-756.41 474.09,-748.4 470.61,-754.47"/>
</g>
<!-- QMCSoftware.qmcpy.true_measure.geometric_brownian_motion.GeometricBrownianMotion -->
<g id="node5" class="node">
<title>QMCSoftware.qmcpy.true_measure.geometric_brownian_motion.GeometricBrownianMotion</title>
<polygon fill="none" stroke="black" points="0,-0.5 0,-219.5 397,-219.5 397,-0.5 0,-0.5"/>
<text text-anchor="start" x="102" y="-204.3" font-family="Times,serif" font-size="14.00">GeometricBrownianMotion</text>
<polyline fill="none" stroke="black" points="0,-196.5 397,-196.5 "/>
<text text-anchor="start" x="75.5" y="-181.3" font-family="Times,serif" font-size="14.00">covariance_gbm</text>
<text text-anchor="start" x="75.5" y="-166.3" font-family="Times,serif" font-size="14.00">diffusion : int</text>
<text text-anchor="start" x="75.5" y="-151.3" font-family="Times,serif" font-size="14.00">drift : int</text>
<text text-anchor="start" x="75.5" y="-136.3" font-family="Times,serif" font-size="14.00">initial_value : int</text>
<text text-anchor="start" x="75.5" y="-121.3" font-family="Times,serif" font-size="14.00">large_step_threshold : int</text>
<text text-anchor="start" x="75.5" y="-106.3" font-family="Times,serif" font-size="14.00">lazy_decomp : bool</text>
<text text-anchor="start" x="75.5" y="-91.3" font-family="Times,serif" font-size="14.00">lazy_load : bool</text>
<text text-anchor="start" x="75.5" y="-76.3" font-family="Times,serif" font-size="14.00">log_mvn_scipy</text>
<text text-anchor="start" x="75.5" y="-61.3" font-family="Times,serif" font-size="14.00">mean_gbm</text>
<text text-anchor="start" x="75.5" y="-46.3" font-family="Times,serif" font-size="14.00">parameters : list</text>
<text text-anchor="start" x="75.5" y="-31.3" font-family="Times,serif" font-size="14.00">use_large_step_optimization : bool</text>
<polyline fill="none" stroke="black" points="0,-23.5 397,-23.5 "/>
<text text-anchor="start" x="8" y="-8.3" font-family="Times,serif" font-size="14.00">gen_samples(n, n_min, n_max, return_weights, warn)</text>
</g>
<!-- QMCSoftware.qmcpy.true_measure.geometric_brownian_motion.GeometricBrownianMotion&#45;&gt;QMCSoftware.qmcpy.true_measure.brownian_motion.BrownianMotion -->
<g id="edge4" class="edge">
<title>QMCSoftware.qmcpy.true_measure.geometric_brownian_motion.GeometricBrownianMotion&#45;&gt;QMCSoftware.qmcpy.true_measure.brownian_motion.BrownianMotion</title>
<path fill="none" stroke="black" d="M198.5,-219.56C198.5,-228.81 198.5,-238.18 198.5,-247.45"/>
<polygon fill="none" stroke="black" points="195,-247.46 198.5,-257.46 202,-247.46 195,-247.46"/>
</g>
<!-- QMCSoftware.qmcpy.true_measure.johnsons_su.JohnsonsSU -->
<g id="node6" class="node">
<title>QMCSoftware.qmcpy.true_measure.johnsons_su.JohnsonsSU</title>
<polygon fill="none" stroke="black" points="434,-529.5 434,-688.5 573,-688.5 573,-529.5 434,-529.5"/>
<text text-anchor="start" x="460.5" y="-673.3" font-family="Times,serif" font-size="14.00">JohnsonsSU</text>
<polyline fill="none" stroke="black" points="434,-665.5 573,-665.5 "/>
<text text-anchor="start" x="442" y="-650.3" font-family="Times,serif" font-size="14.00">delta : int</text>
<text text-anchor="start" x="442" y="-635.3" font-family="Times,serif" font-size="14.00">domain : ndarray</text>
<text text-anchor="start" x="442" y="-620.3" font-family="Times,serif" font-size="14.00">gamma : int</text>
<text text-anchor="start" x="442" y="-605.3" font-family="Times,serif" font-size="14.00">lam : int</text>
<text text-anchor="start" x="442" y="-590.3" font-family="Times,serif" font-size="14.00">parameters : list</text>
<text text-anchor="start" x="442" y="-575.3" font-family="Times,serif" font-size="14.00">range : ndarray</text>
<text text-anchor="start" x="442" y="-560.3" font-family="Times,serif" font-size="14.00">xi : int</text>
<polyline fill="none" stroke="black" points="434,-552.5 573,-552.5 "/>
<text text-anchor="start" x="501" y="-537.3" font-family="Times,serif" font-size="14.00"> </text>
</g>
<!-- QMCSoftware.qmcpy.true_measure.johnsons_su.JohnsonsSU&#45;&gt;QMCSoftware.qmcpy.true_measure.abstract_true_measure.AbstractTrueMeasure -->
<g id="edge5" class="edge">
<title>QMCSoftware.qmcpy.true_measure.johnsons_su.JohnsonsSU&#45;&gt;QMCSoftware.qmcpy.true_measure.abstract_true_measure.AbstractTrueMeasure</title>
<path fill="none" stroke="black" d="M559.66,-688.64C566.99,-698.87 574.42,-709.19 581.5,-719 588.32,-728.45 595.49,-738.34 602.61,-748.15"/>
<polygon fill="none" stroke="black" points="599.86,-750.32 608.57,-756.36 605.53,-746.21 599.86,-750.32"/>
</g>
<!-- QMCSoftware.qmcpy.true_measure.kumaraswamy.Kumaraswamy -->
<g id="node7" class="node">
<title>QMCSoftware.qmcpy.true_measure.kumaraswamy.Kumaraswamy</title>
<polygon fill="none" stroke="black" points="591,-529.5 591,-688.5 730,-688.5 730,-529.5 591,-529.5"/>
<text text-anchor="start" x="607.5" y="-673.3" font-family="Times,serif" font-size="14.00">Kumaraswamy</text>
<polyline fill="none" stroke="black" points="591,-665.5 730,-665.5 "/>
<text text-anchor="start" x="599" y="-650.3" font-family="Times,serif" font-size="14.00">a : int</text>
<text text-anchor="start" x="599" y="-635.3" font-family="Times,serif" font-size="14.00">alpha : ndarray</text>
<text text-anchor="start" x="599" y="-620.3" font-family="Times,serif" font-size="14.00">b : int</text>
<text text-anchor="start" x="599" y="-605.3" font-family="Times,serif" font-size="14.00">beta : ndarray</text>
<text text-anchor="start" x="599" y="-590.3" font-family="Times,serif" font-size="14.00">domain : ndarray</text>
<text text-anchor="start" x="599" y="-575.3" font-family="Times,serif" font-size="14.00">parameters : list</text>
<text text-anchor="start" x="599" y="-560.3" font-family="Times,serif" font-size="14.00">range : ndarray</text>
<polyline fill="none" stroke="black" points="591,-552.5 730,-552.5 "/>
<text text-anchor="start" x="658" y="-537.3" font-family="Times,serif" font-size="14.00"> </text>
</g>
<!-- QMCSoftware.qmcpy.true_measure.kumaraswamy.Kumaraswamy&#45;&gt;QMCSoftware.qmcpy.true_measure.abstract_true_measure.AbstractTrueMeasure -->
<g id="edge6" class="edge">
<title>QMCSoftware.qmcpy.true_measure.kumaraswamy.Kumaraswamy&#45;&gt;QMCSoftware.qmcpy.true_measure.abstract_true_measure.AbstractTrueMeasure</title>
<path fill="none" stroke="black" d="M660.5,-688.52C660.5,-707.29 660.5,-727.37 660.5,-746.26"/>
<polygon fill="none" stroke="black" points="657,-746.32 660.5,-756.32 664,-746.32 657,-746.32"/>
</g>
<!-- QMCSoftware.qmcpy.true_measure.lebesgue.Lebesgue -->
<g id="node8" class="node">
<title>QMCSoftware.qmcpy.true_measure.lebesgue.Lebesgue</title>
<polygon fill="none" stroke="black" points="748,-559.5 748,-658.5 883,-658.5 883,-559.5 748,-559.5"/>
<text text-anchor="start" x="781" y="-643.3" font-family="Times,serif" font-size="14.00">Lebesgue</text>
<polyline fill="none" stroke="black" points="748,-635.5 883,-635.5 "/>
<text text-anchor="start" x="756" y="-620.3" font-family="Times,serif" font-size="14.00">domain</text>
<text text-anchor="start" x="756" y="-605.3" font-family="Times,serif" font-size="14.00">parameters : list</text>
<text text-anchor="start" x="756" y="-590.3" font-family="Times,serif" font-size="14.00">range</text>
<polyline fill="none" stroke="black" points="748,-582.5 883,-582.5 "/>
<text text-anchor="start" x="813" y="-567.3" font-family="Times,serif" font-size="14.00"> </text>
</g>
<!-- QMCSoftware.qmcpy.true_measure.lebesgue.Lebesgue&#45;&gt;QMCSoftware.qmcpy.true_measure.abstract_true_measure.AbstractTrueMeasure -->
<g id="edge7" class="edge">
<title>QMCSoftware.qmcpy.true_measure.lebesgue.Lebesgue&#45;&gt;QMCSoftware.qmcpy.true_measure.abstract_true_measure.AbstractTrueMeasure</title>
<path fill="none" stroke="black" d="M781.28,-658.62C767.96,-677.5 752.55,-699.28 738.5,-719 731.77,-728.45 724.69,-738.34 717.66,-748.15"/>
<polygon fill="none" stroke="black" points="714.76,-746.19 711.77,-756.36 720.44,-750.27 714.76,-746.19"/>
</g>
<!-- QMCSoftware.qmcpy.true_measure.matern_gp.MaternGP -->
<g id="node9" class="node">
<title>QMCSoftware.qmcpy.true_measure.matern_gp.MaternGP</title>
<polygon fill="none" stroke="black" points="309,-302.5 309,-416.5 484,-416.5 484,-302.5 309,-302.5"/>
<text text-anchor="start" x="359.5" y="-401.3" font-family="Times,serif" font-size="14.00">MaternGP</text>
<polyline fill="none" stroke="black" points="309,-393.5 484,-393.5 "/>
<text text-anchor="start" x="317" y="-378.3" font-family="Times,serif" font-size="14.00">length_scale : ndarray</text>
<text text-anchor="start" x="317" y="-363.3" font-family="Times,serif" font-size="14.00">nu : float</text>
<text text-anchor="start" x="317" y="-348.3" font-family="Times,serif" font-size="14.00">points</text>
<text text-anchor="start" x="317" y="-333.3" font-family="Times,serif" font-size="14.00">variance : float</text>
<polyline fill="none" stroke="black" points="309,-325.5 484,-325.5 "/>
<text text-anchor="start" x="394" y="-310.3" font-family="Times,serif" font-size="14.00"> </text>
</g>
<!-- QMCSoftware.qmcpy.true_measure.matern_gp.MaternGP&#45;&gt;QMCSoftware.qmcpy.true_measure.gaussian.Gaussian -->
<g id="edge8" class="edge">
<title>QMCSoftware.qmcpy.true_measure.matern_gp.MaternGP&#45;&gt;QMCSoftware.qmcpy.true_measure.gaussian.Gaussian</title>
<path fill="none" stroke="black" d="M383.79,-416.66C378.89,-438.32 373.09,-463.96 367.35,-489.31"/>
<polygon fill="none" stroke="black" points="363.87,-488.86 365.08,-499.39 370.7,-490.41 363.87,-488.86"/>
</g>
<!-- QMCSoftware.qmcpy.true_measure.scipy_wrapper.SciPyWrapper -->
<g id="node10" class="node">
<title>QMCSoftware.qmcpy.true_measure.scipy_wrapper.SciPyWrapper</title>
<polygon fill="none" stroke="black" points="901,-552 901,-666 1044,-666 1044,-552 901,-552"/>
<text text-anchor="start" x="921.5" y="-650.8" font-family="Times,serif" font-size="14.00">SciPyWrapper</text>
<polyline fill="none" stroke="black" points="901,-643 1044,-643 "/>
<text text-anchor="start" x="909" y="-627.8" font-family="Times,serif" font-size="14.00">domain : ndarray</text>
<text text-anchor="start" x="909" y="-612.8" font-family="Times,serif" font-size="14.00">range : ndarray</text>
<text text-anchor="start" x="909" y="-597.8" font-family="Times,serif" font-size="14.00">scipy_distrib : list</text>
<text text-anchor="start" x="909" y="-582.8" font-family="Times,serif" font-size="14.00">sds : list</text>
<polyline fill="none" stroke="black" points="901,-575 1044,-575 "/>
<text text-anchor="start" x="970" y="-559.8" font-family="Times,serif" font-size="14.00"> </text>
</g>
<!-- QMCSoftware.qmcpy.true_measure.scipy_wrapper.SciPyWrapper&#45;&gt;QMCSoftware.qmcpy.true_measure.abstract_true_measure.AbstractTrueMeasure -->
<g id="edge9" class="edge">
<title>QMCSoftware.qmcpy.true_measure.scipy_wrapper.SciPyWrapper&#45;&gt;QMCSoftware.qmcpy.true_measure.abstract_true_measure.AbstractTrueMeasure</title>
<path fill="none" stroke="black" d="M938.86,-666.03C925.78,-684.58 909.57,-704.23 891.5,-719 877.32,-730.6 861.69,-741.28 845.46,-751.03"/>
<polygon fill="none" stroke="black" points="843.24,-748.28 836.38,-756.36 846.78,-754.32 843.24,-748.28"/>
</g>
<!-- QMCSoftware.qmcpy.true_measure.uniform.Uniform -->
<g id="node11" class="node">
<title>QMCSoftware.qmcpy.true_measure.uniform.Uniform</title>
<polygon fill="none" stroke="black" points="1062,-514.5 1062,-703.5 1205,-703.5 1205,-514.5 1062,-514.5"/>
<text text-anchor="start" x="1103.5" y="-688.3" font-family="Times,serif" font-size="14.00">Uniform</text>
<polyline fill="none" stroke="black" points="1062,-680.5 1205,-680.5 "/>
<text text-anchor="start" x="1070" y="-665.3" font-family="Times,serif" font-size="14.00">a : ndarray</text>
<text text-anchor="start" x="1070" y="-650.3" font-family="Times,serif" font-size="14.00">b : ndarray</text>
<text text-anchor="start" x="1070" y="-635.3" font-family="Times,serif" font-size="14.00">delta : ndarray</text>
<text text-anchor="start" x="1070" y="-620.3" font-family="Times,serif" font-size="14.00">domain : ndarray</text>
<text text-anchor="start" x="1070" y="-605.3" font-family="Times,serif" font-size="14.00">inv_delta_prod</text>
<text text-anchor="start" x="1070" y="-590.3" font-family="Times,serif" font-size="14.00">lower_bound : int</text>
<text text-anchor="start" x="1070" y="-575.3" font-family="Times,serif" font-size="14.00">parameters : list</text>
<text text-anchor="start" x="1070" y="-560.3" font-family="Times,serif" font-size="14.00">range : list, tuple</text>
<text text-anchor="start" x="1070" y="-545.3" font-family="Times,serif" font-size="14.00">upper_bound : int</text>
<polyline fill="none" stroke="black" points="1062,-537.5 1205,-537.5 "/>
<text text-anchor="start" x="1131" y="-522.3" font-family="Times,serif" font-size="14.00"> </text>
</g>
<!-- QMCSoftware.qmcpy.true_measure.uniform.Uniform&#45;&gt;QMCSoftware.qmcpy.true_measure.abstract_true_measure.AbstractTrueMeasure -->
<g id="edge10" class="edge">
<title>QMCSoftware.qmcpy.true_measure.uniform.Uniform&#45;&gt;QMCSoftware.qmcpy.true_measure.abstract_true_measure.AbstractTrueMeasure</title>
<path fill="none" stroke="black" d="M1071.32,-703.52C1065.4,-709.22 1059.11,-714.47 1052.5,-719 998.39,-756.09 931.92,-780.55 869.2,-796.66"/>
<polygon fill="none" stroke="black" points="868.01,-793.35 859.17,-799.17 869.72,-800.14 868.01,-793.35"/>
</g>
</g>
</svg>
