<?xml version="1.0" encoding="UTF-8" standalone="no"?>
<!DOCTYPE svg PUBLIC "-//W3C//DTD SVG 1.1//EN"
 "http://www.w3.org/Graphics/SVG/1.1/DTD/svg11.dtd">
<!-- Generated by graphviz version 2.43.0 (0)
 -->
<!-- Title: classes Pages: 1 -->
<svg width="1255pt" height="834pt"
 viewBox="0.00 0.00 1255.00 834.00" xmlns="http://www.w3.org/2000/svg" xmlns:xlink="http://www.w3.org/1999/xlink">
<g id="graph0" class="graph" transform="scale(1 1) rotate(0) translate(4 830)">
<title>classes</title>
<polygon fill="white" stroke="transparent" points="-4,4 -4,-830 1251,-830 1251,4 -4,4"/>
<!-- QMCSoftware.qmcpy.true_measure.abstract_true_measure.AbstractTrueMeasure -->
<g id="node1" class="node">
<title>QMCSoftware.qmcpy.true_measure.abstract_true_measure.AbstractTrueMeasure</title>
<polygon fill="none" stroke="black" points="504,-681.5 504,-825.5 901,-825.5 901,-681.5 504,-681.5"/>
<text text-anchor="start" x="624" y="-810.3" font-family="Times,serif" font-size="14.00">AbstractTrueMeasure</text>
<polyline fill="none" stroke="black" points="504,-802.5 901,-802.5 "/>
<text text-anchor="start" x="595.5" y="-787.3" font-family="Times,serif" font-size="14.00">d</text>
<text text-anchor="start" x="595.5" y="-772.3" font-family="Times,serif" font-size="14.00">discrete_distrib</text>
<text text-anchor="start" x="595.5" y="-757.3" font-family="Times,serif" font-size="14.00">parameters : list</text>
<text text-anchor="start" x="595.5" y="-742.3" font-family="Times,serif" font-size="14.00">sub_compatibility_error : bool</text>
<text text-anchor="start" x="595.5" y="-727.3" font-family="Times,serif" font-size="14.00">transform</text>
<polyline fill="none" stroke="black" points="504,-719.5 901,-719.5 "/>
<text text-anchor="start" x="512" y="-704.3" font-family="Times,serif" font-size="14.00">gen_samples(n, n_min, n_max, return_weights, warn)</text>
<text text-anchor="start" x="512" y="-689.3" font-family="Times,serif" font-size="14.00">spawn(s, dimensions)</text>
</g>
<!-- QMCSoftware.qmcpy.true_measure.abstract_true_measure.AbstractTrueMeasure&#45;&gt;QMCSoftware.qmcpy.true_measure.abstract_true_measure.AbstractTrueMeasure -->
<g id="edge11" class="edge">
<title>QMCSoftware.qmcpy.true_measure.abstract_true_measure.AbstractTrueMeasure&#45;&gt;QMCSoftware.qmcpy.true_measure.abstract_true_measure.AbstractTrueMeasure</title>
<path fill="none" stroke="black" d="M901.16,-742.11C912.34,-744.87 919,-748.67 919,-753.5 919,-756.29 916.77,-758.74 912.73,-760.84"/>
<polygon fill="none" stroke="black" points="912.49,-760.93 908.14,-766.68 901.16,-764.89 905.51,-759.13 912.49,-760.93"/>
<text text-anchor="middle" x="955" y="-749.8" font-family="Times,serif" font-size="14.00" fill="green">transform</text>
</g>
<!-- QMCSoftware.qmcpy.true_measure.bernoulli_cont.BernoulliCont -->
<g id="node2" class="node">
<title>QMCSoftware.qmcpy.true_measure.bernoulli_cont.BernoulliCont</title>
<polygon fill="none" stroke="black" points="0,-477 0,-606 139,-606 139,-477 0,-477"/>
<text text-anchor="start" x="19.5" y="-590.8" font-family="Times,serif" font-size="14.00">BernoulliCont</text>
<polyline fill="none" stroke="black" points="0,-583 139,-583 "/>
<text text-anchor="start" x="8" y="-567.8" font-family="Times,serif" font-size="14.00">domain : ndarray</text>
<text text-anchor="start" x="8" y="-552.8" font-family="Times,serif" font-size="14.00">l : ndarray</text>
<text text-anchor="start" x="8" y="-537.8" font-family="Times,serif" font-size="14.00">lam : float</text>
<text text-anchor="start" x="8" y="-522.8" font-family="Times,serif" font-size="14.00">parameters : list</text>
<text text-anchor="start" x="8" y="-507.8" font-family="Times,serif" font-size="14.00">range : ndarray</text>
<polyline fill="none" stroke="black" points="0,-500 139,-500 "/>
<text text-anchor="start" x="67" y="-484.8" font-family="Times,serif" font-size="14.00"> </text>
</g>
<!-- QMCSoftware.qmcpy.true_measure.bernoulli_cont.BernoulliCont&#45;&gt;QMCSoftware.qmcpy.true_measure.abstract_true_measure.AbstractTrueMeasure -->
<g id="edge1" class="edge">
<title>QMCSoftware.qmcpy.true_measure.bernoulli_cont.BernoulliCont&#45;&gt;QMCSoftware.qmcpy.true_measure.abstract_true_measure.AbstractTrueMeasure</title>
<path fill="none" stroke="black" d="M107.14,-606.14C118.43,-620.55 132.01,-634.41 147.5,-644 205.01,-679.6 361.39,-708.31 493.55,-727.23"/>
<polygon fill="none" stroke="black" points="493.43,-730.75 503.83,-728.69 494.42,-723.82 493.43,-730.75"/>
</g>
<!-- QMCSoftware.qmcpy.true_measure.brownian_motion.BrownianMotion -->
<g id="node3" class="node">
<title>QMCSoftware.qmcpy.true_measure.brownian_motion.BrownianMotion</title>
<polygon fill="none" stroke="black" points="73,-197.5 73,-401.5 258,-401.5 258,-197.5 73,-197.5"/>
<text text-anchor="start" x="106" y="-386.3" font-family="Times,serif" font-size="14.00">BrownianMotion</text>
<polyline fill="none" stroke="black" points="73,-378.5 258,-378.5 "/>
<text text-anchor="start" x="81" y="-363.3" font-family="Times,serif" font-size="14.00">diffused_sigma_bm</text>
<text text-anchor="start" x="81" y="-348.3" font-family="Times,serif" font-size="14.00">diffusion : int</text>
<text text-anchor="start" x="81" y="-333.3" font-family="Times,serif" font-size="14.00">domain : ndarray</text>
<text text-anchor="start" x="81" y="-318.3" font-family="Times,serif" font-size="14.00">drift : int</text>
<text text-anchor="start" x="81" y="-303.3" font-family="Times,serif" font-size="14.00">drift_time_vec_plus_init</text>
<text text-anchor="start" x="81" y="-288.3" font-family="Times,serif" font-size="14.00">initial_value : int</text>
<text text-anchor="start" x="81" y="-273.3" font-family="Times,serif" font-size="14.00">parameters : list</text>
<text text-anchor="start" x="81" y="-258.3" font-family="Times,serif" font-size="14.00">range : ndarray</text>
<text text-anchor="start" x="81" y="-243.3" font-family="Times,serif" font-size="14.00">t : int</text>
<text text-anchor="start" x="81" y="-228.3" font-family="Times,serif" font-size="14.00">time_vec : ndarray</text>
<polyline fill="none" stroke="black" points="73,-220.5 258,-220.5 "/>
<text text-anchor="start" x="163" y="-205.3" font-family="Times,serif" font-size="14.00"> </text>
</g>
<!-- QMCSoftware.qmcpy.true_measure.gaussian.Gaussian -->
<g id="node4" class="node">
<title>QMCSoftware.qmcpy.true_measure.gaussian.Gaussian</title>
<polygon fill="none" stroke="black" points="157,-439.5 157,-643.5 458,-643.5 458,-439.5 157,-439.5"/>
<text text-anchor="start" x="274.5" y="-628.3" font-family="Times,serif" font-size="14.00">Gaussian</text>
<polyline fill="none" stroke="black" points="157,-620.5 458,-620.5 "/>
<text text-anchor="start" x="165" y="-605.3" font-family="Times,serif" font-size="14.00">a : ndarray</text>
<text text-anchor="start" x="165" y="-590.3" font-family="Times,serif" font-size="14.00">covariance</text>
<text text-anchor="start" x="165" y="-575.3" font-family="Times,serif" font-size="14.00">decomp_type</text>
<text text-anchor="start" x="165" y="-560.3" font-family="Times,serif" font-size="14.00">domain : ndarray</text>
<text text-anchor="start" x="165" y="-545.3" font-family="Times,serif" font-size="14.00">mean</text>
<text text-anchor="start" x="165" y="-530.3" font-family="Times,serif" font-size="14.00">mu : ndarray</text>
<text text-anchor="start" x="165" y="-515.3" font-family="Times,serif" font-size="14.00">mvn_scipy : multivariate_normal_frozen</text>
<text text-anchor="start" x="165" y="-500.3" font-family="Times,serif" font-size="14.00">parameters : list</text>
<text text-anchor="start" x="165" y="-485.3" font-family="Times,serif" font-size="14.00">range : ndarray</text>
<text text-anchor="start" x="165" y="-470.3" font-family="Times,serif" font-size="14.00">sigma : ndarray</text>
<polyline fill="none" stroke="black" points="157,-462.5 458,-462.5 "/>
<text text-anchor="start" x="305" y="-447.3" font-family="Times,serif" font-size="14.00"> </text>
</g>
<!-- QMCSoftware.qmcpy.true_measure.brownian_motion.BrownianMotion&#45;&gt;QMCSoftware.qmcpy.true_measure.gaussian.Gaussian -->
<g id="edge2" class="edge">
<title>QMCSoftware.qmcpy.true_measure.brownian_motion.BrownianMotion&#45;&gt;QMCSoftware.qmcpy.true_measure.gaussian.Gaussian</title>
<path fill="none" stroke="black" d="M225.31,-401.59C230.94,-411.1 236.66,-420.78 242.34,-430.37"/>
<polygon fill="none" stroke="black" points="239.43,-432.32 247.53,-439.15 245.45,-428.76 239.43,-432.32"/>
</g>
<!-- QMCSoftware.qmcpy.true_measure.gaussian.Gaussian&#45;&gt;QMCSoftware.qmcpy.true_measure.abstract_true_measure.AbstractTrueMeasure -->
<g id="edge3" class="edge">
<title>QMCSoftware.qmcpy.true_measure.gaussian.Gaussian&#45;&gt;QMCSoftware.qmcpy.true_measure.abstract_true_measure.AbstractTrueMeasure</title>
<path fill="none" stroke="black" d="M458.26,-639.45C461.02,-640.99 463.77,-642.51 466.5,-644 487.11,-655.25 509.11,-666.41 531.06,-677.06"/>
<polygon fill="none" stroke="black" points="529.61,-680.24 540.13,-681.43 532.64,-673.93 529.61,-680.24"/>
</g>
<!-- QMCSoftware.qmcpy.true_measure.geometric_brownian_motion.GeometricBrownianMotion -->
<g id="node5" class="node">
<title>QMCSoftware.qmcpy.true_measure.geometric_brownian_motion.GeometricBrownianMotion</title>
<polygon fill="none" stroke="black" points="1,-0.5 1,-159.5 330,-159.5 330,-0.5 1,-0.5"/>
<text text-anchor="start" x="69" y="-144.3" font-family="Times,serif" font-size="14.00">GeometricBrownianMotion</text>
<polyline fill="none" stroke="black" points="1,-136.5 330,-136.5 "/>
<text text-anchor="start" x="9" y="-121.3" font-family="Times,serif" font-size="14.00">covariance_gbm</text>
<text text-anchor="start" x="9" y="-106.3" font-family="Times,serif" font-size="14.00">diffusion : int</text>
<text text-anchor="start" x="9" y="-91.3" font-family="Times,serif" font-size="14.00">drift : int</text>
<text text-anchor="start" x="9" y="-76.3" font-family="Times,serif" font-size="14.00">initial_value : int</text>
<text text-anchor="start" x="9" y="-61.3" font-family="Times,serif" font-size="14.00">log_mvn_scipy : multivariate_normal_frozen</text>
<text text-anchor="start" x="9" y="-46.3" font-family="Times,serif" font-size="14.00">mean_gbm</text>
<text text-anchor="start" x="9" y="-31.3" font-family="Times,serif" font-size="14.00">parameters : list</text>
<polyline fill="none" stroke="black" points="1,-23.5 330,-23.5 "/>
<text text-anchor="start" x="163" y="-8.3" font-family="Times,serif" font-size="14.00"> </text>
</g>
<!-- QMCSoftware.qmcpy.true_measure.geometric_brownian_motion.GeometricBrownianMotion&#45;&gt;QMCSoftware.qmcpy.true_measure.brownian_motion.BrownianMotion -->
<g id="edge4" class="edge">
<title>QMCSoftware.qmcpy.true_measure.geometric_brownian_motion.GeometricBrownianMotion&#45;&gt;QMCSoftware.qmcpy.true_measure.brownian_motion.BrownianMotion</title>
<path fill="none" stroke="black" d="M165.5,-159.52C165.5,-168.55 165.5,-177.87 165.5,-187.23"/>
<polygon fill="none" stroke="black" points="162,-187.37 165.5,-197.37 169,-187.37 162,-187.37"/>
</g>
<!-- QMCSoftware.qmcpy.true_measure.johnsons_su.JohnsonsSU -->
<g id="node6" class="node">
<title>QMCSoftware.qmcpy.true_measure.johnsons_su.JohnsonsSU</title>
<polygon fill="none" stroke="black" points="476,-462 476,-621 615,-621 615,-462 476,-462"/>
<text text-anchor="start" x="502.5" y="-605.8" font-family="Times,serif" font-size="14.00">JohnsonsSU</text>
<polyline fill="none" stroke="black" points="476,-598 615,-598 "/>
<text text-anchor="start" x="484" y="-582.8" font-family="Times,serif" font-size="14.00">delta : int</text>
<text text-anchor="start" x="484" y="-567.8" font-family="Times,serif" font-size="14.00">domain : ndarray</text>
<text text-anchor="start" x="484" y="-552.8" font-family="Times,serif" font-size="14.00">gamma : int</text>
<text text-anchor="start" x="484" y="-537.8" font-family="Times,serif" font-size="14.00">lam : int</text>
<text text-anchor="start" x="484" y="-522.8" font-family="Times,serif" font-size="14.00">parameters : list</text>
<text text-anchor="start" x="484" y="-507.8" font-family="Times,serif" font-size="14.00">range : ndarray</text>
<text text-anchor="start" x="484" y="-492.8" font-family="Times,serif" font-size="14.00">xi : int</text>
<polyline fill="none" stroke="black" points="476,-485 615,-485 "/>
<text text-anchor="start" x="543" y="-469.8" font-family="Times,serif" font-size="14.00"> </text>
</g>
<!-- QMCSoftware.qmcpy.true_measure.johnsons_su.JohnsonsSU&#45;&gt;QMCSoftware.qmcpy.true_measure.abstract_true_measure.AbstractTrueMeasure -->
<g id="edge5" class="edge">
<title>QMCSoftware.qmcpy.true_measure.johnsons_su.JohnsonsSU&#45;&gt;QMCSoftware.qmcpy.true_measure.abstract_true_measure.AbstractTrueMeasure</title>
<path fill="none" stroke="black" d="M604.41,-621.29C617.04,-638.2 630.41,-656.07 643.06,-673"/>
<polygon fill="none" stroke="black" points="640.42,-675.31 649.21,-681.22 646.03,-671.12 640.42,-675.31"/>
</g>
<!-- QMCSoftware.qmcpy.true_measure.kumaraswamy.Kumaraswamy -->
<g id="node7" class="node">
<title>QMCSoftware.qmcpy.true_measure.kumaraswamy.Kumaraswamy</title>
<polygon fill="none" stroke="black" points="633,-462 633,-621 772,-621 772,-462 633,-462"/>
<text text-anchor="start" x="649.5" y="-605.8" font-family="Times,serif" font-size="14.00">Kumaraswamy</text>
<polyline fill="none" stroke="black" points="633,-598 772,-598 "/>
<text text-anchor="start" x="641" y="-582.8" font-family="Times,serif" font-size="14.00">a : int</text>
<text text-anchor="start" x="641" y="-567.8" font-family="Times,serif" font-size="14.00">alpha : ndarray</text>
<text text-anchor="start" x="641" y="-552.8" font-family="Times,serif" font-size="14.00">b : int</text>
<text text-anchor="start" x="641" y="-537.8" font-family="Times,serif" font-size="14.00">beta : ndarray</text>
<text text-anchor="start" x="641" y="-522.8" font-family="Times,serif" font-size="14.00">domain : ndarray</text>
<text text-anchor="start" x="641" y="-507.8" font-family="Times,serif" font-size="14.00">parameters : list</text>
<text text-anchor="start" x="641" y="-492.8" font-family="Times,serif" font-size="14.00">range : ndarray</text>
<polyline fill="none" stroke="black" points="633,-485 772,-485 "/>
<text text-anchor="start" x="700" y="-469.8" font-family="Times,serif" font-size="14.00"> </text>
</g>
<!-- QMCSoftware.qmcpy.true_measure.kumaraswamy.Kumaraswamy&#45;&gt;QMCSoftware.qmcpy.true_measure.abstract_true_measure.AbstractTrueMeasure -->
<g id="edge6" class="edge">
<title>QMCSoftware.qmcpy.true_measure.kumaraswamy.Kumaraswamy&#45;&gt;QMCSoftware.qmcpy.true_measure.abstract_true_measure.AbstractTrueMeasure</title>
<path fill="none" stroke="black" d="M702.5,-621.29C702.5,-637.58 702.5,-654.77 702.5,-671.15"/>
<polygon fill="none" stroke="black" points="699,-671.22 702.5,-681.22 706,-671.22 699,-671.22"/>
</g>
<!-- QMCSoftware.qmcpy.true_measure.lebesgue.Lebesgue -->
<g id="node8" class="node">
<title>QMCSoftware.qmcpy.true_measure.lebesgue.Lebesgue</title>
<polygon fill="none" stroke="black" points="790,-492 790,-591 925,-591 925,-492 790,-492"/>
<text text-anchor="start" x="823" y="-575.8" font-family="Times,serif" font-size="14.00">Lebesgue</text>
<polyline fill="none" stroke="black" points="790,-568 925,-568 "/>
<text text-anchor="start" x="798" y="-552.8" font-family="Times,serif" font-size="14.00">domain</text>
<text text-anchor="start" x="798" y="-537.8" font-family="Times,serif" font-size="14.00">parameters : list</text>
<text text-anchor="start" x="798" y="-522.8" font-family="Times,serif" font-size="14.00">range</text>
<polyline fill="none" stroke="black" points="790,-515 925,-515 "/>
<text text-anchor="start" x="855" y="-499.8" font-family="Times,serif" font-size="14.00"> </text>
</g>
<!-- QMCSoftware.qmcpy.true_measure.lebesgue.Lebesgue&#45;&gt;QMCSoftware.qmcpy.true_measure.abstract_true_measure.AbstractTrueMeasure -->
<g id="edge7" class="edge">
<title>QMCSoftware.qmcpy.true_measure.lebesgue.Lebesgue&#45;&gt;QMCSoftware.qmcpy.true_measure.abstract_true_measure.AbstractTrueMeasure</title>
<path fill="none" stroke="black" d="M821.55,-591.21C803.56,-615.58 781.33,-645.69 760.97,-673.28"/>
<polygon fill="none" stroke="black" points="758.13,-671.24 755,-681.37 763.76,-675.4 758.13,-671.24"/>
</g>
<!-- QMCSoftware.qmcpy.true_measure.matern_gp.MaternGP -->
<g id="node9" class="node">
<title>QMCSoftware.qmcpy.true_measure.matern_gp.MaternGP</title>
<polygon fill="none" stroke="black" points="276,-242.5 276,-356.5 451,-356.5 451,-242.5 276,-242.5"/>
<text text-anchor="start" x="326.5" y="-341.3" font-family="Times,serif" font-size="14.00">MaternGP</text>
<polyline fill="none" stroke="black" points="276,-333.5 451,-333.5 "/>
<text text-anchor="start" x="284" y="-318.3" font-family="Times,serif" font-size="14.00">length_scale : ndarray</text>
<text text-anchor="start" x="284" y="-303.3" font-family="Times,serif" font-size="14.00">nu : float</text>
<text text-anchor="start" x="284" y="-288.3" font-family="Times,serif" font-size="14.00">points</text>
<text text-anchor="start" x="284" y="-273.3" font-family="Times,serif" font-size="14.00">variance : float</text>
<polyline fill="none" stroke="black" points="276,-265.5 451,-265.5 "/>
<text text-anchor="start" x="361" y="-250.3" font-family="Times,serif" font-size="14.00"> </text>
</g>
<!-- QMCSoftware.qmcpy.true_measure.matern_gp.MaternGP&#45;&gt;QMCSoftware.qmcpy.true_measure.gaussian.Gaussian -->
<g id="edge8" class="edge">
<title>QMCSoftware.qmcpy.true_measure.matern_gp.MaternGP&#45;&gt;QMCSoftware.qmcpy.true_measure.gaussian.Gaussian</title>
<path fill="none" stroke="black" d="M350.37,-356.77C345.29,-378.54 339.29,-404.26 333.41,-429.44"/>
<polygon fill="none" stroke="black" points="329.95,-428.9 331.08,-439.43 336.76,-430.49 329.95,-428.9"/>
</g>
<!-- QMCSoftware.qmcpy.true_measure.scipy_wrapper.SciPyWrapper -->
<g id="node10" class="node">
<title>QMCSoftware.qmcpy.true_measure.scipy_wrapper.SciPyWrapper</title>
<polygon fill="none" stroke="black" points="943,-484.5 943,-598.5 1086,-598.5 1086,-484.5 943,-484.5"/>
<text text-anchor="start" x="963.5" y="-583.3" font-family="Times,serif" font-size="14.00">SciPyWrapper</text>
<polyline fill="none" stroke="black" points="943,-575.5 1086,-575.5 "/>
<text text-anchor="start" x="951" y="-560.3" font-family="Times,serif" font-size="14.00">domain : ndarray</text>
<text text-anchor="start" x="951" y="-545.3" font-family="Times,serif" font-size="14.00">range : ndarray</text>
<text text-anchor="start" x="951" y="-530.3" font-family="Times,serif" font-size="14.00">scipy_distrib : list</text>
<text text-anchor="start" x="951" y="-515.3" font-family="Times,serif" font-size="14.00">sds : list</text>
<polyline fill="none" stroke="black" points="943,-507.5 1086,-507.5 "/>
<text text-anchor="start" x="1012" y="-492.3" font-family="Times,serif" font-size="14.00"> </text>
</g>
<!-- QMCSoftware.qmcpy.true_measure.scipy_wrapper.SciPyWrapper&#45;&gt;QMCSoftware.qmcpy.true_measure.abstract_true_measure.AbstractTrueMeasure -->
<g id="edge9" class="edge">
<title>QMCSoftware.qmcpy.true_measure.scipy_wrapper.SciPyWrapper&#45;&gt;QMCSoftware.qmcpy.true_measure.abstract_true_measure.AbstractTrueMeasure</title>
<path fill="none" stroke="black" d="M977.2,-598.54C964.66,-614.61 949.69,-631.22 933.5,-644 918.69,-655.69 902.42,-666.49 885.58,-676.38"/>
<polygon fill="none" stroke="black" points="883.65,-673.45 876.73,-681.46 887.14,-679.52 883.65,-673.45"/>
</g>
<!-- QMCSoftware.qmcpy.true_measure.uniform.Uniform -->
<g id="node11" class="node">
<title>QMCSoftware.qmcpy.true_measure.uniform.Uniform</title>
<polygon fill="none" stroke="black" points="1104,-447 1104,-636 1247,-636 1247,-447 1104,-447"/>
<text text-anchor="start" x="1145.5" y="-620.8" font-family="Times,serif" font-size="14.00">Uniform</text>
<polyline fill="none" stroke="black" points="1104,-613 1247,-613 "/>
<text text-anchor="start" x="1112" y="-597.8" font-family="Times,serif" font-size="14.00">a : ndarray</text>
<text text-anchor="start" x="1112" y="-582.8" font-family="Times,serif" font-size="14.00">b : ndarray</text>
<text text-anchor="start" x="1112" y="-567.8" font-family="Times,serif" font-size="14.00">delta : ndarray</text>
<text text-anchor="start" x="1112" y="-552.8" font-family="Times,serif" font-size="14.00">domain : ndarray</text>
<text text-anchor="start" x="1112" y="-537.8" font-family="Times,serif" font-size="14.00">inv_delta_prod</text>
<text text-anchor="start" x="1112" y="-522.8" font-family="Times,serif" font-size="14.00">lower_bound : int</text>
<text text-anchor="start" x="1112" y="-507.8" font-family="Times,serif" font-size="14.00">parameters : list</text>
<text text-anchor="start" x="1112" y="-492.8" font-family="Times,serif" font-size="14.00">range : list, tuple</text>
<text text-anchor="start" x="1112" y="-477.8" font-family="Times,serif" font-size="14.00">upper_bound : int</text>
<polyline fill="none" stroke="black" points="1104,-470 1247,-470 "/>
<text text-anchor="start" x="1173" y="-454.8" font-family="Times,serif" font-size="14.00"> </text>
</g>
<!-- QMCSoftware.qmcpy.true_measure.uniform.Uniform&#45;&gt;QMCSoftware.qmcpy.true_measure.abstract_true_measure.AbstractTrueMeasure -->
<g id="edge10" class="edge">
<title>QMCSoftware.qmcpy.true_measure.uniform.Uniform&#45;&gt;QMCSoftware.qmcpy.true_measure.abstract_true_measure.AbstractTrueMeasure</title>
<path fill="none" stroke="black" d="M1105.23,-636.12C1101.75,-638.93 1098.17,-641.58 1094.5,-644 1039.97,-680.01 973.63,-704.17 911.15,-720.33"/>
<polygon fill="none" stroke="black" points="910,-717.01 901.16,-722.86 911.71,-723.8 910,-717.01"/>
</g>
</g>
</svg>
