<?xml version="1.0" encoding="UTF-8" standalone="no"?>
<!DOCTYPE svg PUBLIC "-//W3C//DTD SVG 1.1//EN"
 "http://www.w3.org/Graphics/SVG/1.1/DTD/svg11.dtd">
<!-- Generated by graphviz version 2.43.0 (0)
 -->
<!-- Title: classes Pages: 1 -->
<svg width="2258pt" height="909pt"
 viewBox="0.00 0.00 2258.00 909.00" xmlns="http://www.w3.org/2000/svg" xmlns:xlink="http://www.w3.org/1999/xlink">
<g id="graph0" class="graph" transform="scale(1 1) rotate(0) translate(4 905)">
<title>classes</title>
<polygon fill="white" stroke="transparent" points="-4,4 -4,-905 2254,-905 2254,4 -4,4"/>
<!-- QMCSoftware.qmcpy.true_measure.abstract_true_measure.AbstractTrueMeasure -->
<g id="node1" class="node">
<title>QMCSoftware.qmcpy.true_measure.abstract_true_measure.AbstractTrueMeasure</title>
<polygon fill="none" stroke="black" points="1027,-756.5 1027,-900.5 1424,-900.5 1424,-756.5 1027,-756.5"/>
<text text-anchor="start" x="1147" y="-885.3" font-family="Times,serif" font-size="14.00">AbstractTrueMeasure</text>
<polyline fill="none" stroke="black" points="1027,-877.5 1424,-877.5 "/>
<text text-anchor="start" x="1118.5" y="-862.3" font-family="Times,serif" font-size="14.00">d</text>
<text text-anchor="start" x="1118.5" y="-847.3" font-family="Times,serif" font-size="14.00">discrete_distrib</text>
<text text-anchor="start" x="1118.5" y="-832.3" font-family="Times,serif" font-size="14.00">parameters : list</text>
<text text-anchor="start" x="1118.5" y="-817.3" font-family="Times,serif" font-size="14.00">sub_compatibility_error : bool</text>
<text text-anchor="start" x="1118.5" y="-802.3" font-family="Times,serif" font-size="14.00">transform</text>
<polyline fill="none" stroke="black" points="1027,-794.5 1424,-794.5 "/>
<text text-anchor="start" x="1035" y="-779.3" font-family="Times,serif" font-size="14.00">gen_samples(n, n_min, n_max, return_weights, warn)</text>
<text text-anchor="start" x="1035" y="-764.3" font-family="Times,serif" font-size="14.00">spawn(s, dimensions)</text>
</g>
<!-- QMCSoftware.qmcpy.true_measure.abstract_true_measure.AbstractTrueMeasure&#45;&gt;QMCSoftware.qmcpy.true_measure.abstract_true_measure.AbstractTrueMeasure -->
<g id="edge17" class="edge">
<title>QMCSoftware.qmcpy.true_measure.abstract_true_measure.AbstractTrueMeasure&#45;&gt;QMCSoftware.qmcpy.true_measure.abstract_true_measure.AbstractTrueMeasure</title>
<path fill="none" stroke="black" d="M1424.16,-817.11C1435.34,-819.87 1442,-823.67 1442,-828.5 1442,-831.29 1439.77,-833.74 1435.73,-835.84"/>
<polygon fill="none" stroke="black" points="1435.49,-835.93 1431.14,-841.68 1424.16,-839.89 1428.51,-834.13 1435.49,-835.93"/>
<text text-anchor="middle" x="1478" y="-824.8" font-family="Times,serif" font-size="14.00" fill="green">transform</text>
</g>
<!-- QMCSoftware.qmcpy.true_measure.acceptance_rejection.AcceptanceRejection -->
<g id="node2" class="node">
<title>QMCSoftware.qmcpy.true_measure.acceptance_rejection.AcceptanceRejection</title>
<polygon fill="none" stroke="black" points="0,-514.5 0,-703.5 397,-703.5 397,-514.5 0,-514.5"/>
<text text-anchor="start" x="124.5" y="-688.3" font-family="Times,serif" font-size="14.00">AcceptanceRejection</text>
<polyline fill="none" stroke="black" points="0,-680.5 397,-680.5 "/>
<text text-anchor="start" x="118" y="-665.3" font-family="Times,serif" font-size="14.00">acceptance_rate</text>
<text text-anchor="start" x="118" y="-650.3" font-family="Times,serif" font-size="14.00">density_integral : float</text>
<text text-anchor="start" x="118" y="-635.3" font-family="Times,serif" font-size="14.00">domain : ndarray</text>
<text text-anchor="start" x="118" y="-620.3" font-family="Times,serif" font-size="14.00">max_retries : int</text>
<text text-anchor="start" x="118" y="-605.3" font-family="Times,serif" font-size="14.00">parameters : list</text>
<text text-anchor="start" x="118" y="-590.3" font-family="Times,serif" font-size="14.00">range</text>
<text text-anchor="start" x="118" y="-575.3" font-family="Times,serif" font-size="14.00">target_density</text>
<text text-anchor="start" x="118" y="-560.3" font-family="Times,serif" font-size="14.00">target_dim</text>
<text text-anchor="start" x="118" y="-545.3" font-family="Times,serif" font-size="14.00">upper_bound : float</text>
<polyline fill="none" stroke="black" points="0,-537.5 397,-537.5 "/>
<text text-anchor="start" x="8" y="-522.3" font-family="Times,serif" font-size="14.00">gen_samples(n, n_min, n_max, return_weights, warn)</text>
</g>
<!-- QMCSoftware.qmcpy.true_measure.acceptance_rejection.AcceptanceRejection&#45;&gt;QMCSoftware.qmcpy.true_measure.abstract_true_measure.AbstractTrueMeasure -->
<g id="edge1" class="edge">
<title>QMCSoftware.qmcpy.true_measure.acceptance_rejection.AcceptanceRejection&#45;&gt;QMCSoftware.qmcpy.true_measure.abstract_true_measure.AbstractTrueMeasure</title>
<path fill="none" stroke="black" d="M364.08,-703.56C377.85,-709.37 391.76,-714.63 405.5,-719 607.15,-783.18 848.36,-809.42 1016.77,-820.14"/>
<polygon fill="none" stroke="black" points="1016.8,-823.65 1027,-820.77 1017.24,-816.66 1016.8,-823.65"/>
</g>
<!-- QMCSoftware.qmcpy.true_measure.acceptance_rejection.AcceptanceRejectionReal -->
<g id="node3" class="node">
<title>QMCSoftware.qmcpy.true_measure.acceptance_rejection.AcceptanceRejectionReal</title>
<polygon fill="none" stroke="black" points="415,-499.5 415,-718.5 812,-718.5 812,-499.5 415,-499.5"/>
<text text-anchor="start" x="523.5" y="-703.3" font-family="Times,serif" font-size="14.00">AcceptanceRejectionReal</text>
<polyline fill="none" stroke="black" points="415,-695.5 812,-695.5 "/>
<text text-anchor="start" x="533" y="-680.3" font-family="Times,serif" font-size="14.00">H_func</text>
<text text-anchor="start" x="533" y="-665.3" font-family="Times,serif" font-size="14.00">acceptance_rate</text>
<text text-anchor="start" x="533" y="-650.3" font-family="Times,serif" font-size="14.00">density_integral : float</text>
<text text-anchor="start" x="533" y="-635.3" font-family="Times,serif" font-size="14.00">domain : ndarray</text>
<text text-anchor="start" x="533" y="-620.3" font-family="Times,serif" font-size="14.00">inv_cdfs</text>
<text text-anchor="start" x="533" y="-605.3" font-family="Times,serif" font-size="14.00">max_retries : int</text>
<text text-anchor="start" x="533" y="-590.3" font-family="Times,serif" font-size="14.00">parameters : list</text>
<text text-anchor="start" x="533" y="-575.3" font-family="Times,serif" font-size="14.00">range</text>
<text text-anchor="start" x="533" y="-560.3" font-family="Times,serif" font-size="14.00">target_density</text>
<text text-anchor="start" x="533" y="-545.3" font-family="Times,serif" font-size="14.00">target_dim</text>
<text text-anchor="start" x="533" y="-530.3" font-family="Times,serif" font-size="14.00">upper_bound : float</text>
<polyline fill="none" stroke="black" points="415,-522.5 812,-522.5 "/>
<text text-anchor="start" x="423" y="-507.3" font-family="Times,serif" font-size="14.00">gen_samples(n, n_min, n_max, return_weights, warn)</text>
</g>
<!-- QMCSoftware.qmcpy.true_measure.acceptance_rejection.AcceptanceRejectionReal&#45;&gt;QMCSoftware.qmcpy.true_measure.abstract_true_measure.AbstractTrueMeasure -->
<g id="edge2" class="edge">
<title>QMCSoftware.qmcpy.true_measure.acceptance_rejection.AcceptanceRejectionReal&#45;&gt;QMCSoftware.qmcpy.true_measure.abstract_true_measure.AbstractTrueMeasure</title>
<path fill="none" stroke="black" d="M812.24,-715.7C815.01,-716.83 817.76,-717.93 820.5,-719 883.04,-743.49 953.1,-764.42 1017.15,-781.17"/>
<polygon fill="none" stroke="black" points="1016.4,-784.6 1026.96,-783.72 1018.16,-777.82 1016.4,-784.6"/>
</g>
<!-- QMCSoftware.qmcpy.true_measure.bernoulli_cont.BernoulliCont -->
<g id="node4" class="node">
<title>QMCSoftware.qmcpy.true_measure.bernoulli_cont.BernoulliCont</title>
<polygon fill="none" stroke="black" points="830,-544.5 830,-673.5 969,-673.5 969,-544.5 830,-544.5"/>
<text text-anchor="start" x="849.5" y="-658.3" font-family="Times,serif" font-size="14.00">BernoulliCont</text>
<polyline fill="none" stroke="black" points="830,-650.5 969,-650.5 "/>
<text text-anchor="start" x="838" y="-635.3" font-family="Times,serif" font-size="14.00">domain : ndarray</text>
<text text-anchor="start" x="838" y="-620.3" font-family="Times,serif" font-size="14.00">l : ndarray</text>
<text text-anchor="start" x="838" y="-605.3" font-family="Times,serif" font-size="14.00">lam : float</text>
<text text-anchor="start" x="838" y="-590.3" font-family="Times,serif" font-size="14.00">parameters : list</text>
<text text-anchor="start" x="838" y="-575.3" font-family="Times,serif" font-size="14.00">range : ndarray</text>
<polyline fill="none" stroke="black" points="830,-567.5 969,-567.5 "/>
<text text-anchor="start" x="897" y="-552.3" font-family="Times,serif" font-size="14.00"> </text>
</g>
<!-- QMCSoftware.qmcpy.true_measure.bernoulli_cont.BernoulliCont&#45;&gt;QMCSoftware.qmcpy.true_measure.abstract_true_measure.AbstractTrueMeasure -->
<g id="edge3" class="edge">
<title>QMCSoftware.qmcpy.true_measure.bernoulli_cont.BernoulliCont&#45;&gt;QMCSoftware.qmcpy.true_measure.abstract_true_measure.AbstractTrueMeasure</title>
<path fill="none" stroke="black" d="M936.44,-673.69C948.05,-689.97 961.95,-706.4 977.5,-719 992.11,-730.84 1008.22,-741.63 1024.99,-751.41"/>
<polygon fill="none" stroke="black" points="1023.4,-754.53 1033.82,-756.44 1026.86,-748.45 1023.4,-754.53"/>
</g>
<!-- QMCSoftware.qmcpy.true_measure.brownian_motion.BrownianMotion -->
<g id="node5" class="node">
<title>QMCSoftware.qmcpy.true_measure.brownian_motion.BrownianMotion</title>
<polygon fill="none" stroke="black" points="827,-257.5 827,-461.5 1012,-461.5 1012,-257.5 827,-257.5"/>
<text text-anchor="start" x="860" y="-446.3" font-family="Times,serif" font-size="14.00">BrownianMotion</text>
<polyline fill="none" stroke="black" points="827,-438.5 1012,-438.5 "/>
<text text-anchor="start" x="835" y="-423.3" font-family="Times,serif" font-size="14.00">diffused_sigma_bm</text>
<text text-anchor="start" x="835" y="-408.3" font-family="Times,serif" font-size="14.00">diffusion : int</text>
<text text-anchor="start" x="835" y="-393.3" font-family="Times,serif" font-size="14.00">domain : ndarray</text>
<text text-anchor="start" x="835" y="-378.3" font-family="Times,serif" font-size="14.00">drift : int</text>
<text text-anchor="start" x="835" y="-363.3" font-family="Times,serif" font-size="14.00">drift_time_vec_plus_init</text>
<text text-anchor="start" x="835" y="-348.3" font-family="Times,serif" font-size="14.00">initial_value : int</text>
<text text-anchor="start" x="835" y="-333.3" font-family="Times,serif" font-size="14.00">parameters : list</text>
<text text-anchor="start" x="835" y="-318.3" font-family="Times,serif" font-size="14.00">range : ndarray</text>
<text text-anchor="start" x="835" y="-303.3" font-family="Times,serif" font-size="14.00">t : int</text>
<text text-anchor="start" x="835" y="-288.3" font-family="Times,serif" font-size="14.00">time_vec : ndarray</text>
<polyline fill="none" stroke="black" points="827,-280.5 1012,-280.5 "/>
<text text-anchor="start" x="917" y="-265.3" font-family="Times,serif" font-size="14.00"> </text>
</g>
<!-- QMCSoftware.qmcpy.true_measure.gaussian.Gaussian -->
<g id="node6" class="node">
<title>QMCSoftware.qmcpy.true_measure.gaussian.Gaussian</title>
<polygon fill="none" stroke="black" points="987,-499.5 987,-718.5 1138,-718.5 1138,-499.5 987,-499.5"/>
<text text-anchor="start" x="1029.5" y="-703.3" font-family="Times,serif" font-size="14.00">Gaussian</text>
<polyline fill="none" stroke="black" points="987,-695.5 1138,-695.5 "/>
<text text-anchor="start" x="995" y="-680.3" font-family="Times,serif" font-size="14.00">a</text>
<text text-anchor="start" x="995" y="-665.3" font-family="Times,serif" font-size="14.00">covariance</text>
<text text-anchor="start" x="995" y="-650.3" font-family="Times,serif" font-size="14.00">decomp_type</text>
<text text-anchor="start" x="995" y="-635.3" font-family="Times,serif" font-size="14.00">domain : ndarray</text>
<text text-anchor="start" x="995" y="-620.3" font-family="Times,serif" font-size="14.00">lazy_decomp : bool</text>
<text text-anchor="start" x="995" y="-605.3" font-family="Times,serif" font-size="14.00">mean</text>
<text text-anchor="start" x="995" y="-590.3" font-family="Times,serif" font-size="14.00">mu : ndarray</text>
<text text-anchor="start" x="995" y="-575.3" font-family="Times,serif" font-size="14.00">mvn_scipy</text>
<text text-anchor="start" x="995" y="-560.3" font-family="Times,serif" font-size="14.00">parameters : list</text>
<text text-anchor="start" x="995" y="-545.3" font-family="Times,serif" font-size="14.00">range : ndarray</text>
<text text-anchor="start" x="995" y="-530.3" font-family="Times,serif" font-size="14.00">sigma : ndarray</text>
<polyline fill="none" stroke="black" points="987,-522.5 1138,-522.5 "/>
<text text-anchor="start" x="1060" y="-507.3" font-family="Times,serif" font-size="14.00"> </text>
</g>
<!-- QMCSoftware.qmcpy.true_measure.brownian_motion.BrownianMotion&#45;&gt;QMCSoftware.qmcpy.true_measure.gaussian.Gaussian -->
<g id="edge4" class="edge">
<title>QMCSoftware.qmcpy.true_measure.brownian_motion.BrownianMotion&#45;&gt;QMCSoftware.qmcpy.true_measure.gaussian.Gaussian</title>
<path fill="none" stroke="black" d="M977.87,-461.52C983.37,-471.04 988.97,-480.75 994.55,-490.4"/>
<polygon fill="none" stroke="black" points="991.63,-492.33 999.66,-499.24 997.69,-488.83 991.63,-492.33"/>
</g>
<!-- QMCSoftware.qmcpy.true_measure.gaussian.Gaussian&#45;&gt;QMCSoftware.qmcpy.true_measure.abstract_true_measure.AbstractTrueMeasure -->
<g id="edge5" class="edge">
<title>QMCSoftware.qmcpy.true_measure.gaussian.Gaussian&#45;&gt;QMCSoftware.qmcpy.true_measure.abstract_true_measure.AbstractTrueMeasure</title>
<path fill="none" stroke="black" d="M1138.04,-710.79C1147.37,-723.25 1156.82,-735.85 1165.87,-747.93"/>
<polygon fill="none" stroke="black" points="1163.27,-750.3 1172.07,-756.2 1168.87,-746.1 1163.27,-750.3"/>
</g>
<!-- QMCSoftware.qmcpy.true_measure.geometric_brownian_motion.GeometricBrownianMotion -->
<g id="node7" class="node">
<title>QMCSoftware.qmcpy.true_measure.geometric_brownian_motion.GeometricBrownianMotion</title>
<polygon fill="none" stroke="black" points="573.5,-0.5 573.5,-219.5 1265.5,-219.5 1265.5,-0.5 573.5,-0.5"/>
<text text-anchor="start" x="823" y="-204.3" font-family="Times,serif" font-size="14.00">GeometricBrownianMotion</text>
<polyline fill="none" stroke="black" points="573.5,-196.5 1265.5,-196.5 "/>
<text text-anchor="start" x="796.5" y="-181.3" font-family="Times,serif" font-size="14.00">covariance_gbm</text>
<text text-anchor="start" x="796.5" y="-166.3" font-family="Times,serif" font-size="14.00">diffusion : int</text>
<text text-anchor="start" x="796.5" y="-151.3" font-family="Times,serif" font-size="14.00">drift : int</text>
<text text-anchor="start" x="796.5" y="-136.3" font-family="Times,serif" font-size="14.00">initial_value : int</text>
<text text-anchor="start" x="796.5" y="-121.3" font-family="Times,serif" font-size="14.00">large_step_threshold : int</text>
<text text-anchor="start" x="796.5" y="-106.3" font-family="Times,serif" font-size="14.00">lazy_decomp : bool</text>
<text text-anchor="start" x="796.5" y="-91.3" font-family="Times,serif" font-size="14.00">lazy_load : bool</text>
<text text-anchor="start" x="796.5" y="-76.3" font-family="Times,serif" font-size="14.00">log_mvn_scipy</text>
<text text-anchor="start" x="796.5" y="-61.3" font-family="Times,serif" font-size="14.00">mean_gbm</text>
<text text-anchor="start" x="796.5" y="-46.3" font-family="Times,serif" font-size="14.00">parameters : list</text>
<text text-anchor="start" x="796.5" y="-31.3" font-family="Times,serif" font-size="14.00">use_large_step_optimization : bool</text>
<polyline fill="none" stroke="black" points="573.5,-23.5 1265.5,-23.5 "/>
<text text-anchor="start" x="581.5" y="-8.3" font-family="Times,serif" font-size="14.00">gen_samples(n, n_min, n_max, return_weights, warn): Union[ndarray, Tuple[ndarray, ndarray]]</text>
</g>
<!-- QMCSoftware.qmcpy.true_measure.geometric_brownian_motion.GeometricBrownianMotion&#45;&gt;QMCSoftware.qmcpy.true_measure.brownian_motion.BrownianMotion -->
<g id="edge6" class="edge">
<title>QMCSoftware.qmcpy.true_measure.geometric_brownian_motion.GeometricBrownianMotion&#45;&gt;QMCSoftware.qmcpy.true_measure.brownian_motion.BrownianMotion</title>
<path fill="none" stroke="black" d="M919.5,-219.56C919.5,-228.81 919.5,-238.18 919.5,-247.45"/>
<polygon fill="none" stroke="black" points="916,-247.46 919.5,-257.46 923,-247.46 916,-247.46"/>
</g>
<!-- QMCSoftware.qmcpy.true_measure.johnsons_su.JohnsonsSU -->
<g id="node8" class="node">
<title>QMCSoftware.qmcpy.true_measure.johnsons_su.JohnsonsSU</title>
<polygon fill="none" stroke="black" points="1156,-529.5 1156,-688.5 1295,-688.5 1295,-529.5 1156,-529.5"/>
<text text-anchor="start" x="1182.5" y="-673.3" font-family="Times,serif" font-size="14.00">JohnsonsSU</text>
<polyline fill="none" stroke="black" points="1156,-665.5 1295,-665.5 "/>
<text text-anchor="start" x="1164" y="-650.3" font-family="Times,serif" font-size="14.00">delta : int</text>
<text text-anchor="start" x="1164" y="-635.3" font-family="Times,serif" font-size="14.00">domain : ndarray</text>
<text text-anchor="start" x="1164" y="-620.3" font-family="Times,serif" font-size="14.00">gamma : int</text>
<text text-anchor="start" x="1164" y="-605.3" font-family="Times,serif" font-size="14.00">lam : int</text>
<text text-anchor="start" x="1164" y="-590.3" font-family="Times,serif" font-size="14.00">parameters : list</text>
<text text-anchor="start" x="1164" y="-575.3" font-family="Times,serif" font-size="14.00">range : ndarray</text>
<text text-anchor="start" x="1164" y="-560.3" font-family="Times,serif" font-size="14.00">xi : int</text>
<polyline fill="none" stroke="black" points="1156,-552.5 1295,-552.5 "/>
<text text-anchor="start" x="1223" y="-537.3" font-family="Times,serif" font-size="14.00"> </text>
</g>
<!-- QMCSoftware.qmcpy.true_measure.johnsons_su.JohnsonsSU&#45;&gt;QMCSoftware.qmcpy.true_measure.abstract_true_measure.AbstractTrueMeasure -->
<g id="edge7" class="edge">
<title>QMCSoftware.qmcpy.true_measure.johnsons_su.JohnsonsSU&#45;&gt;QMCSoftware.qmcpy.true_measure.abstract_true_measure.AbstractTrueMeasure</title>
<path fill="none" stroke="black" d="M1225.5,-688.52C1225.5,-707.29 1225.5,-727.37 1225.5,-746.26"/>
<polygon fill="none" stroke="black" points="1222,-746.32 1225.5,-756.32 1229,-746.32 1222,-746.32"/>
</g>
<!-- QMCSoftware.qmcpy.true_measure.kumaraswamy.Kumaraswamy -->
<g id="node9" class="node">
<title>QMCSoftware.qmcpy.true_measure.kumaraswamy.Kumaraswamy</title>
<polygon fill="none" stroke="black" points="1313,-529.5 1313,-688.5 1452,-688.5 1452,-529.5 1313,-529.5"/>
<text text-anchor="start" x="1329.5" y="-673.3" font-family="Times,serif" font-size="14.00">Kumaraswamy</text>
<polyline fill="none" stroke="black" points="1313,-665.5 1452,-665.5 "/>
<text text-anchor="start" x="1321" y="-650.3" font-family="Times,serif" font-size="14.00">a : int</text>
<text text-anchor="start" x="1321" y="-635.3" font-family="Times,serif" font-size="14.00">alpha : ndarray</text>
<text text-anchor="start" x="1321" y="-620.3" font-family="Times,serif" font-size="14.00">b : int</text>
<text text-anchor="start" x="1321" y="-605.3" font-family="Times,serif" font-size="14.00">beta : ndarray</text>
<text text-anchor="start" x="1321" y="-590.3" font-family="Times,serif" font-size="14.00">domain : ndarray</text>
<text text-anchor="start" x="1321" y="-575.3" font-family="Times,serif" font-size="14.00">parameters : list</text>
<text text-anchor="start" x="1321" y="-560.3" font-family="Times,serif" font-size="14.00">range : ndarray</text>
<polyline fill="none" stroke="black" points="1313,-552.5 1452,-552.5 "/>
<text text-anchor="start" x="1380" y="-537.3" font-family="Times,serif" font-size="14.00"> </text>
</g>
<!-- QMCSoftware.qmcpy.true_measure.kumaraswamy.Kumaraswamy&#45;&gt;QMCSoftware.qmcpy.true_measure.abstract_true_measure.AbstractTrueMeasure -->
<g id="edge8" class="edge">
<title>QMCSoftware.qmcpy.true_measure.kumaraswamy.Kumaraswamy&#45;&gt;QMCSoftware.qmcpy.true_measure.abstract_true_measure.AbstractTrueMeasure</title>
<path fill="none" stroke="black" d="M1325.82,-688.52C1311.83,-707.9 1296.84,-728.67 1282.82,-748.09"/>
<polygon fill="none" stroke="black" points="1279.9,-746.16 1276.88,-756.32 1285.57,-750.26 1279.9,-746.16"/>
</g>
<!-- QMCSoftware.qmcpy.true_measure.lebesgue.Lebesgue -->
<g id="node10" class="node">
<title>QMCSoftware.qmcpy.true_measure.lebesgue.Lebesgue</title>
<polygon fill="none" stroke="black" points="1470,-559.5 1470,-658.5 1605,-658.5 1605,-559.5 1470,-559.5"/>
<text text-anchor="start" x="1503" y="-643.3" font-family="Times,serif" font-size="14.00">Lebesgue</text>
<polyline fill="none" stroke="black" points="1470,-635.5 1605,-635.5 "/>
<text text-anchor="start" x="1478" y="-620.3" font-family="Times,serif" font-size="14.00">domain</text>
<text text-anchor="start" x="1478" y="-605.3" font-family="Times,serif" font-size="14.00">parameters : list</text>
<text text-anchor="start" x="1478" y="-590.3" font-family="Times,serif" font-size="14.00">range</text>
<polyline fill="none" stroke="black" points="1470,-582.5 1605,-582.5 "/>
<text text-anchor="start" x="1535" y="-567.3" font-family="Times,serif" font-size="14.00"> </text>
</g>
<!-- QMCSoftware.qmcpy.true_measure.lebesgue.Lebesgue&#45;&gt;QMCSoftware.qmcpy.true_measure.abstract_true_measure.AbstractTrueMeasure -->
<g id="edge9" class="edge">
<title>QMCSoftware.qmcpy.true_measure.lebesgue.Lebesgue&#45;&gt;QMCSoftware.qmcpy.true_measure.abstract_true_measure.AbstractTrueMeasure</title>
<path fill="none" stroke="black" d="M1510.93,-658.63C1497.83,-679.26 1480.53,-702.33 1460.5,-719 1446.51,-730.64 1431.07,-741.32 1414.98,-751.04"/>
<polygon fill="none" stroke="black" points="1412.82,-748.25 1405.98,-756.34 1416.37,-754.28 1412.82,-748.25"/>
</g>
<!-- QMCSoftware.qmcpy.true_measure.matern_gp.MaternGP -->
<g id="node11" class="node">
<title>QMCSoftware.qmcpy.true_measure.matern_gp.MaternGP</title>
<polygon fill="none" stroke="black" points="1030,-302.5 1030,-416.5 1205,-416.5 1205,-302.5 1030,-302.5"/>
<text text-anchor="start" x="1080.5" y="-401.3" font-family="Times,serif" font-size="14.00">MaternGP</text>
<polyline fill="none" stroke="black" points="1030,-393.5 1205,-393.5 "/>
<text text-anchor="start" x="1038" y="-378.3" font-family="Times,serif" font-size="14.00">length_scale : ndarray</text>
<text text-anchor="start" x="1038" y="-363.3" font-family="Times,serif" font-size="14.00">nu : float</text>
<text text-anchor="start" x="1038" y="-348.3" font-family="Times,serif" font-size="14.00">points</text>
<text text-anchor="start" x="1038" y="-333.3" font-family="Times,serif" font-size="14.00">variance : float</text>
<polyline fill="none" stroke="black" points="1030,-325.5 1205,-325.5 "/>
<text text-anchor="start" x="1115" y="-310.3" font-family="Times,serif" font-size="14.00"> </text>
</g>
<!-- QMCSoftware.qmcpy.true_measure.matern_gp.MaternGP&#45;&gt;QMCSoftware.qmcpy.true_measure.gaussian.Gaussian -->
<g id="edge10" class="edge">
<title>QMCSoftware.qmcpy.true_measure.matern_gp.MaternGP&#45;&gt;QMCSoftware.qmcpy.true_measure.gaussian.Gaussian</title>
<path fill="none" stroke="black" d="M1105.02,-416.66C1100.21,-438.32 1094.51,-463.96 1088.87,-489.31"/>
<polygon fill="none" stroke="black" points="1085.39,-488.87 1086.64,-499.39 1092.22,-490.38 1085.39,-488.87"/>
</g>
<!-- QMCSoftware.qmcpy.true_measure.scipy_wrapper.SciPyWrapper -->
<g id="node12" class="node">
<title>QMCSoftware.qmcpy.true_measure.scipy_wrapper.SciPyWrapper</title>
<polygon fill="none" stroke="black" points="1623,-559.5 1623,-658.5 1762,-658.5 1762,-559.5 1623,-559.5"/>
<text text-anchor="start" x="1641.5" y="-643.3" font-family="Times,serif" font-size="14.00">SciPyWrapper</text>
<polyline fill="none" stroke="black" points="1623,-635.5 1762,-635.5 "/>
<text text-anchor="start" x="1631" y="-620.3" font-family="Times,serif" font-size="14.00">domain : ndarray</text>
<text text-anchor="start" x="1631" y="-605.3" font-family="Times,serif" font-size="14.00">range</text>
<text text-anchor="start" x="1631" y="-590.3" font-family="Times,serif" font-size="14.00">sds : list</text>
<polyline fill="none" stroke="black" points="1623,-582.5 1762,-582.5 "/>
<text text-anchor="start" x="1690" y="-567.3" font-family="Times,serif" font-size="14.00"> </text>
</g>
<!-- QMCSoftware.qmcpy.true_measure.scipy_wrapper.SciPyWrapper&#45;&gt;QMCSoftware.qmcpy.true_measure.abstract_true_measure.AbstractTrueMeasure -->
<g id="edge11" class="edge">
<title>QMCSoftware.qmcpy.true_measure.scipy_wrapper.SciPyWrapper&#45;&gt;QMCSoftware.qmcpy.true_measure.abstract_true_measure.AbstractTrueMeasure</title>
<path fill="none" stroke="black" d="M1667.25,-658.52C1653.9,-679.88 1635.65,-703.58 1613.5,-719 1560.65,-755.8 1495.62,-780.16 1434.01,-796.27"/>
<polygon fill="none" stroke="black" points="1432.98,-792.92 1424.16,-798.79 1434.71,-799.71 1432.98,-792.92"/>
</g>
<!-- QMCSoftware.qmcpy.true_measure.student_t.StudentT -->
<g id="node13" class="node">
<title>QMCSoftware.qmcpy.true_measure.student_t.StudentT</title>
<polygon fill="none" stroke="black" points="1479,-324.1 1479,-394.9 1562,-394.9 1562,-324.1 1479,-324.1"/>
<text text-anchor="start" x="1487" y="-379.7" font-family="Times,serif" font-size="14.00">StudentT</text>
<polyline fill="none" stroke="black" points="1479,-371.9 1562,-371.9 "/>
<polyline fill="none" stroke="black" points="1479,-347.1 1562,-347.1 "/>
<text text-anchor="start" x="1518" y="-331.9" font-family="Times,serif" font-size="14.00"> </text>
</g>
<!-- QMCSoftware.qmcpy.true_measure.student_t.StudentT&#45;&gt;QMCSoftware.qmcpy.true_measure.scipy_wrapper.SciPyWrapper -->
<g id="edge12" class="edge">
<title>QMCSoftware.qmcpy.true_measure.student_t.StudentT&#45;&gt;QMCSoftware.qmcpy.true_measure.scipy_wrapper.SciPyWrapper</title>
<path fill="none" stroke="black" d="M1534.02,-395.31C1542.93,-415.84 1555.84,-441.7 1571.5,-462 1586.7,-481.7 1596.76,-480.59 1613.5,-499 1628.02,-514.98 1642.35,-533.62 1654.74,-550.92"/>
<polygon fill="none" stroke="black" points="1652.02,-553.14 1660.65,-559.28 1657.74,-549.1 1652.02,-553.14"/>
</g>
<!-- QMCSoftware.qmcpy.true_measure.triangular.Triangular -->
<g id="node14" class="node">
<title>QMCSoftware.qmcpy.true_measure.triangular.Triangular</title>
<polygon fill="none" stroke="black" points="1580.5,-324.1 1580.5,-394.9 1672.5,-394.9 1672.5,-324.1 1580.5,-324.1"/>
<text text-anchor="start" x="1588.5" y="-379.7" font-family="Times,serif" font-size="14.00">Triangular</text>
<polyline fill="none" stroke="black" points="1580.5,-371.9 1672.5,-371.9 "/>
<polyline fill="none" stroke="black" points="1580.5,-347.1 1672.5,-347.1 "/>
<text text-anchor="start" x="1624" y="-331.9" font-family="Times,serif" font-size="14.00"> </text>
</g>
<!-- QMCSoftware.qmcpy.true_measure.triangular.Triangular&#45;&gt;QMCSoftware.qmcpy.true_measure.scipy_wrapper.SciPyWrapper -->
<g id="edge13" class="edge">
<title>QMCSoftware.qmcpy.true_measure.triangular.Triangular&#45;&gt;QMCSoftware.qmcpy.true_measure.scipy_wrapper.SciPyWrapper</title>
<path fill="none" stroke="black" d="M1635.68,-394.91C1646.35,-434.93 1664.13,-501.62 1676.97,-549.75"/>
<polygon fill="none" stroke="black" points="1673.59,-550.66 1679.54,-559.42 1680.35,-548.85 1673.59,-550.66"/>
</g>
<!-- QMCSoftware.qmcpy.true_measure.triangular.TriangularDistribution -->
<g id="node15" class="node">
<title>QMCSoftware.qmcpy.true_measure.triangular.TriangularDistribution</title>
<polygon fill="none" stroke="black" points="1283.5,-53 1283.5,-167 1461.5,-167 1461.5,-53 1283.5,-53"/>
<text text-anchor="start" x="1291.5" y="-151.8" font-family="Times,serif" font-size="14.00">TriangularDistribution</text>
<polyline fill="none" stroke="black" points="1283.5,-144 1461.5,-144 "/>
<text text-anchor="start" x="1331.5" y="-128.8" font-family="Times,serif" font-size="14.00">c : float</text>
<text text-anchor="start" x="1331.5" y="-113.8" font-family="Times,serif" font-size="14.00">loc : float</text>
<text text-anchor="start" x="1331.5" y="-98.8" font-family="Times,serif" font-size="14.00">scale : float</text>
<polyline fill="none" stroke="black" points="1283.5,-91 1461.5,-91 "/>
<text text-anchor="start" x="1351" y="-75.8" font-family="Times,serif" font-size="14.00">pdf(x)</text>
<text text-anchor="start" x="1351" y="-60.8" font-family="Times,serif" font-size="14.00">ppf(u)</text>
</g>
<!-- QMCSoftware.qmcpy.true_measure.uniform.Uniform -->
<g id="node16" class="node">
<title>QMCSoftware.qmcpy.true_measure.uniform.Uniform</title>
<polygon fill="none" stroke="black" points="1780,-514.5 1780,-703.5 1923,-703.5 1923,-514.5 1780,-514.5"/>
<text text-anchor="start" x="1821.5" y="-688.3" font-family="Times,serif" font-size="14.00">Uniform</text>
<polyline fill="none" stroke="black" points="1780,-680.5 1923,-680.5 "/>
<text text-anchor="start" x="1788" y="-665.3" font-family="Times,serif" font-size="14.00">a : ndarray</text>
<text text-anchor="start" x="1788" y="-650.3" font-family="Times,serif" font-size="14.00">b : ndarray</text>
<text text-anchor="start" x="1788" y="-635.3" font-family="Times,serif" font-size="14.00">delta : ndarray</text>
<text text-anchor="start" x="1788" y="-620.3" font-family="Times,serif" font-size="14.00">domain : ndarray</text>
<text text-anchor="start" x="1788" y="-605.3" font-family="Times,serif" font-size="14.00">inv_delta_prod</text>
<text text-anchor="start" x="1788" y="-590.3" font-family="Times,serif" font-size="14.00">lower_bound : int</text>
<text text-anchor="start" x="1788" y="-575.3" font-family="Times,serif" font-size="14.00">parameters : list</text>
<text text-anchor="start" x="1788" y="-560.3" font-family="Times,serif" font-size="14.00">range : list, tuple</text>
<text text-anchor="start" x="1788" y="-545.3" font-family="Times,serif" font-size="14.00">upper_bound : int</text>
<polyline fill="none" stroke="black" points="1780,-537.5 1923,-537.5 "/>
<text text-anchor="start" x="1849" y="-522.3" font-family="Times,serif" font-size="14.00"> </text>
</g>
<!-- QMCSoftware.qmcpy.true_measure.uniform.Uniform&#45;&gt;QMCSoftware.qmcpy.true_measure.abstract_true_measure.AbstractTrueMeasure -->
<g id="edge14" class="edge">
<title>QMCSoftware.qmcpy.true_measure.uniform.Uniform&#45;&gt;QMCSoftware.qmcpy.true_measure.abstract_true_measure.AbstractTrueMeasure</title>
<path fill="none" stroke="black" d="M1791.07,-703.58C1784.96,-709.34 1778.43,-714.59 1771.5,-719 1715.73,-754.5 1563.63,-783.05 1434.09,-801.93"/>
<polygon fill="none" stroke="black" points="1433.41,-798.49 1424.01,-803.39 1434.41,-805.42 1433.41,-798.49"/>
</g>
<!-- QMCSoftware.qmcpy.true_measure.uniform_triangle.UniformTriangle -->
<g id="node17" class="node">
<title>QMCSoftware.qmcpy.true_measure.uniform_triangle.UniformTriangle</title>
<polygon fill="none" stroke="black" points="1691,-324.1 1691,-394.9 1826,-394.9 1826,-324.1 1691,-324.1"/>
<text text-anchor="start" x="1699" y="-379.7" font-family="Times,serif" font-size="14.00">UniformTriangle</text>
<polyline fill="none" stroke="black" points="1691,-371.9 1826,-371.9 "/>
<polyline fill="none" stroke="black" points="1691,-347.1 1826,-347.1 "/>
<text text-anchor="start" x="1756" y="-331.9" font-family="Times,serif" font-size="14.00"> </text>
</g>
<!-- QMCSoftware.qmcpy.true_measure.uniform_triangle.UniformTriangle&#45;&gt;QMCSoftware.qmcpy.true_measure.scipy_wrapper.SciPyWrapper -->
<g id="edge15" class="edge">
<title>QMCSoftware.qmcpy.true_measure.uniform_triangle.UniformTriangle&#45;&gt;QMCSoftware.qmcpy.true_measure.scipy_wrapper.SciPyWrapper</title>
<path fill="none" stroke="black" d="M1749.32,-394.91C1738.65,-434.93 1720.87,-501.62 1708.03,-549.75"/>
<polygon fill="none" stroke="black" points="1704.65,-548.85 1705.46,-559.42 1711.41,-550.66 1704.65,-548.85"/>
</g>
<!-- QMCSoftware.qmcpy.true_measure.zero_inflated_exp_uniform.ZeroInflatedExpUniform -->
<g id="node18" class="node">
<title>QMCSoftware.qmcpy.true_measure.zero_inflated_exp_uniform.ZeroInflatedExpUniform</title>
<polygon fill="none" stroke="black" points="1844,-324.1 1844,-394.9 2035,-394.9 2035,-324.1 1844,-324.1"/>
<text text-anchor="start" x="1852" y="-379.7" font-family="Times,serif" font-size="14.00">ZeroInflatedExpUniform</text>
<polyline fill="none" stroke="black" points="1844,-371.9 2035,-371.9 "/>
<polyline fill="none" stroke="black" points="1844,-347.1 2035,-347.1 "/>
<text text-anchor="start" x="1937" y="-331.9" font-family="Times,serif" font-size="14.00"> </text>
</g>
<!-- QMCSoftware.qmcpy.true_measure.zero_inflated_exp_uniform.ZeroInflatedExpUniform&#45;&gt;QMCSoftware.qmcpy.true_measure.scipy_wrapper.SciPyWrapper -->
<g id="edge16" class="edge">
<title>QMCSoftware.qmcpy.true_measure.zero_inflated_exp_uniform.ZeroInflatedExpUniform&#45;&gt;QMCSoftware.qmcpy.true_measure.scipy_wrapper.SciPyWrapper</title>
<path fill="none" stroke="black" d="M1908.17,-395.18C1888.45,-415.92 1861.84,-442.03 1835.5,-462 1809.32,-481.85 1795.9,-476.99 1771.5,-499 1754.95,-513.93 1739.76,-532.87 1727.22,-550.76"/>
<polygon fill="none" stroke="black" points="1724.04,-549.2 1721.28,-559.43 1729.82,-553.15 1724.04,-549.2"/>
</g>
<!-- QMCSoftware.qmcpy.true_measure.scipy_wrapper._MVNAdapter -->
<g id="node19" class="node">
<title>QMCSoftware.qmcpy.true_measure.scipy_wrapper._MVNAdapter</title>
<polygon fill="none" stroke="black" points="1479.5,-68 1479.5,-152 1595.5,-152 1595.5,-68 1479.5,-68"/>
<text text-anchor="start" x="1487.5" y="-136.8" font-family="Times,serif" font-size="14.00">_MVNAdapter</text>
<polyline fill="none" stroke="black" points="1479.5,-129 1595.5,-129 "/>
<text text-anchor="start" x="1523.5" y="-113.8" font-family="Times,serif" font-size="14.00">dim</text>
<polyline fill="none" stroke="black" points="1479.5,-106 1595.5,-106 "/>
<text text-anchor="start" x="1492" y="-90.8" font-family="Times,serif" font-size="14.00">logpdf(x)</text>
<text text-anchor="start" x="1492" y="-75.8" font-family="Times,serif" font-size="14.00">transform(u)</text>
</g>
<!-- QMCSoftware.qmcpy.true_measure.student_t._StudentTAdapter -->
<g id="node20" class="node">
<title>QMCSoftware.qmcpy.true_measure.student_t._StudentTAdapter</title>
<polygon fill="none" stroke="black" points="1613.5,-45.5 1613.5,-174.5 1759.5,-174.5 1759.5,-45.5 1613.5,-45.5"/>
<text text-anchor="start" x="1621.5" y="-159.3" font-family="Times,serif" font-size="14.00">_StudentTAdapter</text>
<polyline fill="none" stroke="black" points="1613.5,-151.5 1759.5,-151.5 "/>
<text text-anchor="start" x="1656.5" y="-136.3" font-family="Times,serif" font-size="14.00">df : float</text>
<text text-anchor="start" x="1656.5" y="-121.3" font-family="Times,serif" font-size="14.00">dim</text>
<text text-anchor="start" x="1656.5" y="-106.3" font-family="Times,serif" font-size="14.00">loc</text>
<text text-anchor="start" x="1656.5" y="-91.3" font-family="Times,serif" font-size="14.00">shape</text>
<polyline fill="none" stroke="black" points="1613.5,-83.5 1759.5,-83.5 "/>
<text text-anchor="start" x="1641" y="-68.3" font-family="Times,serif" font-size="14.00">logpdf(x)</text>
<text text-anchor="start" x="1641" y="-53.3" font-family="Times,serif" font-size="14.00">transform(u)</text>
</g>
<!-- QMCSoftware.qmcpy.true_measure.uniform_triangle._UniformTriangleAdapter -->
<g id="node21" class="node">
<title>QMCSoftware.qmcpy.true_measure.uniform_triangle._UniformTriangleAdapter</title>
<polygon fill="none" stroke="black" points="1778,-68 1778,-152 1977,-152 1977,-68 1778,-68"/>
<text text-anchor="start" x="1786" y="-136.8" font-family="Times,serif" font-size="14.00">_UniformTriangleAdapter</text>
<polyline fill="none" stroke="black" points="1778,-129 1977,-129 "/>
<text text-anchor="start" x="1847" y="-113.8" font-family="Times,serif" font-size="14.00">dim : int</text>
<polyline fill="none" stroke="black" points="1778,-106 1977,-106 "/>
<text text-anchor="start" x="1832" y="-90.8" font-family="Times,serif" font-size="14.00">logpdf(x)</text>
<text text-anchor="start" x="1832" y="-75.8" font-family="Times,serif" font-size="14.00">transform(u)</text>
</g>
<!-- QMCSoftware.qmcpy.true_measure.zero_inflated_exp_uniform._ZeroInflatedExpUniformAdapter -->
<g id="node22" class="node">
<title>QMCSoftware.qmcpy.true_measure.zero_inflated_exp_uniform._ZeroInflatedExpUniformAdapter</title>
<polygon fill="none" stroke="black" points="1995,-53 1995,-167 2250,-167 2250,-53 1995,-53"/>
<text text-anchor="start" x="2003" y="-151.8" font-family="Times,serif" font-size="14.00">_ZeroInflatedExpUniformAdapter</text>
<polyline fill="none" stroke="black" points="1995,-144 2250,-144 "/>
<text text-anchor="start" x="2076.5" y="-128.8" font-family="Times,serif" font-size="14.00">dim : int</text>
<text text-anchor="start" x="2076.5" y="-113.8" font-family="Times,serif" font-size="14.00">lam : float</text>
<text text-anchor="start" x="2076.5" y="-98.8" font-family="Times,serif" font-size="14.00">p_zero : float</text>
<text text-anchor="start" x="2076.5" y="-83.8" font-family="Times,serif" font-size="14.00">y_split : float</text>
<polyline fill="none" stroke="black" points="1995,-76 2250,-76 "/>
<text text-anchor="start" x="2077" y="-60.8" font-family="Times,serif" font-size="14.00">transform(u)</text>
</g>
</g>
</svg>
