<?xml version="1.0" encoding="UTF-8" standalone="no"?>
<!DOCTYPE svg PUBLIC "-//W3C//DTD SVG 1.1//EN"
 "http://www.w3.org/Graphics/SVG/1.1/DTD/svg11.dtd">
<!-- Generated by graphviz version 2.43.0 (0)
 -->
<!-- Title: classes Pages: 1 -->
<svg width="1577pt" height="267pt"
 viewBox="0.00 0.00 1576.50 267.00" xmlns="http://www.w3.org/2000/svg" xmlns:xlink="http://www.w3.org/1999/xlink">
<g id="graph0" class="graph" transform="scale(1 1) rotate(0) translate(4 263)">
<title>classes</title>
<polygon fill="white" stroke="transparent" points="-4,4 -4,-263 1572.5,-263 1572.5,4 -4,4"/>
<!-- QMCSoftware.qmcpy.true_measure.abstract_true_measure.AbstractTrueMeasure -->
<g id="node1" class="node">
<title>QMCSoftware.qmcpy.true_measure.abstract_true_measure.AbstractTrueMeasure</title>
<polygon fill="none" stroke="black" points="594.5,-222.5 594.5,-258.5 767.5,-258.5 767.5,-222.5 594.5,-222.5"/>
<text text-anchor="start" x="602.5" y="-236.8" font-family="Times,serif" font-size="14.00">AbstractTrueMeasure</text>
</g>
<!-- QMCSoftware.qmcpy.true_measure.abstract_true_measure.AbstractTrueMeasure&#45;&gt;QMCSoftware.qmcpy.true_measure.abstract_true_measure.AbstractTrueMeasure -->
<g id="edge17" class="edge">
<title>QMCSoftware.qmcpy.true_measure.abstract_true_measure.AbstractTrueMeasure&#45;&gt;QMCSoftware.qmcpy.true_measure.abstract_true_measure.AbstractTrueMeasure</title>
<path fill="none" stroke="black" d="M767.89,-234.66C778.53,-235.71 785.5,-237.65 785.5,-240.5 785.5,-242.06 783.41,-243.35 779.78,-244.36"/>
<polygon fill="none" stroke="black" points="779.72,-244.37 774.46,-249.3 767.89,-246.34 773.15,-241.41 779.72,-244.37"/>
<text text-anchor="middle" x="821.5" y="-236.8" font-family="Times,serif" font-size="14.00" fill="green">transform</text>
</g>
<!-- QMCSoftware.qmcpy.true_measure.acceptance_rejection.AcceptanceRejection -->
<g id="node2" class="node">
<title>QMCSoftware.qmcpy.true_measure.acceptance_rejection.AcceptanceRejection</title>
<polygon fill="none" stroke="black" points="0,-148.5 0,-184.5 164,-184.5 164,-148.5 0,-148.5"/>
<text text-anchor="start" x="8" y="-162.8" font-family="Times,serif" font-size="14.00">AcceptanceRejection</text>
</g>
<!-- QMCSoftware.qmcpy.true_measure.acceptance_rejection.AcceptanceRejection&#45;&gt;QMCSoftware.qmcpy.true_measure.abstract_true_measure.AbstractTrueMeasure -->
<g id="edge1" class="edge">
<title>QMCSoftware.qmcpy.true_measure.acceptance_rejection.AcceptanceRejection&#45;&gt;QMCSoftware.qmcpy.true_measure.abstract_true_measure.AbstractTrueMeasure</title>
<path fill="none" stroke="black" d="M164.29,-183.64C167.22,-184.12 170.14,-184.57 173,-185 315.63,-206.33 481.99,-222.55 584.42,-231.55"/>
<polygon fill="none" stroke="black" points="584.16,-235.04 594.43,-232.42 584.77,-228.06 584.16,-235.04"/>
</g>
<!-- QMCSoftware.qmcpy.true_measure.acceptance_rejection.AcceptanceRejectionReal -->
<g id="node3" class="node">
<title>QMCSoftware.qmcpy.true_measure.acceptance_rejection.AcceptanceRejectionReal</title>
<polygon fill="none" stroke="black" points="182,-148.5 182,-184.5 378,-184.5 378,-148.5 182,-148.5"/>
<text text-anchor="start" x="190" y="-162.8" font-family="Times,serif" font-size="14.00">AcceptanceRejectionReal</text>
</g>
<!-- QMCSoftware.qmcpy.true_measure.acceptance_rejection.AcceptanceRejectionReal&#45;&gt;QMCSoftware.qmcpy.true_measure.abstract_true_measure.AbstractTrueMeasure -->
<g id="edge2" class="edge">
<title>QMCSoftware.qmcpy.true_measure.acceptance_rejection.AcceptanceRejectionReal&#45;&gt;QMCSoftware.qmcpy.true_measure.abstract_true_measure.AbstractTrueMeasure</title>
<path fill="none" stroke="black" d="M374.78,-184.52C437.97,-195.86 520.8,-210.74 584.38,-222.15"/>
<polygon fill="none" stroke="black" points="583.95,-225.63 594.41,-223.95 585.18,-218.74 583.95,-225.63"/>
</g>
<!-- QMCSoftware.qmcpy.true_measure.bernoulli_cont.BernoulliCont -->
<g id="node4" class="node">
<title>QMCSoftware.qmcpy.true_measure.bernoulli_cont.BernoulliCont</title>
<polygon fill="none" stroke="black" points="396,-148.5 396,-184.5 512,-184.5 512,-148.5 396,-148.5"/>
<text text-anchor="start" x="404" y="-162.8" font-family="Times,serif" font-size="14.00">BernoulliCont</text>
</g>
<!-- QMCSoftware.qmcpy.true_measure.bernoulli_cont.BernoulliCont&#45;&gt;QMCSoftware.qmcpy.true_measure.abstract_true_measure.AbstractTrueMeasure -->
<g id="edge3" class="edge">
<title>QMCSoftware.qmcpy.true_measure.bernoulli_cont.BernoulliCont&#45;&gt;QMCSoftware.qmcpy.true_measure.abstract_true_measure.AbstractTrueMeasure</title>
<path fill="none" stroke="black" d="M507.8,-184.56C540.61,-194.97 582.73,-208.33 617.22,-219.27"/>
<polygon fill="none" stroke="black" points="616.61,-222.75 627.2,-222.43 618.72,-216.08 616.61,-222.75"/>
</g>
<!-- QMCSoftware.qmcpy.true_measure.brownian_motion.BrownianMotion -->
<g id="node5" class="node">
<title>QMCSoftware.qmcpy.true_measure.brownian_motion.BrownianMotion</title>
<polygon fill="none" stroke="black" points="411.5,-74.5 411.5,-110.5 546.5,-110.5 546.5,-74.5 411.5,-74.5"/>
<text text-anchor="start" x="419.5" y="-88.8" font-family="Times,serif" font-size="14.00">BrownianMotion</text>
</g>
<!-- QMCSoftware.qmcpy.true_measure.gaussian.Gaussian -->
<g id="node6" class="node">
<title>QMCSoftware.qmcpy.true_measure.gaussian.Gaussian</title>
<polygon fill="none" stroke="black" points="530,-148.5 530,-184.5 612,-184.5 612,-148.5 530,-148.5"/>
<text text-anchor="start" x="538" y="-162.8" font-family="Times,serif" font-size="14.00">Gaussian</text>
</g>
<!-- QMCSoftware.qmcpy.true_measure.brownian_motion.BrownianMotion&#45;&gt;QMCSoftware.qmcpy.true_measure.gaussian.Gaussian -->
<g id="edge4" class="edge">
<title>QMCSoftware.qmcpy.true_measure.brownian_motion.BrownianMotion&#45;&gt;QMCSoftware.qmcpy.true_measure.gaussian.Gaussian</title>
<path fill="none" stroke="black" d="M500.8,-110.56C512.86,-120 528.02,-131.86 541.16,-142.15"/>
<polygon fill="none" stroke="black" points="539,-144.9 549.03,-148.31 543.32,-139.39 539,-144.9"/>
</g>
<!-- QMCSoftware.qmcpy.true_measure.gaussian.Gaussian&#45;&gt;QMCSoftware.qmcpy.true_measure.abstract_true_measure.AbstractTrueMeasure -->
<g id="edge5" class="edge">
<title>QMCSoftware.qmcpy.true_measure.gaussian.Gaussian&#45;&gt;QMCSoftware.qmcpy.true_measure.abstract_true_measure.AbstractTrueMeasure</title>
<path fill="none" stroke="black" d="M597.07,-184.56C611.76,-194.18 630.29,-206.31 646.21,-216.73"/>
<polygon fill="none" stroke="black" points="644.45,-219.76 654.74,-222.31 648.29,-213.9 644.45,-219.76"/>
</g>
<!-- QMCSoftware.qmcpy.true_measure.geometric_brownian_motion.GeometricBrownianMotion -->
<g id="node7" class="node">
<title>QMCSoftware.qmcpy.true_measure.geometric_brownian_motion.GeometricBrownianMotion</title>
<polygon fill="none" stroke="black" points="374.5,-0.5 374.5,-36.5 583.5,-36.5 583.5,-0.5 374.5,-0.5"/>
<text text-anchor="start" x="382.5" y="-14.8" font-family="Times,serif" font-size="14.00">GeometricBrownianMotion</text>
</g>
<!-- QMCSoftware.qmcpy.true_measure.geometric_brownian_motion.GeometricBrownianMotion&#45;&gt;QMCSoftware.qmcpy.true_measure.brownian_motion.BrownianMotion -->
<g id="edge6" class="edge">
<title>QMCSoftware.qmcpy.true_measure.geometric_brownian_motion.GeometricBrownianMotion&#45;&gt;QMCSoftware.qmcpy.true_measure.brownian_motion.BrownianMotion</title>
<path fill="none" stroke="black" d="M479,-36.56C479,-44.69 479,-54.62 479,-63.8"/>
<polygon fill="none" stroke="black" points="475.5,-64.06 479,-74.06 482.5,-64.06 475.5,-64.06"/>
</g>
<!-- QMCSoftware.qmcpy.true_measure.johnsons_su.JohnsonsSU -->
<g id="node8" class="node">
<title>QMCSoftware.qmcpy.true_measure.johnsons_su.JohnsonsSU</title>
<polygon fill="none" stroke="black" points="630,-148.5 630,-184.5 732,-184.5 732,-148.5 630,-148.5"/>
<text text-anchor="start" x="638" y="-162.8" font-family="Times,serif" font-size="14.00">JohnsonsSU</text>
</g>
<!-- QMCSoftware.qmcpy.true_measure.johnsons_su.JohnsonsSU&#45;&gt;QMCSoftware.qmcpy.true_measure.abstract_true_measure.AbstractTrueMeasure -->
<g id="edge7" class="edge">
<title>QMCSoftware.qmcpy.true_measure.johnsons_su.JohnsonsSU&#45;&gt;QMCSoftware.qmcpy.true_measure.abstract_true_measure.AbstractTrueMeasure</title>
<path fill="none" stroke="black" d="M681,-184.56C681,-192.69 681,-202.62 681,-211.8"/>
<polygon fill="none" stroke="black" points="677.5,-212.06 681,-222.06 684.5,-212.06 677.5,-212.06"/>
</g>
<!-- QMCSoftware.qmcpy.true_measure.kumaraswamy.Kumaraswamy -->
<g id="node9" class="node">
<title>QMCSoftware.qmcpy.true_measure.kumaraswamy.Kumaraswamy</title>
<polygon fill="none" stroke="black" points="750,-148.5 750,-184.5 872,-184.5 872,-148.5 750,-148.5"/>
<text text-anchor="start" x="758" y="-162.8" font-family="Times,serif" font-size="14.00">Kumaraswamy</text>
</g>
<!-- QMCSoftware.qmcpy.true_measure.kumaraswamy.Kumaraswamy&#45;&gt;QMCSoftware.qmcpy.true_measure.abstract_true_measure.AbstractTrueMeasure -->
<g id="edge8" class="edge">
<title>QMCSoftware.qmcpy.true_measure.kumaraswamy.Kumaraswamy&#45;&gt;QMCSoftware.qmcpy.true_measure.abstract_true_measure.AbstractTrueMeasure</title>
<path fill="none" stroke="black" d="M780.19,-184.56C762.43,-194.4 739.91,-206.87 720.82,-217.45"/>
<polygon fill="none" stroke="black" points="719.09,-214.4 712.04,-222.31 722.48,-220.53 719.09,-214.4"/>
</g>
<!-- QMCSoftware.qmcpy.true_measure.lebesgue.Lebesgue -->
<g id="node10" class="node">
<title>QMCSoftware.qmcpy.true_measure.lebesgue.Lebesgue</title>
<polygon fill="none" stroke="black" points="890.5,-148.5 890.5,-184.5 975.5,-184.5 975.5,-148.5 890.5,-148.5"/>
<text text-anchor="start" x="898.5" y="-162.8" font-family="Times,serif" font-size="14.00">Lebesgue</text>
</g>
<!-- QMCSoftware.qmcpy.true_measure.lebesgue.Lebesgue&#45;&gt;QMCSoftware.qmcpy.true_measure.abstract_true_measure.AbstractTrueMeasure -->
<g id="edge9" class="edge">
<title>QMCSoftware.qmcpy.true_measure.lebesgue.Lebesgue&#45;&gt;QMCSoftware.qmcpy.true_measure.abstract_true_measure.AbstractTrueMeasure</title>
<path fill="none" stroke="black" d="M890.5,-182.03C887.29,-183.06 884.1,-184.06 881,-185 840.39,-197.36 794.74,-209.9 757.32,-219.83"/>
<polygon fill="none" stroke="black" points="756.26,-216.49 747.49,-222.43 758.05,-223.25 756.26,-216.49"/>
</g>
<!-- QMCSoftware.qmcpy.true_measure.matern_gp.MaternGP -->
<g id="node11" class="node">
<title>QMCSoftware.qmcpy.true_measure.matern_gp.MaternGP</title>
<polygon fill="none" stroke="black" points="565,-74.5 565,-110.5 655,-110.5 655,-74.5 565,-74.5"/>
<text text-anchor="start" x="573" y="-88.8" font-family="Times,serif" font-size="14.00">MaternGP</text>
</g>
<!-- QMCSoftware.qmcpy.true_measure.matern_gp.MaternGP&#45;&gt;QMCSoftware.qmcpy.true_measure.gaussian.Gaussian -->
<g id="edge10" class="edge">
<title>QMCSoftware.qmcpy.true_measure.matern_gp.MaternGP&#45;&gt;QMCSoftware.qmcpy.true_measure.gaussian.Gaussian</title>
<path fill="none" stroke="black" d="M600.76,-110.56C596.16,-119.05 590.5,-129.49 585.36,-138.99"/>
<polygon fill="none" stroke="black" points="582.13,-137.6 580.45,-148.06 588.29,-140.93 582.13,-137.6"/>
</g>
<!-- QMCSoftware.qmcpy.true_measure.scipy_wrapper.SciPyWrapper -->
<g id="node12" class="node">
<title>QMCSoftware.qmcpy.true_measure.scipy_wrapper.SciPyWrapper</title>
<polygon fill="none" stroke="black" points="994,-148.5 994,-184.5 1112,-184.5 1112,-148.5 994,-148.5"/>
<text text-anchor="start" x="1002" y="-162.8" font-family="Times,serif" font-size="14.00">SciPyWrapper</text>
</g>
<!-- QMCSoftware.qmcpy.true_measure.scipy_wrapper.SciPyWrapper&#45;&gt;QMCSoftware.qmcpy.true_measure.abstract_true_measure.AbstractTrueMeasure -->
<g id="edge11" class="edge">
<title>QMCSoftware.qmcpy.true_measure.scipy_wrapper.SciPyWrapper&#45;&gt;QMCSoftware.qmcpy.true_measure.abstract_true_measure.AbstractTrueMeasure</title>
<path fill="none" stroke="black" d="M993.72,-183.03C990.78,-183.72 987.86,-184.38 985,-185 916.16,-200.01 837.9,-213.97 778.02,-224"/>
<polygon fill="none" stroke="black" points="777.11,-220.6 767.82,-225.7 778.26,-227.51 777.11,-220.6"/>
</g>
<!-- QMCSoftware.qmcpy.true_measure.student_t.StudentT -->
<g id="node13" class="node">
<title>QMCSoftware.qmcpy.true_measure.student_t.StudentT</title>
<polygon fill="none" stroke="black" points="839.5,-74.5 839.5,-110.5 922.5,-110.5 922.5,-74.5 839.5,-74.5"/>
<text text-anchor="start" x="847.5" y="-88.8" font-family="Times,serif" font-size="14.00">StudentT</text>
</g>
<!-- QMCSoftware.qmcpy.true_measure.student_t.StudentT&#45;&gt;QMCSoftware.qmcpy.true_measure.scipy_wrapper.SciPyWrapper -->
<g id="edge12" class="edge">
<title>QMCSoftware.qmcpy.true_measure.student_t.StudentT&#45;&gt;QMCSoftware.qmcpy.true_measure.scipy_wrapper.SciPyWrapper</title>
<path fill="none" stroke="black" d="M921.76,-110.56C946.09,-120.75 977.18,-133.76 1002.99,-144.56"/>
<polygon fill="none" stroke="black" points="1001.66,-147.8 1012.23,-148.43 1004.36,-141.34 1001.66,-147.8"/>
</g>
<!-- QMCSoftware.qmcpy.true_measure.triangular.Triangular -->
<g id="node14" class="node">
<title>QMCSoftware.qmcpy.true_measure.triangular.Triangular</title>
<polygon fill="none" stroke="black" points="941,-74.5 941,-110.5 1033,-110.5 1033,-74.5 941,-74.5"/>
<text text-anchor="start" x="949" y="-88.8" font-family="Times,serif" font-size="14.00">Triangular</text>
</g>
<!-- QMCSoftware.qmcpy.true_measure.triangular.Triangular&#45;&gt;QMCSoftware.qmcpy.true_measure.scipy_wrapper.SciPyWrapper -->
<g id="edge13" class="edge">
<title>QMCSoftware.qmcpy.true_measure.triangular.Triangular&#45;&gt;QMCSoftware.qmcpy.true_measure.scipy_wrapper.SciPyWrapper</title>
<path fill="none" stroke="black" d="M1002.64,-110.56C1010.82,-119.49 1020.99,-130.58 1030.05,-140.46"/>
<polygon fill="none" stroke="black" points="1027.68,-143.05 1037.01,-148.06 1032.84,-138.32 1027.68,-143.05"/>
</g>
<!-- QMCSoftware.qmcpy.true_measure.triangular.TriangularDistribution -->
<g id="node15" class="node">
<title>QMCSoftware.qmcpy.true_measure.triangular.TriangularDistribution</title>
<polygon fill="none" stroke="black" points="602,-0.5 602,-36.5 780,-36.5 780,-0.5 602,-0.5"/>
<text text-anchor="start" x="610" y="-14.8" font-family="Times,serif" font-size="14.00">TriangularDistribution</text>
</g>
<!-- QMCSoftware.qmcpy.true_measure.uniform.Uniform -->
<g id="node16" class="node">
<title>QMCSoftware.qmcpy.true_measure.uniform.Uniform</title>
<polygon fill="none" stroke="black" points="1130,-148.5 1130,-184.5 1206,-184.5 1206,-148.5 1130,-148.5"/>
<text text-anchor="start" x="1138" y="-162.8" font-family="Times,serif" font-size="14.00">Uniform</text>
</g>
<!-- QMCSoftware.qmcpy.true_measure.uniform.Uniform&#45;&gt;QMCSoftware.qmcpy.true_measure.abstract_true_measure.AbstractTrueMeasure -->
<g id="edge14" class="edge">
<title>QMCSoftware.qmcpy.true_measure.uniform.Uniform&#45;&gt;QMCSoftware.qmcpy.true_measure.abstract_true_measure.AbstractTrueMeasure</title>
<path fill="none" stroke="black" d="M1129.75,-182.57C1126.82,-183.47 1123.88,-184.3 1121,-185 1004.91,-213.39 867.78,-227.39 777.84,-234.01"/>
<polygon fill="none" stroke="black" points="777.38,-230.54 767.66,-234.75 777.88,-237.52 777.38,-230.54"/>
</g>
<!-- QMCSoftware.qmcpy.true_measure.uniform_triangle.UniformTriangle -->
<g id="node17" class="node">
<title>QMCSoftware.qmcpy.true_measure.uniform_triangle.UniformTriangle</title>
<polygon fill="none" stroke="black" points="1051.5,-74.5 1051.5,-110.5 1186.5,-110.5 1186.5,-74.5 1051.5,-74.5"/>
<text text-anchor="start" x="1059.5" y="-88.8" font-family="Times,serif" font-size="14.00">UniformTriangle</text>
</g>
<!-- QMCSoftware.qmcpy.true_measure.uniform_triangle.UniformTriangle&#45;&gt;QMCSoftware.qmcpy.true_measure.scipy_wrapper.SciPyWrapper -->
<g id="edge15" class="edge">
<title>QMCSoftware.qmcpy.true_measure.uniform_triangle.UniformTriangle&#45;&gt;QMCSoftware.qmcpy.true_measure.scipy_wrapper.SciPyWrapper</title>
<path fill="none" stroke="black" d="M1103.36,-110.56C1095.18,-119.49 1085.01,-130.58 1075.95,-140.46"/>
<polygon fill="none" stroke="black" points="1073.16,-138.32 1068.99,-148.06 1078.32,-143.05 1073.16,-138.32"/>
</g>
<!-- QMCSoftware.qmcpy.true_measure.zero_inflated_exp_uniform.ZeroInflatedExpUniform -->
<g id="node18" class="node">
<title>QMCSoftware.qmcpy.true_measure.zero_inflated_exp_uniform.ZeroInflatedExpUniform</title>
<polygon fill="none" stroke="black" points="1204.5,-74.5 1204.5,-110.5 1395.5,-110.5 1395.5,-74.5 1204.5,-74.5"/>
<text text-anchor="start" x="1212.5" y="-88.8" font-family="Times,serif" font-size="14.00">ZeroInflatedExpUniform</text>
</g>
<!-- QMCSoftware.qmcpy.true_measure.zero_inflated_exp_uniform.ZeroInflatedExpUniform&#45;&gt;QMCSoftware.qmcpy.true_measure.scipy_wrapper.SciPyWrapper -->
<g id="edge16" class="edge">
<title>QMCSoftware.qmcpy.true_measure.zero_inflated_exp_uniform.ZeroInflatedExpUniform&#45;&gt;QMCSoftware.qmcpy.true_measure.scipy_wrapper.SciPyWrapper</title>
<path fill="none" stroke="black" d="M1241.46,-110.56C1205.45,-121.06 1159.14,-134.56 1121.43,-145.55"/>
<polygon fill="none" stroke="black" points="1120.16,-142.28 1111.54,-148.43 1122.12,-149 1120.16,-142.28"/>
</g>
<!-- QMCSoftware.qmcpy.true_measure.scipy_wrapper._MVNAdapter -->
<g id="node19" class="node">
<title>QMCSoftware.qmcpy.true_measure.scipy_wrapper._MVNAdapter</title>
<polygon fill="none" stroke="black" points="798,-0.5 798,-36.5 914,-36.5 914,-0.5 798,-0.5"/>
<text text-anchor="start" x="806" y="-14.8" font-family="Times,serif" font-size="14.00">_MVNAdapter</text>
</g>
<!-- QMCSoftware.qmcpy.true_measure.student_t._StudentTAdapter -->
<g id="node20" class="node">
<title>QMCSoftware.qmcpy.true_measure.student_t._StudentTAdapter</title>
<polygon fill="none" stroke="black" points="932,-0.5 932,-36.5 1078,-36.5 1078,-0.5 932,-0.5"/>
<text text-anchor="start" x="940" y="-14.8" font-family="Times,serif" font-size="14.00">_StudentTAdapter</text>
</g>
<!-- QMCSoftware.qmcpy.true_measure.uniform_triangle._UniformTriangleAdapter -->
<g id="node21" class="node">
<title>QMCSoftware.qmcpy.true_measure.uniform_triangle._UniformTriangleAdapter</title>
<polygon fill="none" stroke="black" points="1096.5,-0.5 1096.5,-36.5 1295.5,-36.5 1295.5,-0.5 1096.5,-0.5"/>
<text text-anchor="start" x="1104.5" y="-14.8" font-family="Times,serif" font-size="14.00">_UniformTriangleAdapter</text>
</g>
<!-- QMCSoftware.qmcpy.true_measure.zero_inflated_exp_uniform._ZeroInflatedExpUniformAdapter -->
<g id="node22" class="node">
<title>QMCSoftware.qmcpy.true_measure.zero_inflated_exp_uniform._ZeroInflatedExpUniformAdapter</title>
<polygon fill="none" stroke="black" points="1313.5,-0.5 1313.5,-36.5 1568.5,-36.5 1568.5,-0.5 1313.5,-0.5"/>
<text text-anchor="start" x="1321.5" y="-14.8" font-family="Times,serif" font-size="14.00">_ZeroInflatedExpUniformAdapter</text>
</g>
</g>
</svg>
