<?xml version="1.0" encoding="UTF-8" standalone="no"?>
<!DOCTYPE svg PUBLIC "-//W3C//DTD SVG 1.1//EN"
 "http://www.w3.org/Graphics/SVG/1.1/DTD/svg11.dtd">
<!-- Generated by graphviz version 2.43.0 (0)
 -->
<!-- Title: classes Pages: 1 -->
<svg width="840pt" height="267pt"
 viewBox="0.00 0.00 839.50 267.00" xmlns="http://www.w3.org/2000/svg" xmlns:xlink="http://www.w3.org/1999/xlink">
<g id="graph0" class="graph" transform="scale(1 1) rotate(0) translate(4 263)">
<title>classes</title>
<polygon fill="white" stroke="transparent" points="-4,4 -4,-263 835.5,-263 835.5,4 -4,4"/>
<!-- QMCSoftware.qmcpy.true_measure.abstract_true_measure.AbstractTrueMeasure -->
<g id="node1" class="node">
<title>QMCSoftware.qmcpy.true_measure.abstract_true_measure.AbstractTrueMeasure</title>
<polygon fill="none" stroke="black" points="350,-222.5 350,-258.5 523,-258.5 523,-222.5 350,-222.5"/>
<text text-anchor="start" x="358" y="-236.8" font-family="Times,serif" font-size="14.00">AbstractTrueMeasure</text>
</g>
<!-- QMCSoftware.qmcpy.true_measure.abstract_true_measure.AbstractTrueMeasure&#45;&gt;QMCSoftware.qmcpy.true_measure.abstract_true_measure.AbstractTrueMeasure -->
<g id="edge11" class="edge">
<title>QMCSoftware.qmcpy.true_measure.abstract_true_measure.AbstractTrueMeasure&#45;&gt;QMCSoftware.qmcpy.true_measure.abstract_true_measure.AbstractTrueMeasure</title>
<path fill="none" stroke="black" d="M523.39,-234.66C534.03,-235.71 541,-237.65 541,-240.5 541,-242.06 538.91,-243.35 535.28,-244.36"/>
<polygon fill="none" stroke="black" points="535.22,-244.37 529.96,-249.3 523.39,-246.34 528.65,-241.41 535.22,-244.37"/>
<text text-anchor="middle" x="577" y="-236.8" font-family="Times,serif" font-size="14.00" fill="green">transform</text>
</g>
<!-- QMCSoftware.qmcpy.true_measure.bernoulli_cont.BernoulliCont -->
<g id="node2" class="node">
<title>QMCSoftware.qmcpy.true_measure.bernoulli_cont.BernoulliCont</title>
<polygon fill="none" stroke="black" points="21.5,-148.5 21.5,-184.5 137.5,-184.5 137.5,-148.5 21.5,-148.5"/>
<text text-anchor="start" x="29.5" y="-162.8" font-family="Times,serif" font-size="14.00">BernoulliCont</text>
</g>
<!-- QMCSoftware.qmcpy.true_measure.bernoulli_cont.BernoulliCont&#45;&gt;QMCSoftware.qmcpy.true_measure.abstract_true_measure.AbstractTrueMeasure -->
<g id="edge1" class="edge">
<title>QMCSoftware.qmcpy.true_measure.bernoulli_cont.BernoulliCont&#45;&gt;QMCSoftware.qmcpy.true_measure.abstract_true_measure.AbstractTrueMeasure</title>
<path fill="none" stroke="black" d="M137.54,-182.93C140.57,-183.65 143.57,-184.34 146.5,-185 210.63,-199.38 283.32,-213.04 339.88,-223.08"/>
<polygon fill="none" stroke="black" points="339.43,-226.56 349.89,-224.85 340.65,-219.66 339.43,-226.56"/>
</g>
<!-- QMCSoftware.qmcpy.true_measure.brownian_motion.BrownianMotion -->
<g id="node3" class="node">
<title>QMCSoftware.qmcpy.true_measure.brownian_motion.BrownianMotion</title>
<polygon fill="none" stroke="black" points="37,-74.5 37,-110.5 172,-110.5 172,-74.5 37,-74.5"/>
<text text-anchor="start" x="45" y="-88.8" font-family="Times,serif" font-size="14.00">BrownianMotion</text>
</g>
<!-- QMCSoftware.qmcpy.true_measure.gaussian.Gaussian -->
<g id="node4" class="node">
<title>QMCSoftware.qmcpy.true_measure.gaussian.Gaussian</title>
<polygon fill="none" stroke="black" points="155.5,-148.5 155.5,-184.5 237.5,-184.5 237.5,-148.5 155.5,-148.5"/>
<text text-anchor="start" x="163.5" y="-162.8" font-family="Times,serif" font-size="14.00">Gaussian</text>
</g>
<!-- QMCSoftware.qmcpy.true_measure.brownian_motion.BrownianMotion&#45;&gt;QMCSoftware.qmcpy.true_measure.gaussian.Gaussian -->
<g id="edge2" class="edge">
<title>QMCSoftware.qmcpy.true_measure.brownian_motion.BrownianMotion&#45;&gt;QMCSoftware.qmcpy.true_measure.gaussian.Gaussian</title>
<path fill="none" stroke="black" d="M126.3,-110.56C138.36,-120 153.52,-131.86 166.66,-142.15"/>
<polygon fill="none" stroke="black" points="164.5,-144.9 174.53,-148.31 168.82,-139.39 164.5,-144.9"/>
</g>
<!-- QMCSoftware.qmcpy.true_measure.gaussian.Gaussian&#45;&gt;QMCSoftware.qmcpy.true_measure.abstract_true_measure.AbstractTrueMeasure -->
<g id="edge3" class="edge">
<title>QMCSoftware.qmcpy.true_measure.gaussian.Gaussian&#45;&gt;QMCSoftware.qmcpy.true_measure.abstract_true_measure.AbstractTrueMeasure</title>
<path fill="none" stroke="black" d="M237.64,-182.11C240.63,-183.11 243.61,-184.08 246.5,-185 285.06,-197.27 328.41,-209.8 363.95,-219.74"/>
<polygon fill="none" stroke="black" points="363.19,-223.16 373.76,-222.48 365.07,-216.42 363.19,-223.16"/>
</g>
<!-- QMCSoftware.qmcpy.true_measure.geometric_brownian_motion.GeometricBrownianMotion -->
<g id="node5" class="node">
<title>QMCSoftware.qmcpy.true_measure.geometric_brownian_motion.GeometricBrownianMotion</title>
<polygon fill="none" stroke="black" points="0,-0.5 0,-36.5 209,-36.5 209,-0.5 0,-0.5"/>
<text text-anchor="start" x="8" y="-14.8" font-family="Times,serif" font-size="14.00">GeometricBrownianMotion</text>
</g>
<!-- QMCSoftware.qmcpy.true_measure.geometric_brownian_motion.GeometricBrownianMotion&#45;&gt;QMCSoftware.qmcpy.true_measure.brownian_motion.BrownianMotion -->
<g id="edge4" class="edge">
<title>QMCSoftware.qmcpy.true_measure.geometric_brownian_motion.GeometricBrownianMotion&#45;&gt;QMCSoftware.qmcpy.true_measure.brownian_motion.BrownianMotion</title>
<path fill="none" stroke="black" d="M104.5,-36.56C104.5,-44.69 104.5,-54.62 104.5,-63.8"/>
<polygon fill="none" stroke="black" points="101,-64.06 104.5,-74.06 108,-64.06 101,-64.06"/>
</g>
<!-- QMCSoftware.qmcpy.true_measure.johnsons_su.JohnsonsSU -->
<g id="node6" class="node">
<title>QMCSoftware.qmcpy.true_measure.johnsons_su.JohnsonsSU</title>
<polygon fill="none" stroke="black" points="255.5,-148.5 255.5,-184.5 357.5,-184.5 357.5,-148.5 255.5,-148.5"/>
<text text-anchor="start" x="263.5" y="-162.8" font-family="Times,serif" font-size="14.00">JohnsonsSU</text>
</g>
<!-- QMCSoftware.qmcpy.true_measure.johnsons_su.JohnsonsSU&#45;&gt;QMCSoftware.qmcpy.true_measure.abstract_true_measure.AbstractTrueMeasure -->
<g id="edge5" class="edge">
<title>QMCSoftware.qmcpy.true_measure.johnsons_su.JohnsonsSU&#45;&gt;QMCSoftware.qmcpy.true_measure.abstract_true_measure.AbstractTrueMeasure</title>
<path fill="none" stroke="black" d="M337.31,-184.56C355.07,-194.4 377.59,-206.87 396.68,-217.45"/>
<polygon fill="none" stroke="black" points="395.02,-220.53 405.46,-222.31 398.41,-214.4 395.02,-220.53"/>
</g>
<!-- QMCSoftware.qmcpy.true_measure.kumaraswamy.Kumaraswamy -->
<g id="node7" class="node">
<title>QMCSoftware.qmcpy.true_measure.kumaraswamy.Kumaraswamy</title>
<polygon fill="none" stroke="black" points="375.5,-148.5 375.5,-184.5 497.5,-184.5 497.5,-148.5 375.5,-148.5"/>
<text text-anchor="start" x="383.5" y="-162.8" font-family="Times,serif" font-size="14.00">Kumaraswamy</text>
</g>
<!-- QMCSoftware.qmcpy.true_measure.kumaraswamy.Kumaraswamy&#45;&gt;QMCSoftware.qmcpy.true_measure.abstract_true_measure.AbstractTrueMeasure -->
<g id="edge6" class="edge">
<title>QMCSoftware.qmcpy.true_measure.kumaraswamy.Kumaraswamy&#45;&gt;QMCSoftware.qmcpy.true_measure.abstract_true_measure.AbstractTrueMeasure</title>
<path fill="none" stroke="black" d="M436.5,-184.56C436.5,-192.69 436.5,-202.62 436.5,-211.8"/>
<polygon fill="none" stroke="black" points="433,-212.06 436.5,-222.06 440,-212.06 433,-212.06"/>
</g>
<!-- QMCSoftware.qmcpy.true_measure.lebesgue.Lebesgue -->
<g id="node8" class="node">
<title>QMCSoftware.qmcpy.true_measure.lebesgue.Lebesgue</title>
<polygon fill="none" stroke="black" points="516,-148.5 516,-184.5 601,-184.5 601,-148.5 516,-148.5"/>
<text text-anchor="start" x="524" y="-162.8" font-family="Times,serif" font-size="14.00">Lebesgue</text>
</g>
<!-- QMCSoftware.qmcpy.true_measure.lebesgue.Lebesgue&#45;&gt;QMCSoftware.qmcpy.true_measure.abstract_true_measure.AbstractTrueMeasure -->
<g id="edge7" class="edge">
<title>QMCSoftware.qmcpy.true_measure.lebesgue.Lebesgue&#45;&gt;QMCSoftware.qmcpy.true_measure.abstract_true_measure.AbstractTrueMeasure</title>
<path fill="none" stroke="black" d="M529.59,-184.56C513.15,-194.27 492.36,-206.53 474.6,-217.02"/>
<polygon fill="none" stroke="black" points="472.46,-214.21 465.63,-222.31 476.02,-220.24 472.46,-214.21"/>
</g>
<!-- QMCSoftware.qmcpy.true_measure.matern_gp.MaternGP -->
<g id="node9" class="node">
<title>QMCSoftware.qmcpy.true_measure.matern_gp.MaternGP</title>
<polygon fill="none" stroke="black" points="190.5,-74.5 190.5,-110.5 280.5,-110.5 280.5,-74.5 190.5,-74.5"/>
<text text-anchor="start" x="198.5" y="-88.8" font-family="Times,serif" font-size="14.00">MaternGP</text>
</g>
<!-- QMCSoftware.qmcpy.true_measure.matern_gp.MaternGP&#45;&gt;QMCSoftware.qmcpy.true_measure.gaussian.Gaussian -->
<g id="edge8" class="edge">
<title>QMCSoftware.qmcpy.true_measure.matern_gp.MaternGP&#45;&gt;QMCSoftware.qmcpy.true_measure.gaussian.Gaussian</title>
<path fill="none" stroke="black" d="M226.26,-110.56C221.66,-119.05 216,-129.49 210.86,-138.99"/>
<polygon fill="none" stroke="black" points="207.63,-137.6 205.95,-148.06 213.79,-140.93 207.63,-137.6"/>
</g>
<!-- QMCSoftware.qmcpy.true_measure.scipy_wrapper.SciPyWrapper -->
<g id="node10" class="node">
<title>QMCSoftware.qmcpy.true_measure.scipy_wrapper.SciPyWrapper</title>
<polygon fill="none" stroke="black" points="619.5,-148.5 619.5,-184.5 737.5,-184.5 737.5,-148.5 619.5,-148.5"/>
<text text-anchor="start" x="627.5" y="-162.8" font-family="Times,serif" font-size="14.00">SciPyWrapper</text>
</g>
<!-- QMCSoftware.qmcpy.true_measure.scipy_wrapper.SciPyWrapper&#45;&gt;QMCSoftware.qmcpy.true_measure.abstract_true_measure.AbstractTrueMeasure -->
<g id="edge9" class="edge">
<title>QMCSoftware.qmcpy.true_measure.scipy_wrapper.SciPyWrapper&#45;&gt;QMCSoftware.qmcpy.true_measure.abstract_true_measure.AbstractTrueMeasure</title>
<path fill="none" stroke="black" d="M621.15,-184.56C585.87,-195.06 540.49,-208.56 503.55,-219.55"/>
<polygon fill="none" stroke="black" points="502.44,-216.23 493.86,-222.43 504.44,-222.94 502.44,-216.23"/>
</g>
<!-- QMCSoftware.qmcpy.true_measure.uniform.Uniform -->
<g id="node11" class="node">
<title>QMCSoftware.qmcpy.true_measure.uniform.Uniform</title>
<polygon fill="none" stroke="black" points="755.5,-148.5 755.5,-184.5 831.5,-184.5 831.5,-148.5 755.5,-148.5"/>
<text text-anchor="start" x="763.5" y="-162.8" font-family="Times,serif" font-size="14.00">Uniform</text>
</g>
<!-- QMCSoftware.qmcpy.true_measure.uniform.Uniform&#45;&gt;QMCSoftware.qmcpy.true_measure.abstract_true_measure.AbstractTrueMeasure -->
<g id="edge10" class="edge">
<title>QMCSoftware.qmcpy.true_measure.uniform.Uniform&#45;&gt;QMCSoftware.qmcpy.true_measure.abstract_true_measure.AbstractTrueMeasure</title>
<path fill="none" stroke="black" d="M755.47,-182.32C752.46,-183.29 749.44,-184.2 746.5,-185 676.19,-204.1 595.03,-218.09 533.39,-227.11"/>
<polygon fill="none" stroke="black" points="532.68,-223.67 523.29,-228.57 533.69,-230.6 532.68,-223.67"/>
</g>
</g>
</svg>
