<?xml version="1.0" encoding="UTF-8" standalone="no"?>
<!DOCTYPE svg PUBLIC "-//W3C//DTD SVG 1.1//EN"
 "http://www.w3.org/Graphics/SVG/1.1/DTD/svg11.dtd">
<!-- Generated by graphviz version 2.43.0 (0)
 -->
<!-- Title: classes Pages: 1 -->
<svg width="1685pt" height="909pt"
 viewBox="0.00 0.00 1684.50 909.00" xmlns="http://www.w3.org/2000/svg" xmlns:xlink="http://www.w3.org/1999/xlink">
<g id="graph0" class="graph" transform="scale(1 1) rotate(0) translate(4 905)">
<title>classes</title>
<polygon fill="white" stroke="transparent" points="-4,4 -4,-905 1680.5,-905 1680.5,4 -4,4"/>
<!-- QMCSoftware.qmcpy.true_measure.abstract_true_measure.AbstractTrueMeasure -->
<g id="node1" class="node">
<title>QMCSoftware.qmcpy.true_measure.abstract_true_measure.AbstractTrueMeasure</title>
<polygon fill="none" stroke="black" points="610.5,-756.5 610.5,-900.5 1007.5,-900.5 1007.5,-756.5 610.5,-756.5"/>
<text text-anchor="start" x="730.5" y="-885.3" font-family="Times,serif" font-size="14.00">AbstractTrueMeasure</text>
<polyline fill="none" stroke="black" points="610.5,-877.5 1007.5,-877.5 "/>
<text text-anchor="start" x="702" y="-862.3" font-family="Times,serif" font-size="14.00">d</text>
<text text-anchor="start" x="702" y="-847.3" font-family="Times,serif" font-size="14.00">discrete_distrib</text>
<text text-anchor="start" x="702" y="-832.3" font-family="Times,serif" font-size="14.00">parameters : list</text>
<text text-anchor="start" x="702" y="-817.3" font-family="Times,serif" font-size="14.00">sub_compatibility_error : bool</text>
<text text-anchor="start" x="702" y="-802.3" font-family="Times,serif" font-size="14.00">transform</text>
<polyline fill="none" stroke="black" points="610.5,-794.5 1007.5,-794.5 "/>
<text text-anchor="start" x="618.5" y="-779.3" font-family="Times,serif" font-size="14.00">gen_samples(n, n_min, n_max, return_weights, warn)</text>
<text text-anchor="start" x="618.5" y="-764.3" font-family="Times,serif" font-size="14.00">spawn(s, dimensions)</text>
</g>
<!-- QMCSoftware.qmcpy.true_measure.abstract_true_measure.AbstractTrueMeasure&#45;&gt;QMCSoftware.qmcpy.true_measure.abstract_true_measure.AbstractTrueMeasure -->
<g id="edge15" class="edge">
<title>QMCSoftware.qmcpy.true_measure.abstract_true_measure.AbstractTrueMeasure&#45;&gt;QMCSoftware.qmcpy.true_measure.abstract_true_measure.AbstractTrueMeasure</title>
<path fill="none" stroke="black" d="M1007.66,-817.11C1018.84,-819.87 1025.5,-823.67 1025.5,-828.5 1025.5,-831.29 1023.27,-833.74 1019.23,-835.84"/>
<polygon fill="none" stroke="black" points="1018.99,-835.93 1014.64,-841.68 1007.66,-839.89 1012.01,-834.13 1018.99,-835.93"/>
<text text-anchor="middle" x="1061.5" y="-824.8" font-family="Times,serif" font-size="14.00" fill="green">transform</text>
</g>
<!-- QMCSoftware.qmcpy.true_measure.bernoulli_cont.BernoulliCont -->
<g id="node2" class="node">
<title>QMCSoftware.qmcpy.true_measure.bernoulli_cont.BernoulliCont</title>
<polygon fill="none" stroke="black" points="256.5,-544.5 256.5,-673.5 395.5,-673.5 395.5,-544.5 256.5,-544.5"/>
<text text-anchor="start" x="276" y="-658.3" font-family="Times,serif" font-size="14.00">BernoulliCont</text>
<polyline fill="none" stroke="black" points="256.5,-650.5 395.5,-650.5 "/>
<text text-anchor="start" x="264.5" y="-635.3" font-family="Times,serif" font-size="14.00">domain : ndarray</text>
<text text-anchor="start" x="264.5" y="-620.3" font-family="Times,serif" font-size="14.00">l : ndarray</text>
<text text-anchor="start" x="264.5" y="-605.3" font-family="Times,serif" font-size="14.00">lam : float</text>
<text text-anchor="start" x="264.5" y="-590.3" font-family="Times,serif" font-size="14.00">parameters : list</text>
<text text-anchor="start" x="264.5" y="-575.3" font-family="Times,serif" font-size="14.00">range : ndarray</text>
<polyline fill="none" stroke="black" points="256.5,-567.5 395.5,-567.5 "/>
<text text-anchor="start" x="323.5" y="-552.3" font-family="Times,serif" font-size="14.00"> </text>
</g>
<!-- QMCSoftware.qmcpy.true_measure.bernoulli_cont.BernoulliCont&#45;&gt;QMCSoftware.qmcpy.true_measure.abstract_true_measure.AbstractTrueMeasure -->
<g id="edge1" class="edge">
<title>QMCSoftware.qmcpy.true_measure.bernoulli_cont.BernoulliCont&#45;&gt;QMCSoftware.qmcpy.true_measure.abstract_true_measure.AbstractTrueMeasure</title>
<path fill="none" stroke="black" d="M360.54,-673.58C372.36,-690.44 386.97,-707.21 404,-719 461.75,-759 533.51,-784.26 600.52,-800.21"/>
<polygon fill="none" stroke="black" points="599.83,-803.64 610.37,-802.49 601.42,-796.82 599.83,-803.64"/>
</g>
<!-- QMCSoftware.qmcpy.true_measure.brownian_motion.BrownianMotion -->
<g id="node3" class="node">
<title>QMCSoftware.qmcpy.true_measure.brownian_motion.BrownianMotion</title>
<polygon fill="none" stroke="black" points="253.5,-257.5 253.5,-461.5 438.5,-461.5 438.5,-257.5 253.5,-257.5"/>
<text text-anchor="start" x="286.5" y="-446.3" font-family="Times,serif" font-size="14.00">BrownianMotion</text>
<polyline fill="none" stroke="black" points="253.5,-438.5 438.5,-438.5 "/>
<text text-anchor="start" x="261.5" y="-423.3" font-family="Times,serif" font-size="14.00">diffused_sigma_bm</text>
<text text-anchor="start" x="261.5" y="-408.3" font-family="Times,serif" font-size="14.00">diffusion : int</text>
<text text-anchor="start" x="261.5" y="-393.3" font-family="Times,serif" font-size="14.00">domain : ndarray</text>
<text text-anchor="start" x="261.5" y="-378.3" font-family="Times,serif" font-size="14.00">drift : int</text>
<text text-anchor="start" x="261.5" y="-363.3" font-family="Times,serif" font-size="14.00">drift_time_vec_plus_init</text>
<text text-anchor="start" x="261.5" y="-348.3" font-family="Times,serif" font-size="14.00">initial_value : int</text>
<text text-anchor="start" x="261.5" y="-333.3" font-family="Times,serif" font-size="14.00">parameters : list</text>
<text text-anchor="start" x="261.5" y="-318.3" font-family="Times,serif" font-size="14.00">range : ndarray</text>
<text text-anchor="start" x="261.5" y="-303.3" font-family="Times,serif" font-size="14.00">t : int</text>
<text text-anchor="start" x="261.5" y="-288.3" font-family="Times,serif" font-size="14.00">time_vec : ndarray</text>
<polyline fill="none" stroke="black" points="253.5,-280.5 438.5,-280.5 "/>
<text text-anchor="start" x="343.5" y="-265.3" font-family="Times,serif" font-size="14.00"> </text>
</g>
<!-- QMCSoftware.qmcpy.true_measure.gaussian.Gaussian -->
<g id="node4" class="node">
<title>QMCSoftware.qmcpy.true_measure.gaussian.Gaussian</title>
<polygon fill="none" stroke="black" points="413.5,-499.5 413.5,-718.5 564.5,-718.5 564.5,-499.5 413.5,-499.5"/>
<text text-anchor="start" x="456" y="-703.3" font-family="Times,serif" font-size="14.00">Gaussian</text>
<polyline fill="none" stroke="black" points="413.5,-695.5 564.5,-695.5 "/>
<text text-anchor="start" x="421.5" y="-680.3" font-family="Times,serif" font-size="14.00">a</text>
<text text-anchor="start" x="421.5" y="-665.3" font-family="Times,serif" font-size="14.00">covariance</text>
<text text-anchor="start" x="421.5" y="-650.3" font-family="Times,serif" font-size="14.00">decomp_type</text>
<text text-anchor="start" x="421.5" y="-635.3" font-family="Times,serif" font-size="14.00">domain : ndarray</text>
<text text-anchor="start" x="421.5" y="-620.3" font-family="Times,serif" font-size="14.00">lazy_decomp : bool</text>
<text text-anchor="start" x="421.5" y="-605.3" font-family="Times,serif" font-size="14.00">mean</text>
<text text-anchor="start" x="421.5" y="-590.3" font-family="Times,serif" font-size="14.00">mu : ndarray</text>
<text text-anchor="start" x="421.5" y="-575.3" font-family="Times,serif" font-size="14.00">mvn_scipy</text>
<text text-anchor="start" x="421.5" y="-560.3" font-family="Times,serif" font-size="14.00">parameters : list</text>
<text text-anchor="start" x="421.5" y="-545.3" font-family="Times,serif" font-size="14.00">range : ndarray</text>
<text text-anchor="start" x="421.5" y="-530.3" font-family="Times,serif" font-size="14.00">sigma : ndarray</text>
<polyline fill="none" stroke="black" points="413.5,-522.5 564.5,-522.5 "/>
<text text-anchor="start" x="486.5" y="-507.3" font-family="Times,serif" font-size="14.00"> </text>
</g>
<!-- QMCSoftware.qmcpy.true_measure.brownian_motion.BrownianMotion&#45;&gt;QMCSoftware.qmcpy.true_measure.gaussian.Gaussian -->
<g id="edge2" class="edge">
<title>QMCSoftware.qmcpy.true_measure.brownian_motion.BrownianMotion&#45;&gt;QMCSoftware.qmcpy.true_measure.gaussian.Gaussian</title>
<path fill="none" stroke="black" d="M404.37,-461.52C409.87,-471.04 415.47,-480.75 421.05,-490.4"/>
<polygon fill="none" stroke="black" points="418.13,-492.33 426.16,-499.24 424.19,-488.83 418.13,-492.33"/>
</g>
<!-- QMCSoftware.qmcpy.true_measure.gaussian.Gaussian&#45;&gt;QMCSoftware.qmcpy.true_measure.abstract_true_measure.AbstractTrueMeasure -->
<g id="edge3" class="edge">
<title>QMCSoftware.qmcpy.true_measure.gaussian.Gaussian&#45;&gt;QMCSoftware.qmcpy.true_measure.abstract_true_measure.AbstractTrueMeasure</title>
<path fill="none" stroke="black" d="M564.72,-711.99C567.43,-714.42 570.2,-716.77 573,-719 587.72,-730.72 603.91,-741.51 620.7,-751.35"/>
<polygon fill="none" stroke="black" points="619.11,-754.47 629.53,-756.41 622.59,-748.4 619.11,-754.47"/>
</g>
<!-- QMCSoftware.qmcpy.true_measure.geometric_brownian_motion.GeometricBrownianMotion -->
<g id="node5" class="node">
<title>QMCSoftware.qmcpy.true_measure.geometric_brownian_motion.GeometricBrownianMotion</title>
<polygon fill="none" stroke="black" points="0,-0.5 0,-219.5 692,-219.5 692,-0.5 0,-0.5"/>
<text text-anchor="start" x="249.5" y="-204.3" font-family="Times,serif" font-size="14.00">GeometricBrownianMotion</text>
<polyline fill="none" stroke="black" points="0,-196.5 692,-196.5 "/>
<text text-anchor="start" x="223" y="-181.3" font-family="Times,serif" font-size="14.00">covariance_gbm</text>
<text text-anchor="start" x="223" y="-166.3" font-family="Times,serif" font-size="14.00">diffusion : int</text>
<text text-anchor="start" x="223" y="-151.3" font-family="Times,serif" font-size="14.00">drift : int</text>
<text text-anchor="start" x="223" y="-136.3" font-family="Times,serif" font-size="14.00">initial_value : int</text>
<text text-anchor="start" x="223" y="-121.3" font-family="Times,serif" font-size="14.00">large_step_threshold : int</text>
<text text-anchor="start" x="223" y="-106.3" font-family="Times,serif" font-size="14.00">lazy_decomp : bool</text>
<text text-anchor="start" x="223" y="-91.3" font-family="Times,serif" font-size="14.00">lazy_load : bool</text>
<text text-anchor="start" x="223" y="-76.3" font-family="Times,serif" font-size="14.00">log_mvn_scipy</text>
<text text-anchor="start" x="223" y="-61.3" font-family="Times,serif" font-size="14.00">mean_gbm</text>
<text text-anchor="start" x="223" y="-46.3" font-family="Times,serif" font-size="14.00">parameters : list</text>
<text text-anchor="start" x="223" y="-31.3" font-family="Times,serif" font-size="14.00">use_large_step_optimization : bool</text>
<polyline fill="none" stroke="black" points="0,-23.5 692,-23.5 "/>
<text text-anchor="start" x="8" y="-8.3" font-family="Times,serif" font-size="14.00">gen_samples(n, n_min, n_max, return_weights, warn): Union[ndarray, Tuple[ndarray, ndarray]]</text>
</g>
<!-- QMCSoftware.qmcpy.true_measure.geometric_brownian_motion.GeometricBrownianMotion&#45;&gt;QMCSoftware.qmcpy.true_measure.brownian_motion.BrownianMotion -->
<g id="edge4" class="edge">
<title>QMCSoftware.qmcpy.true_measure.geometric_brownian_motion.GeometricBrownianMotion&#45;&gt;QMCSoftware.qmcpy.true_measure.brownian_motion.BrownianMotion</title>
<path fill="none" stroke="black" d="M346,-219.56C346,-228.81 346,-238.18 346,-247.45"/>
<polygon fill="none" stroke="black" points="342.5,-247.46 346,-257.46 349.5,-247.46 342.5,-247.46"/>
</g>
<!-- QMCSoftware.qmcpy.true_measure.johnsons_su.JohnsonsSU -->
<g id="node6" class="node">
<title>QMCSoftware.qmcpy.true_measure.johnsons_su.JohnsonsSU</title>
<polygon fill="none" stroke="black" points="582.5,-529.5 582.5,-688.5 721.5,-688.5 721.5,-529.5 582.5,-529.5"/>
<text text-anchor="start" x="609" y="-673.3" font-family="Times,serif" font-size="14.00">JohnsonsSU</text>
<polyline fill="none" stroke="black" points="582.5,-665.5 721.5,-665.5 "/>
<text text-anchor="start" x="590.5" y="-650.3" font-family="Times,serif" font-size="14.00">delta : int</text>
<text text-anchor="start" x="590.5" y="-635.3" font-family="Times,serif" font-size="14.00">domain : ndarray</text>
<text text-anchor="start" x="590.5" y="-620.3" font-family="Times,serif" font-size="14.00">gamma : int</text>
<text text-anchor="start" x="590.5" y="-605.3" font-family="Times,serif" font-size="14.00">lam : int</text>
<text text-anchor="start" x="590.5" y="-590.3" font-family="Times,serif" font-size="14.00">parameters : list</text>
<text text-anchor="start" x="590.5" y="-575.3" font-family="Times,serif" font-size="14.00">range : ndarray</text>
<text text-anchor="start" x="590.5" y="-560.3" font-family="Times,serif" font-size="14.00">xi : int</text>
<polyline fill="none" stroke="black" points="582.5,-552.5 721.5,-552.5 "/>
<text text-anchor="start" x="649.5" y="-537.3" font-family="Times,serif" font-size="14.00"> </text>
</g>
<!-- QMCSoftware.qmcpy.true_measure.johnsons_su.JohnsonsSU&#45;&gt;QMCSoftware.qmcpy.true_measure.abstract_true_measure.AbstractTrueMeasure -->
<g id="edge5" class="edge">
<title>QMCSoftware.qmcpy.true_measure.johnsons_su.JohnsonsSU&#45;&gt;QMCSoftware.qmcpy.true_measure.abstract_true_measure.AbstractTrueMeasure</title>
<path fill="none" stroke="black" d="M708.16,-688.64C715.49,-698.87 722.92,-709.19 730,-719 736.82,-728.45 743.99,-738.34 751.11,-748.15"/>
<polygon fill="none" stroke="black" points="748.36,-750.32 757.07,-756.36 754.03,-746.21 748.36,-750.32"/>
</g>
<!-- QMCSoftware.qmcpy.true_measure.kumaraswamy.Kumaraswamy -->
<g id="node7" class="node">
<title>QMCSoftware.qmcpy.true_measure.kumaraswamy.Kumaraswamy</title>
<polygon fill="none" stroke="black" points="739.5,-529.5 739.5,-688.5 878.5,-688.5 878.5,-529.5 739.5,-529.5"/>
<text text-anchor="start" x="756" y="-673.3" font-family="Times,serif" font-size="14.00">Kumaraswamy</text>
<polyline fill="none" stroke="black" points="739.5,-665.5 878.5,-665.5 "/>
<text text-anchor="start" x="747.5" y="-650.3" font-family="Times,serif" font-size="14.00">a : int</text>
<text text-anchor="start" x="747.5" y="-635.3" font-family="Times,serif" font-size="14.00">alpha : ndarray</text>
<text text-anchor="start" x="747.5" y="-620.3" font-family="Times,serif" font-size="14.00">b : int</text>
<text text-anchor="start" x="747.5" y="-605.3" font-family="Times,serif" font-size="14.00">beta : ndarray</text>
<text text-anchor="start" x="747.5" y="-590.3" font-family="Times,serif" font-size="14.00">domain : ndarray</text>
<text text-anchor="start" x="747.5" y="-575.3" font-family="Times,serif" font-size="14.00">parameters : list</text>
<text text-anchor="start" x="747.5" y="-560.3" font-family="Times,serif" font-size="14.00">range : ndarray</text>
<polyline fill="none" stroke="black" points="739.5,-552.5 878.5,-552.5 "/>
<text text-anchor="start" x="806.5" y="-537.3" font-family="Times,serif" font-size="14.00"> </text>
</g>
<!-- QMCSoftware.qmcpy.true_measure.kumaraswamy.Kumaraswamy&#45;&gt;QMCSoftware.qmcpy.true_measure.abstract_true_measure.AbstractTrueMeasure -->
<g id="edge6" class="edge">
<title>QMCSoftware.qmcpy.true_measure.kumaraswamy.Kumaraswamy&#45;&gt;QMCSoftware.qmcpy.true_measure.abstract_true_measure.AbstractTrueMeasure</title>
<path fill="none" stroke="black" d="M809,-688.52C809,-707.29 809,-727.37 809,-746.26"/>
<polygon fill="none" stroke="black" points="805.5,-746.32 809,-756.32 812.5,-746.32 805.5,-746.32"/>
</g>
<!-- QMCSoftware.qmcpy.true_measure.lebesgue.Lebesgue -->
<g id="node8" class="node">
<title>QMCSoftware.qmcpy.true_measure.lebesgue.Lebesgue</title>
<polygon fill="none" stroke="black" points="896.5,-559.5 896.5,-658.5 1031.5,-658.5 1031.5,-559.5 896.5,-559.5"/>
<text text-anchor="start" x="929.5" y="-643.3" font-family="Times,serif" font-size="14.00">Lebesgue</text>
<polyline fill="none" stroke="black" points="896.5,-635.5 1031.5,-635.5 "/>
<text text-anchor="start" x="904.5" y="-620.3" font-family="Times,serif" font-size="14.00">domain</text>
<text text-anchor="start" x="904.5" y="-605.3" font-family="Times,serif" font-size="14.00">parameters : list</text>
<text text-anchor="start" x="904.5" y="-590.3" font-family="Times,serif" font-size="14.00">range</text>
<polyline fill="none" stroke="black" points="896.5,-582.5 1031.5,-582.5 "/>
<text text-anchor="start" x="961.5" y="-567.3" font-family="Times,serif" font-size="14.00"> </text>
</g>
<!-- QMCSoftware.qmcpy.true_measure.lebesgue.Lebesgue&#45;&gt;QMCSoftware.qmcpy.true_measure.abstract_true_measure.AbstractTrueMeasure -->
<g id="edge7" class="edge">
<title>QMCSoftware.qmcpy.true_measure.lebesgue.Lebesgue&#45;&gt;QMCSoftware.qmcpy.true_measure.abstract_true_measure.AbstractTrueMeasure</title>
<path fill="none" stroke="black" d="M929.78,-658.62C916.46,-677.5 901.05,-699.28 887,-719 880.27,-728.45 873.19,-738.34 866.16,-748.15"/>
<polygon fill="none" stroke="black" points="863.26,-746.19 860.27,-756.36 868.94,-750.27 863.26,-746.19"/>
</g>
<!-- QMCSoftware.qmcpy.true_measure.matern_gp.MaternGP -->
<g id="node9" class="node">
<title>QMCSoftware.qmcpy.true_measure.matern_gp.MaternGP</title>
<polygon fill="none" stroke="black" points="456.5,-302.5 456.5,-416.5 631.5,-416.5 631.5,-302.5 456.5,-302.5"/>
<text text-anchor="start" x="507" y="-401.3" font-family="Times,serif" font-size="14.00">MaternGP</text>
<polyline fill="none" stroke="black" points="456.5,-393.5 631.5,-393.5 "/>
<text text-anchor="start" x="464.5" y="-378.3" font-family="Times,serif" font-size="14.00">length_scale : ndarray</text>
<text text-anchor="start" x="464.5" y="-363.3" font-family="Times,serif" font-size="14.00">nu : float</text>
<text text-anchor="start" x="464.5" y="-348.3" font-family="Times,serif" font-size="14.00">points</text>
<text text-anchor="start" x="464.5" y="-333.3" font-family="Times,serif" font-size="14.00">variance : float</text>
<polyline fill="none" stroke="black" points="456.5,-325.5 631.5,-325.5 "/>
<text text-anchor="start" x="541.5" y="-310.3" font-family="Times,serif" font-size="14.00"> </text>
</g>
<!-- QMCSoftware.qmcpy.true_measure.matern_gp.MaternGP&#45;&gt;QMCSoftware.qmcpy.true_measure.gaussian.Gaussian -->
<g id="edge8" class="edge">
<title>QMCSoftware.qmcpy.true_measure.matern_gp.MaternGP&#45;&gt;QMCSoftware.qmcpy.true_measure.gaussian.Gaussian</title>
<path fill="none" stroke="black" d="M531.52,-416.66C526.71,-438.32 521.01,-463.96 515.37,-489.31"/>
<polygon fill="none" stroke="black" points="511.89,-488.87 513.14,-499.39 518.72,-490.38 511.89,-488.87"/>
</g>
<!-- QMCSoftware.qmcpy.true_measure.scipy_wrapper.SciPyWrapper -->
<g id="node10" class="node">
<title>QMCSoftware.qmcpy.true_measure.scipy_wrapper.SciPyWrapper</title>
<polygon fill="none" stroke="black" points="1049.5,-559.5 1049.5,-658.5 1188.5,-658.5 1188.5,-559.5 1049.5,-559.5"/>
<text text-anchor="start" x="1068" y="-643.3" font-family="Times,serif" font-size="14.00">SciPyWrapper</text>
<polyline fill="none" stroke="black" points="1049.5,-635.5 1188.5,-635.5 "/>
<text text-anchor="start" x="1057.5" y="-620.3" font-family="Times,serif" font-size="14.00">domain : ndarray</text>
<text text-anchor="start" x="1057.5" y="-605.3" font-family="Times,serif" font-size="14.00">range</text>
<text text-anchor="start" x="1057.5" y="-590.3" font-family="Times,serif" font-size="14.00">sds : list</text>
<polyline fill="none" stroke="black" points="1049.5,-582.5 1188.5,-582.5 "/>
<text text-anchor="start" x="1116.5" y="-567.3" font-family="Times,serif" font-size="14.00"> </text>
</g>
<!-- QMCSoftware.qmcpy.true_measure.scipy_wrapper.SciPyWrapper&#45;&gt;QMCSoftware.qmcpy.true_measure.abstract_true_measure.AbstractTrueMeasure -->
<g id="edge9" class="edge">
<title>QMCSoftware.qmcpy.true_measure.scipy_wrapper.SciPyWrapper&#45;&gt;QMCSoftware.qmcpy.true_measure.abstract_true_measure.AbstractTrueMeasure</title>
<path fill="none" stroke="black" d="M1091.45,-658.55C1077.96,-679.16 1060.26,-702.24 1040,-719 1025.96,-730.62 1010.47,-741.31 994.35,-751.06"/>
<polygon fill="none" stroke="black" points="992.17,-748.28 985.34,-756.38 995.73,-754.31 992.17,-748.28"/>
</g>
<!-- QMCSoftware.qmcpy.true_measure.student_t.StudentT -->
<g id="node11" class="node">
<title>QMCSoftware.qmcpy.true_measure.student_t.StudentT</title>
<polygon fill="none" stroke="black" points="905.5,-324.1 905.5,-394.9 988.5,-394.9 988.5,-324.1 905.5,-324.1"/>
<text text-anchor="start" x="913.5" y="-379.7" font-family="Times,serif" font-size="14.00">StudentT</text>
<polyline fill="none" stroke="black" points="905.5,-371.9 988.5,-371.9 "/>
<polyline fill="none" stroke="black" points="905.5,-347.1 988.5,-347.1 "/>
<text text-anchor="start" x="944.5" y="-331.9" font-family="Times,serif" font-size="14.00"> </text>
</g>
<!-- QMCSoftware.qmcpy.true_measure.student_t.StudentT&#45;&gt;QMCSoftware.qmcpy.true_measure.scipy_wrapper.SciPyWrapper -->
<g id="edge10" class="edge">
<title>QMCSoftware.qmcpy.true_measure.student_t.StudentT&#45;&gt;QMCSoftware.qmcpy.true_measure.scipy_wrapper.SciPyWrapper</title>
<path fill="none" stroke="black" d="M960.52,-395.31C969.43,-415.84 982.34,-441.7 998,-462 1013.2,-481.7 1023.26,-480.59 1040,-499 1054.52,-514.98 1068.85,-533.62 1081.24,-550.92"/>
<polygon fill="none" stroke="black" points="1078.52,-553.14 1087.15,-559.28 1084.24,-549.1 1078.52,-553.14"/>
</g>
<!-- QMCSoftware.qmcpy.true_measure.triangular.Triangular -->
<g id="node12" class="node">
<title>QMCSoftware.qmcpy.true_measure.triangular.Triangular</title>
<polygon fill="none" stroke="black" points="1007,-324.1 1007,-394.9 1099,-394.9 1099,-324.1 1007,-324.1"/>
<text text-anchor="start" x="1015" y="-379.7" font-family="Times,serif" font-size="14.00">Triangular</text>
<polyline fill="none" stroke="black" points="1007,-371.9 1099,-371.9 "/>
<polyline fill="none" stroke="black" points="1007,-347.1 1099,-347.1 "/>
<text text-anchor="start" x="1050.5" y="-331.9" font-family="Times,serif" font-size="14.00"> </text>
</g>
<!-- QMCSoftware.qmcpy.true_measure.triangular.Triangular&#45;&gt;QMCSoftware.qmcpy.true_measure.scipy_wrapper.SciPyWrapper -->
<g id="edge11" class="edge">
<title>QMCSoftware.qmcpy.true_measure.triangular.Triangular&#45;&gt;QMCSoftware.qmcpy.true_measure.scipy_wrapper.SciPyWrapper</title>
<path fill="none" stroke="black" d="M1062.18,-394.91C1072.85,-434.93 1090.63,-501.62 1103.47,-549.75"/>
<polygon fill="none" stroke="black" points="1100.09,-550.66 1106.04,-559.42 1106.85,-548.85 1100.09,-550.66"/>
</g>
<!-- QMCSoftware.qmcpy.true_measure.triangular.TriangularDistribution -->
<g id="node13" class="node">
<title>QMCSoftware.qmcpy.true_measure.triangular.TriangularDistribution</title>
<polygon fill="none" stroke="black" points="710,-53 710,-167 888,-167 888,-53 710,-53"/>
<text text-anchor="start" x="718" y="-151.8" font-family="Times,serif" font-size="14.00">TriangularDistribution</text>
<polyline fill="none" stroke="black" points="710,-144 888,-144 "/>
<text text-anchor="start" x="758" y="-128.8" font-family="Times,serif" font-size="14.00">c : float</text>
<text text-anchor="start" x="758" y="-113.8" font-family="Times,serif" font-size="14.00">loc : float</text>
<text text-anchor="start" x="758" y="-98.8" font-family="Times,serif" font-size="14.00">scale : float</text>
<polyline fill="none" stroke="black" points="710,-91 888,-91 "/>
<text text-anchor="start" x="777.5" y="-75.8" font-family="Times,serif" font-size="14.00">pdf(x)</text>
<text text-anchor="start" x="777.5" y="-60.8" font-family="Times,serif" font-size="14.00">ppf(u)</text>
</g>
<!-- QMCSoftware.qmcpy.true_measure.uniform.Uniform -->
<g id="node14" class="node">
<title>QMCSoftware.qmcpy.true_measure.uniform.Uniform</title>
<polygon fill="none" stroke="black" points="1206.5,-514.5 1206.5,-703.5 1349.5,-703.5 1349.5,-514.5 1206.5,-514.5"/>
<text text-anchor="start" x="1248" y="-688.3" font-family="Times,serif" font-size="14.00">Uniform</text>
<polyline fill="none" stroke="black" points="1206.5,-680.5 1349.5,-680.5 "/>
<text text-anchor="start" x="1214.5" y="-665.3" font-family="Times,serif" font-size="14.00">a : ndarray</text>
<text text-anchor="start" x="1214.5" y="-650.3" font-family="Times,serif" font-size="14.00">b : ndarray</text>
<text text-anchor="start" x="1214.5" y="-635.3" font-family="Times,serif" font-size="14.00">delta : ndarray</text>
<text text-anchor="start" x="1214.5" y="-620.3" font-family="Times,serif" font-size="14.00">domain : ndarray</text>
<text text-anchor="start" x="1214.5" y="-605.3" font-family="Times,serif" font-size="14.00">inv_delta_prod</text>
<text text-anchor="start" x="1214.5" y="-590.3" font-family="Times,serif" font-size="14.00">lower_bound : int</text>
<text text-anchor="start" x="1214.5" y="-575.3" font-family="Times,serif" font-size="14.00">parameters : list</text>
<text text-anchor="start" x="1214.5" y="-560.3" font-family="Times,serif" font-size="14.00">range : list, tuple</text>
<text text-anchor="start" x="1214.5" y="-545.3" font-family="Times,serif" font-size="14.00">upper_bound : int</text>
<polyline fill="none" stroke="black" points="1206.5,-537.5 1349.5,-537.5 "/>
<text text-anchor="start" x="1275.5" y="-522.3" font-family="Times,serif" font-size="14.00"> </text>
</g>
<!-- QMCSoftware.qmcpy.true_measure.uniform.Uniform&#45;&gt;QMCSoftware.qmcpy.true_measure.abstract_true_measure.AbstractTrueMeasure -->
<g id="edge12" class="edge">
<title>QMCSoftware.qmcpy.true_measure.uniform.Uniform&#45;&gt;QMCSoftware.qmcpy.true_measure.abstract_true_measure.AbstractTrueMeasure</title>
<path fill="none" stroke="black" d="M1216.67,-703.5C1210.8,-709.21 1204.57,-714.46 1198,-719 1144.76,-755.8 1079.34,-780.17 1017.44,-796.29"/>
<polygon fill="none" stroke="black" points="1016.36,-792.95 1007.53,-798.8 1018.09,-799.73 1016.36,-792.95"/>
</g>
<!-- QMCSoftware.qmcpy.true_measure.uniform_triangle.UniformTriangle -->
<g id="node15" class="node">
<title>QMCSoftware.qmcpy.true_measure.uniform_triangle.UniformTriangle</title>
<polygon fill="none" stroke="black" points="1117.5,-324.1 1117.5,-394.9 1252.5,-394.9 1252.5,-324.1 1117.5,-324.1"/>
<text text-anchor="start" x="1125.5" y="-379.7" font-family="Times,serif" font-size="14.00">UniformTriangle</text>
<polyline fill="none" stroke="black" points="1117.5,-371.9 1252.5,-371.9 "/>
<polyline fill="none" stroke="black" points="1117.5,-347.1 1252.5,-347.1 "/>
<text text-anchor="start" x="1182.5" y="-331.9" font-family="Times,serif" font-size="14.00"> </text>
</g>
<!-- QMCSoftware.qmcpy.true_measure.uniform_triangle.UniformTriangle&#45;&gt;QMCSoftware.qmcpy.true_measure.scipy_wrapper.SciPyWrapper -->
<g id="edge13" class="edge">
<title>QMCSoftware.qmcpy.true_measure.uniform_triangle.UniformTriangle&#45;&gt;QMCSoftware.qmcpy.true_measure.scipy_wrapper.SciPyWrapper</title>
<path fill="none" stroke="black" d="M1175.82,-394.91C1165.15,-434.93 1147.37,-501.62 1134.53,-549.75"/>
<polygon fill="none" stroke="black" points="1131.15,-548.85 1131.96,-559.42 1137.91,-550.66 1131.15,-548.85"/>
</g>
<!-- QMCSoftware.qmcpy.true_measure.zero_inflated_exp_uniform.ZeroInflatedExpUniform -->
<g id="node16" class="node">
<title>QMCSoftware.qmcpy.true_measure.zero_inflated_exp_uniform.ZeroInflatedExpUniform</title>
<polygon fill="none" stroke="black" points="1270.5,-324.1 1270.5,-394.9 1461.5,-394.9 1461.5,-324.1 1270.5,-324.1"/>
<text text-anchor="start" x="1278.5" y="-379.7" font-family="Times,serif" font-size="14.00">ZeroInflatedExpUniform</text>
<polyline fill="none" stroke="black" points="1270.5,-371.9 1461.5,-371.9 "/>
<polyline fill="none" stroke="black" points="1270.5,-347.1 1461.5,-347.1 "/>
<text text-anchor="start" x="1363.5" y="-331.9" font-family="Times,serif" font-size="14.00"> </text>
</g>
<!-- QMCSoftware.qmcpy.true_measure.zero_inflated_exp_uniform.ZeroInflatedExpUniform&#45;&gt;QMCSoftware.qmcpy.true_measure.scipy_wrapper.SciPyWrapper -->
<g id="edge14" class="edge">
<title>QMCSoftware.qmcpy.true_measure.zero_inflated_exp_uniform.ZeroInflatedExpUniform&#45;&gt;QMCSoftware.qmcpy.true_measure.scipy_wrapper.SciPyWrapper</title>
<path fill="none" stroke="black" d="M1334.67,-395.18C1314.95,-415.92 1288.34,-442.03 1262,-462 1235.82,-481.85 1222.4,-476.99 1198,-499 1181.45,-513.93 1166.26,-532.87 1153.72,-550.76"/>
<polygon fill="none" stroke="black" points="1150.54,-549.2 1147.78,-559.43 1156.32,-553.15 1150.54,-549.2"/>
</g>
<!-- QMCSoftware.qmcpy.true_measure.scipy_wrapper._MVNAdapter -->
<g id="node17" class="node">
<title>QMCSoftware.qmcpy.true_measure.scipy_wrapper._MVNAdapter</title>
<polygon fill="none" stroke="black" points="906,-68 906,-152 1022,-152 1022,-68 906,-68"/>
<text text-anchor="start" x="914" y="-136.8" font-family="Times,serif" font-size="14.00">_MVNAdapter</text>
<polyline fill="none" stroke="black" points="906,-129 1022,-129 "/>
<text text-anchor="start" x="950" y="-113.8" font-family="Times,serif" font-size="14.00">dim</text>
<polyline fill="none" stroke="black" points="906,-106 1022,-106 "/>
<text text-anchor="start" x="918.5" y="-90.8" font-family="Times,serif" font-size="14.00">logpdf(x)</text>
<text text-anchor="start" x="918.5" y="-75.8" font-family="Times,serif" font-size="14.00">transform(u)</text>
</g>
<!-- QMCSoftware.qmcpy.true_measure.student_t._StudentTAdapter -->
<g id="node18" class="node">
<title>QMCSoftware.qmcpy.true_measure.student_t._StudentTAdapter</title>
<polygon fill="none" stroke="black" points="1040,-45.5 1040,-174.5 1186,-174.5 1186,-45.5 1040,-45.5"/>
<text text-anchor="start" x="1048" y="-159.3" font-family="Times,serif" font-size="14.00">_StudentTAdapter</text>
<polyline fill="none" stroke="black" points="1040,-151.5 1186,-151.5 "/>
<text text-anchor="start" x="1083" y="-136.3" font-family="Times,serif" font-size="14.00">df : float</text>
<text text-anchor="start" x="1083" y="-121.3" font-family="Times,serif" font-size="14.00">dim</text>
<text text-anchor="start" x="1083" y="-106.3" font-family="Times,serif" font-size="14.00">loc</text>
<text text-anchor="start" x="1083" y="-91.3" font-family="Times,serif" font-size="14.00">shape</text>
<polyline fill="none" stroke="black" points="1040,-83.5 1186,-83.5 "/>
<text text-anchor="start" x="1067.5" y="-68.3" font-family="Times,serif" font-size="14.00">logpdf(x)</text>
<text text-anchor="start" x="1067.5" y="-53.3" font-family="Times,serif" font-size="14.00">transform(u)</text>
</g>
<!-- QMCSoftware.qmcpy.true_measure.uniform_triangle._UniformTriangleAdapter -->
<g id="node19" class="node">
<title>QMCSoftware.qmcpy.true_measure.uniform_triangle._UniformTriangleAdapter</title>
<polygon fill="none" stroke="black" points="1204.5,-68 1204.5,-152 1403.5,-152 1403.5,-68 1204.5,-68"/>
<text text-anchor="start" x="1212.5" y="-136.8" font-family="Times,serif" font-size="14.00">_UniformTriangleAdapter</text>
<polyline fill="none" stroke="black" points="1204.5,-129 1403.5,-129 "/>
<text text-anchor="start" x="1273.5" y="-113.8" font-family="Times,serif" font-size="14.00">dim : int</text>
<polyline fill="none" stroke="black" points="1204.5,-106 1403.5,-106 "/>
<text text-anchor="start" x="1258.5" y="-90.8" font-family="Times,serif" font-size="14.00">logpdf(x)</text>
<text text-anchor="start" x="1258.5" y="-75.8" font-family="Times,serif" font-size="14.00">transform(u)</text>
</g>
<!-- QMCSoftware.qmcpy.true_measure.zero_inflated_exp_uniform._ZeroInflatedExpUniformAdapter -->
<g id="node20" class="node">
<title>QMCSoftware.qmcpy.true_measure.zero_inflated_exp_uniform._ZeroInflatedExpUniformAdapter</title>
<polygon fill="none" stroke="black" points="1421.5,-53 1421.5,-167 1676.5,-167 1676.5,-53 1421.5,-53"/>
<text text-anchor="start" x="1429.5" y="-151.8" font-family="Times,serif" font-size="14.00">_ZeroInflatedExpUniformAdapter</text>
<polyline fill="none" stroke="black" points="1421.5,-144 1676.5,-144 "/>
<text text-anchor="start" x="1503" y="-128.8" font-family="Times,serif" font-size="14.00">dim : int</text>
<text text-anchor="start" x="1503" y="-113.8" font-family="Times,serif" font-size="14.00">lam : float</text>
<text text-anchor="start" x="1503" y="-98.8" font-family="Times,serif" font-size="14.00">p_zero : float</text>
<text text-anchor="start" x="1503" y="-83.8" font-family="Times,serif" font-size="14.00">y_split : float</text>
<polyline fill="none" stroke="black" points="1421.5,-76 1676.5,-76 "/>
<text text-anchor="start" x="1503.5" y="-60.8" font-family="Times,serif" font-size="14.00">transform(u)</text>
</g>
</g>
</svg>
